M48
; DRILL file {KiCad 7.0.6-7.0.6~ubuntu22.04.1} date Mon 24 Jul 2023 05:29:28 PM MDT
; FORMAT={-:-/ absolute / inch / decimal}
; #@! TF.CreationDate,2023-07-24T17:29:28-06:00
; #@! TF.GenerationSoftware,Kicad,Pcbnew,7.0.6-7.0.6~ubuntu22.04.1
; #@! TF.FileFunction,Plated,1,2,PTH
FMAT,2
INCH
; #@! TA.AperFunction,Plated,PTH,ViaDrill
T1C0.0236
; #@! TA.AperFunction,Plated,PTH,ComponentDrill
T2C0.0394
; #@! TA.AperFunction,Plated,PTH,ComponentDrill
T3C0.0433
; #@! TA.AperFunction,Plated,PTH,ComponentDrill
T4C0.0520
%
G90
G05
T1
X6.0335Y-4.0851
X6.1614Y-3.9173
X6.378Y-4.065
X6.6437Y-4.0059
T2
X5.9035Y-4.2862
X5.9035Y-4.8862
X6.0035Y-4.2862
X6.0035Y-4.8862
X6.1035Y-4.2862
X6.1035Y-4.8862
X6.2035Y-4.2862
X6.2035Y-4.8862
X6.3035Y-4.2862
X6.3035Y-4.8862
X6.4035Y-4.2862
X6.4035Y-4.8862
X6.5035Y-4.2862
X6.5035Y-4.8862
X6.6035Y-4.2862
X6.6035Y-4.8862
X6.7035Y-4.2862
X6.7035Y-4.8862
X6.8035Y-4.2862
X6.8035Y-4.8862
X6.9035Y-4.2862
X6.9035Y-4.8862
X7.0035Y-4.2862
X7.0035Y-4.8862
X7.1035Y-4.2862
X7.1035Y-4.8862
X7.2035Y-4.2862
X7.2035Y-4.8862
X7.3035Y-4.2862
X7.3035Y-4.8862
T3
X4.7736Y-4.5472
X4.7736Y-4.6472
X4.7736Y-4.7472
T4
X4.7041Y-3.8189
X4.7041Y-5.5228
X4.901Y-3.8189
X4.901Y-5.5228
X5.1963Y-5.5228
X5.3931Y-5.5228
X5.748Y-5.5224
X5.9449Y-5.5224
X6.1417Y-5.5224
X6.4272Y-5.522
X6.624Y-5.522
X6.8209Y-5.522
X7.1573Y-5.5217
X7.3541Y-5.5217
X7.551Y-5.5217
X7.9169Y-5.5213
X8.1138Y-5.5213
X8.1693Y-4.5959
X8.1693Y-4.7927
X8.3106Y-5.5213
T0
M30
