%TF.GenerationSoftware,KiCad,Pcbnew,7.0.6-7.0.6~ubuntu22.04.1*%
%TF.CreationDate,2023-07-24T17:29:41-06:00*%
%TF.ProjectId,stepper_microscope_stage,73746570-7065-4725-9f6d-6963726f7363,rev?*%
%TF.SameCoordinates,Original*%
%TF.FileFunction,Copper,L1,Top*%
%TF.FilePolarity,Positive*%
%FSLAX46Y46*%
G04 Gerber Fmt 4.6, Leading zero omitted, Abs format (unit mm)*
G04 Created by KiCad (PCBNEW 7.0.6-7.0.6~ubuntu22.04.1) date 2023-07-24 17:29:41*
%MOMM*%
%LPD*%
G01*
G04 APERTURE LIST*
G04 Aperture macros list*
%AMRoundRect*
0 Rectangle with rounded corners*
0 $1 Rounding radius*
0 $2 $3 $4 $5 $6 $7 $8 $9 X,Y pos of 4 corners*
0 Add a 4 corners polygon primitive as box body*
4,1,4,$2,$3,$4,$5,$6,$7,$8,$9,$2,$3,0*
0 Add four circle primitives for the rounded corners*
1,1,$1+$1,$2,$3*
1,1,$1+$1,$4,$5*
1,1,$1+$1,$6,$7*
1,1,$1+$1,$8,$9*
0 Add four rect primitives between the rounded corners*
20,1,$1+$1,$2,$3,$4,$5,0*
20,1,$1+$1,$4,$5,$6,$7,0*
20,1,$1+$1,$6,$7,$8,$9,0*
20,1,$1+$1,$8,$9,$2,$3,0*%
G04 Aperture macros list end*
%ADD10C,0.250000*%
%TA.AperFunction,NonConductor*%
%ADD11C,0.250000*%
%TD*%
%TA.AperFunction,ComponentPad*%
%ADD12O,1.980000X3.960000*%
%TD*%
%TA.AperFunction,ComponentPad*%
%ADD13R,1.980000X3.960000*%
%TD*%
%TA.AperFunction,ComponentPad*%
%ADD14R,2.000000X1.905000*%
%TD*%
%TA.AperFunction,ComponentPad*%
%ADD15O,2.000000X1.905000*%
%TD*%
%TA.AperFunction,SMDPad,CuDef*%
%ADD16RoundRect,0.150000X-0.150000X-0.700000X0.150000X-0.700000X0.150000X0.700000X-0.150000X0.700000X0*%
%TD*%
%TA.AperFunction,SMDPad,CuDef*%
%ADD17RoundRect,0.250000X-0.250000X-1.150000X0.250000X-1.150000X0.250000X1.150000X-0.250000X1.150000X0*%
%TD*%
%TA.AperFunction,ComponentPad*%
%ADD18R,3.960000X1.980000*%
%TD*%
%TA.AperFunction,ComponentPad*%
%ADD19O,3.960000X1.980000*%
%TD*%
%TA.AperFunction,ComponentPad*%
%ADD20O,1.600000X1.600000*%
%TD*%
%TA.AperFunction,ComponentPad*%
%ADD21R,1.600000X1.600000*%
%TD*%
%TA.AperFunction,ViaPad*%
%ADD22C,1.200000*%
%TD*%
%TA.AperFunction,Conductor*%
%ADD23C,0.812800*%
%TD*%
%TA.AperFunction,Conductor*%
%ADD24C,0.508000*%
%TD*%
G04 APERTURE END LIST*
D10*
D11*
X190277314Y-94744260D02*
X190814614Y-93900869D01*
X190814614Y-93900869D02*
X190759252Y-95051288D01*
X190759252Y-95051288D02*
X191296552Y-94207897D01*
X191522321Y-95537417D02*
X191803763Y-95095640D01*
X191803763Y-95095640D02*
X191814773Y-94989731D01*
X191814773Y-94989731D02*
X191760036Y-94898399D01*
X191760036Y-94898399D02*
X191599390Y-94796056D01*
X191599390Y-94796056D02*
X191493481Y-94785046D01*
X191547906Y-95497255D02*
X191441998Y-95486245D01*
X191441998Y-95486245D02*
X191241190Y-95358317D01*
X191241190Y-95358317D02*
X191186453Y-95266984D01*
X191186453Y-95266984D02*
X191197463Y-95161075D01*
X191197463Y-95161075D02*
X191248634Y-95080752D01*
X191248634Y-95080752D02*
X191339967Y-95026015D01*
X191339967Y-95026015D02*
X191445876Y-95037025D01*
X191445876Y-95037025D02*
X191646683Y-95164953D01*
X191646683Y-95164953D02*
X191752592Y-95175963D01*
X192161651Y-95154256D02*
X192482943Y-95358941D01*
X192461235Y-94949882D02*
X192000693Y-95672789D01*
X192000693Y-95672789D02*
X191989683Y-95778698D01*
X191989683Y-95778698D02*
X192044420Y-95870031D01*
X192044420Y-95870031D02*
X192124743Y-95921202D01*
X192405874Y-96100302D02*
X192943174Y-95256911D01*
X192767327Y-96330574D02*
X193048770Y-95888797D01*
X193048770Y-95888797D02*
X193059780Y-95782888D01*
X193059780Y-95782888D02*
X193005043Y-95691555D01*
X193005043Y-95691555D02*
X192884558Y-95614798D01*
X192884558Y-95614798D02*
X192778650Y-95603788D01*
X192778650Y-95603788D02*
X192712902Y-95618364D01*
X193530396Y-96816702D02*
X193811839Y-96374925D01*
X193811839Y-96374925D02*
X193822849Y-96269017D01*
X193822849Y-96269017D02*
X193768111Y-96177684D01*
X193768111Y-96177684D02*
X193607465Y-96075341D01*
X193607465Y-96075341D02*
X193501557Y-96064331D01*
X193555982Y-96776540D02*
X193450073Y-96765530D01*
X193450073Y-96765530D02*
X193249266Y-96637602D01*
X193249266Y-96637602D02*
X193194528Y-96546269D01*
X193194528Y-96546269D02*
X193205538Y-96440360D01*
X193205538Y-96440360D02*
X193256710Y-96360037D01*
X193256710Y-96360037D02*
X193348042Y-96305300D01*
X193348042Y-96305300D02*
X193453951Y-96316310D01*
X193453951Y-96316310D02*
X193654759Y-96444238D01*
X193654759Y-96444238D02*
X193760667Y-96455248D01*
X194290211Y-96510298D02*
X193932011Y-97072559D01*
X194239039Y-96590621D02*
X194304787Y-96576045D01*
X194304787Y-96576045D02*
X194410695Y-96587055D01*
X194410695Y-96587055D02*
X194531180Y-96663812D01*
X194531180Y-96663812D02*
X194585917Y-96755145D01*
X194585917Y-96755145D02*
X194574907Y-96861054D01*
X194574907Y-96861054D02*
X194293465Y-97302830D01*
X194695080Y-97558687D02*
X195053279Y-96996426D01*
X195232379Y-96715296D02*
X195166632Y-96729871D01*
X195166632Y-96729871D02*
X195181208Y-96795619D01*
X195181208Y-96795619D02*
X195246955Y-96781043D01*
X195246955Y-96781043D02*
X195232379Y-96715296D01*
X195232379Y-96715296D02*
X195181208Y-96795619D01*
X195443572Y-97979068D02*
X195337663Y-97968058D01*
X195337663Y-97968058D02*
X195177017Y-97865715D01*
X195177017Y-97865715D02*
X195122280Y-97774382D01*
X195122280Y-97774382D02*
X195133290Y-97668474D01*
X195133290Y-97668474D02*
X195337975Y-97347182D01*
X195337975Y-97347182D02*
X195429308Y-97292444D01*
X195429308Y-97292444D02*
X195535217Y-97303454D01*
X195535217Y-97303454D02*
X195695863Y-97405797D01*
X195695863Y-97405797D02*
X195750600Y-97497130D01*
X195750600Y-97497130D02*
X195739590Y-97603039D01*
X195739590Y-97603039D02*
X195688419Y-97683362D01*
X195688419Y-97683362D02*
X195235633Y-97507828D01*
X195940086Y-98351843D02*
X195885348Y-98260511D01*
X195885348Y-98260511D02*
X195896358Y-98154602D01*
X195896358Y-98154602D02*
X196356901Y-97431695D01*
X196903962Y-98965901D02*
X197441262Y-98122509D01*
X197185405Y-98524124D02*
X197667343Y-98831152D01*
X197385900Y-99272929D02*
X197923200Y-98429537D01*
X197908000Y-99605543D02*
X197853262Y-99514210D01*
X197853262Y-99514210D02*
X197838687Y-99448463D01*
X197838687Y-99448463D02*
X197849696Y-99342554D01*
X197849696Y-99342554D02*
X198003211Y-99101585D01*
X198003211Y-99101585D02*
X198094544Y-99046848D01*
X198094544Y-99046848D02*
X198160291Y-99032272D01*
X198160291Y-99032272D02*
X198266199Y-99043282D01*
X198266199Y-99043282D02*
X198386684Y-99120039D01*
X198386684Y-99120039D02*
X198441421Y-99211372D01*
X198441421Y-99211372D02*
X198455997Y-99277119D01*
X198455997Y-99277119D02*
X198444987Y-99383028D01*
X198444987Y-99383028D02*
X198291473Y-99623997D01*
X198291473Y-99623997D02*
X198200140Y-99678734D01*
X198200140Y-99678734D02*
X198134393Y-99693310D01*
X198134393Y-99693310D02*
X198028484Y-99682300D01*
X198028484Y-99682300D02*
X197908000Y-99605543D01*
X198550584Y-100014914D02*
X198908783Y-99452653D01*
X198806441Y-99613299D02*
X198897774Y-99558562D01*
X198897774Y-99558562D02*
X198963521Y-99543986D01*
X198963521Y-99543986D02*
X199069429Y-99554996D01*
X199069429Y-99554996D02*
X199149752Y-99606167D01*
X199430883Y-99785267D02*
X199072684Y-100347528D01*
X199379712Y-99865590D02*
X199445459Y-99851015D01*
X199445459Y-99851015D02*
X199551368Y-99862024D01*
X199551368Y-99862024D02*
X199671852Y-99938782D01*
X199671852Y-99938782D02*
X199726590Y-100030114D01*
X199726590Y-100030114D02*
X199715580Y-100136023D01*
X199715580Y-100136023D02*
X199434137Y-100577800D01*
X200182630Y-100998181D02*
X200076721Y-100987171D01*
X200076721Y-100987171D02*
X199916075Y-100884828D01*
X199916075Y-100884828D02*
X199861338Y-100793495D01*
X199861338Y-100793495D02*
X199872348Y-100687586D01*
X199872348Y-100687586D02*
X200077033Y-100366294D01*
X200077033Y-100366294D02*
X200168366Y-100311557D01*
X200168366Y-100311557D02*
X200274275Y-100322567D01*
X200274275Y-100322567D02*
X200434921Y-100424910D01*
X200434921Y-100424910D02*
X200489658Y-100516243D01*
X200489658Y-100516243D02*
X200478648Y-100622151D01*
X200478648Y-100622151D02*
X200427477Y-100702474D01*
X200427477Y-100702474D02*
X199974690Y-100526940D01*
X201237527Y-102178377D02*
X201222951Y-102112629D01*
X201222951Y-102112629D02*
X201219385Y-101940974D01*
X201219385Y-101940974D02*
X201230395Y-101835065D01*
X201230395Y-101835065D02*
X201266990Y-101688995D01*
X201266990Y-101688995D02*
X201354757Y-101462601D01*
X201354757Y-101462601D02*
X201457100Y-101301955D01*
X201457100Y-101301955D02*
X201625190Y-101126734D01*
X201625190Y-101126734D02*
X201742109Y-101031835D01*
X201742109Y-101031835D02*
X201833442Y-100977098D01*
X201833442Y-100977098D02*
X201990522Y-100907784D01*
X201990522Y-100907784D02*
X202056269Y-100893209D01*
X202209471Y-101273116D02*
X202275218Y-101258540D01*
X202275218Y-101258540D02*
X202381127Y-101269550D01*
X202381127Y-101269550D02*
X202581935Y-101397479D01*
X202581935Y-101397479D02*
X202636672Y-101488812D01*
X202636672Y-101488812D02*
X202651248Y-101554559D01*
X202651248Y-101554559D02*
X202640238Y-101660468D01*
X202640238Y-101660468D02*
X202589066Y-101740791D01*
X202589066Y-101740791D02*
X202472148Y-101835689D01*
X202472148Y-101835689D02*
X201683182Y-102010599D01*
X201683182Y-102010599D02*
X202205281Y-102343213D01*
X203264680Y-101832436D02*
X203345003Y-101883607D01*
X203345003Y-101883607D02*
X203399740Y-101974940D01*
X203399740Y-101974940D02*
X203414316Y-102040687D01*
X203414316Y-102040687D02*
X203403306Y-102146596D01*
X203403306Y-102146596D02*
X203341125Y-102332827D01*
X203341125Y-102332827D02*
X203213197Y-102533635D01*
X203213197Y-102533635D02*
X203070692Y-102668695D01*
X203070692Y-102668695D02*
X202979359Y-102723433D01*
X202979359Y-102723433D02*
X202913612Y-102738008D01*
X202913612Y-102738008D02*
X202807703Y-102726998D01*
X202807703Y-102726998D02*
X202727380Y-102675827D01*
X202727380Y-102675827D02*
X202672643Y-102584494D01*
X202672643Y-102584494D02*
X202658067Y-102518747D01*
X202658067Y-102518747D02*
X202669077Y-102412838D01*
X202669077Y-102412838D02*
X202731259Y-102226607D01*
X202731259Y-102226607D02*
X202859187Y-102025799D01*
X202859187Y-102025799D02*
X203001691Y-101890739D01*
X203001691Y-101890739D02*
X203093024Y-101836002D01*
X203093024Y-101836002D02*
X203158771Y-101821426D01*
X203158771Y-101821426D02*
X203264680Y-101832436D01*
X203815931Y-102296544D02*
X203881678Y-102281968D01*
X203881678Y-102281968D02*
X203987587Y-102292978D01*
X203987587Y-102292978D02*
X204188395Y-102420907D01*
X204188395Y-102420907D02*
X204243132Y-102512240D01*
X204243132Y-102512240D02*
X204257708Y-102577987D01*
X204257708Y-102577987D02*
X204246698Y-102683895D01*
X204246698Y-102683895D02*
X204195526Y-102764218D01*
X204195526Y-102764218D02*
X204078608Y-102859117D01*
X204078608Y-102859117D02*
X203289641Y-103034027D01*
X203289641Y-103034027D02*
X203811741Y-103366641D01*
X204630171Y-102702349D02*
X205152271Y-103034963D01*
X205152271Y-103034963D02*
X204666455Y-103177155D01*
X204666455Y-103177155D02*
X204786939Y-103253913D01*
X204786939Y-103253913D02*
X204841676Y-103345245D01*
X204841676Y-103345245D02*
X204856252Y-103410993D01*
X204856252Y-103410993D02*
X204845242Y-103516901D01*
X204845242Y-103516901D02*
X204717314Y-103717709D01*
X204717314Y-103717709D02*
X204625981Y-103772446D01*
X204625981Y-103772446D02*
X204560234Y-103787022D01*
X204560234Y-103787022D02*
X204454325Y-103776012D01*
X204454325Y-103776012D02*
X204213356Y-103622498D01*
X204213356Y-103622498D02*
X204158619Y-103531165D01*
X204158619Y-103531165D02*
X204144043Y-103465418D01*
X204691416Y-104378747D02*
X204757163Y-104364171D01*
X204757163Y-104364171D02*
X204914243Y-104294858D01*
X204914243Y-104294858D02*
X205005576Y-104240120D01*
X205005576Y-104240120D02*
X205122495Y-104145222D01*
X205122495Y-104145222D02*
X205290585Y-103970000D01*
X205290585Y-103970000D02*
X205392927Y-103809354D01*
X205392927Y-103809354D02*
X205480694Y-103582961D01*
X205480694Y-103582961D02*
X205517290Y-103436891D01*
X205517290Y-103436891D02*
X205528300Y-103330982D01*
X205528300Y-103330982D02*
X205524734Y-103159326D01*
X205524734Y-103159326D02*
X205510158Y-103093579D01*
X189397686Y-96036373D02*
X189492585Y-96153292D01*
X189492585Y-96153292D02*
X189693393Y-96281220D01*
X189693393Y-96281220D02*
X189799301Y-96292230D01*
X189799301Y-96292230D02*
X189865049Y-96277654D01*
X189865049Y-96277654D02*
X189956381Y-96222917D01*
X189956381Y-96222917D02*
X190007553Y-96142594D01*
X190007553Y-96142594D02*
X190018563Y-96036685D01*
X190018563Y-96036685D02*
X190003987Y-95970938D01*
X190003987Y-95970938D02*
X189949250Y-95879605D01*
X189949250Y-95879605D02*
X189814189Y-95737101D01*
X189814189Y-95737101D02*
X189759452Y-95645768D01*
X189759452Y-95645768D02*
X189744876Y-95580021D01*
X189744876Y-95580021D02*
X189755886Y-95474112D01*
X189755886Y-95474112D02*
X189807058Y-95393789D01*
X189807058Y-95393789D02*
X189898390Y-95339052D01*
X189898390Y-95339052D02*
X189964138Y-95324476D01*
X189964138Y-95324476D02*
X190070046Y-95335486D01*
X190070046Y-95335486D02*
X190270854Y-95463414D01*
X190270854Y-95463414D02*
X190365753Y-95580333D01*
X190453207Y-95974816D02*
X190774499Y-96179502D01*
X190752792Y-95770443D02*
X190292249Y-96493350D01*
X190292249Y-96493350D02*
X190281239Y-96599258D01*
X190281239Y-96599258D02*
X190335977Y-96690591D01*
X190335977Y-96690591D02*
X190416300Y-96741763D01*
X191058884Y-97151134D02*
X191340327Y-96709357D01*
X191340327Y-96709357D02*
X191351337Y-96603449D01*
X191351337Y-96603449D02*
X191296599Y-96512116D01*
X191296599Y-96512116D02*
X191135953Y-96409773D01*
X191135953Y-96409773D02*
X191030045Y-96398763D01*
X191084470Y-97110972D02*
X190978561Y-97099963D01*
X190978561Y-97099963D02*
X190777754Y-96972034D01*
X190777754Y-96972034D02*
X190723016Y-96880701D01*
X190723016Y-96880701D02*
X190734026Y-96774792D01*
X190734026Y-96774792D02*
X190785198Y-96694469D01*
X190785198Y-96694469D02*
X190876530Y-96639732D01*
X190876530Y-96639732D02*
X190982439Y-96650742D01*
X190982439Y-96650742D02*
X191183247Y-96778671D01*
X191183247Y-96778671D02*
X191289155Y-96789680D01*
X192180152Y-97075001D02*
X191745195Y-97757747D01*
X191745195Y-97757747D02*
X191653863Y-97812484D01*
X191653863Y-97812484D02*
X191588115Y-97827060D01*
X191588115Y-97827060D02*
X191482207Y-97816050D01*
X191482207Y-97816050D02*
X191361722Y-97739293D01*
X191361722Y-97739293D02*
X191306985Y-97647960D01*
X191847538Y-97597101D02*
X191741630Y-97586091D01*
X191741630Y-97586091D02*
X191580984Y-97483748D01*
X191580984Y-97483748D02*
X191526246Y-97392415D01*
X191526246Y-97392415D02*
X191511670Y-97326668D01*
X191511670Y-97326668D02*
X191522680Y-97220759D01*
X191522680Y-97220759D02*
X191676195Y-96979790D01*
X191676195Y-96979790D02*
X191767527Y-96925053D01*
X191767527Y-96925053D02*
X191833275Y-96910477D01*
X191833275Y-96910477D02*
X191939183Y-96921487D01*
X191939183Y-96921487D02*
X192099829Y-97023830D01*
X192099829Y-97023830D02*
X192154567Y-97115163D01*
X192570445Y-98057643D02*
X192464537Y-98046633D01*
X192464537Y-98046633D02*
X192303891Y-97944291D01*
X192303891Y-97944291D02*
X192249153Y-97852958D01*
X192249153Y-97852958D02*
X192260163Y-97747049D01*
X192260163Y-97747049D02*
X192464849Y-97425757D01*
X192464849Y-97425757D02*
X192556182Y-97371020D01*
X192556182Y-97371020D02*
X192662090Y-97382030D01*
X192662090Y-97382030D02*
X192822736Y-97484372D01*
X192822736Y-97484372D02*
X192877474Y-97575705D01*
X192877474Y-97575705D02*
X192866464Y-97681614D01*
X192866464Y-97681614D02*
X192815292Y-97761937D01*
X192815292Y-97761937D02*
X192362506Y-97586403D01*
X193574483Y-98697286D02*
X193629220Y-98788619D01*
X193629220Y-98788619D02*
X193789866Y-98890962D01*
X193789866Y-98890962D02*
X193895775Y-98901971D01*
X193895775Y-98901971D02*
X193987108Y-98847234D01*
X193987108Y-98847234D02*
X194012694Y-98807073D01*
X194012694Y-98807073D02*
X194023704Y-98701164D01*
X194023704Y-98701164D02*
X193968966Y-98609831D01*
X193968966Y-98609831D02*
X193848482Y-98533074D01*
X193848482Y-98533074D02*
X193793744Y-98441741D01*
X193793744Y-98441741D02*
X193804754Y-98335832D01*
X193804754Y-98335832D02*
X193830340Y-98295671D01*
X193830340Y-98295671D02*
X193921673Y-98240934D01*
X193921673Y-98240934D02*
X194027582Y-98251943D01*
X194027582Y-98251943D02*
X194148066Y-98328701D01*
X194148066Y-98328701D02*
X194202803Y-98420033D01*
X194509520Y-98558972D02*
X194830812Y-98763657D01*
X194809104Y-98354599D02*
X194348562Y-99077505D01*
X194348562Y-99077505D02*
X194337552Y-99183414D01*
X194337552Y-99183414D02*
X194392289Y-99274747D01*
X194392289Y-99274747D02*
X194472612Y-99325918D01*
X195100620Y-99669543D02*
X194994712Y-99658533D01*
X194994712Y-99658533D02*
X194834066Y-99556190D01*
X194834066Y-99556190D02*
X194779328Y-99464857D01*
X194779328Y-99464857D02*
X194790338Y-99358948D01*
X194790338Y-99358948D02*
X194995024Y-99037656D01*
X194995024Y-99037656D02*
X195086357Y-98982919D01*
X195086357Y-98982919D02*
X195192266Y-98993929D01*
X195192266Y-98993929D02*
X195352912Y-99096272D01*
X195352912Y-99096272D02*
X195407649Y-99187605D01*
X195407649Y-99187605D02*
X195396639Y-99293513D01*
X195396639Y-99293513D02*
X195345468Y-99373836D01*
X195345468Y-99373836D02*
X194892681Y-99198302D01*
X195834850Y-99403300D02*
X195297550Y-100246692D01*
X195809264Y-99443462D02*
X195915173Y-99454472D01*
X195915173Y-99454472D02*
X196075819Y-99556814D01*
X196075819Y-99556814D02*
X196130556Y-99648147D01*
X196130556Y-99648147D02*
X196145132Y-99713894D01*
X196145132Y-99713894D02*
X196134122Y-99819803D01*
X196134122Y-99819803D02*
X195980608Y-100060772D01*
X195980608Y-100060772D02*
X195889275Y-100115509D01*
X195889275Y-100115509D02*
X195823528Y-100130085D01*
X195823528Y-100130085D02*
X195717619Y-100119075D01*
X195717619Y-100119075D02*
X195556973Y-100016733D01*
X195556973Y-100016733D02*
X195502236Y-99925400D01*
X196597918Y-99889428D02*
X196060619Y-100732820D01*
X196572332Y-99929590D02*
X196678241Y-99940600D01*
X196678241Y-99940600D02*
X196838887Y-100042943D01*
X196838887Y-100042943D02*
X196893624Y-100134275D01*
X196893624Y-100134275D02*
X196908200Y-100200023D01*
X196908200Y-100200023D02*
X196897190Y-100305931D01*
X196897190Y-100305931D02*
X196743676Y-100546900D01*
X196743676Y-100546900D02*
X196652343Y-100601638D01*
X196652343Y-100601638D02*
X196586596Y-100616213D01*
X196586596Y-100616213D02*
X196480687Y-100605204D01*
X196480687Y-100605204D02*
X196320041Y-100502861D01*
X196320041Y-100502861D02*
X196265304Y-100411528D01*
X197349665Y-101102342D02*
X197243756Y-101091332D01*
X197243756Y-101091332D02*
X197083110Y-100988989D01*
X197083110Y-100988989D02*
X197028373Y-100897656D01*
X197028373Y-100897656D02*
X197039383Y-100791747D01*
X197039383Y-100791747D02*
X197244068Y-100470456D01*
X197244068Y-100470456D02*
X197335401Y-100415718D01*
X197335401Y-100415718D02*
X197441310Y-100426728D01*
X197441310Y-100426728D02*
X197601956Y-100529071D01*
X197601956Y-100529071D02*
X197656693Y-100620404D01*
X197656693Y-100620404D02*
X197645683Y-100726312D01*
X197645683Y-100726312D02*
X197594512Y-100806635D01*
X197594512Y-100806635D02*
X197141725Y-100631101D01*
X197725694Y-101398360D02*
X198083894Y-100836099D01*
X197981551Y-100996745D02*
X198072884Y-100942008D01*
X198072884Y-100942008D02*
X198138631Y-100927432D01*
X198138631Y-100927432D02*
X198244540Y-100938442D01*
X198244540Y-100938442D02*
X198324863Y-100989613D01*
X199277417Y-102330456D02*
X199171508Y-102319446D01*
X199171508Y-102319446D02*
X199010862Y-102217103D01*
X199010862Y-102217103D02*
X198956125Y-102125770D01*
X198956125Y-102125770D02*
X198941549Y-102060023D01*
X198941549Y-102060023D02*
X198952559Y-101954114D01*
X198952559Y-101954114D02*
X199106073Y-101713145D01*
X199106073Y-101713145D02*
X199197406Y-101658408D01*
X199197406Y-101658408D02*
X199263154Y-101643832D01*
X199263154Y-101643832D02*
X199369062Y-101654842D01*
X199369062Y-101654842D02*
X199529708Y-101757185D01*
X199529708Y-101757185D02*
X199584445Y-101848518D01*
X199733770Y-102677645D02*
X199679032Y-102586313D01*
X199679032Y-102586313D02*
X199664456Y-102520565D01*
X199664456Y-102520565D02*
X199675466Y-102414657D01*
X199675466Y-102414657D02*
X199828980Y-102173688D01*
X199828980Y-102173688D02*
X199920313Y-102118950D01*
X199920313Y-102118950D02*
X199986061Y-102104375D01*
X199986061Y-102104375D02*
X200091969Y-102115384D01*
X200091969Y-102115384D02*
X200212454Y-102192142D01*
X200212454Y-102192142D02*
X200267191Y-102283474D01*
X200267191Y-102283474D02*
X200281767Y-102349222D01*
X200281767Y-102349222D02*
X200270757Y-102455130D01*
X200270757Y-102455130D02*
X200117243Y-102696099D01*
X200117243Y-102696099D02*
X200025910Y-102750837D01*
X200025910Y-102750837D02*
X199960163Y-102765412D01*
X199960163Y-102765412D02*
X199854254Y-102754403D01*
X199854254Y-102754403D02*
X199733770Y-102677645D01*
X200734553Y-102524756D02*
X200376354Y-103087017D01*
X200683382Y-102605079D02*
X200749129Y-102590503D01*
X200749129Y-102590503D02*
X200855038Y-102601513D01*
X200855038Y-102601513D02*
X200975522Y-102678270D01*
X200975522Y-102678270D02*
X201030260Y-102769603D01*
X201030260Y-102769603D02*
X201019250Y-102875511D01*
X201019250Y-102875511D02*
X200737807Y-103317288D01*
X201377137Y-102934127D02*
X201698429Y-103138812D01*
X201676722Y-102729753D02*
X201216179Y-103452660D01*
X201216179Y-103452660D02*
X201205169Y-103558569D01*
X201205169Y-103558569D02*
X201259907Y-103649902D01*
X201259907Y-103649902D02*
X201340230Y-103701073D01*
X201621360Y-103880173D02*
X201979560Y-103317913D01*
X201877217Y-103478559D02*
X201968550Y-103423821D01*
X201968550Y-103423821D02*
X202034297Y-103409245D01*
X202034297Y-103409245D02*
X202140206Y-103420255D01*
X202140206Y-103420255D02*
X202220529Y-103471427D01*
X202263945Y-104289545D02*
X202209207Y-104198212D01*
X202209207Y-104198212D02*
X202194632Y-104132465D01*
X202194632Y-104132465D02*
X202205642Y-104026556D01*
X202205642Y-104026556D02*
X202359156Y-103785587D01*
X202359156Y-103785587D02*
X202450489Y-103730850D01*
X202450489Y-103730850D02*
X202516236Y-103716274D01*
X202516236Y-103716274D02*
X202622144Y-103727284D01*
X202622144Y-103727284D02*
X202742629Y-103804041D01*
X202742629Y-103804041D02*
X202797366Y-103895374D01*
X202797366Y-103895374D02*
X202811942Y-103961121D01*
X202811942Y-103961121D02*
X202800932Y-104067030D01*
X202800932Y-104067030D02*
X202647418Y-104307999D01*
X202647418Y-104307999D02*
X202556085Y-104362736D01*
X202556085Y-104362736D02*
X202490338Y-104377312D01*
X202490338Y-104377312D02*
X202384429Y-104366302D01*
X202384429Y-104366302D02*
X202263945Y-104289545D01*
X203027013Y-104775673D02*
X202972276Y-104684340D01*
X202972276Y-104684340D02*
X202983286Y-104578432D01*
X202983286Y-104578432D02*
X203443828Y-103855525D01*
X203468790Y-105057116D02*
X203414053Y-104965783D01*
X203414053Y-104965783D02*
X203425063Y-104859874D01*
X203425063Y-104859874D02*
X203885605Y-104136967D01*
X204136960Y-105426326D02*
X204031051Y-105415316D01*
X204031051Y-105415316D02*
X203870405Y-105312973D01*
X203870405Y-105312973D02*
X203815668Y-105221640D01*
X203815668Y-105221640D02*
X203826678Y-105115732D01*
X203826678Y-105115732D02*
X204031364Y-104794440D01*
X204031364Y-104794440D02*
X204122697Y-104739702D01*
X204122697Y-104739702D02*
X204228605Y-104750712D01*
X204228605Y-104750712D02*
X204389251Y-104853055D01*
X204389251Y-104853055D02*
X204443989Y-104944388D01*
X204443989Y-104944388D02*
X204432979Y-105050297D01*
X204432979Y-105050297D02*
X204381807Y-105130620D01*
X204381807Y-105130620D02*
X203929021Y-104955086D01*
X204512990Y-105722344D02*
X204871189Y-105160083D01*
X204768847Y-105320729D02*
X204860179Y-105265992D01*
X204860179Y-105265992D02*
X204925927Y-105251416D01*
X204925927Y-105251416D02*
X205031835Y-105262426D01*
X205031835Y-105262426D02*
X205112158Y-105313598D01*
X205955550Y-105850898D02*
X205798158Y-106541087D01*
X205798158Y-106541087D02*
X206357165Y-106106755D01*
X206667135Y-107038225D02*
X206561227Y-107027215D01*
X206561227Y-107027215D02*
X206400581Y-106924873D01*
X206400581Y-106924873D02*
X206345843Y-106833540D01*
X206345843Y-106833540D02*
X206356853Y-106727631D01*
X206356853Y-106727631D02*
X206561539Y-106406339D01*
X206561539Y-106406339D02*
X206652872Y-106351602D01*
X206652872Y-106351602D02*
X206758780Y-106362612D01*
X206758780Y-106362612D02*
X206919426Y-106464954D01*
X206919426Y-106464954D02*
X206974164Y-106556287D01*
X206974164Y-106556287D02*
X206963154Y-106662196D01*
X206963154Y-106662196D02*
X206911982Y-106742519D01*
X206911982Y-106742519D02*
X206459196Y-106566985D01*
X207043165Y-107334244D02*
X207401364Y-106771983D01*
X207299022Y-106932629D02*
X207390355Y-106877892D01*
X207390355Y-106877892D02*
X207456102Y-106863316D01*
X207456102Y-106863316D02*
X207562010Y-106874326D01*
X207562010Y-106874326D02*
X207642333Y-106925497D01*
X207550689Y-107601111D02*
X207605426Y-107692444D01*
X207605426Y-107692444D02*
X207766072Y-107794787D01*
X207766072Y-107794787D02*
X207871981Y-107805796D01*
X207871981Y-107805796D02*
X207963314Y-107751059D01*
X207963314Y-107751059D02*
X207988899Y-107710898D01*
X207988899Y-107710898D02*
X207999909Y-107604989D01*
X207999909Y-107604989D02*
X207945172Y-107513656D01*
X207945172Y-107513656D02*
X207824687Y-107436899D01*
X207824687Y-107436899D02*
X207769950Y-107345566D01*
X207769950Y-107345566D02*
X207780960Y-107239657D01*
X207780960Y-107239657D02*
X207806546Y-107199496D01*
X207806546Y-107199496D02*
X207897879Y-107144759D01*
X207897879Y-107144759D02*
X208003787Y-107155768D01*
X208003787Y-107155768D02*
X208124272Y-107232526D01*
X208124272Y-107232526D02*
X208179009Y-107323858D01*
X208248010Y-108101815D02*
X208606210Y-107539554D01*
X208785310Y-107258424D02*
X208719563Y-107272999D01*
X208719563Y-107272999D02*
X208734138Y-107338747D01*
X208734138Y-107338747D02*
X208799886Y-107324171D01*
X208799886Y-107324171D02*
X208785310Y-107258424D01*
X208785310Y-107258424D02*
X208734138Y-107338747D01*
X208770109Y-108434429D02*
X208715372Y-108343096D01*
X208715372Y-108343096D02*
X208700796Y-108277349D01*
X208700796Y-108277349D02*
X208711806Y-108171440D01*
X208711806Y-108171440D02*
X208865320Y-107930471D01*
X208865320Y-107930471D02*
X208956653Y-107875734D01*
X208956653Y-107875734D02*
X209022400Y-107861158D01*
X209022400Y-107861158D02*
X209128309Y-107872168D01*
X209128309Y-107872168D02*
X209248793Y-107948925D01*
X209248793Y-107948925D02*
X209303531Y-108040258D01*
X209303531Y-108040258D02*
X209318107Y-108106005D01*
X209318107Y-108106005D02*
X209307097Y-108211914D01*
X209307097Y-108211914D02*
X209153582Y-108452883D01*
X209153582Y-108452883D02*
X209062250Y-108507620D01*
X209062250Y-108507620D02*
X208996502Y-108522196D01*
X208996502Y-108522196D02*
X208890594Y-108511186D01*
X208890594Y-108511186D02*
X208770109Y-108434429D01*
X209770893Y-108281539D02*
X209412693Y-108843800D01*
X209719722Y-108361862D02*
X209785469Y-108347286D01*
X209785469Y-108347286D02*
X209891377Y-108358296D01*
X209891377Y-108358296D02*
X210011862Y-108435053D01*
X210011862Y-108435053D02*
X210066599Y-108526386D01*
X210066599Y-108526386D02*
X210055589Y-108632295D01*
X210055589Y-108632295D02*
X209774147Y-109074071D01*
X211260122Y-110020742D02*
X210778184Y-109713714D01*
X211019153Y-109867228D02*
X211556453Y-109023836D01*
X211556453Y-109023836D02*
X211399373Y-109093150D01*
X211399373Y-109093150D02*
X211267879Y-109122301D01*
X211267879Y-109122301D02*
X211161970Y-109111291D01*
X211672747Y-110170690D02*
X211687323Y-110236438D01*
X211687323Y-110236438D02*
X211621576Y-110251013D01*
X211621576Y-110251013D02*
X211607000Y-110185266D01*
X211607000Y-110185266D02*
X211672747Y-110170690D01*
X211672747Y-110170690D02*
X211621576Y-110251013D01*
X212721136Y-109765821D02*
X212801459Y-109816993D01*
X212801459Y-109816993D02*
X212856196Y-109908326D01*
X212856196Y-109908326D02*
X212870772Y-109974073D01*
X212870772Y-109974073D02*
X212859762Y-110079982D01*
X212859762Y-110079982D02*
X212797581Y-110266213D01*
X212797581Y-110266213D02*
X212669653Y-110467021D01*
X212669653Y-110467021D02*
X212527148Y-110602081D01*
X212527148Y-110602081D02*
X212435815Y-110656818D01*
X212435815Y-110656818D02*
X212370068Y-110671394D01*
X212370068Y-110671394D02*
X212264159Y-110660384D01*
X212264159Y-110660384D02*
X212183836Y-110609213D01*
X212183836Y-110609213D02*
X212129099Y-110517880D01*
X212129099Y-110517880D02*
X212114523Y-110452133D01*
X212114523Y-110452133D02*
X212125533Y-110346224D01*
X212125533Y-110346224D02*
X212187715Y-110159992D01*
X212187715Y-110159992D02*
X212315643Y-109959185D01*
X212315643Y-109959185D02*
X212458147Y-109824125D01*
X212458147Y-109824125D02*
X212549480Y-109769387D01*
X212549480Y-109769387D02*
X212615227Y-109754812D01*
X212615227Y-109754812D02*
X212721136Y-109765821D01*
D12*
%TO.P,STEPSIG2,3,Pin_3*%
%TO.N,Net-(A1-D5)*%
X146000000Y-140270000D03*
%TO.P,STEPSIG2,2,Pin_2*%
%TO.N,Net-(A1-D6)*%
X151000000Y-140270000D03*
D13*
%TO.P,STEPSIG2,1,Pin_1*%
%TO.N,Net-(A1-D7)*%
X156000000Y-140270000D03*
%TD*%
%TO.P,STEPSIGGND1,1,Pin_1*%
%TO.N,GND*%
X211090000Y-140240000D03*
D12*
%TO.P,STEPSIGGND1,2,Pin_2*%
X206090000Y-140240000D03*
%TO.P,STEPSIGGND1,3,Pin_3*%
X201090000Y-140240000D03*
%TD*%
%TO.P,VIN1,2,Pin_2*%
%TO.N,GND*%
X124485000Y-97000000D03*
D13*
%TO.P,VIN1,1,Pin_1*%
%TO.N,+24V*%
X119485000Y-97000000D03*
%TD*%
D14*
%TO.P,U1,1,VI*%
%TO.N,+24V*%
X121250000Y-120580000D03*
D15*
%TO.P,U1,2,GND*%
%TO.N,GND*%
X121250000Y-118040000D03*
%TO.P,U1,3,VO*%
%TO.N,+5V*%
X121250000Y-115500000D03*
%TD*%
D13*
%TO.P,STEPVIN2,1,Pin_1*%
%TO.N,+24V*%
X131985000Y-140280000D03*
D12*
%TO.P,STEPVIN2,2,Pin_2*%
%TO.N,GND*%
X136985000Y-140280000D03*
%TD*%
D13*
%TO.P,STEPVIN1,1,Pin_1*%
%TO.N,+24V*%
X119485000Y-140280000D03*
D12*
%TO.P,STEPVIN1,2,Pin_2*%
%TO.N,GND*%
X124485000Y-140280000D03*
%TD*%
%TO.P,STEPSIGGND2,3,Pin_3*%
%TO.N,GND*%
X163250000Y-140260000D03*
%TO.P,STEPSIGGND2,2,Pin_2*%
X168250000Y-140260000D03*
D13*
%TO.P,STEPSIGGND2,1,Pin_1*%
X173250000Y-140260000D03*
%TD*%
%TO.P,STEPSIG1,1,Pin_1*%
%TO.N,Net-(A1-D12)*%
X191795000Y-140250000D03*
D12*
%TO.P,STEPSIG1,2,Pin_2*%
%TO.N,Net-(A1-D11)*%
X186795000Y-140250000D03*
%TO.P,STEPSIG1,3,Pin_3*%
%TO.N,Net-(A1-D10)*%
X181795000Y-140250000D03*
%TD*%
D16*
%TO.P,LIMIT2,1,Pin_1*%
%TO.N,+5V*%
X151930000Y-97070000D03*
%TO.P,LIMIT2,2,Pin_2*%
%TO.N,Net-(A1-D3)*%
X153180000Y-97070000D03*
%TO.P,LIMIT2,3,Pin_3*%
%TO.N,GND*%
X154430000Y-97070000D03*
D17*
%TO.P,LIMIT2,MP*%
%TO.N,N/C*%
X156280000Y-93720000D03*
X150080000Y-93720000D03*
%TD*%
%TO.P,LIMIT1,MP*%
%TO.N,N/C*%
X165830000Y-93470000D03*
X172030000Y-93470000D03*
D16*
%TO.P,LIMIT1,3,Pin_3*%
%TO.N,GND*%
X170180000Y-96820000D03*
%TO.P,LIMIT1,2,Pin_2*%
%TO.N,Net-(A1-D4)*%
X168930000Y-96820000D03*
%TO.P,LIMIT1,1,Pin_1*%
%TO.N,+5V*%
X167680000Y-96820000D03*
%TD*%
D18*
%TO.P,JOYIN1,1,Pin_1*%
%TO.N,Net-(A1-A1)*%
X207500000Y-116735000D03*
D19*
%TO.P,JOYIN1,2,Pin_2*%
%TO.N,Net-(A1-A0)*%
X207500000Y-121735000D03*
%TD*%
D20*
%TO.P,A1,30,VIN*%
%TO.N,+5V*%
X149950000Y-108870000D03*
%TO.P,A1,29,GND*%
%TO.N,unconnected-(A1-GND-Pad29)*%
X152490000Y-108870000D03*
%TO.P,A1,28,~{RESET}*%
%TO.N,unconnected-(A1-~{RESET}-Pad28)*%
X155030000Y-108870000D03*
%TO.P,A1,27,+5V*%
%TO.N,unconnected-(A1-+5V-Pad27)*%
X157570000Y-108870000D03*
%TO.P,A1,26,A7*%
%TO.N,unconnected-(A1-A7-Pad26)*%
X160110000Y-108870000D03*
%TO.P,A1,25,A6*%
%TO.N,unconnected-(A1-A6-Pad25)*%
X162650000Y-108870000D03*
%TO.P,A1,24,A5*%
%TO.N,unconnected-(A1-A5-Pad24)*%
X165190000Y-108870000D03*
%TO.P,A1,23,A4*%
%TO.N,unconnected-(A1-A4-Pad23)*%
X167730000Y-108870000D03*
%TO.P,A1,22,A3*%
%TO.N,unconnected-(A1-A3-Pad22)*%
X170270000Y-108870000D03*
%TO.P,A1,21,A2*%
%TO.N,unconnected-(A1-A2-Pad21)*%
X172810000Y-108870000D03*
%TO.P,A1,20,A1*%
%TO.N,Net-(A1-A1)*%
X175350000Y-108870000D03*
%TO.P,A1,19,A0*%
%TO.N,Net-(A1-A0)*%
X177890000Y-108870000D03*
%TO.P,A1,18,AREF*%
%TO.N,unconnected-(A1-AREF-Pad18)*%
X180430000Y-108870000D03*
%TO.P,A1,17,3V3*%
%TO.N,unconnected-(A1-3V3-Pad17)*%
X182970000Y-108870000D03*
%TO.P,A1,16,D13*%
%TO.N,unconnected-(A1-D13-Pad16)*%
X185510000Y-108870000D03*
%TO.P,A1,15,D12*%
%TO.N,Net-(A1-D12)*%
X185510000Y-124110000D03*
%TO.P,A1,14,D11*%
%TO.N,Net-(A1-D11)*%
X182970000Y-124110000D03*
%TO.P,A1,13,D10*%
%TO.N,Net-(A1-D10)*%
X180430000Y-124110000D03*
%TO.P,A1,12,D9*%
%TO.N,unconnected-(A1-D9-Pad12)*%
X177890000Y-124110000D03*
%TO.P,A1,11,D8*%
%TO.N,unconnected-(A1-D8-Pad11)*%
X175350000Y-124110000D03*
%TO.P,A1,10,D7*%
%TO.N,Net-(A1-D7)*%
X172810000Y-124110000D03*
%TO.P,A1,9,D6*%
%TO.N,Net-(A1-D6)*%
X170270000Y-124110000D03*
%TO.P,A1,8,D5*%
%TO.N,Net-(A1-D5)*%
X167730000Y-124110000D03*
%TO.P,A1,7,D4*%
%TO.N,Net-(A1-D4)*%
X165190000Y-124110000D03*
%TO.P,A1,6,D3*%
%TO.N,Net-(A1-D3)*%
X162650000Y-124110000D03*
%TO.P,A1,5,D2*%
%TO.N,unconnected-(A1-D2-Pad5)*%
X160110000Y-124110000D03*
%TO.P,A1,4,GND*%
%TO.N,GND*%
X157570000Y-124110000D03*
%TO.P,A1,3,~{RESET}*%
%TO.N,unconnected-(A1-~{RESET}-Pad3)*%
X155030000Y-124110000D03*
%TO.P,A1,2,D0/RX*%
%TO.N,unconnected-(A1-D0{slash}RX-Pad2)*%
X152490000Y-124110000D03*
D21*
%TO.P,A1,1,D1/TX*%
%TO.N,unconnected-(A1-D1{slash}TX-Pad1)*%
X149950000Y-124110000D03*
%TD*%
D22*
%TO.N,Net-(A1-D4)*%
X168750000Y-101750000D03*
%TO.N,Net-(A1-D3)*%
X153250000Y-103761500D03*
%TO.N,GND*%
X156500000Y-99500000D03*
%TO.N,+5V*%
X162000000Y-103250000D03*
%TD*%
D23*
%TO.N,GND*%
X121250000Y-118040000D02*
X123062800Y-118040000D01*
X123062800Y-118040000D02*
X124485000Y-119462200D01*
X124485000Y-119462200D02*
X124485000Y-119985000D01*
X124485000Y-97000000D02*
X124485000Y-102765000D01*
X124485000Y-102765000D02*
X121750000Y-105500000D01*
X116750000Y-105500000D02*
X115250000Y-107000000D01*
X121750000Y-105500000D02*
X116750000Y-105500000D01*
X115250000Y-115500000D02*
X117790000Y-118040000D01*
X115250000Y-107000000D02*
X115250000Y-115500000D01*
X117790000Y-118040000D02*
X121250000Y-118040000D01*
D24*
%TO.N,+5V*%
X149950000Y-108870000D02*
X130130000Y-108870000D01*
X130130000Y-108870000D02*
X123500000Y-115500000D01*
X123500000Y-115500000D02*
X121250000Y-115500000D01*
D23*
%TO.N,GND*%
X124485000Y-140280000D02*
X124485000Y-119750000D01*
X136985000Y-132485000D02*
X124485000Y-119985000D01*
X124485000Y-119985000D02*
X124485000Y-119750000D01*
D24*
%TO.N,Net-(A1-D4)*%
X168930000Y-96820000D02*
X168930000Y-101570000D01*
X168930000Y-101570000D02*
X168750000Y-101750000D01*
%TO.N,Net-(A1-D3)*%
X153250000Y-103761500D02*
X153180000Y-103691500D01*
X153180000Y-103691500D02*
X153180000Y-97070000D01*
%TO.N,+5V*%
X167680000Y-96820000D02*
X167680000Y-99570000D01*
X167680000Y-99570000D02*
X164000000Y-103250000D01*
X164000000Y-103250000D02*
X162000000Y-103250000D01*
%TO.N,GND*%
X156500000Y-128500000D02*
X133000000Y-128500000D01*
X155000000Y-99500000D02*
X156500000Y-99500000D01*
X191250000Y-128500000D02*
X193750000Y-126000000D01*
X170180000Y-99930000D02*
X170180000Y-96820000D01*
X193750000Y-126000000D02*
X193750000Y-108000000D01*
X193750000Y-108000000D02*
X191000000Y-105250000D01*
X191000000Y-105250000D02*
X175500000Y-105250000D01*
X175500000Y-105250000D02*
X170180000Y-99930000D01*
X168750000Y-128500000D02*
X191250000Y-128500000D01*
X191250000Y-128500000D02*
X196250000Y-128500000D01*
X154430000Y-97070000D02*
X154430000Y-98930000D01*
X154430000Y-98930000D02*
X155000000Y-99500000D01*
%TO.N,+5V*%
X151930000Y-97070000D02*
X151930000Y-98570000D01*
X151930000Y-98570000D02*
X149950000Y-100550000D01*
X149950000Y-100550000D02*
X149950000Y-108870000D01*
%TO.N,GND*%
X196250000Y-128500000D02*
X201250000Y-128500000D01*
X201090000Y-133340000D02*
X196250000Y-128500000D01*
X201090000Y-140240000D02*
X201090000Y-133340000D01*
X201250000Y-128500000D02*
X206500000Y-128500000D01*
X206090000Y-140240000D02*
X206090000Y-133340000D01*
X206090000Y-133340000D02*
X201250000Y-128500000D01*
X206500000Y-128500000D02*
X211090000Y-133090000D01*
X211090000Y-140240000D02*
X211090000Y-133090000D01*
X158500000Y-128500000D02*
X156500000Y-128500000D01*
X156500000Y-128500000D02*
X157570000Y-127430000D01*
X157570000Y-127430000D02*
X157570000Y-124110000D01*
X158500000Y-128500000D02*
X163750000Y-128500000D01*
X163250000Y-140260000D02*
X163250000Y-133250000D01*
X163250000Y-133250000D02*
X158500000Y-128500000D01*
X168750000Y-128500000D02*
X163750000Y-128500000D01*
X168250000Y-140260000D02*
X168250000Y-133000000D01*
X168250000Y-133000000D02*
X163750000Y-128500000D01*
X173250000Y-140260000D02*
X173250000Y-133000000D01*
X173250000Y-133000000D02*
X168750000Y-128500000D01*
D23*
X136985000Y-140280000D02*
X136985000Y-132485000D01*
%TD*%
M02*
