%TF.GenerationSoftware,KiCad,Pcbnew,7.0.7-7.0.7~ubuntu22.04.1*%
%TF.CreationDate,2023-09-15T11:32:12-06:00*%
%TF.ProjectId,stepper_microscope_stage,73746570-7065-4725-9f6d-6963726f7363,1.1*%
%TF.SameCoordinates,Original*%
%TF.FileFunction,Legend,Top*%
%TF.FilePolarity,Positive*%
%FSLAX46Y46*%
G04 Gerber Fmt 4.6, Leading zero omitted, Abs format (unit mm)*
G04 Created by KiCad (PCBNEW 7.0.7-7.0.7~ubuntu22.04.1) date 2023-09-15 11:32:12*
%MOMM*%
%LPD*%
G01*
G04 APERTURE LIST*
%ADD10C,0.150000*%
%ADD11C,0.100000*%
G04 APERTURE END LIST*
D10*
X59988095Y-161404819D02*
X59988095Y-160404819D01*
X59988095Y-160881009D02*
X60559523Y-160881009D01*
X60559523Y-161404819D02*
X60559523Y-160404819D01*
X61464285Y-160738152D02*
X61464285Y-161404819D01*
X61226190Y-160357200D02*
X60988095Y-161071485D01*
X60988095Y-161071485D02*
X61607142Y-161071485D01*
X138654819Y-142011904D02*
X137654819Y-142011904D01*
X138131009Y-142011904D02*
X138131009Y-141440476D01*
X138654819Y-141440476D02*
X137654819Y-141440476D01*
X137654819Y-141059523D02*
X137654819Y-140440476D01*
X137654819Y-140440476D02*
X138035771Y-140773809D01*
X138035771Y-140773809D02*
X138035771Y-140630952D01*
X138035771Y-140630952D02*
X138083390Y-140535714D01*
X138083390Y-140535714D02*
X138131009Y-140488095D01*
X138131009Y-140488095D02*
X138226247Y-140440476D01*
X138226247Y-140440476D02*
X138464342Y-140440476D01*
X138464342Y-140440476D02*
X138559580Y-140488095D01*
X138559580Y-140488095D02*
X138607200Y-140535714D01*
X138607200Y-140535714D02*
X138654819Y-140630952D01*
X138654819Y-140630952D02*
X138654819Y-140916666D01*
X138654819Y-140916666D02*
X138607200Y-141011904D01*
X138607200Y-141011904D02*
X138559580Y-141059523D01*
X89654819Y-53011904D02*
X88654819Y-53011904D01*
X89131009Y-53011904D02*
X89131009Y-52440476D01*
X89654819Y-52440476D02*
X88654819Y-52440476D01*
X88750057Y-52011904D02*
X88702438Y-51964285D01*
X88702438Y-51964285D02*
X88654819Y-51869047D01*
X88654819Y-51869047D02*
X88654819Y-51630952D01*
X88654819Y-51630952D02*
X88702438Y-51535714D01*
X88702438Y-51535714D02*
X88750057Y-51488095D01*
X88750057Y-51488095D02*
X88845295Y-51440476D01*
X88845295Y-51440476D02*
X88940533Y-51440476D01*
X88940533Y-51440476D02*
X89083390Y-51488095D01*
X89083390Y-51488095D02*
X89654819Y-52059523D01*
X89654819Y-52059523D02*
X89654819Y-51440476D01*
X180904819Y-92011904D02*
X179904819Y-92011904D01*
X180381009Y-92011904D02*
X180381009Y-91440476D01*
X180904819Y-91440476D02*
X179904819Y-91440476D01*
X180904819Y-90440476D02*
X180904819Y-91011904D01*
X180904819Y-90726190D02*
X179904819Y-90726190D01*
X179904819Y-90726190D02*
X180047676Y-90821428D01*
X180047676Y-90821428D02*
X180142914Y-90916666D01*
X180142914Y-90916666D02*
X180190533Y-91011904D01*
X176594700Y-42833332D02*
X176642319Y-42690475D01*
X176642319Y-42690475D02*
X176642319Y-42452380D01*
X176642319Y-42452380D02*
X176594700Y-42357142D01*
X176594700Y-42357142D02*
X176547080Y-42309523D01*
X176547080Y-42309523D02*
X176451842Y-42261904D01*
X176451842Y-42261904D02*
X176356604Y-42261904D01*
X176356604Y-42261904D02*
X176261366Y-42309523D01*
X176261366Y-42309523D02*
X176213747Y-42357142D01*
X176213747Y-42357142D02*
X176166128Y-42452380D01*
X176166128Y-42452380D02*
X176118509Y-42642856D01*
X176118509Y-42642856D02*
X176070890Y-42738094D01*
X176070890Y-42738094D02*
X176023271Y-42785713D01*
X176023271Y-42785713D02*
X175928033Y-42833332D01*
X175928033Y-42833332D02*
X175832795Y-42833332D01*
X175832795Y-42833332D02*
X175737557Y-42785713D01*
X175737557Y-42785713D02*
X175689938Y-42738094D01*
X175689938Y-42738094D02*
X175642319Y-42642856D01*
X175642319Y-42642856D02*
X175642319Y-42404761D01*
X175642319Y-42404761D02*
X175689938Y-42261904D01*
X175642319Y-41928570D02*
X176642319Y-41690475D01*
X176642319Y-41690475D02*
X175928033Y-41499999D01*
X175928033Y-41499999D02*
X176642319Y-41309523D01*
X176642319Y-41309523D02*
X175642319Y-41071428D01*
X176642319Y-40166666D02*
X176642319Y-40738094D01*
X176642319Y-40452380D02*
X175642319Y-40452380D01*
X175642319Y-40452380D02*
X175785176Y-40547618D01*
X175785176Y-40547618D02*
X175880414Y-40642856D01*
X175880414Y-40642856D02*
X175928033Y-40738094D01*
D11*
%TO.C,SW1*%
X172500000Y-51736200D02*
X175167000Y-51736200D01*
X169833000Y-47316600D02*
X175167000Y-47316600D01*
X175167000Y-43506600D02*
X169833000Y-43506600D01*
X172500000Y-31263800D02*
X169833000Y-31263800D01*
X175167000Y-51736200D02*
X169833000Y-51736200D01*
X169833000Y-51736200D02*
X169833000Y-31263800D01*
X169833000Y-31263800D02*
X175167000Y-31263800D01*
X175167000Y-31263800D02*
X175167000Y-51736200D01*
%TD*%
M02*
