%TF.GenerationSoftware,KiCad,Pcbnew,7.0.7-7.0.7~ubuntu22.04.1*%
%TF.CreationDate,2023-09-15T11:32:12-06:00*%
%TF.ProjectId,stepper_microscope_stage,73746570-7065-4725-9f6d-6963726f7363,1.1*%
%TF.SameCoordinates,Original*%
%TF.FileFunction,Profile,NP*%
%FSLAX46Y46*%
G04 Gerber Fmt 4.6, Leading zero omitted, Abs format (unit mm)*
G04 Created by KiCad (PCBNEW 7.0.7-7.0.7~ubuntu22.04.1) date 2023-09-15 11:32:12*
%MOMM*%
%LPD*%
G01*
G04 APERTURE LIST*
%TA.AperFunction,Profile*%
%ADD10C,0.100000*%
%TD*%
G04 APERTURE END LIST*
D10*
X45294502Y-94702206D02*
X44190000Y-96695002D01*
X46500000Y-53550000D02*
G75*
G03*
X46500000Y-53550000I-1600000J0D01*
G01*
X46650816Y-117795000D02*
G75*
G03*
X46650816Y-117795000I-1600000J0D01*
G01*
X57885498Y-94652206D02*
X58990000Y-96645002D01*
X95200000Y-159800000D02*
G75*
G03*
X95200000Y-159800000I-1600000J0D01*
G01*
X48890000Y-84795000D02*
X48890000Y-88945000D01*
X46750816Y-148395000D02*
G75*
G03*
X46750816Y-148395000I-1600000J0D01*
G01*
X54290000Y-100745002D02*
X54290000Y-98695002D01*
X59860816Y-135540000D02*
G75*
G03*
X59860816Y-135540000I-1600000J0D01*
G01*
X132250000Y-176500000D02*
X41500000Y-176500000D01*
X46660816Y-135540000D02*
G75*
G03*
X46660816Y-135540000I-1600000J0D01*
G01*
X46500000Y-76245000D02*
G75*
G03*
X46500000Y-76245000I-1600000J0D01*
G01*
X59850816Y-122795000D02*
G75*
G03*
X59850816Y-122795000I-1600000J0D01*
G01*
X45294502Y-82802204D02*
X44190000Y-84795000D01*
X127600000Y-159750000D02*
G75*
G03*
X127600000Y-159750000I-1600000J0D01*
G01*
X47785498Y-94702206D02*
X45294502Y-94702206D01*
X46650816Y-112795000D02*
G75*
G03*
X46650816Y-112795000I-1600000J0D01*
G01*
X46660816Y-130540000D02*
G75*
G03*
X46660816Y-130540000I-1600000J0D01*
G01*
X54290000Y-84745000D02*
X54290000Y-86795000D01*
X46500000Y-58550000D02*
G75*
G03*
X46500000Y-58550000I-1600000J0D01*
G01*
X127785000Y-52450000D02*
G75*
G03*
X127785000Y-52450000I-1600000J0D01*
G01*
X59700000Y-76245000D02*
G75*
G03*
X59700000Y-76245000I-1600000J0D01*
G01*
X59950816Y-153395000D02*
G75*
G03*
X59950816Y-153395000I-1600000J0D01*
G01*
X44190000Y-88895000D02*
X44190000Y-86845000D01*
X47785498Y-82802204D02*
X45294502Y-82802204D01*
X59700000Y-58550000D02*
G75*
G03*
X59700000Y-58550000I-1600000J0D01*
G01*
X59950816Y-148395000D02*
G75*
G03*
X59950816Y-148395000I-1600000J0D01*
G01*
X59850816Y-117795000D02*
G75*
G03*
X59850816Y-117795000I-1600000J0D01*
G01*
X59860816Y-130540000D02*
G75*
G03*
X59860816Y-130540000I-1600000J0D01*
G01*
X54290000Y-88845000D02*
X54290000Y-86795000D01*
X117450000Y-159750000D02*
G75*
G03*
X117450000Y-159750000I-1600000J0D01*
G01*
X58990000Y-96645002D02*
X58990000Y-100795002D01*
X45299912Y-90848590D02*
X47790908Y-90848590D01*
X112450000Y-172950000D02*
G75*
G03*
X112450000Y-172950000I-1600000J0D01*
G01*
X117450000Y-172950000D02*
G75*
G03*
X117450000Y-172950000I-1600000J0D01*
G01*
X127600000Y-172950000D02*
G75*
G03*
X127600000Y-172950000I-1600000J0D01*
G01*
X57885498Y-94652206D02*
X55394502Y-94652206D01*
X46500000Y-48550000D02*
G75*
G03*
X46500000Y-48550000I-1600000J0D01*
G01*
X46500000Y-66245000D02*
G75*
G03*
X46500000Y-66245000I-1600000J0D01*
G01*
X44190000Y-84795000D02*
X44190000Y-86845000D01*
X48890000Y-84795000D02*
X47785498Y-82802204D01*
X46500000Y-71245000D02*
G75*
G03*
X46500000Y-71245000I-1600000J0D01*
G01*
X59700000Y-53550000D02*
G75*
G03*
X59700000Y-53550000I-1600000J0D01*
G01*
X132250000Y-176500000D02*
X202000000Y-94500000D01*
X189815000Y-33900000D02*
G75*
G03*
X189815000Y-33900000I-1600000J0D01*
G01*
X55399912Y-102698592D02*
X57890908Y-102698592D01*
X100200000Y-173000000D02*
G75*
G03*
X100200000Y-173000000I-1600000J0D01*
G01*
X112450000Y-159750000D02*
G75*
G03*
X112450000Y-159750000I-1600000J0D01*
G01*
X44190000Y-96695002D02*
X44190000Y-98745002D01*
X58990000Y-100795002D02*
X57890908Y-102698592D01*
X189815000Y-47100000D02*
G75*
G03*
X189815000Y-47100000I-1600000J0D01*
G01*
X59700000Y-71245000D02*
G75*
G03*
X59700000Y-71245000I-1600000J0D01*
G01*
X46660816Y-140540000D02*
G75*
G03*
X46660816Y-140540000I-1600000J0D01*
G01*
X55399912Y-90798590D02*
X57890908Y-90798590D01*
X194815000Y-47100000D02*
G75*
G03*
X194815000Y-47100000I-1600000J0D01*
G01*
X132785000Y-65650000D02*
G75*
G03*
X132785000Y-65650000I-1600000J0D01*
G01*
X127785000Y-65650000D02*
G75*
G03*
X127785000Y-65650000I-1600000J0D01*
G01*
X48890000Y-96695002D02*
X48890000Y-100845002D01*
X54290000Y-96645002D02*
X54290000Y-98695002D01*
X59700000Y-66245000D02*
G75*
G03*
X59700000Y-66245000I-1600000J0D01*
G01*
X122450000Y-172950000D02*
G75*
G03*
X122450000Y-172950000I-1600000J0D01*
G01*
X100200000Y-159800000D02*
G75*
G03*
X100200000Y-159800000I-1600000J0D01*
G01*
X46490000Y-35480000D02*
G75*
G03*
X46490000Y-35480000I-1600000J0D01*
G01*
X46650816Y-122795000D02*
G75*
G03*
X46650816Y-122795000I-1600000J0D01*
G01*
X41500000Y-27250000D02*
X202000000Y-27250000D01*
X122450000Y-159750000D02*
G75*
G03*
X122450000Y-159750000I-1600000J0D01*
G01*
X55394502Y-82752204D02*
X54290000Y-84745000D01*
X44190000Y-100795002D02*
X45299912Y-102748592D01*
X58990000Y-88895000D02*
X57890908Y-90798590D01*
X44190000Y-88895000D02*
X45299912Y-90848590D01*
X58990000Y-84745000D02*
X58990000Y-88895000D01*
X48890000Y-96695002D02*
X47785498Y-94702206D01*
X194815000Y-33900000D02*
G75*
G03*
X194815000Y-33900000I-1600000J0D01*
G01*
X45299912Y-102748592D02*
X47790908Y-102748592D01*
X59850816Y-112795000D02*
G75*
G03*
X59850816Y-112795000I-1600000J0D01*
G01*
X90200000Y-159800000D02*
G75*
G03*
X90200000Y-159800000I-1600000J0D01*
G01*
X46750816Y-153395000D02*
G75*
G03*
X46750816Y-153395000I-1600000J0D01*
G01*
X105350000Y-159800000D02*
G75*
G03*
X105350000Y-159800000I-1600000J0D01*
G01*
X41500000Y-176500000D02*
X41500000Y-27250000D01*
X59700000Y-48550000D02*
G75*
G03*
X59700000Y-48550000I-1600000J0D01*
G01*
X48890000Y-100845002D02*
X47790908Y-102748592D01*
X55399912Y-102698592D02*
X54290000Y-100745002D01*
X44190000Y-100795002D02*
X44190000Y-98745002D01*
X46490000Y-40480000D02*
G75*
G03*
X46490000Y-40480000I-1600000J0D01*
G01*
X55399912Y-90798590D02*
X54290000Y-88845000D01*
X59860816Y-140540000D02*
G75*
G03*
X59860816Y-140540000I-1600000J0D01*
G01*
X47790908Y-90848590D02*
X48890000Y-88945000D01*
X90200000Y-173000000D02*
G75*
G03*
X90200000Y-173000000I-1600000J0D01*
G01*
X132785000Y-52450000D02*
G75*
G03*
X132785000Y-52450000I-1600000J0D01*
G01*
X57885498Y-82752204D02*
X55394502Y-82752204D01*
X57885498Y-82752204D02*
X58990000Y-84745000D01*
X59690000Y-35480000D02*
G75*
G03*
X59690000Y-35480000I-1600000J0D01*
G01*
X95200000Y-173000000D02*
G75*
G03*
X95200000Y-173000000I-1600000J0D01*
G01*
X59690000Y-40480000D02*
G75*
G03*
X59690000Y-40480000I-1600000J0D01*
G01*
X55394502Y-94652206D02*
X54290000Y-96645002D01*
X105350000Y-173000000D02*
G75*
G03*
X105350000Y-173000000I-1600000J0D01*
G01*
X202000000Y-94500000D02*
X202000000Y-27250000D01*
M02*
