%TF.GenerationSoftware,KiCad,Pcbnew,7.0.6-7.0.6~ubuntu22.04.1*%
%TF.CreationDate,2023-07-24T17:50:47-06:00*%
%TF.ProjectId,stepper_microscope_stage_intermediaries,73746570-7065-4725-9f6d-6963726f7363,rev?*%
%TF.SameCoordinates,Original*%
%TF.FileFunction,Copper,L1,Top*%
%TF.FilePolarity,Positive*%
%FSLAX46Y46*%
G04 Gerber Fmt 4.6, Leading zero omitted, Abs format (unit mm)*
G04 Created by KiCad (PCBNEW 7.0.6-7.0.6~ubuntu22.04.1) date 2023-07-24 17:50:47*
%MOMM*%
%LPD*%
G01*
G04 APERTURE LIST*
G04 Aperture macros list*
%AMRoundRect*
0 Rectangle with rounded corners*
0 $1 Rounding radius*
0 $2 $3 $4 $5 $6 $7 $8 $9 X,Y pos of 4 corners*
0 Add a 4 corners polygon primitive as box body*
4,1,4,$2,$3,$4,$5,$6,$7,$8,$9,$2,$3,0*
0 Add four circle primitives for the rounded corners*
1,1,$1+$1,$2,$3*
1,1,$1+$1,$4,$5*
1,1,$1+$1,$6,$7*
1,1,$1+$1,$8,$9*
0 Add four rect primitives between the rounded corners*
20,1,$1+$1,$2,$3,$4,$5,0*
20,1,$1+$1,$4,$5,$6,$7,0*
20,1,$1+$1,$6,$7,$8,$9,0*
20,1,$1+$1,$8,$9,$2,$3,0*%
G04 Aperture macros list end*
%ADD10C,0.125000*%
%TA.AperFunction,NonConductor*%
%ADD11C,0.125000*%
%TD*%
%TA.AperFunction,ComponentPad*%
%ADD12R,1.980000X3.960000*%
%TD*%
%TA.AperFunction,ComponentPad*%
%ADD13O,1.980000X3.960000*%
%TD*%
%TA.AperFunction,SMDPad,CuDef*%
%ADD14RoundRect,0.250000X0.250000X1.150000X-0.250000X1.150000X-0.250000X-1.150000X0.250000X-1.150000X0*%
%TD*%
%TA.AperFunction,SMDPad,CuDef*%
%ADD15RoundRect,0.150000X0.150000X0.700000X-0.150000X0.700000X-0.150000X-0.700000X0.150000X-0.700000X0*%
%TD*%
%TA.AperFunction,Conductor*%
%ADD16C,0.250000*%
%TD*%
G04 APERTURE END LIST*
D10*
D11*
X148201283Y-114377309D02*
X148201283Y-113877309D01*
X148201283Y-113877309D02*
X148486997Y-114377309D01*
X148486997Y-114377309D02*
X148486997Y-113877309D01*
X148939379Y-114377309D02*
X148939379Y-114115404D01*
X148939379Y-114115404D02*
X148915569Y-114067785D01*
X148915569Y-114067785D02*
X148867950Y-114043976D01*
X148867950Y-114043976D02*
X148772712Y-114043976D01*
X148772712Y-114043976D02*
X148725093Y-114067785D01*
X148939379Y-114353500D02*
X148891760Y-114377309D01*
X148891760Y-114377309D02*
X148772712Y-114377309D01*
X148772712Y-114377309D02*
X148725093Y-114353500D01*
X148725093Y-114353500D02*
X148701284Y-114305880D01*
X148701284Y-114305880D02*
X148701284Y-114258261D01*
X148701284Y-114258261D02*
X148725093Y-114210642D01*
X148725093Y-114210642D02*
X148772712Y-114186833D01*
X148772712Y-114186833D02*
X148891760Y-114186833D01*
X148891760Y-114186833D02*
X148939379Y-114163023D01*
X149106046Y-114043976D02*
X149296522Y-114043976D01*
X149177474Y-113877309D02*
X149177474Y-114305880D01*
X149177474Y-114305880D02*
X149201284Y-114353500D01*
X149201284Y-114353500D02*
X149248903Y-114377309D01*
X149248903Y-114377309D02*
X149296522Y-114377309D01*
X149463188Y-114377309D02*
X149463188Y-113877309D01*
X149677474Y-114377309D02*
X149677474Y-114115404D01*
X149677474Y-114115404D02*
X149653664Y-114067785D01*
X149653664Y-114067785D02*
X149606045Y-114043976D01*
X149606045Y-114043976D02*
X149534617Y-114043976D01*
X149534617Y-114043976D02*
X149486998Y-114067785D01*
X149486998Y-114067785D02*
X149463188Y-114091595D01*
X150129855Y-114377309D02*
X150129855Y-114115404D01*
X150129855Y-114115404D02*
X150106045Y-114067785D01*
X150106045Y-114067785D02*
X150058426Y-114043976D01*
X150058426Y-114043976D02*
X149963188Y-114043976D01*
X149963188Y-114043976D02*
X149915569Y-114067785D01*
X150129855Y-114353500D02*
X150082236Y-114377309D01*
X150082236Y-114377309D02*
X149963188Y-114377309D01*
X149963188Y-114377309D02*
X149915569Y-114353500D01*
X149915569Y-114353500D02*
X149891760Y-114305880D01*
X149891760Y-114305880D02*
X149891760Y-114258261D01*
X149891760Y-114258261D02*
X149915569Y-114210642D01*
X149915569Y-114210642D02*
X149963188Y-114186833D01*
X149963188Y-114186833D02*
X150082236Y-114186833D01*
X150082236Y-114186833D02*
X150129855Y-114163023D01*
X150367950Y-114043976D02*
X150367950Y-114377309D01*
X150367950Y-114091595D02*
X150391760Y-114067785D01*
X150391760Y-114067785D02*
X150439379Y-114043976D01*
X150439379Y-114043976D02*
X150510807Y-114043976D01*
X150510807Y-114043976D02*
X150558426Y-114067785D01*
X150558426Y-114067785D02*
X150582236Y-114115404D01*
X150582236Y-114115404D02*
X150582236Y-114377309D01*
X150820331Y-114377309D02*
X150820331Y-114043976D01*
X150820331Y-113877309D02*
X150796522Y-113901119D01*
X150796522Y-113901119D02*
X150820331Y-113924928D01*
X150820331Y-113924928D02*
X150844141Y-113901119D01*
X150844141Y-113901119D02*
X150820331Y-113877309D01*
X150820331Y-113877309D02*
X150820331Y-113924928D01*
X151248902Y-114353500D02*
X151201283Y-114377309D01*
X151201283Y-114377309D02*
X151106045Y-114377309D01*
X151106045Y-114377309D02*
X151058426Y-114353500D01*
X151058426Y-114353500D02*
X151034617Y-114305880D01*
X151034617Y-114305880D02*
X151034617Y-114115404D01*
X151034617Y-114115404D02*
X151058426Y-114067785D01*
X151058426Y-114067785D02*
X151106045Y-114043976D01*
X151106045Y-114043976D02*
X151201283Y-114043976D01*
X151201283Y-114043976D02*
X151248902Y-114067785D01*
X151248902Y-114067785D02*
X151272712Y-114115404D01*
X151272712Y-114115404D02*
X151272712Y-114163023D01*
X151272712Y-114163023D02*
X151034617Y-114210642D01*
X151558426Y-114377309D02*
X151510807Y-114353500D01*
X151510807Y-114353500D02*
X151486997Y-114305880D01*
X151486997Y-114305880D02*
X151486997Y-113877309D01*
X152129854Y-114377309D02*
X152129854Y-113877309D01*
X152129854Y-114115404D02*
X152415568Y-114115404D01*
X152415568Y-114377309D02*
X152415568Y-113877309D01*
X152725093Y-114377309D02*
X152677474Y-114353500D01*
X152677474Y-114353500D02*
X152653664Y-114329690D01*
X152653664Y-114329690D02*
X152629855Y-114282071D01*
X152629855Y-114282071D02*
X152629855Y-114139214D01*
X152629855Y-114139214D02*
X152653664Y-114091595D01*
X152653664Y-114091595D02*
X152677474Y-114067785D01*
X152677474Y-114067785D02*
X152725093Y-114043976D01*
X152725093Y-114043976D02*
X152796521Y-114043976D01*
X152796521Y-114043976D02*
X152844140Y-114067785D01*
X152844140Y-114067785D02*
X152867950Y-114091595D01*
X152867950Y-114091595D02*
X152891759Y-114139214D01*
X152891759Y-114139214D02*
X152891759Y-114282071D01*
X152891759Y-114282071D02*
X152867950Y-114329690D01*
X152867950Y-114329690D02*
X152844140Y-114353500D01*
X152844140Y-114353500D02*
X152796521Y-114377309D01*
X152796521Y-114377309D02*
X152725093Y-114377309D01*
X153106045Y-114377309D02*
X153106045Y-114043976D01*
X153106045Y-114139214D02*
X153129855Y-114091595D01*
X153129855Y-114091595D02*
X153153664Y-114067785D01*
X153153664Y-114067785D02*
X153201283Y-114043976D01*
X153201283Y-114043976D02*
X153248902Y-114043976D01*
X153415569Y-114043976D02*
X153415569Y-114377309D01*
X153415569Y-114091595D02*
X153439379Y-114067785D01*
X153439379Y-114067785D02*
X153486998Y-114043976D01*
X153486998Y-114043976D02*
X153558426Y-114043976D01*
X153558426Y-114043976D02*
X153606045Y-114067785D01*
X153606045Y-114067785D02*
X153629855Y-114115404D01*
X153629855Y-114115404D02*
X153629855Y-114377309D01*
X154058426Y-114353500D02*
X154010807Y-114377309D01*
X154010807Y-114377309D02*
X153915569Y-114377309D01*
X153915569Y-114377309D02*
X153867950Y-114353500D01*
X153867950Y-114353500D02*
X153844141Y-114305880D01*
X153844141Y-114305880D02*
X153844141Y-114115404D01*
X153844141Y-114115404D02*
X153867950Y-114067785D01*
X153867950Y-114067785D02*
X153915569Y-114043976D01*
X153915569Y-114043976D02*
X154010807Y-114043976D01*
X154010807Y-114043976D02*
X154058426Y-114067785D01*
X154058426Y-114067785D02*
X154082236Y-114115404D01*
X154082236Y-114115404D02*
X154082236Y-114163023D01*
X154082236Y-114163023D02*
X153844141Y-114210642D01*
X154820330Y-114567785D02*
X154796521Y-114543976D01*
X154796521Y-114543976D02*
X154748902Y-114472547D01*
X154748902Y-114472547D02*
X154725092Y-114424928D01*
X154725092Y-114424928D02*
X154701283Y-114353500D01*
X154701283Y-114353500D02*
X154677473Y-114234452D01*
X154677473Y-114234452D02*
X154677473Y-114139214D01*
X154677473Y-114139214D02*
X154701283Y-114020166D01*
X154701283Y-114020166D02*
X154725092Y-113948738D01*
X154725092Y-113948738D02*
X154748902Y-113901119D01*
X154748902Y-113901119D02*
X154796521Y-113829690D01*
X154796521Y-113829690D02*
X154820330Y-113805880D01*
X154986997Y-113924928D02*
X155010806Y-113901119D01*
X155010806Y-113901119D02*
X155058425Y-113877309D01*
X155058425Y-113877309D02*
X155177473Y-113877309D01*
X155177473Y-113877309D02*
X155225092Y-113901119D01*
X155225092Y-113901119D02*
X155248901Y-113924928D01*
X155248901Y-113924928D02*
X155272711Y-113972547D01*
X155272711Y-113972547D02*
X155272711Y-114020166D01*
X155272711Y-114020166D02*
X155248901Y-114091595D01*
X155248901Y-114091595D02*
X154963187Y-114377309D01*
X154963187Y-114377309D02*
X155272711Y-114377309D01*
X155582234Y-113877309D02*
X155629853Y-113877309D01*
X155629853Y-113877309D02*
X155677472Y-113901119D01*
X155677472Y-113901119D02*
X155701282Y-113924928D01*
X155701282Y-113924928D02*
X155725091Y-113972547D01*
X155725091Y-113972547D02*
X155748901Y-114067785D01*
X155748901Y-114067785D02*
X155748901Y-114186833D01*
X155748901Y-114186833D02*
X155725091Y-114282071D01*
X155725091Y-114282071D02*
X155701282Y-114329690D01*
X155701282Y-114329690D02*
X155677472Y-114353500D01*
X155677472Y-114353500D02*
X155629853Y-114377309D01*
X155629853Y-114377309D02*
X155582234Y-114377309D01*
X155582234Y-114377309D02*
X155534615Y-114353500D01*
X155534615Y-114353500D02*
X155510806Y-114329690D01*
X155510806Y-114329690D02*
X155486996Y-114282071D01*
X155486996Y-114282071D02*
X155463187Y-114186833D01*
X155463187Y-114186833D02*
X155463187Y-114067785D01*
X155463187Y-114067785D02*
X155486996Y-113972547D01*
X155486996Y-113972547D02*
X155510806Y-113924928D01*
X155510806Y-113924928D02*
X155534615Y-113901119D01*
X155534615Y-113901119D02*
X155582234Y-113877309D01*
X155939377Y-113924928D02*
X155963186Y-113901119D01*
X155963186Y-113901119D02*
X156010805Y-113877309D01*
X156010805Y-113877309D02*
X156129853Y-113877309D01*
X156129853Y-113877309D02*
X156177472Y-113901119D01*
X156177472Y-113901119D02*
X156201281Y-113924928D01*
X156201281Y-113924928D02*
X156225091Y-113972547D01*
X156225091Y-113972547D02*
X156225091Y-114020166D01*
X156225091Y-114020166D02*
X156201281Y-114091595D01*
X156201281Y-114091595D02*
X155915567Y-114377309D01*
X155915567Y-114377309D02*
X156225091Y-114377309D01*
X156391757Y-113877309D02*
X156701281Y-113877309D01*
X156701281Y-113877309D02*
X156534614Y-114067785D01*
X156534614Y-114067785D02*
X156606043Y-114067785D01*
X156606043Y-114067785D02*
X156653662Y-114091595D01*
X156653662Y-114091595D02*
X156677471Y-114115404D01*
X156677471Y-114115404D02*
X156701281Y-114163023D01*
X156701281Y-114163023D02*
X156701281Y-114282071D01*
X156701281Y-114282071D02*
X156677471Y-114329690D01*
X156677471Y-114329690D02*
X156653662Y-114353500D01*
X156653662Y-114353500D02*
X156606043Y-114377309D01*
X156606043Y-114377309D02*
X156463186Y-114377309D01*
X156463186Y-114377309D02*
X156415567Y-114353500D01*
X156415567Y-114353500D02*
X156391757Y-114329690D01*
X156867947Y-114567785D02*
X156891757Y-114543976D01*
X156891757Y-114543976D02*
X156939376Y-114472547D01*
X156939376Y-114472547D02*
X156963185Y-114424928D01*
X156963185Y-114424928D02*
X156986995Y-114353500D01*
X156986995Y-114353500D02*
X157010804Y-114234452D01*
X157010804Y-114234452D02*
X157010804Y-114139214D01*
X157010804Y-114139214D02*
X156986995Y-114020166D01*
X156986995Y-114020166D02*
X156963185Y-113948738D01*
X156963185Y-113948738D02*
X156939376Y-113901119D01*
X156939376Y-113901119D02*
X156891757Y-113829690D01*
X156891757Y-113829690D02*
X156867947Y-113805880D01*
X148177474Y-115158500D02*
X148248902Y-115182309D01*
X148248902Y-115182309D02*
X148367950Y-115182309D01*
X148367950Y-115182309D02*
X148415569Y-115158500D01*
X148415569Y-115158500D02*
X148439378Y-115134690D01*
X148439378Y-115134690D02*
X148463188Y-115087071D01*
X148463188Y-115087071D02*
X148463188Y-115039452D01*
X148463188Y-115039452D02*
X148439378Y-114991833D01*
X148439378Y-114991833D02*
X148415569Y-114968023D01*
X148415569Y-114968023D02*
X148367950Y-114944214D01*
X148367950Y-114944214D02*
X148272712Y-114920404D01*
X148272712Y-114920404D02*
X148225093Y-114896595D01*
X148225093Y-114896595D02*
X148201283Y-114872785D01*
X148201283Y-114872785D02*
X148177474Y-114825166D01*
X148177474Y-114825166D02*
X148177474Y-114777547D01*
X148177474Y-114777547D02*
X148201283Y-114729928D01*
X148201283Y-114729928D02*
X148225093Y-114706119D01*
X148225093Y-114706119D02*
X148272712Y-114682309D01*
X148272712Y-114682309D02*
X148391759Y-114682309D01*
X148391759Y-114682309D02*
X148463188Y-114706119D01*
X148606045Y-114848976D02*
X148796521Y-114848976D01*
X148677473Y-114682309D02*
X148677473Y-115110880D01*
X148677473Y-115110880D02*
X148701283Y-115158500D01*
X148701283Y-115158500D02*
X148748902Y-115182309D01*
X148748902Y-115182309D02*
X148796521Y-115182309D01*
X149177473Y-115182309D02*
X149177473Y-114920404D01*
X149177473Y-114920404D02*
X149153663Y-114872785D01*
X149153663Y-114872785D02*
X149106044Y-114848976D01*
X149106044Y-114848976D02*
X149010806Y-114848976D01*
X149010806Y-114848976D02*
X148963187Y-114872785D01*
X149177473Y-115158500D02*
X149129854Y-115182309D01*
X149129854Y-115182309D02*
X149010806Y-115182309D01*
X149010806Y-115182309D02*
X148963187Y-115158500D01*
X148963187Y-115158500D02*
X148939378Y-115110880D01*
X148939378Y-115110880D02*
X148939378Y-115063261D01*
X148939378Y-115063261D02*
X148963187Y-115015642D01*
X148963187Y-115015642D02*
X149010806Y-114991833D01*
X149010806Y-114991833D02*
X149129854Y-114991833D01*
X149129854Y-114991833D02*
X149177473Y-114968023D01*
X149629854Y-114848976D02*
X149629854Y-115253738D01*
X149629854Y-115253738D02*
X149606044Y-115301357D01*
X149606044Y-115301357D02*
X149582235Y-115325166D01*
X149582235Y-115325166D02*
X149534616Y-115348976D01*
X149534616Y-115348976D02*
X149463187Y-115348976D01*
X149463187Y-115348976D02*
X149415568Y-115325166D01*
X149629854Y-115158500D02*
X149582235Y-115182309D01*
X149582235Y-115182309D02*
X149486997Y-115182309D01*
X149486997Y-115182309D02*
X149439378Y-115158500D01*
X149439378Y-115158500D02*
X149415568Y-115134690D01*
X149415568Y-115134690D02*
X149391759Y-115087071D01*
X149391759Y-115087071D02*
X149391759Y-114944214D01*
X149391759Y-114944214D02*
X149415568Y-114896595D01*
X149415568Y-114896595D02*
X149439378Y-114872785D01*
X149439378Y-114872785D02*
X149486997Y-114848976D01*
X149486997Y-114848976D02*
X149582235Y-114848976D01*
X149582235Y-114848976D02*
X149629854Y-114872785D01*
X150058425Y-115158500D02*
X150010806Y-115182309D01*
X150010806Y-115182309D02*
X149915568Y-115182309D01*
X149915568Y-115182309D02*
X149867949Y-115158500D01*
X149867949Y-115158500D02*
X149844140Y-115110880D01*
X149844140Y-115110880D02*
X149844140Y-114920404D01*
X149844140Y-114920404D02*
X149867949Y-114872785D01*
X149867949Y-114872785D02*
X149915568Y-114848976D01*
X149915568Y-114848976D02*
X150010806Y-114848976D01*
X150010806Y-114848976D02*
X150058425Y-114872785D01*
X150058425Y-114872785D02*
X150082235Y-114920404D01*
X150082235Y-114920404D02*
X150082235Y-114968023D01*
X150082235Y-114968023D02*
X149844140Y-115015642D01*
X150653663Y-115158500D02*
X150701282Y-115182309D01*
X150701282Y-115182309D02*
X150796520Y-115182309D01*
X150796520Y-115182309D02*
X150844139Y-115158500D01*
X150844139Y-115158500D02*
X150867948Y-115110880D01*
X150867948Y-115110880D02*
X150867948Y-115087071D01*
X150867948Y-115087071D02*
X150844139Y-115039452D01*
X150844139Y-115039452D02*
X150796520Y-115015642D01*
X150796520Y-115015642D02*
X150725091Y-115015642D01*
X150725091Y-115015642D02*
X150677472Y-114991833D01*
X150677472Y-114991833D02*
X150653663Y-114944214D01*
X150653663Y-114944214D02*
X150653663Y-114920404D01*
X150653663Y-114920404D02*
X150677472Y-114872785D01*
X150677472Y-114872785D02*
X150725091Y-114848976D01*
X150725091Y-114848976D02*
X150796520Y-114848976D01*
X150796520Y-114848976D02*
X150844139Y-114872785D01*
X151010806Y-114848976D02*
X151201282Y-114848976D01*
X151082234Y-114682309D02*
X151082234Y-115110880D01*
X151082234Y-115110880D02*
X151106044Y-115158500D01*
X151106044Y-115158500D02*
X151153663Y-115182309D01*
X151153663Y-115182309D02*
X151201282Y-115182309D01*
X151558424Y-115158500D02*
X151510805Y-115182309D01*
X151510805Y-115182309D02*
X151415567Y-115182309D01*
X151415567Y-115182309D02*
X151367948Y-115158500D01*
X151367948Y-115158500D02*
X151344139Y-115110880D01*
X151344139Y-115110880D02*
X151344139Y-114920404D01*
X151344139Y-114920404D02*
X151367948Y-114872785D01*
X151367948Y-114872785D02*
X151415567Y-114848976D01*
X151415567Y-114848976D02*
X151510805Y-114848976D01*
X151510805Y-114848976D02*
X151558424Y-114872785D01*
X151558424Y-114872785D02*
X151582234Y-114920404D01*
X151582234Y-114920404D02*
X151582234Y-114968023D01*
X151582234Y-114968023D02*
X151344139Y-115015642D01*
X151796519Y-114848976D02*
X151796519Y-115348976D01*
X151796519Y-114872785D02*
X151844138Y-114848976D01*
X151844138Y-114848976D02*
X151939376Y-114848976D01*
X151939376Y-114848976D02*
X151986995Y-114872785D01*
X151986995Y-114872785D02*
X152010805Y-114896595D01*
X152010805Y-114896595D02*
X152034614Y-114944214D01*
X152034614Y-114944214D02*
X152034614Y-115087071D01*
X152034614Y-115087071D02*
X152010805Y-115134690D01*
X152010805Y-115134690D02*
X151986995Y-115158500D01*
X151986995Y-115158500D02*
X151939376Y-115182309D01*
X151939376Y-115182309D02*
X151844138Y-115182309D01*
X151844138Y-115182309D02*
X151796519Y-115158500D01*
X152248900Y-114848976D02*
X152248900Y-115348976D01*
X152248900Y-114872785D02*
X152296519Y-114848976D01*
X152296519Y-114848976D02*
X152391757Y-114848976D01*
X152391757Y-114848976D02*
X152439376Y-114872785D01*
X152439376Y-114872785D02*
X152463186Y-114896595D01*
X152463186Y-114896595D02*
X152486995Y-114944214D01*
X152486995Y-114944214D02*
X152486995Y-115087071D01*
X152486995Y-115087071D02*
X152463186Y-115134690D01*
X152463186Y-115134690D02*
X152439376Y-115158500D01*
X152439376Y-115158500D02*
X152391757Y-115182309D01*
X152391757Y-115182309D02*
X152296519Y-115182309D01*
X152296519Y-115182309D02*
X152248900Y-115158500D01*
X152891757Y-115158500D02*
X152844138Y-115182309D01*
X152844138Y-115182309D02*
X152748900Y-115182309D01*
X152748900Y-115182309D02*
X152701281Y-115158500D01*
X152701281Y-115158500D02*
X152677472Y-115110880D01*
X152677472Y-115110880D02*
X152677472Y-114920404D01*
X152677472Y-114920404D02*
X152701281Y-114872785D01*
X152701281Y-114872785D02*
X152748900Y-114848976D01*
X152748900Y-114848976D02*
X152844138Y-114848976D01*
X152844138Y-114848976D02*
X152891757Y-114872785D01*
X152891757Y-114872785D02*
X152915567Y-114920404D01*
X152915567Y-114920404D02*
X152915567Y-114968023D01*
X152915567Y-114968023D02*
X152677472Y-115015642D01*
X153129852Y-115182309D02*
X153129852Y-114848976D01*
X153129852Y-114944214D02*
X153153662Y-114896595D01*
X153153662Y-114896595D02*
X153177471Y-114872785D01*
X153177471Y-114872785D02*
X153225090Y-114848976D01*
X153225090Y-114848976D02*
X153272709Y-114848976D01*
X153820328Y-115182309D02*
X153820328Y-114848976D01*
X153820328Y-114682309D02*
X153796519Y-114706119D01*
X153796519Y-114706119D02*
X153820328Y-114729928D01*
X153820328Y-114729928D02*
X153844138Y-114706119D01*
X153844138Y-114706119D02*
X153820328Y-114682309D01*
X153820328Y-114682309D02*
X153820328Y-114729928D01*
X154058423Y-114848976D02*
X154058423Y-115182309D01*
X154058423Y-114896595D02*
X154082233Y-114872785D01*
X154082233Y-114872785D02*
X154129852Y-114848976D01*
X154129852Y-114848976D02*
X154201280Y-114848976D01*
X154201280Y-114848976D02*
X154248899Y-114872785D01*
X154248899Y-114872785D02*
X154272709Y-114920404D01*
X154272709Y-114920404D02*
X154272709Y-115182309D01*
X154439376Y-114848976D02*
X154629852Y-114848976D01*
X154510804Y-114682309D02*
X154510804Y-115110880D01*
X154510804Y-115110880D02*
X154534614Y-115158500D01*
X154534614Y-115158500D02*
X154582233Y-115182309D01*
X154582233Y-115182309D02*
X154629852Y-115182309D01*
X154986994Y-115158500D02*
X154939375Y-115182309D01*
X154939375Y-115182309D02*
X154844137Y-115182309D01*
X154844137Y-115182309D02*
X154796518Y-115158500D01*
X154796518Y-115158500D02*
X154772709Y-115110880D01*
X154772709Y-115110880D02*
X154772709Y-114920404D01*
X154772709Y-114920404D02*
X154796518Y-114872785D01*
X154796518Y-114872785D02*
X154844137Y-114848976D01*
X154844137Y-114848976D02*
X154939375Y-114848976D01*
X154939375Y-114848976D02*
X154986994Y-114872785D01*
X154986994Y-114872785D02*
X155010804Y-114920404D01*
X155010804Y-114920404D02*
X155010804Y-114968023D01*
X155010804Y-114968023D02*
X154772709Y-115015642D01*
X155225089Y-115182309D02*
X155225089Y-114848976D01*
X155225089Y-114944214D02*
X155248899Y-114896595D01*
X155248899Y-114896595D02*
X155272708Y-114872785D01*
X155272708Y-114872785D02*
X155320327Y-114848976D01*
X155320327Y-114848976D02*
X155367946Y-114848976D01*
X155534613Y-115182309D02*
X155534613Y-114848976D01*
X155534613Y-114896595D02*
X155558423Y-114872785D01*
X155558423Y-114872785D02*
X155606042Y-114848976D01*
X155606042Y-114848976D02*
X155677470Y-114848976D01*
X155677470Y-114848976D02*
X155725089Y-114872785D01*
X155725089Y-114872785D02*
X155748899Y-114920404D01*
X155748899Y-114920404D02*
X155748899Y-115182309D01*
X155748899Y-114920404D02*
X155772708Y-114872785D01*
X155772708Y-114872785D02*
X155820327Y-114848976D01*
X155820327Y-114848976D02*
X155891756Y-114848976D01*
X155891756Y-114848976D02*
X155939375Y-114872785D01*
X155939375Y-114872785D02*
X155963185Y-114920404D01*
X155963185Y-114920404D02*
X155963185Y-115182309D01*
X156391756Y-115158500D02*
X156344137Y-115182309D01*
X156344137Y-115182309D02*
X156248899Y-115182309D01*
X156248899Y-115182309D02*
X156201280Y-115158500D01*
X156201280Y-115158500D02*
X156177471Y-115110880D01*
X156177471Y-115110880D02*
X156177471Y-114920404D01*
X156177471Y-114920404D02*
X156201280Y-114872785D01*
X156201280Y-114872785D02*
X156248899Y-114848976D01*
X156248899Y-114848976D02*
X156344137Y-114848976D01*
X156344137Y-114848976D02*
X156391756Y-114872785D01*
X156391756Y-114872785D02*
X156415566Y-114920404D01*
X156415566Y-114920404D02*
X156415566Y-114968023D01*
X156415566Y-114968023D02*
X156177471Y-115015642D01*
X156844137Y-115182309D02*
X156844137Y-114682309D01*
X156844137Y-115158500D02*
X156796518Y-115182309D01*
X156796518Y-115182309D02*
X156701280Y-115182309D01*
X156701280Y-115182309D02*
X156653661Y-115158500D01*
X156653661Y-115158500D02*
X156629851Y-115134690D01*
X156629851Y-115134690D02*
X156606042Y-115087071D01*
X156606042Y-115087071D02*
X156606042Y-114944214D01*
X156606042Y-114944214D02*
X156629851Y-114896595D01*
X156629851Y-114896595D02*
X156653661Y-114872785D01*
X156653661Y-114872785D02*
X156701280Y-114848976D01*
X156701280Y-114848976D02*
X156796518Y-114848976D01*
X156796518Y-114848976D02*
X156844137Y-114872785D01*
X157082232Y-115182309D02*
X157082232Y-114848976D01*
X157082232Y-114682309D02*
X157058423Y-114706119D01*
X157058423Y-114706119D02*
X157082232Y-114729928D01*
X157082232Y-114729928D02*
X157106042Y-114706119D01*
X157106042Y-114706119D02*
X157082232Y-114682309D01*
X157082232Y-114682309D02*
X157082232Y-114729928D01*
X157534613Y-115182309D02*
X157534613Y-114920404D01*
X157534613Y-114920404D02*
X157510803Y-114872785D01*
X157510803Y-114872785D02*
X157463184Y-114848976D01*
X157463184Y-114848976D02*
X157367946Y-114848976D01*
X157367946Y-114848976D02*
X157320327Y-114872785D01*
X157534613Y-115158500D02*
X157486994Y-115182309D01*
X157486994Y-115182309D02*
X157367946Y-115182309D01*
X157367946Y-115182309D02*
X157320327Y-115158500D01*
X157320327Y-115158500D02*
X157296518Y-115110880D01*
X157296518Y-115110880D02*
X157296518Y-115063261D01*
X157296518Y-115063261D02*
X157320327Y-115015642D01*
X157320327Y-115015642D02*
X157367946Y-114991833D01*
X157367946Y-114991833D02*
X157486994Y-114991833D01*
X157486994Y-114991833D02*
X157534613Y-114968023D01*
X157772708Y-115182309D02*
X157772708Y-114848976D01*
X157772708Y-114944214D02*
X157796518Y-114896595D01*
X157796518Y-114896595D02*
X157820327Y-114872785D01*
X157820327Y-114872785D02*
X157867946Y-114848976D01*
X157867946Y-114848976D02*
X157915565Y-114848976D01*
X158034613Y-114848976D02*
X158153661Y-115182309D01*
X158272708Y-114848976D02*
X158153661Y-115182309D01*
X158153661Y-115182309D02*
X158106042Y-115301357D01*
X158106042Y-115301357D02*
X158082232Y-115325166D01*
X158082232Y-115325166D02*
X158034613Y-115348976D01*
X158796517Y-114848976D02*
X158915565Y-115182309D01*
X158915565Y-115182309D02*
X159034612Y-114848976D01*
X159415564Y-115158500D02*
X159367945Y-115182309D01*
X159367945Y-115182309D02*
X159272707Y-115182309D01*
X159272707Y-115182309D02*
X159225088Y-115158500D01*
X159225088Y-115158500D02*
X159201279Y-115110880D01*
X159201279Y-115110880D02*
X159201279Y-114920404D01*
X159201279Y-114920404D02*
X159225088Y-114872785D01*
X159225088Y-114872785D02*
X159272707Y-114848976D01*
X159272707Y-114848976D02*
X159367945Y-114848976D01*
X159367945Y-114848976D02*
X159415564Y-114872785D01*
X159415564Y-114872785D02*
X159439374Y-114920404D01*
X159439374Y-114920404D02*
X159439374Y-114968023D01*
X159439374Y-114968023D02*
X159201279Y-115015642D01*
X159653659Y-115182309D02*
X159653659Y-114848976D01*
X159653659Y-114944214D02*
X159677469Y-114896595D01*
X159677469Y-114896595D02*
X159701278Y-114872785D01*
X159701278Y-114872785D02*
X159748897Y-114848976D01*
X159748897Y-114848976D02*
X159796516Y-114848976D01*
X159939374Y-115158500D02*
X159986993Y-115182309D01*
X159986993Y-115182309D02*
X160082231Y-115182309D01*
X160082231Y-115182309D02*
X160129850Y-115158500D01*
X160129850Y-115158500D02*
X160153659Y-115110880D01*
X160153659Y-115110880D02*
X160153659Y-115087071D01*
X160153659Y-115087071D02*
X160129850Y-115039452D01*
X160129850Y-115039452D02*
X160082231Y-115015642D01*
X160082231Y-115015642D02*
X160010802Y-115015642D01*
X160010802Y-115015642D02*
X159963183Y-114991833D01*
X159963183Y-114991833D02*
X159939374Y-114944214D01*
X159939374Y-114944214D02*
X159939374Y-114920404D01*
X159939374Y-114920404D02*
X159963183Y-114872785D01*
X159963183Y-114872785D02*
X160010802Y-114848976D01*
X160010802Y-114848976D02*
X160082231Y-114848976D01*
X160082231Y-114848976D02*
X160129850Y-114872785D01*
X160367945Y-115182309D02*
X160367945Y-114848976D01*
X160367945Y-114682309D02*
X160344136Y-114706119D01*
X160344136Y-114706119D02*
X160367945Y-114729928D01*
X160367945Y-114729928D02*
X160391755Y-114706119D01*
X160391755Y-114706119D02*
X160367945Y-114682309D01*
X160367945Y-114682309D02*
X160367945Y-114729928D01*
X160677469Y-115182309D02*
X160629850Y-115158500D01*
X160629850Y-115158500D02*
X160606040Y-115134690D01*
X160606040Y-115134690D02*
X160582231Y-115087071D01*
X160582231Y-115087071D02*
X160582231Y-114944214D01*
X160582231Y-114944214D02*
X160606040Y-114896595D01*
X160606040Y-114896595D02*
X160629850Y-114872785D01*
X160629850Y-114872785D02*
X160677469Y-114848976D01*
X160677469Y-114848976D02*
X160748897Y-114848976D01*
X160748897Y-114848976D02*
X160796516Y-114872785D01*
X160796516Y-114872785D02*
X160820326Y-114896595D01*
X160820326Y-114896595D02*
X160844135Y-114944214D01*
X160844135Y-114944214D02*
X160844135Y-115087071D01*
X160844135Y-115087071D02*
X160820326Y-115134690D01*
X160820326Y-115134690D02*
X160796516Y-115158500D01*
X160796516Y-115158500D02*
X160748897Y-115182309D01*
X160748897Y-115182309D02*
X160677469Y-115182309D01*
X161058421Y-114848976D02*
X161058421Y-115182309D01*
X161058421Y-114896595D02*
X161082231Y-114872785D01*
X161082231Y-114872785D02*
X161129850Y-114848976D01*
X161129850Y-114848976D02*
X161201278Y-114848976D01*
X161201278Y-114848976D02*
X161248897Y-114872785D01*
X161248897Y-114872785D02*
X161272707Y-114920404D01*
X161272707Y-114920404D02*
X161272707Y-115182309D01*
X162153659Y-115182309D02*
X161867945Y-115182309D01*
X162010802Y-115182309D02*
X162010802Y-114682309D01*
X162010802Y-114682309D02*
X161963183Y-114753738D01*
X161963183Y-114753738D02*
X161915564Y-114801357D01*
X161915564Y-114801357D02*
X161867945Y-114825166D01*
X162367944Y-115134690D02*
X162391754Y-115158500D01*
X162391754Y-115158500D02*
X162367944Y-115182309D01*
X162367944Y-115182309D02*
X162344135Y-115158500D01*
X162344135Y-115158500D02*
X162367944Y-115134690D01*
X162367944Y-115134690D02*
X162367944Y-115182309D01*
X162701277Y-114682309D02*
X162748896Y-114682309D01*
X162748896Y-114682309D02*
X162796515Y-114706119D01*
X162796515Y-114706119D02*
X162820325Y-114729928D01*
X162820325Y-114729928D02*
X162844134Y-114777547D01*
X162844134Y-114777547D02*
X162867944Y-114872785D01*
X162867944Y-114872785D02*
X162867944Y-114991833D01*
X162867944Y-114991833D02*
X162844134Y-115087071D01*
X162844134Y-115087071D02*
X162820325Y-115134690D01*
X162820325Y-115134690D02*
X162796515Y-115158500D01*
X162796515Y-115158500D02*
X162748896Y-115182309D01*
X162748896Y-115182309D02*
X162701277Y-115182309D01*
X162701277Y-115182309D02*
X162653658Y-115158500D01*
X162653658Y-115158500D02*
X162629849Y-115134690D01*
X162629849Y-115134690D02*
X162606039Y-115087071D01*
X162606039Y-115087071D02*
X162582230Y-114991833D01*
X162582230Y-114991833D02*
X162582230Y-114872785D01*
X162582230Y-114872785D02*
X162606039Y-114777547D01*
X162606039Y-114777547D02*
X162629849Y-114729928D01*
X162629849Y-114729928D02*
X162653658Y-114706119D01*
X162653658Y-114706119D02*
X162701277Y-114682309D01*
D12*
%TO.P,J4,1,Pin_1*%
%TO.N,Net-(J3-Pin_4)*%
X158740000Y-93750000D03*
D13*
%TO.P,J4,2,Pin_2*%
%TO.N,Net-(J3-Pin_3)*%
X163740000Y-93750000D03*
%TO.P,J4,3,Pin_3*%
%TO.N,Net-(J3-Pin_2)*%
X168740000Y-93750000D03*
%TO.P,J4,4,Pin_4*%
%TO.N,Net-(J3-Pin_1)*%
X173740000Y-93750000D03*
%TD*%
D14*
%TO.P,J3,MP*%
%TO.N,N/C*%
X170105000Y-111320000D03*
X162655000Y-111320000D03*
D15*
%TO.P,J3,4,Pin_4*%
%TO.N,Net-(J3-Pin_4)*%
X164505000Y-107970000D03*
%TO.P,J3,3,Pin_3*%
%TO.N,Net-(J3-Pin_3)*%
X165755000Y-107970000D03*
%TO.P,J3,2,Pin_2*%
%TO.N,Net-(J3-Pin_2)*%
X167005000Y-107970000D03*
%TO.P,J3,1,Pin_1*%
%TO.N,Net-(J3-Pin_1)*%
X168255000Y-107970000D03*
%TD*%
D12*
%TO.P,J2,1,Pin_1*%
%TO.N,Net-(J1-Pin_4)*%
X136000000Y-93750000D03*
D13*
%TO.P,J2,2,Pin_2*%
%TO.N,Net-(J1-Pin_3)*%
X141000000Y-93750000D03*
%TO.P,J2,3,Pin_3*%
%TO.N,Net-(J1-Pin_2)*%
X146000000Y-93750000D03*
%TO.P,J2,4,Pin_4*%
%TO.N,Net-(J1-Pin_1)*%
X151000000Y-93750000D03*
%TD*%
D15*
%TO.P,J1,1,Pin_1*%
%TO.N,Net-(J1-Pin_1)*%
X144850000Y-108050000D03*
%TO.P,J1,2,Pin_2*%
%TO.N,Net-(J1-Pin_2)*%
X143600000Y-108050000D03*
%TO.P,J1,3,Pin_3*%
%TO.N,Net-(J1-Pin_3)*%
X142350000Y-108050000D03*
%TO.P,J1,4,Pin_4*%
%TO.N,Net-(J1-Pin_4)*%
X141100000Y-108050000D03*
D14*
%TO.P,J1,MP*%
%TO.N,N/C*%
X139250000Y-111400000D03*
X146700000Y-111400000D03*
%TD*%
D16*
%TO.N,Net-(J3-Pin_1)*%
X168255000Y-107970000D02*
X168255000Y-105245000D01*
X168255000Y-105245000D02*
X173740000Y-99760000D01*
X173740000Y-99760000D02*
X173740000Y-93750000D01*
%TO.N,Net-(J3-Pin_2)*%
X167005000Y-102495000D02*
X168750000Y-100750000D01*
X168750000Y-100750000D02*
X168740000Y-100740000D01*
X167005000Y-107970000D02*
X167005000Y-102495000D01*
X168740000Y-100740000D02*
X168740000Y-93750000D01*
%TO.N,Net-(J3-Pin_3)*%
X165755000Y-107970000D02*
X165755000Y-105505000D01*
X165755000Y-105505000D02*
X163740000Y-103490000D01*
X163740000Y-103490000D02*
X163740000Y-93750000D01*
%TO.N,Net-(J3-Pin_4)*%
X164505000Y-107970000D02*
X158740000Y-102205000D01*
X158740000Y-102205000D02*
X158740000Y-93750000D01*
%TO.N,Net-(J1-Pin_1)*%
X144850000Y-108050000D02*
X144850000Y-106400000D01*
X144850000Y-106400000D02*
X151000000Y-100250000D01*
X151000000Y-100250000D02*
X151000000Y-93750000D01*
%TO.N,Net-(J1-Pin_2)*%
X146000000Y-93750000D02*
X146000000Y-103250000D01*
X146000000Y-103250000D02*
X143600000Y-105650000D01*
X143600000Y-105650000D02*
X143600000Y-108050000D01*
%TO.N,Net-(J1-Pin_3)*%
X141000000Y-93750000D02*
X141000000Y-105250000D01*
X141000000Y-105250000D02*
X142350000Y-106600000D01*
X142350000Y-108050000D02*
X142350000Y-106600000D01*
%TO.N,Net-(J1-Pin_4)*%
X141100000Y-108050000D02*
X141100000Y-106850000D01*
X141100000Y-106850000D02*
X136000000Y-101750000D01*
X136000000Y-101750000D02*
X136000000Y-93750000D01*
%TD*%
M02*
