%TF.GenerationSoftware,KiCad,Pcbnew,7.0.8-7.0.8~ubuntu22.04.1*%
%TF.CreationDate,2023-11-09T15:08:59-07:00*%
%TF.ProjectId,stepper_microscope_stage,73746570-7065-4725-9f6d-6963726f7363,10*%
%TF.SameCoordinates,Original*%
%TF.FileFunction,Legend,Bot*%
%TF.FilePolarity,Positive*%
%FSLAX46Y46*%
G04 Gerber Fmt 4.6, Leading zero omitted, Abs format (unit mm)*
G04 Created by KiCad (PCBNEW 7.0.8-7.0.8~ubuntu22.04.1) date 2023-11-09 15:08:59*
%MOMM*%
%LPD*%
G01*
G04 APERTURE LIST*
%ADD10C,0.150000*%
%ADD11C,0.120000*%
G04 APERTURE END LIST*
D10*
X134733570Y-117118865D02*
X134590713Y-117166484D01*
X134590713Y-117166484D02*
X134543094Y-117214103D01*
X134543094Y-117214103D02*
X134495475Y-117309341D01*
X134495475Y-117309341D02*
X134495475Y-117452198D01*
X134495475Y-117452198D02*
X134543094Y-117547436D01*
X134543094Y-117547436D02*
X134590713Y-117595056D01*
X134590713Y-117595056D02*
X134685951Y-117642675D01*
X134685951Y-117642675D02*
X135066903Y-117642675D01*
X135066903Y-117642675D02*
X135066903Y-116642675D01*
X135066903Y-116642675D02*
X134733570Y-116642675D01*
X134733570Y-116642675D02*
X134638332Y-116690294D01*
X134638332Y-116690294D02*
X134590713Y-116737913D01*
X134590713Y-116737913D02*
X134543094Y-116833151D01*
X134543094Y-116833151D02*
X134543094Y-116928389D01*
X134543094Y-116928389D02*
X134590713Y-117023627D01*
X134590713Y-117023627D02*
X134638332Y-117071246D01*
X134638332Y-117071246D02*
X134733570Y-117118865D01*
X134733570Y-117118865D02*
X135066903Y-117118865D01*
X134066903Y-116642675D02*
X134066903Y-117452198D01*
X134066903Y-117452198D02*
X134019284Y-117547436D01*
X134019284Y-117547436D02*
X133971665Y-117595056D01*
X133971665Y-117595056D02*
X133876427Y-117642675D01*
X133876427Y-117642675D02*
X133685951Y-117642675D01*
X133685951Y-117642675D02*
X133590713Y-117595056D01*
X133590713Y-117595056D02*
X133543094Y-117547436D01*
X133543094Y-117547436D02*
X133495475Y-117452198D01*
X133495475Y-117452198D02*
X133495475Y-116642675D01*
X132447856Y-117547436D02*
X132495475Y-117595056D01*
X132495475Y-117595056D02*
X132638332Y-117642675D01*
X132638332Y-117642675D02*
X132733570Y-117642675D01*
X132733570Y-117642675D02*
X132876427Y-117595056D01*
X132876427Y-117595056D02*
X132971665Y-117499817D01*
X132971665Y-117499817D02*
X133019284Y-117404579D01*
X133019284Y-117404579D02*
X133066903Y-117214103D01*
X133066903Y-117214103D02*
X133066903Y-117071246D01*
X133066903Y-117071246D02*
X133019284Y-116880770D01*
X133019284Y-116880770D02*
X132971665Y-116785532D01*
X132971665Y-116785532D02*
X132876427Y-116690294D01*
X132876427Y-116690294D02*
X132733570Y-116642675D01*
X132733570Y-116642675D02*
X132638332Y-116642675D01*
X132638332Y-116642675D02*
X132495475Y-116690294D01*
X132495475Y-116690294D02*
X132447856Y-116737913D01*
X132019284Y-117642675D02*
X132019284Y-116642675D01*
X131447856Y-117642675D02*
X131876427Y-117071246D01*
X131447856Y-116642675D02*
X132019284Y-117214103D01*
X131162141Y-116642675D02*
X130828808Y-117642675D01*
X130828808Y-117642675D02*
X130495475Y-116642675D01*
X129971665Y-116642675D02*
X129781189Y-116642675D01*
X129781189Y-116642675D02*
X129685951Y-116690294D01*
X129685951Y-116690294D02*
X129590713Y-116785532D01*
X129590713Y-116785532D02*
X129543094Y-116976008D01*
X129543094Y-116976008D02*
X129543094Y-117309341D01*
X129543094Y-117309341D02*
X129590713Y-117499817D01*
X129590713Y-117499817D02*
X129685951Y-117595056D01*
X129685951Y-117595056D02*
X129781189Y-117642675D01*
X129781189Y-117642675D02*
X129971665Y-117642675D01*
X129971665Y-117642675D02*
X130066903Y-117595056D01*
X130066903Y-117595056D02*
X130162141Y-117499817D01*
X130162141Y-117499817D02*
X130209760Y-117309341D01*
X130209760Y-117309341D02*
X130209760Y-116976008D01*
X130209760Y-116976008D02*
X130162141Y-116785532D01*
X130162141Y-116785532D02*
X130066903Y-116690294D01*
X130066903Y-116690294D02*
X129971665Y-116642675D01*
X129114522Y-116642675D02*
X129114522Y-117452198D01*
X129114522Y-117452198D02*
X129066903Y-117547436D01*
X129066903Y-117547436D02*
X129019284Y-117595056D01*
X129019284Y-117595056D02*
X128924046Y-117642675D01*
X128924046Y-117642675D02*
X128733570Y-117642675D01*
X128733570Y-117642675D02*
X128638332Y-117595056D01*
X128638332Y-117595056D02*
X128590713Y-117547436D01*
X128590713Y-117547436D02*
X128543094Y-117452198D01*
X128543094Y-117452198D02*
X128543094Y-116642675D01*
X128209760Y-116642675D02*
X127638332Y-116642675D01*
X127924046Y-117642675D02*
X127924046Y-116642675D01*
X126781189Y-117642675D02*
X127352617Y-117642675D01*
X127066903Y-117642675D02*
X127066903Y-116642675D01*
X127066903Y-116642675D02*
X127162141Y-116785532D01*
X127162141Y-116785532D02*
X127257379Y-116880770D01*
X127257379Y-116880770D02*
X127352617Y-116928389D01*
X134533333Y-29218865D02*
X134390476Y-29266484D01*
X134390476Y-29266484D02*
X134342857Y-29314103D01*
X134342857Y-29314103D02*
X134295238Y-29409341D01*
X134295238Y-29409341D02*
X134295238Y-29552198D01*
X134295238Y-29552198D02*
X134342857Y-29647436D01*
X134342857Y-29647436D02*
X134390476Y-29695056D01*
X134390476Y-29695056D02*
X134485714Y-29742675D01*
X134485714Y-29742675D02*
X134866666Y-29742675D01*
X134866666Y-29742675D02*
X134866666Y-28742675D01*
X134866666Y-28742675D02*
X134533333Y-28742675D01*
X134533333Y-28742675D02*
X134438095Y-28790294D01*
X134438095Y-28790294D02*
X134390476Y-28837913D01*
X134390476Y-28837913D02*
X134342857Y-28933151D01*
X134342857Y-28933151D02*
X134342857Y-29028389D01*
X134342857Y-29028389D02*
X134390476Y-29123627D01*
X134390476Y-29123627D02*
X134438095Y-29171246D01*
X134438095Y-29171246D02*
X134533333Y-29218865D01*
X134533333Y-29218865D02*
X134866666Y-29218865D01*
X133866666Y-28742675D02*
X133866666Y-29552198D01*
X133866666Y-29552198D02*
X133819047Y-29647436D01*
X133819047Y-29647436D02*
X133771428Y-29695056D01*
X133771428Y-29695056D02*
X133676190Y-29742675D01*
X133676190Y-29742675D02*
X133485714Y-29742675D01*
X133485714Y-29742675D02*
X133390476Y-29695056D01*
X133390476Y-29695056D02*
X133342857Y-29647436D01*
X133342857Y-29647436D02*
X133295238Y-29552198D01*
X133295238Y-29552198D02*
X133295238Y-28742675D01*
X132247619Y-29647436D02*
X132295238Y-29695056D01*
X132295238Y-29695056D02*
X132438095Y-29742675D01*
X132438095Y-29742675D02*
X132533333Y-29742675D01*
X132533333Y-29742675D02*
X132676190Y-29695056D01*
X132676190Y-29695056D02*
X132771428Y-29599817D01*
X132771428Y-29599817D02*
X132819047Y-29504579D01*
X132819047Y-29504579D02*
X132866666Y-29314103D01*
X132866666Y-29314103D02*
X132866666Y-29171246D01*
X132866666Y-29171246D02*
X132819047Y-28980770D01*
X132819047Y-28980770D02*
X132771428Y-28885532D01*
X132771428Y-28885532D02*
X132676190Y-28790294D01*
X132676190Y-28790294D02*
X132533333Y-28742675D01*
X132533333Y-28742675D02*
X132438095Y-28742675D01*
X132438095Y-28742675D02*
X132295238Y-28790294D01*
X132295238Y-28790294D02*
X132247619Y-28837913D01*
X131819047Y-29742675D02*
X131819047Y-28742675D01*
X131247619Y-29742675D02*
X131676190Y-29171246D01*
X131247619Y-28742675D02*
X131819047Y-29314103D01*
X130961904Y-28742675D02*
X130628571Y-29742675D01*
X130628571Y-29742675D02*
X130295238Y-28742675D01*
X129961904Y-29742675D02*
X129961904Y-28742675D01*
X129485714Y-29742675D02*
X129485714Y-28742675D01*
X129485714Y-28742675D02*
X128914286Y-29742675D01*
X128914286Y-29742675D02*
X128914286Y-28742675D01*
X127914286Y-29742675D02*
X128485714Y-29742675D01*
X128200000Y-29742675D02*
X128200000Y-28742675D01*
X128200000Y-28742675D02*
X128295238Y-28885532D01*
X128295238Y-28885532D02*
X128390476Y-28980770D01*
X128390476Y-28980770D02*
X128485714Y-29028389D01*
X98672675Y-170844522D02*
X99386960Y-170844522D01*
X99386960Y-170844522D02*
X99529817Y-170796903D01*
X99529817Y-170796903D02*
X99625056Y-170701665D01*
X99625056Y-170701665D02*
X99672675Y-170558808D01*
X99672675Y-170558808D02*
X99672675Y-170463570D01*
X98767913Y-171273094D02*
X98720294Y-171320713D01*
X98720294Y-171320713D02*
X98672675Y-171415951D01*
X98672675Y-171415951D02*
X98672675Y-171654046D01*
X98672675Y-171654046D02*
X98720294Y-171749284D01*
X98720294Y-171749284D02*
X98767913Y-171796903D01*
X98767913Y-171796903D02*
X98863151Y-171844522D01*
X98863151Y-171844522D02*
X98958389Y-171844522D01*
X98958389Y-171844522D02*
X99101246Y-171796903D01*
X99101246Y-171796903D02*
X99672675Y-171225475D01*
X99672675Y-171225475D02*
X99672675Y-171844522D01*
X66682675Y-108632618D02*
X66682675Y-108156428D01*
X66682675Y-108156428D02*
X65682675Y-108156428D01*
X66682675Y-108965952D02*
X65682675Y-108965952D01*
X66682675Y-109442142D02*
X65682675Y-109442142D01*
X65682675Y-109442142D02*
X66396960Y-109775475D01*
X66396960Y-109775475D02*
X65682675Y-110108808D01*
X65682675Y-110108808D02*
X66682675Y-110108808D01*
X66682675Y-110584999D02*
X65682675Y-110584999D01*
X65682675Y-110918332D02*
X65682675Y-111489760D01*
X66682675Y-111204046D02*
X65682675Y-111204046D01*
X65777913Y-111775475D02*
X65730294Y-111823094D01*
X65730294Y-111823094D02*
X65682675Y-111918332D01*
X65682675Y-111918332D02*
X65682675Y-112156427D01*
X65682675Y-112156427D02*
X65730294Y-112251665D01*
X65730294Y-112251665D02*
X65777913Y-112299284D01*
X65777913Y-112299284D02*
X65873151Y-112346903D01*
X65873151Y-112346903D02*
X65968389Y-112346903D01*
X65968389Y-112346903D02*
X66111246Y-112299284D01*
X66111246Y-112299284D02*
X66682675Y-111727856D01*
X66682675Y-111727856D02*
X66682675Y-112346903D01*
X125132675Y-141994522D02*
X125846960Y-141994522D01*
X125846960Y-141994522D02*
X125989817Y-141946903D01*
X125989817Y-141946903D02*
X126085056Y-141851665D01*
X126085056Y-141851665D02*
X126132675Y-141708808D01*
X126132675Y-141708808D02*
X126132675Y-141613570D01*
X125132675Y-142946903D02*
X125132675Y-142470713D01*
X125132675Y-142470713D02*
X125608865Y-142423094D01*
X125608865Y-142423094D02*
X125561246Y-142470713D01*
X125561246Y-142470713D02*
X125513627Y-142565951D01*
X125513627Y-142565951D02*
X125513627Y-142804046D01*
X125513627Y-142804046D02*
X125561246Y-142899284D01*
X125561246Y-142899284D02*
X125608865Y-142946903D01*
X125608865Y-142946903D02*
X125704103Y-142994522D01*
X125704103Y-142994522D02*
X125942198Y-142994522D01*
X125942198Y-142994522D02*
X126037436Y-142946903D01*
X126037436Y-142946903D02*
X126085056Y-142899284D01*
X126085056Y-142899284D02*
X126132675Y-142804046D01*
X126132675Y-142804046D02*
X126132675Y-142565951D01*
X126132675Y-142565951D02*
X126085056Y-142470713D01*
X126085056Y-142470713D02*
X126037436Y-142423094D01*
X63045872Y-141866667D02*
X63093491Y-142009524D01*
X63093491Y-142009524D02*
X63093491Y-142247619D01*
X63093491Y-142247619D02*
X63045872Y-142342857D01*
X63045872Y-142342857D02*
X62998252Y-142390476D01*
X62998252Y-142390476D02*
X62903014Y-142438095D01*
X62903014Y-142438095D02*
X62807776Y-142438095D01*
X62807776Y-142438095D02*
X62712538Y-142390476D01*
X62712538Y-142390476D02*
X62664919Y-142342857D01*
X62664919Y-142342857D02*
X62617300Y-142247619D01*
X62617300Y-142247619D02*
X62569681Y-142057143D01*
X62569681Y-142057143D02*
X62522062Y-141961905D01*
X62522062Y-141961905D02*
X62474443Y-141914286D01*
X62474443Y-141914286D02*
X62379205Y-141866667D01*
X62379205Y-141866667D02*
X62283967Y-141866667D01*
X62283967Y-141866667D02*
X62188729Y-141914286D01*
X62188729Y-141914286D02*
X62141110Y-141961905D01*
X62141110Y-141961905D02*
X62093491Y-142057143D01*
X62093491Y-142057143D02*
X62093491Y-142295238D01*
X62093491Y-142295238D02*
X62141110Y-142438095D01*
X62093491Y-142723810D02*
X62093491Y-143295238D01*
X63093491Y-143009524D02*
X62093491Y-143009524D01*
X62569681Y-143628572D02*
X62569681Y-143961905D01*
X63093491Y-144104762D02*
X63093491Y-143628572D01*
X63093491Y-143628572D02*
X62093491Y-143628572D01*
X62093491Y-143628572D02*
X62093491Y-144104762D01*
X63093491Y-144533334D02*
X62093491Y-144533334D01*
X62093491Y-144533334D02*
X62093491Y-144914286D01*
X62093491Y-144914286D02*
X62141110Y-145009524D01*
X62141110Y-145009524D02*
X62188729Y-145057143D01*
X62188729Y-145057143D02*
X62283967Y-145104762D01*
X62283967Y-145104762D02*
X62426824Y-145104762D01*
X62426824Y-145104762D02*
X62522062Y-145057143D01*
X62522062Y-145057143D02*
X62569681Y-145009524D01*
X62569681Y-145009524D02*
X62617300Y-144914286D01*
X62617300Y-144914286D02*
X62617300Y-144533334D01*
X63045872Y-145485715D02*
X63093491Y-145628572D01*
X63093491Y-145628572D02*
X63093491Y-145866667D01*
X63093491Y-145866667D02*
X63045872Y-145961905D01*
X63045872Y-145961905D02*
X62998252Y-146009524D01*
X62998252Y-146009524D02*
X62903014Y-146057143D01*
X62903014Y-146057143D02*
X62807776Y-146057143D01*
X62807776Y-146057143D02*
X62712538Y-146009524D01*
X62712538Y-146009524D02*
X62664919Y-145961905D01*
X62664919Y-145961905D02*
X62617300Y-145866667D01*
X62617300Y-145866667D02*
X62569681Y-145676191D01*
X62569681Y-145676191D02*
X62522062Y-145580953D01*
X62522062Y-145580953D02*
X62474443Y-145533334D01*
X62474443Y-145533334D02*
X62379205Y-145485715D01*
X62379205Y-145485715D02*
X62283967Y-145485715D01*
X62283967Y-145485715D02*
X62188729Y-145533334D01*
X62188729Y-145533334D02*
X62141110Y-145580953D01*
X62141110Y-145580953D02*
X62093491Y-145676191D01*
X62093491Y-145676191D02*
X62093491Y-145914286D01*
X62093491Y-145914286D02*
X62141110Y-146057143D01*
X63093491Y-146485715D02*
X62093491Y-146485715D01*
X62141110Y-147485714D02*
X62093491Y-147390476D01*
X62093491Y-147390476D02*
X62093491Y-147247619D01*
X62093491Y-147247619D02*
X62141110Y-147104762D01*
X62141110Y-147104762D02*
X62236348Y-147009524D01*
X62236348Y-147009524D02*
X62331586Y-146961905D01*
X62331586Y-146961905D02*
X62522062Y-146914286D01*
X62522062Y-146914286D02*
X62664919Y-146914286D01*
X62664919Y-146914286D02*
X62855395Y-146961905D01*
X62855395Y-146961905D02*
X62950633Y-147009524D01*
X62950633Y-147009524D02*
X63045872Y-147104762D01*
X63045872Y-147104762D02*
X63093491Y-147247619D01*
X63093491Y-147247619D02*
X63093491Y-147342857D01*
X63093491Y-147342857D02*
X63045872Y-147485714D01*
X63045872Y-147485714D02*
X62998252Y-147533333D01*
X62998252Y-147533333D02*
X62664919Y-147533333D01*
X62664919Y-147533333D02*
X62664919Y-147342857D01*
X62141110Y-148485714D02*
X62093491Y-148390476D01*
X62093491Y-148390476D02*
X62093491Y-148247619D01*
X62093491Y-148247619D02*
X62141110Y-148104762D01*
X62141110Y-148104762D02*
X62236348Y-148009524D01*
X62236348Y-148009524D02*
X62331586Y-147961905D01*
X62331586Y-147961905D02*
X62522062Y-147914286D01*
X62522062Y-147914286D02*
X62664919Y-147914286D01*
X62664919Y-147914286D02*
X62855395Y-147961905D01*
X62855395Y-147961905D02*
X62950633Y-148009524D01*
X62950633Y-148009524D02*
X63045872Y-148104762D01*
X63045872Y-148104762D02*
X63093491Y-148247619D01*
X63093491Y-148247619D02*
X63093491Y-148342857D01*
X63093491Y-148342857D02*
X63045872Y-148485714D01*
X63045872Y-148485714D02*
X62998252Y-148533333D01*
X62998252Y-148533333D02*
X62664919Y-148533333D01*
X62664919Y-148533333D02*
X62664919Y-148342857D01*
X63093491Y-148961905D02*
X62093491Y-148961905D01*
X62093491Y-148961905D02*
X63093491Y-149533333D01*
X63093491Y-149533333D02*
X62093491Y-149533333D01*
X63093491Y-150009524D02*
X62093491Y-150009524D01*
X62093491Y-150009524D02*
X62093491Y-150247619D01*
X62093491Y-150247619D02*
X62141110Y-150390476D01*
X62141110Y-150390476D02*
X62236348Y-150485714D01*
X62236348Y-150485714D02*
X62331586Y-150533333D01*
X62331586Y-150533333D02*
X62522062Y-150580952D01*
X62522062Y-150580952D02*
X62664919Y-150580952D01*
X62664919Y-150580952D02*
X62855395Y-150533333D01*
X62855395Y-150533333D02*
X62950633Y-150485714D01*
X62950633Y-150485714D02*
X63045872Y-150390476D01*
X63045872Y-150390476D02*
X63093491Y-150247619D01*
X63093491Y-150247619D02*
X63093491Y-150009524D01*
X62188729Y-150961905D02*
X62141110Y-151009524D01*
X62141110Y-151009524D02*
X62093491Y-151104762D01*
X62093491Y-151104762D02*
X62093491Y-151342857D01*
X62093491Y-151342857D02*
X62141110Y-151438095D01*
X62141110Y-151438095D02*
X62188729Y-151485714D01*
X62188729Y-151485714D02*
X62283967Y-151533333D01*
X62283967Y-151533333D02*
X62379205Y-151533333D01*
X62379205Y-151533333D02*
X62522062Y-151485714D01*
X62522062Y-151485714D02*
X63093491Y-150914286D01*
X63093491Y-150914286D02*
X63093491Y-151533333D01*
X62885056Y-61290476D02*
X62932675Y-61433333D01*
X62932675Y-61433333D02*
X62932675Y-61671428D01*
X62932675Y-61671428D02*
X62885056Y-61766666D01*
X62885056Y-61766666D02*
X62837436Y-61814285D01*
X62837436Y-61814285D02*
X62742198Y-61861904D01*
X62742198Y-61861904D02*
X62646960Y-61861904D01*
X62646960Y-61861904D02*
X62551722Y-61814285D01*
X62551722Y-61814285D02*
X62504103Y-61766666D01*
X62504103Y-61766666D02*
X62456484Y-61671428D01*
X62456484Y-61671428D02*
X62408865Y-61480952D01*
X62408865Y-61480952D02*
X62361246Y-61385714D01*
X62361246Y-61385714D02*
X62313627Y-61338095D01*
X62313627Y-61338095D02*
X62218389Y-61290476D01*
X62218389Y-61290476D02*
X62123151Y-61290476D01*
X62123151Y-61290476D02*
X62027913Y-61338095D01*
X62027913Y-61338095D02*
X61980294Y-61385714D01*
X61980294Y-61385714D02*
X61932675Y-61480952D01*
X61932675Y-61480952D02*
X61932675Y-61719047D01*
X61932675Y-61719047D02*
X61980294Y-61861904D01*
X61932675Y-62147619D02*
X61932675Y-62719047D01*
X62932675Y-62433333D02*
X61932675Y-62433333D01*
X62408865Y-63052381D02*
X62408865Y-63385714D01*
X62932675Y-63528571D02*
X62932675Y-63052381D01*
X62932675Y-63052381D02*
X61932675Y-63052381D01*
X61932675Y-63052381D02*
X61932675Y-63528571D01*
X62932675Y-63957143D02*
X61932675Y-63957143D01*
X61932675Y-63957143D02*
X61932675Y-64338095D01*
X61932675Y-64338095D02*
X61980294Y-64433333D01*
X61980294Y-64433333D02*
X62027913Y-64480952D01*
X62027913Y-64480952D02*
X62123151Y-64528571D01*
X62123151Y-64528571D02*
X62266008Y-64528571D01*
X62266008Y-64528571D02*
X62361246Y-64480952D01*
X62361246Y-64480952D02*
X62408865Y-64433333D01*
X62408865Y-64433333D02*
X62456484Y-64338095D01*
X62456484Y-64338095D02*
X62456484Y-63957143D01*
X62885056Y-64909524D02*
X62932675Y-65052381D01*
X62932675Y-65052381D02*
X62932675Y-65290476D01*
X62932675Y-65290476D02*
X62885056Y-65385714D01*
X62885056Y-65385714D02*
X62837436Y-65433333D01*
X62837436Y-65433333D02*
X62742198Y-65480952D01*
X62742198Y-65480952D02*
X62646960Y-65480952D01*
X62646960Y-65480952D02*
X62551722Y-65433333D01*
X62551722Y-65433333D02*
X62504103Y-65385714D01*
X62504103Y-65385714D02*
X62456484Y-65290476D01*
X62456484Y-65290476D02*
X62408865Y-65100000D01*
X62408865Y-65100000D02*
X62361246Y-65004762D01*
X62361246Y-65004762D02*
X62313627Y-64957143D01*
X62313627Y-64957143D02*
X62218389Y-64909524D01*
X62218389Y-64909524D02*
X62123151Y-64909524D01*
X62123151Y-64909524D02*
X62027913Y-64957143D01*
X62027913Y-64957143D02*
X61980294Y-65004762D01*
X61980294Y-65004762D02*
X61932675Y-65100000D01*
X61932675Y-65100000D02*
X61932675Y-65338095D01*
X61932675Y-65338095D02*
X61980294Y-65480952D01*
X62932675Y-65909524D02*
X61932675Y-65909524D01*
X61980294Y-66909523D02*
X61932675Y-66814285D01*
X61932675Y-66814285D02*
X61932675Y-66671428D01*
X61932675Y-66671428D02*
X61980294Y-66528571D01*
X61980294Y-66528571D02*
X62075532Y-66433333D01*
X62075532Y-66433333D02*
X62170770Y-66385714D01*
X62170770Y-66385714D02*
X62361246Y-66338095D01*
X62361246Y-66338095D02*
X62504103Y-66338095D01*
X62504103Y-66338095D02*
X62694579Y-66385714D01*
X62694579Y-66385714D02*
X62789817Y-66433333D01*
X62789817Y-66433333D02*
X62885056Y-66528571D01*
X62885056Y-66528571D02*
X62932675Y-66671428D01*
X62932675Y-66671428D02*
X62932675Y-66766666D01*
X62932675Y-66766666D02*
X62885056Y-66909523D01*
X62885056Y-66909523D02*
X62837436Y-66957142D01*
X62837436Y-66957142D02*
X62504103Y-66957142D01*
X62504103Y-66957142D02*
X62504103Y-66766666D01*
X62932675Y-67909523D02*
X62932675Y-67338095D01*
X62932675Y-67623809D02*
X61932675Y-67623809D01*
X61932675Y-67623809D02*
X62075532Y-67528571D01*
X62075532Y-67528571D02*
X62170770Y-67433333D01*
X62170770Y-67433333D02*
X62218389Y-67338095D01*
X63145872Y-153940952D02*
X63193491Y-154083809D01*
X63193491Y-154083809D02*
X63193491Y-154321904D01*
X63193491Y-154321904D02*
X63145872Y-154417142D01*
X63145872Y-154417142D02*
X63098252Y-154464761D01*
X63098252Y-154464761D02*
X63003014Y-154512380D01*
X63003014Y-154512380D02*
X62907776Y-154512380D01*
X62907776Y-154512380D02*
X62812538Y-154464761D01*
X62812538Y-154464761D02*
X62764919Y-154417142D01*
X62764919Y-154417142D02*
X62717300Y-154321904D01*
X62717300Y-154321904D02*
X62669681Y-154131428D01*
X62669681Y-154131428D02*
X62622062Y-154036190D01*
X62622062Y-154036190D02*
X62574443Y-153988571D01*
X62574443Y-153988571D02*
X62479205Y-153940952D01*
X62479205Y-153940952D02*
X62383967Y-153940952D01*
X62383967Y-153940952D02*
X62288729Y-153988571D01*
X62288729Y-153988571D02*
X62241110Y-154036190D01*
X62241110Y-154036190D02*
X62193491Y-154131428D01*
X62193491Y-154131428D02*
X62193491Y-154369523D01*
X62193491Y-154369523D02*
X62241110Y-154512380D01*
X62193491Y-154798095D02*
X62193491Y-155369523D01*
X63193491Y-155083809D02*
X62193491Y-155083809D01*
X62669681Y-155702857D02*
X62669681Y-156036190D01*
X63193491Y-156179047D02*
X63193491Y-155702857D01*
X63193491Y-155702857D02*
X62193491Y-155702857D01*
X62193491Y-155702857D02*
X62193491Y-156179047D01*
X63193491Y-156607619D02*
X62193491Y-156607619D01*
X62193491Y-156607619D02*
X62193491Y-156988571D01*
X62193491Y-156988571D02*
X62241110Y-157083809D01*
X62241110Y-157083809D02*
X62288729Y-157131428D01*
X62288729Y-157131428D02*
X62383967Y-157179047D01*
X62383967Y-157179047D02*
X62526824Y-157179047D01*
X62526824Y-157179047D02*
X62622062Y-157131428D01*
X62622062Y-157131428D02*
X62669681Y-157083809D01*
X62669681Y-157083809D02*
X62717300Y-156988571D01*
X62717300Y-156988571D02*
X62717300Y-156607619D01*
X62241110Y-158131428D02*
X62193491Y-158036190D01*
X62193491Y-158036190D02*
X62193491Y-157893333D01*
X62193491Y-157893333D02*
X62241110Y-157750476D01*
X62241110Y-157750476D02*
X62336348Y-157655238D01*
X62336348Y-157655238D02*
X62431586Y-157607619D01*
X62431586Y-157607619D02*
X62622062Y-157560000D01*
X62622062Y-157560000D02*
X62764919Y-157560000D01*
X62764919Y-157560000D02*
X62955395Y-157607619D01*
X62955395Y-157607619D02*
X63050633Y-157655238D01*
X63050633Y-157655238D02*
X63145872Y-157750476D01*
X63145872Y-157750476D02*
X63193491Y-157893333D01*
X63193491Y-157893333D02*
X63193491Y-157988571D01*
X63193491Y-157988571D02*
X63145872Y-158131428D01*
X63145872Y-158131428D02*
X63098252Y-158179047D01*
X63098252Y-158179047D02*
X62764919Y-158179047D01*
X62764919Y-158179047D02*
X62764919Y-157988571D01*
X63193491Y-158607619D02*
X62193491Y-158607619D01*
X62193491Y-158607619D02*
X63193491Y-159179047D01*
X63193491Y-159179047D02*
X62193491Y-159179047D01*
X63193491Y-159655238D02*
X62193491Y-159655238D01*
X62193491Y-159655238D02*
X62193491Y-159893333D01*
X62193491Y-159893333D02*
X62241110Y-160036190D01*
X62241110Y-160036190D02*
X62336348Y-160131428D01*
X62336348Y-160131428D02*
X62431586Y-160179047D01*
X62431586Y-160179047D02*
X62622062Y-160226666D01*
X62622062Y-160226666D02*
X62764919Y-160226666D01*
X62764919Y-160226666D02*
X62955395Y-160179047D01*
X62955395Y-160179047D02*
X63050633Y-160131428D01*
X63050633Y-160131428D02*
X63145872Y-160036190D01*
X63145872Y-160036190D02*
X63193491Y-159893333D01*
X63193491Y-159893333D02*
X63193491Y-159655238D01*
X63193491Y-161179047D02*
X63193491Y-160607619D01*
X63193491Y-160893333D02*
X62193491Y-160893333D01*
X62193491Y-160893333D02*
X62336348Y-160798095D01*
X62336348Y-160798095D02*
X62431586Y-160702857D01*
X62431586Y-160702857D02*
X62479205Y-160607619D01*
X63045872Y-124116667D02*
X63093491Y-124259524D01*
X63093491Y-124259524D02*
X63093491Y-124497619D01*
X63093491Y-124497619D02*
X63045872Y-124592857D01*
X63045872Y-124592857D02*
X62998252Y-124640476D01*
X62998252Y-124640476D02*
X62903014Y-124688095D01*
X62903014Y-124688095D02*
X62807776Y-124688095D01*
X62807776Y-124688095D02*
X62712538Y-124640476D01*
X62712538Y-124640476D02*
X62664919Y-124592857D01*
X62664919Y-124592857D02*
X62617300Y-124497619D01*
X62617300Y-124497619D02*
X62569681Y-124307143D01*
X62569681Y-124307143D02*
X62522062Y-124211905D01*
X62522062Y-124211905D02*
X62474443Y-124164286D01*
X62474443Y-124164286D02*
X62379205Y-124116667D01*
X62379205Y-124116667D02*
X62283967Y-124116667D01*
X62283967Y-124116667D02*
X62188729Y-124164286D01*
X62188729Y-124164286D02*
X62141110Y-124211905D01*
X62141110Y-124211905D02*
X62093491Y-124307143D01*
X62093491Y-124307143D02*
X62093491Y-124545238D01*
X62093491Y-124545238D02*
X62141110Y-124688095D01*
X62093491Y-124973810D02*
X62093491Y-125545238D01*
X63093491Y-125259524D02*
X62093491Y-125259524D01*
X62569681Y-125878572D02*
X62569681Y-126211905D01*
X63093491Y-126354762D02*
X63093491Y-125878572D01*
X63093491Y-125878572D02*
X62093491Y-125878572D01*
X62093491Y-125878572D02*
X62093491Y-126354762D01*
X63093491Y-126783334D02*
X62093491Y-126783334D01*
X62093491Y-126783334D02*
X62093491Y-127164286D01*
X62093491Y-127164286D02*
X62141110Y-127259524D01*
X62141110Y-127259524D02*
X62188729Y-127307143D01*
X62188729Y-127307143D02*
X62283967Y-127354762D01*
X62283967Y-127354762D02*
X62426824Y-127354762D01*
X62426824Y-127354762D02*
X62522062Y-127307143D01*
X62522062Y-127307143D02*
X62569681Y-127259524D01*
X62569681Y-127259524D02*
X62617300Y-127164286D01*
X62617300Y-127164286D02*
X62617300Y-126783334D01*
X63045872Y-127735715D02*
X63093491Y-127878572D01*
X63093491Y-127878572D02*
X63093491Y-128116667D01*
X63093491Y-128116667D02*
X63045872Y-128211905D01*
X63045872Y-128211905D02*
X62998252Y-128259524D01*
X62998252Y-128259524D02*
X62903014Y-128307143D01*
X62903014Y-128307143D02*
X62807776Y-128307143D01*
X62807776Y-128307143D02*
X62712538Y-128259524D01*
X62712538Y-128259524D02*
X62664919Y-128211905D01*
X62664919Y-128211905D02*
X62617300Y-128116667D01*
X62617300Y-128116667D02*
X62569681Y-127926191D01*
X62569681Y-127926191D02*
X62522062Y-127830953D01*
X62522062Y-127830953D02*
X62474443Y-127783334D01*
X62474443Y-127783334D02*
X62379205Y-127735715D01*
X62379205Y-127735715D02*
X62283967Y-127735715D01*
X62283967Y-127735715D02*
X62188729Y-127783334D01*
X62188729Y-127783334D02*
X62141110Y-127830953D01*
X62141110Y-127830953D02*
X62093491Y-127926191D01*
X62093491Y-127926191D02*
X62093491Y-128164286D01*
X62093491Y-128164286D02*
X62141110Y-128307143D01*
X63093491Y-128735715D02*
X62093491Y-128735715D01*
X62141110Y-129735714D02*
X62093491Y-129640476D01*
X62093491Y-129640476D02*
X62093491Y-129497619D01*
X62093491Y-129497619D02*
X62141110Y-129354762D01*
X62141110Y-129354762D02*
X62236348Y-129259524D01*
X62236348Y-129259524D02*
X62331586Y-129211905D01*
X62331586Y-129211905D02*
X62522062Y-129164286D01*
X62522062Y-129164286D02*
X62664919Y-129164286D01*
X62664919Y-129164286D02*
X62855395Y-129211905D01*
X62855395Y-129211905D02*
X62950633Y-129259524D01*
X62950633Y-129259524D02*
X63045872Y-129354762D01*
X63045872Y-129354762D02*
X63093491Y-129497619D01*
X63093491Y-129497619D02*
X63093491Y-129592857D01*
X63093491Y-129592857D02*
X63045872Y-129735714D01*
X63045872Y-129735714D02*
X62998252Y-129783333D01*
X62998252Y-129783333D02*
X62664919Y-129783333D01*
X62664919Y-129783333D02*
X62664919Y-129592857D01*
X62141110Y-130735714D02*
X62093491Y-130640476D01*
X62093491Y-130640476D02*
X62093491Y-130497619D01*
X62093491Y-130497619D02*
X62141110Y-130354762D01*
X62141110Y-130354762D02*
X62236348Y-130259524D01*
X62236348Y-130259524D02*
X62331586Y-130211905D01*
X62331586Y-130211905D02*
X62522062Y-130164286D01*
X62522062Y-130164286D02*
X62664919Y-130164286D01*
X62664919Y-130164286D02*
X62855395Y-130211905D01*
X62855395Y-130211905D02*
X62950633Y-130259524D01*
X62950633Y-130259524D02*
X63045872Y-130354762D01*
X63045872Y-130354762D02*
X63093491Y-130497619D01*
X63093491Y-130497619D02*
X63093491Y-130592857D01*
X63093491Y-130592857D02*
X63045872Y-130735714D01*
X63045872Y-130735714D02*
X62998252Y-130783333D01*
X62998252Y-130783333D02*
X62664919Y-130783333D01*
X62664919Y-130783333D02*
X62664919Y-130592857D01*
X63093491Y-131211905D02*
X62093491Y-131211905D01*
X62093491Y-131211905D02*
X63093491Y-131783333D01*
X63093491Y-131783333D02*
X62093491Y-131783333D01*
X63093491Y-132259524D02*
X62093491Y-132259524D01*
X62093491Y-132259524D02*
X62093491Y-132497619D01*
X62093491Y-132497619D02*
X62141110Y-132640476D01*
X62141110Y-132640476D02*
X62236348Y-132735714D01*
X62236348Y-132735714D02*
X62331586Y-132783333D01*
X62331586Y-132783333D02*
X62522062Y-132830952D01*
X62522062Y-132830952D02*
X62664919Y-132830952D01*
X62664919Y-132830952D02*
X62855395Y-132783333D01*
X62855395Y-132783333D02*
X62950633Y-132735714D01*
X62950633Y-132735714D02*
X63045872Y-132640476D01*
X63045872Y-132640476D02*
X63093491Y-132497619D01*
X63093491Y-132497619D02*
X63093491Y-132259524D01*
X63093491Y-133783333D02*
X63093491Y-133211905D01*
X63093491Y-133497619D02*
X62093491Y-133497619D01*
X62093491Y-133497619D02*
X62236348Y-133402381D01*
X62236348Y-133402381D02*
X62331586Y-133307143D01*
X62331586Y-133307143D02*
X62379205Y-133211905D01*
X72892675Y-96815474D02*
X72892675Y-96339284D01*
X72892675Y-96339284D02*
X71892675Y-96339284D01*
X72892675Y-97148808D02*
X71892675Y-97148808D01*
X72892675Y-97624998D02*
X71892675Y-97624998D01*
X71892675Y-97624998D02*
X72606960Y-97958331D01*
X72606960Y-97958331D02*
X71892675Y-98291664D01*
X71892675Y-98291664D02*
X72892675Y-98291664D01*
X72892675Y-98767855D02*
X71892675Y-98767855D01*
X71892675Y-99101188D02*
X71892675Y-99672616D01*
X72892675Y-99386902D02*
X71892675Y-99386902D01*
X72892675Y-100529759D02*
X72892675Y-99958331D01*
X72892675Y-100244045D02*
X71892675Y-100244045D01*
X71892675Y-100244045D02*
X72035532Y-100148807D01*
X72035532Y-100148807D02*
X72130770Y-100053569D01*
X72130770Y-100053569D02*
X72178389Y-99958331D01*
X62995056Y-28516189D02*
X63042675Y-28659046D01*
X63042675Y-28659046D02*
X63042675Y-28897141D01*
X63042675Y-28897141D02*
X62995056Y-28992379D01*
X62995056Y-28992379D02*
X62947436Y-29039998D01*
X62947436Y-29039998D02*
X62852198Y-29087617D01*
X62852198Y-29087617D02*
X62756960Y-29087617D01*
X62756960Y-29087617D02*
X62661722Y-29039998D01*
X62661722Y-29039998D02*
X62614103Y-28992379D01*
X62614103Y-28992379D02*
X62566484Y-28897141D01*
X62566484Y-28897141D02*
X62518865Y-28706665D01*
X62518865Y-28706665D02*
X62471246Y-28611427D01*
X62471246Y-28611427D02*
X62423627Y-28563808D01*
X62423627Y-28563808D02*
X62328389Y-28516189D01*
X62328389Y-28516189D02*
X62233151Y-28516189D01*
X62233151Y-28516189D02*
X62137913Y-28563808D01*
X62137913Y-28563808D02*
X62090294Y-28611427D01*
X62090294Y-28611427D02*
X62042675Y-28706665D01*
X62042675Y-28706665D02*
X62042675Y-28944760D01*
X62042675Y-28944760D02*
X62090294Y-29087617D01*
X62042675Y-29373332D02*
X62042675Y-29944760D01*
X63042675Y-29659046D02*
X62042675Y-29659046D01*
X62518865Y-30278094D02*
X62518865Y-30611427D01*
X63042675Y-30754284D02*
X63042675Y-30278094D01*
X63042675Y-30278094D02*
X62042675Y-30278094D01*
X62042675Y-30278094D02*
X62042675Y-30754284D01*
X63042675Y-31182856D02*
X62042675Y-31182856D01*
X62042675Y-31182856D02*
X62042675Y-31563808D01*
X62042675Y-31563808D02*
X62090294Y-31659046D01*
X62090294Y-31659046D02*
X62137913Y-31706665D01*
X62137913Y-31706665D02*
X62233151Y-31754284D01*
X62233151Y-31754284D02*
X62376008Y-31754284D01*
X62376008Y-31754284D02*
X62471246Y-31706665D01*
X62471246Y-31706665D02*
X62518865Y-31659046D01*
X62518865Y-31659046D02*
X62566484Y-31563808D01*
X62566484Y-31563808D02*
X62566484Y-31182856D01*
X63042675Y-32182856D02*
X62042675Y-32182856D01*
X62042675Y-32182856D02*
X62042675Y-32563808D01*
X62042675Y-32563808D02*
X62090294Y-32659046D01*
X62090294Y-32659046D02*
X62137913Y-32706665D01*
X62137913Y-32706665D02*
X62233151Y-32754284D01*
X62233151Y-32754284D02*
X62376008Y-32754284D01*
X62376008Y-32754284D02*
X62471246Y-32706665D01*
X62471246Y-32706665D02*
X62518865Y-32659046D01*
X62518865Y-32659046D02*
X62566484Y-32563808D01*
X62566484Y-32563808D02*
X62566484Y-32182856D01*
X62042675Y-33087618D02*
X63042675Y-33325713D01*
X63042675Y-33325713D02*
X62328389Y-33516189D01*
X62328389Y-33516189D02*
X63042675Y-33706665D01*
X63042675Y-33706665D02*
X62042675Y-33944761D01*
X63042675Y-34897141D02*
X62566484Y-34563808D01*
X63042675Y-34325713D02*
X62042675Y-34325713D01*
X62042675Y-34325713D02*
X62042675Y-34706665D01*
X62042675Y-34706665D02*
X62090294Y-34801903D01*
X62090294Y-34801903D02*
X62137913Y-34849522D01*
X62137913Y-34849522D02*
X62233151Y-34897141D01*
X62233151Y-34897141D02*
X62376008Y-34897141D01*
X62376008Y-34897141D02*
X62471246Y-34849522D01*
X62471246Y-34849522D02*
X62518865Y-34801903D01*
X62518865Y-34801903D02*
X62566484Y-34706665D01*
X62566484Y-34706665D02*
X62566484Y-34325713D01*
X63042675Y-35849522D02*
X63042675Y-35278094D01*
X63042675Y-35563808D02*
X62042675Y-35563808D01*
X62042675Y-35563808D02*
X62185532Y-35468570D01*
X62185532Y-35468570D02*
X62280770Y-35373332D01*
X62280770Y-35373332D02*
X62328389Y-35278094D01*
X99952141Y-125574104D02*
X99475951Y-125574104D01*
X100047379Y-125859819D02*
X99714046Y-124859819D01*
X99714046Y-124859819D02*
X99380713Y-125859819D01*
X98523570Y-125859819D02*
X99094998Y-125859819D01*
X98809284Y-125859819D02*
X98809284Y-124859819D01*
X98809284Y-124859819D02*
X98904522Y-125002676D01*
X98904522Y-125002676D02*
X98999760Y-125097914D01*
X98999760Y-125097914D02*
X99094998Y-125145533D01*
X97975951Y-85310180D02*
X97975951Y-84500657D01*
X97975951Y-84500657D02*
X98023570Y-84405419D01*
X98023570Y-84405419D02*
X98071189Y-84357800D01*
X98071189Y-84357800D02*
X98166427Y-84310180D01*
X98166427Y-84310180D02*
X98356903Y-84310180D01*
X98356903Y-84310180D02*
X98452141Y-84357800D01*
X98452141Y-84357800D02*
X98499760Y-84405419D01*
X98499760Y-84405419D02*
X98547379Y-84500657D01*
X98547379Y-84500657D02*
X98547379Y-85310180D01*
X98975951Y-84357800D02*
X99118808Y-84310180D01*
X99118808Y-84310180D02*
X99356903Y-84310180D01*
X99356903Y-84310180D02*
X99452141Y-84357800D01*
X99452141Y-84357800D02*
X99499760Y-84405419D01*
X99499760Y-84405419D02*
X99547379Y-84500657D01*
X99547379Y-84500657D02*
X99547379Y-84595895D01*
X99547379Y-84595895D02*
X99499760Y-84691133D01*
X99499760Y-84691133D02*
X99452141Y-84738752D01*
X99452141Y-84738752D02*
X99356903Y-84786371D01*
X99356903Y-84786371D02*
X99166427Y-84833990D01*
X99166427Y-84833990D02*
X99071189Y-84881609D01*
X99071189Y-84881609D02*
X99023570Y-84929228D01*
X99023570Y-84929228D02*
X98975951Y-85024466D01*
X98975951Y-85024466D02*
X98975951Y-85119704D01*
X98975951Y-85119704D02*
X99023570Y-85214942D01*
X99023570Y-85214942D02*
X99071189Y-85262561D01*
X99071189Y-85262561D02*
X99166427Y-85310180D01*
X99166427Y-85310180D02*
X99404522Y-85310180D01*
X99404522Y-85310180D02*
X99547379Y-85262561D01*
X100309284Y-84833990D02*
X100452141Y-84786371D01*
X100452141Y-84786371D02*
X100499760Y-84738752D01*
X100499760Y-84738752D02*
X100547379Y-84643514D01*
X100547379Y-84643514D02*
X100547379Y-84500657D01*
X100547379Y-84500657D02*
X100499760Y-84405419D01*
X100499760Y-84405419D02*
X100452141Y-84357800D01*
X100452141Y-84357800D02*
X100356903Y-84310180D01*
X100356903Y-84310180D02*
X99975951Y-84310180D01*
X99975951Y-84310180D02*
X99975951Y-85310180D01*
X99975951Y-85310180D02*
X100309284Y-85310180D01*
X100309284Y-85310180D02*
X100404522Y-85262561D01*
X100404522Y-85262561D02*
X100452141Y-85214942D01*
X100452141Y-85214942D02*
X100499760Y-85119704D01*
X100499760Y-85119704D02*
X100499760Y-85024466D01*
X100499760Y-85024466D02*
X100452141Y-84929228D01*
X100452141Y-84929228D02*
X100404522Y-84881609D01*
X100404522Y-84881609D02*
X100309284Y-84833990D01*
X100309284Y-84833990D02*
X99975951Y-84833990D01*
X106940474Y-74672675D02*
X106940474Y-75386960D01*
X106940474Y-75386960D02*
X106988093Y-75529817D01*
X106988093Y-75529817D02*
X107083331Y-75625056D01*
X107083331Y-75625056D02*
X107226188Y-75672675D01*
X107226188Y-75672675D02*
X107321426Y-75672675D01*
X106273807Y-74672675D02*
X106083331Y-74672675D01*
X106083331Y-74672675D02*
X105988093Y-74720294D01*
X105988093Y-74720294D02*
X105892855Y-74815532D01*
X105892855Y-74815532D02*
X105845236Y-75006008D01*
X105845236Y-75006008D02*
X105845236Y-75339341D01*
X105845236Y-75339341D02*
X105892855Y-75529817D01*
X105892855Y-75529817D02*
X105988093Y-75625056D01*
X105988093Y-75625056D02*
X106083331Y-75672675D01*
X106083331Y-75672675D02*
X106273807Y-75672675D01*
X106273807Y-75672675D02*
X106369045Y-75625056D01*
X106369045Y-75625056D02*
X106464283Y-75529817D01*
X106464283Y-75529817D02*
X106511902Y-75339341D01*
X106511902Y-75339341D02*
X106511902Y-75006008D01*
X106511902Y-75006008D02*
X106464283Y-74815532D01*
X106464283Y-74815532D02*
X106369045Y-74720294D01*
X106369045Y-74720294D02*
X106273807Y-74672675D01*
X105226188Y-75196484D02*
X105226188Y-75672675D01*
X105559521Y-74672675D02*
X105226188Y-75196484D01*
X105226188Y-75196484D02*
X104892855Y-74672675D01*
X104559521Y-75672675D02*
X104559521Y-74672675D01*
X104083331Y-75672675D02*
X104083331Y-74672675D01*
X104083331Y-74672675D02*
X103511903Y-75672675D01*
X103511903Y-75672675D02*
X103511903Y-74672675D01*
X102511903Y-75672675D02*
X103083331Y-75672675D01*
X102797617Y-75672675D02*
X102797617Y-74672675D01*
X102797617Y-74672675D02*
X102892855Y-74815532D01*
X102892855Y-74815532D02*
X102988093Y-74910770D01*
X102988093Y-74910770D02*
X103083331Y-74958389D01*
X62885056Y-79040476D02*
X62932675Y-79183333D01*
X62932675Y-79183333D02*
X62932675Y-79421428D01*
X62932675Y-79421428D02*
X62885056Y-79516666D01*
X62885056Y-79516666D02*
X62837436Y-79564285D01*
X62837436Y-79564285D02*
X62742198Y-79611904D01*
X62742198Y-79611904D02*
X62646960Y-79611904D01*
X62646960Y-79611904D02*
X62551722Y-79564285D01*
X62551722Y-79564285D02*
X62504103Y-79516666D01*
X62504103Y-79516666D02*
X62456484Y-79421428D01*
X62456484Y-79421428D02*
X62408865Y-79230952D01*
X62408865Y-79230952D02*
X62361246Y-79135714D01*
X62361246Y-79135714D02*
X62313627Y-79088095D01*
X62313627Y-79088095D02*
X62218389Y-79040476D01*
X62218389Y-79040476D02*
X62123151Y-79040476D01*
X62123151Y-79040476D02*
X62027913Y-79088095D01*
X62027913Y-79088095D02*
X61980294Y-79135714D01*
X61980294Y-79135714D02*
X61932675Y-79230952D01*
X61932675Y-79230952D02*
X61932675Y-79469047D01*
X61932675Y-79469047D02*
X61980294Y-79611904D01*
X61932675Y-79897619D02*
X61932675Y-80469047D01*
X62932675Y-80183333D02*
X61932675Y-80183333D01*
X62408865Y-80802381D02*
X62408865Y-81135714D01*
X62932675Y-81278571D02*
X62932675Y-80802381D01*
X62932675Y-80802381D02*
X61932675Y-80802381D01*
X61932675Y-80802381D02*
X61932675Y-81278571D01*
X62932675Y-81707143D02*
X61932675Y-81707143D01*
X61932675Y-81707143D02*
X61932675Y-82088095D01*
X61932675Y-82088095D02*
X61980294Y-82183333D01*
X61980294Y-82183333D02*
X62027913Y-82230952D01*
X62027913Y-82230952D02*
X62123151Y-82278571D01*
X62123151Y-82278571D02*
X62266008Y-82278571D01*
X62266008Y-82278571D02*
X62361246Y-82230952D01*
X62361246Y-82230952D02*
X62408865Y-82183333D01*
X62408865Y-82183333D02*
X62456484Y-82088095D01*
X62456484Y-82088095D02*
X62456484Y-81707143D01*
X62885056Y-82659524D02*
X62932675Y-82802381D01*
X62932675Y-82802381D02*
X62932675Y-83040476D01*
X62932675Y-83040476D02*
X62885056Y-83135714D01*
X62885056Y-83135714D02*
X62837436Y-83183333D01*
X62837436Y-83183333D02*
X62742198Y-83230952D01*
X62742198Y-83230952D02*
X62646960Y-83230952D01*
X62646960Y-83230952D02*
X62551722Y-83183333D01*
X62551722Y-83183333D02*
X62504103Y-83135714D01*
X62504103Y-83135714D02*
X62456484Y-83040476D01*
X62456484Y-83040476D02*
X62408865Y-82850000D01*
X62408865Y-82850000D02*
X62361246Y-82754762D01*
X62361246Y-82754762D02*
X62313627Y-82707143D01*
X62313627Y-82707143D02*
X62218389Y-82659524D01*
X62218389Y-82659524D02*
X62123151Y-82659524D01*
X62123151Y-82659524D02*
X62027913Y-82707143D01*
X62027913Y-82707143D02*
X61980294Y-82754762D01*
X61980294Y-82754762D02*
X61932675Y-82850000D01*
X61932675Y-82850000D02*
X61932675Y-83088095D01*
X61932675Y-83088095D02*
X61980294Y-83230952D01*
X62932675Y-83659524D02*
X61932675Y-83659524D01*
X61980294Y-84659523D02*
X61932675Y-84564285D01*
X61932675Y-84564285D02*
X61932675Y-84421428D01*
X61932675Y-84421428D02*
X61980294Y-84278571D01*
X61980294Y-84278571D02*
X62075532Y-84183333D01*
X62075532Y-84183333D02*
X62170770Y-84135714D01*
X62170770Y-84135714D02*
X62361246Y-84088095D01*
X62361246Y-84088095D02*
X62504103Y-84088095D01*
X62504103Y-84088095D02*
X62694579Y-84135714D01*
X62694579Y-84135714D02*
X62789817Y-84183333D01*
X62789817Y-84183333D02*
X62885056Y-84278571D01*
X62885056Y-84278571D02*
X62932675Y-84421428D01*
X62932675Y-84421428D02*
X62932675Y-84516666D01*
X62932675Y-84516666D02*
X62885056Y-84659523D01*
X62885056Y-84659523D02*
X62837436Y-84707142D01*
X62837436Y-84707142D02*
X62504103Y-84707142D01*
X62504103Y-84707142D02*
X62504103Y-84516666D01*
X62027913Y-85088095D02*
X61980294Y-85135714D01*
X61980294Y-85135714D02*
X61932675Y-85230952D01*
X61932675Y-85230952D02*
X61932675Y-85469047D01*
X61932675Y-85469047D02*
X61980294Y-85564285D01*
X61980294Y-85564285D02*
X62027913Y-85611904D01*
X62027913Y-85611904D02*
X62123151Y-85659523D01*
X62123151Y-85659523D02*
X62218389Y-85659523D01*
X62218389Y-85659523D02*
X62361246Y-85611904D01*
X62361246Y-85611904D02*
X62932675Y-85040476D01*
X62932675Y-85040476D02*
X62932675Y-85659523D01*
X98682675Y-142234522D02*
X99396960Y-142234522D01*
X99396960Y-142234522D02*
X99539817Y-142186903D01*
X99539817Y-142186903D02*
X99635056Y-142091665D01*
X99635056Y-142091665D02*
X99682675Y-141948808D01*
X99682675Y-141948808D02*
X99682675Y-141853570D01*
X98682675Y-142615475D02*
X98682675Y-143234522D01*
X98682675Y-143234522D02*
X99063627Y-142901189D01*
X99063627Y-142901189D02*
X99063627Y-143044046D01*
X99063627Y-143044046D02*
X99111246Y-143139284D01*
X99111246Y-143139284D02*
X99158865Y-143186903D01*
X99158865Y-143186903D02*
X99254103Y-143234522D01*
X99254103Y-143234522D02*
X99492198Y-143234522D01*
X99492198Y-143234522D02*
X99587436Y-143186903D01*
X99587436Y-143186903D02*
X99635056Y-143139284D01*
X99635056Y-143139284D02*
X99682675Y-143044046D01*
X99682675Y-143044046D02*
X99682675Y-142758332D01*
X99682675Y-142758332D02*
X99635056Y-142663094D01*
X99635056Y-142663094D02*
X99587436Y-142615475D01*
X125172675Y-170354522D02*
X125886960Y-170354522D01*
X125886960Y-170354522D02*
X126029817Y-170306903D01*
X126029817Y-170306903D02*
X126125056Y-170211665D01*
X126125056Y-170211665D02*
X126172675Y-170068808D01*
X126172675Y-170068808D02*
X126172675Y-169973570D01*
X125506008Y-171259284D02*
X126172675Y-171259284D01*
X125125056Y-171021189D02*
X125839341Y-170783094D01*
X125839341Y-170783094D02*
X125839341Y-171402141D01*
X156084283Y-93967675D02*
X155750950Y-94967675D01*
X155750950Y-94967675D02*
X155417617Y-93967675D01*
X155084283Y-94967675D02*
X155084283Y-93967675D01*
X154608093Y-94967675D02*
X154608093Y-93967675D01*
X154608093Y-93967675D02*
X154036665Y-94967675D01*
X154036665Y-94967675D02*
X154036665Y-93967675D01*
X153036665Y-94967675D02*
X153608093Y-94967675D01*
X153322379Y-94967675D02*
X153322379Y-93967675D01*
X153322379Y-93967675D02*
X153417617Y-94110532D01*
X153417617Y-94110532D02*
X153512855Y-94205770D01*
X153512855Y-94205770D02*
X153608093Y-94253389D01*
D11*
%TO.C,BUCKVOUT1*%
X120827856Y-129777856D02*
X120827856Y-127877856D01*
X121327856Y-130477856D02*
X121327856Y-129527856D01*
X121327856Y-122677856D02*
X120827856Y-122977856D01*
X121327856Y-129527856D02*
X120827856Y-129777856D01*
X121327856Y-128077856D02*
X121327856Y-122677856D01*
X131677856Y-117877856D02*
X131677856Y-130477856D01*
X120827856Y-117877856D02*
X131677856Y-117877856D01*
X120827856Y-122977856D02*
X120827856Y-117877856D01*
X120827856Y-127877856D02*
X120827856Y-127827856D01*
X131677856Y-130477856D02*
X121327856Y-130477856D01*
X120827856Y-127827856D02*
X121327856Y-128077856D01*
%TO.C,BUCKVIN1*%
X121294286Y-39927856D02*
X121794286Y-40177856D01*
X132144286Y-42577856D02*
X121794286Y-42577856D01*
X121294286Y-39977856D02*
X121294286Y-39927856D01*
X121294286Y-35077856D02*
X121294286Y-29977856D01*
X121294286Y-29977856D02*
X132144286Y-29977856D01*
X132144286Y-29977856D02*
X132144286Y-42577856D01*
X121794286Y-40177856D02*
X121794286Y-34777856D01*
X121794286Y-41627856D02*
X121294286Y-41877856D01*
X121794286Y-34777856D02*
X121294286Y-35077856D01*
X121794286Y-42577856D02*
X121794286Y-41627856D01*
X121294286Y-41877856D02*
X121294286Y-39977856D01*
%TO.C,J2*%
X112667856Y-161027856D02*
X100067856Y-161027856D01*
X100067856Y-161027856D02*
X100067856Y-181827856D01*
X112667856Y-181327856D02*
X112667856Y-161027856D01*
X111717856Y-181327856D02*
X112667856Y-181327856D01*
X110267856Y-181327856D02*
X109967856Y-181877856D01*
X104867856Y-181327856D02*
X110267856Y-181327856D01*
X105117856Y-181827856D02*
X104867856Y-181327856D01*
X100067856Y-181827856D02*
X105117856Y-181827856D01*
X112017856Y-181877856D02*
X111717856Y-181327856D01*
X109967856Y-181877856D02*
X112017856Y-181877856D01*
%TO.C,LIMIT2*%
X71637856Y-104817856D02*
X71637856Y-107317856D01*
X69137856Y-104817856D02*
X71637856Y-104817856D01*
X71337856Y-105117856D02*
X71337856Y-115337856D01*
X69837856Y-105117856D02*
X69837856Y-106117856D01*
X69027856Y-105117856D02*
X69027856Y-105617856D01*
X67317856Y-105117856D02*
X71337856Y-105117856D01*
X69027856Y-105617856D02*
X67817856Y-105617856D01*
X67817856Y-105617856D02*
X67817856Y-114837856D01*
X69837856Y-106117856D02*
X71337856Y-106117856D01*
X69837856Y-114337856D02*
X71337856Y-114337856D01*
X69027856Y-114837856D02*
X69027856Y-115337856D01*
X67817856Y-114837856D02*
X69027856Y-114837856D01*
X71337856Y-115337856D02*
X67317856Y-115337856D01*
X69837856Y-115337856D02*
X69837856Y-114337856D01*
X67317856Y-115337856D02*
X67317856Y-105117856D01*
%TO.C,J5*%
X120267856Y-148987856D02*
X120267856Y-146487856D01*
X122767856Y-148987856D02*
X120267856Y-148987856D01*
X120567856Y-148687856D02*
X120567856Y-135967856D01*
X122067856Y-148687856D02*
X122067856Y-147687856D01*
X122877856Y-148687856D02*
X122877856Y-148187856D01*
X124587856Y-148687856D02*
X120567856Y-148687856D01*
X122877856Y-148187856D02*
X124087856Y-148187856D01*
X124087856Y-148187856D02*
X124087856Y-136467856D01*
X122067856Y-147687856D02*
X120567856Y-147687856D01*
X122067856Y-136967856D02*
X120567856Y-136967856D01*
X122877856Y-136467856D02*
X122877856Y-135967856D01*
X124087856Y-136467856D02*
X122877856Y-136467856D01*
X120567856Y-135967856D02*
X124587856Y-135967856D01*
X122067856Y-135967856D02*
X122067856Y-136967856D01*
X124587856Y-135967856D02*
X124587856Y-148687856D01*
%TO.C,STEPSIGGND2*%
X76038672Y-139050000D02*
X76038672Y-154450000D01*
X63438672Y-139050000D02*
X76038672Y-139050000D01*
X76038672Y-154450000D02*
X75088672Y-154450000D01*
X75088672Y-154450000D02*
X75388672Y-154950000D01*
X73638672Y-154450000D02*
X68238672Y-154450000D01*
X68238672Y-154450000D02*
X68488672Y-154950000D01*
X75388672Y-154950000D02*
X73388672Y-154950000D01*
X73388672Y-154950000D02*
X73638672Y-154450000D01*
X68488672Y-154950000D02*
X63438672Y-154950000D01*
X63438672Y-154950000D02*
X63438672Y-139050000D01*
%TO.C,STEPSIG1*%
X75877856Y-56950000D02*
X75877856Y-72350000D01*
X63277856Y-56950000D02*
X75877856Y-56950000D01*
X75877856Y-72350000D02*
X74927856Y-72350000D01*
X74927856Y-72350000D02*
X75227856Y-72850000D01*
X73477856Y-72350000D02*
X68077856Y-72350000D01*
X68077856Y-72350000D02*
X68327856Y-72850000D01*
X75227856Y-72850000D02*
X73227856Y-72850000D01*
X73227856Y-72850000D02*
X73477856Y-72350000D01*
X68327856Y-72850000D02*
X63277856Y-72850000D01*
X63277856Y-72850000D02*
X63277856Y-56950000D01*
%TO.C,STEPGND1*%
X76028672Y-156830000D02*
X76028672Y-167180000D01*
X63428672Y-156830000D02*
X76028672Y-156830000D01*
X76028672Y-167180000D02*
X75078672Y-167180000D01*
X75078672Y-167180000D02*
X75328672Y-167680000D01*
X73628672Y-167180000D02*
X68228672Y-167180000D01*
X68228672Y-167180000D02*
X68528672Y-167680000D01*
X75328672Y-167680000D02*
X73428672Y-167680000D01*
X73428672Y-167680000D02*
X73378672Y-167680000D01*
X73378672Y-167680000D02*
X73628672Y-167180000D01*
X68528672Y-167680000D02*
X63428672Y-167680000D01*
X63428672Y-167680000D02*
X63428672Y-156830000D01*
%TO.C,STEPSIGGND1*%
X76038672Y-121300000D02*
X76038672Y-136700000D01*
X63438672Y-121300000D02*
X76038672Y-121300000D01*
X76038672Y-136700000D02*
X75088672Y-136700000D01*
X75088672Y-136700000D02*
X75388672Y-137200000D01*
X73638672Y-136700000D02*
X68238672Y-136700000D01*
X68238672Y-136700000D02*
X68488672Y-137200000D01*
X75388672Y-137200000D02*
X73388672Y-137200000D01*
X73388672Y-137200000D02*
X73638672Y-136700000D01*
X68488672Y-137200000D02*
X63438672Y-137200000D01*
X63438672Y-137200000D02*
X63438672Y-121300000D01*
%TO.C,LIMIT1*%
X67027856Y-103820712D02*
X67027856Y-101320712D01*
X69527856Y-103820712D02*
X67027856Y-103820712D01*
X67327856Y-103520712D02*
X67327856Y-93300712D01*
X68827856Y-103520712D02*
X68827856Y-102520712D01*
X69637856Y-103520712D02*
X69637856Y-103020712D01*
X71347856Y-103520712D02*
X67327856Y-103520712D01*
X69637856Y-103020712D02*
X70847856Y-103020712D01*
X70847856Y-103020712D02*
X70847856Y-93800712D01*
X68827856Y-102520712D02*
X67327856Y-102520712D01*
X68827856Y-94300712D02*
X67327856Y-94300712D01*
X69637856Y-93800712D02*
X69637856Y-93300712D01*
X70847856Y-93800712D02*
X69637856Y-93800712D01*
X67327856Y-93300712D02*
X71347856Y-93300712D01*
X68827856Y-93300712D02*
X68827856Y-94300712D01*
X71347856Y-93300712D02*
X71347856Y-103520712D01*
%TO.C,STEPPWR1*%
X63277856Y-42302856D02*
X63277856Y-31452856D01*
X68377856Y-42302856D02*
X63277856Y-42302856D01*
X73227856Y-42302856D02*
X73477856Y-41802856D01*
X73277856Y-42302856D02*
X73227856Y-42302856D01*
X75177856Y-42302856D02*
X73277856Y-42302856D01*
X68077856Y-41802856D02*
X68377856Y-42302856D01*
X73477856Y-41802856D02*
X68077856Y-41802856D01*
X74927856Y-41802856D02*
X75177856Y-42302856D01*
X75877856Y-41802856D02*
X74927856Y-41802856D01*
X63277856Y-31452856D02*
X75877856Y-31452856D01*
X75877856Y-31452856D02*
X75877856Y-41802856D01*
%TO.C,A1*%
X90217856Y-80825000D02*
X95297856Y-80825000D01*
X90217856Y-119055000D02*
X90217856Y-80825000D01*
X90217856Y-124265000D02*
X90217856Y-121595000D01*
X92887856Y-83495000D02*
X90217856Y-83495000D01*
X92887856Y-119055000D02*
X90217856Y-119055000D01*
X92887856Y-119055000D02*
X92887856Y-83495000D01*
X92887856Y-119055000D02*
X92887856Y-121595000D01*
X92887856Y-121595000D02*
X90217856Y-121595000D01*
X95297856Y-78285000D02*
X95297856Y-88705000D01*
X95297856Y-88705000D02*
X103177856Y-88705000D01*
X103177856Y-78285000D02*
X95297856Y-78285000D01*
X103177856Y-88705000D02*
X103177856Y-78285000D01*
X105587856Y-83495000D02*
X108257856Y-83495000D01*
X105587856Y-121595000D02*
X105587856Y-83495000D01*
X105587856Y-121595000D02*
X108257856Y-121595000D01*
X108257856Y-80825000D02*
X103177856Y-80825000D01*
X108257856Y-80825000D02*
X108257856Y-124265000D01*
X108257856Y-124265000D02*
X90217856Y-124265000D01*
%TO.C,JOYIN1*%
X104162856Y-61927856D02*
X114512856Y-61927856D01*
X104162856Y-74527856D02*
X104162856Y-61927856D01*
X114512856Y-61927856D02*
X114512856Y-62877856D01*
X114512856Y-62877856D02*
X115012856Y-62627856D01*
X114512856Y-64327856D02*
X114512856Y-69727856D01*
X114512856Y-69727856D02*
X115012856Y-69427856D01*
X115012856Y-62627856D02*
X115012856Y-64527856D01*
X115012856Y-64527856D02*
X115012856Y-64577856D01*
X115012856Y-64577856D02*
X114512856Y-64327856D01*
X115012856Y-69427856D02*
X115012856Y-74527856D01*
X115012856Y-74527856D02*
X104162856Y-74527856D01*
%TO.C,STEPSIG2*%
X75877856Y-74700000D02*
X75877856Y-90100000D01*
X63277856Y-74700000D02*
X75877856Y-74700000D01*
X75877856Y-90100000D02*
X74927856Y-90100000D01*
X74927856Y-90100000D02*
X75227856Y-90600000D01*
X73477856Y-90100000D02*
X68077856Y-90100000D01*
X68077856Y-90100000D02*
X68327856Y-90600000D01*
X75227856Y-90600000D02*
X73227856Y-90600000D01*
X73227856Y-90600000D02*
X73477856Y-90100000D01*
X68327856Y-90600000D02*
X63277856Y-90600000D01*
X63277856Y-90600000D02*
X63277856Y-74700000D01*
%TO.C,J3*%
X112677856Y-132417856D02*
X100077856Y-132417856D01*
X100077856Y-132417856D02*
X100077856Y-153217856D01*
X112677856Y-152717856D02*
X112677856Y-132417856D01*
X111727856Y-152717856D02*
X112677856Y-152717856D01*
X110277856Y-152717856D02*
X109977856Y-153267856D01*
X104877856Y-152717856D02*
X110277856Y-152717856D01*
X105127856Y-153217856D02*
X104877856Y-152717856D01*
X100077856Y-153217856D02*
X105127856Y-153217856D01*
X112027856Y-153267856D02*
X111727856Y-152717856D01*
X109977856Y-153267856D02*
X112027856Y-153267856D01*
%TO.C,J4*%
X120307856Y-177347856D02*
X120307856Y-174847856D01*
X122807856Y-177347856D02*
X120307856Y-177347856D01*
X120607856Y-177047856D02*
X120607856Y-164327856D01*
X122107856Y-177047856D02*
X122107856Y-176047856D01*
X122917856Y-177047856D02*
X122917856Y-176547856D01*
X124627856Y-177047856D02*
X120607856Y-177047856D01*
X122917856Y-176547856D02*
X124127856Y-176547856D01*
X124127856Y-176547856D02*
X124127856Y-164827856D01*
X122107856Y-176047856D02*
X120607856Y-176047856D01*
X122107856Y-165327856D02*
X120607856Y-165327856D01*
X122917856Y-164827856D02*
X122917856Y-164327856D01*
X124127856Y-164827856D02*
X122917856Y-164827856D01*
X120607856Y-164327856D02*
X124627856Y-164327856D01*
X122107856Y-164327856D02*
X122107856Y-165327856D01*
X124627856Y-164327856D02*
X124627856Y-177047856D01*
%TO.C,VIN1*%
X155242856Y-107802856D02*
X144892856Y-107802856D01*
X155242856Y-95202856D02*
X155242856Y-107802856D01*
X144892856Y-107802856D02*
X144892856Y-106852856D01*
X144892856Y-106852856D02*
X144392856Y-107102856D01*
X144892856Y-105402856D02*
X144892856Y-100002856D01*
X144892856Y-100002856D02*
X144392856Y-100302856D01*
X144392856Y-107102856D02*
X144392856Y-105202856D01*
X144392856Y-105202856D02*
X144392856Y-105152856D01*
X144392856Y-105152856D02*
X144892856Y-105402856D01*
X144392856Y-100302856D02*
X144392856Y-95202856D01*
X144392856Y-95202856D02*
X155242856Y-95202856D01*
%TD*%
M02*
