%TF.GenerationSoftware,KiCad,Pcbnew,7.0.8-7.0.8~ubuntu22.04.1*%
%TF.CreationDate,2023-11-09T15:08:59-07:00*%
%TF.ProjectId,stepper_microscope_stage,73746570-7065-4725-9f6d-6963726f7363,10*%
%TF.SameCoordinates,Original*%
%TF.FileFunction,Soldermask,Top*%
%TF.FilePolarity,Negative*%
%FSLAX46Y46*%
G04 Gerber Fmt 4.6, Leading zero omitted, Abs format (unit mm)*
G04 Created by KiCad (PCBNEW 7.0.8-7.0.8~ubuntu22.04.1) date 2023-11-09 15:08:59*
%MOMM*%
%LPD*%
G01*
G04 APERTURE LIST*
G04 Aperture macros list*
%AMRoundRect*
0 Rectangle with rounded corners*
0 $1 Rounding radius*
0 $2 $3 $4 $5 $6 $7 $8 $9 X,Y pos of 4 corners*
0 Add a 4 corners polygon primitive as box body*
4,1,4,$2,$3,$4,$5,$6,$7,$8,$9,$2,$3,0*
0 Add four circle primitives for the rounded corners*
1,1,$1+$1,$2,$3*
1,1,$1+$1,$4,$5*
1,1,$1+$1,$6,$7*
1,1,$1+$1,$8,$9*
0 Add four rect primitives between the rounded corners*
20,1,$1+$1,$2,$3,$4,$5,0*
20,1,$1+$1,$4,$5,$6,$7,0*
20,1,$1+$1,$6,$7,$8,$9,0*
20,1,$1+$1,$8,$9,$2,$3,0*%
G04 Aperture macros list end*
%ADD10C,3.500000*%
%ADD11O,4.375000X2.625000*%
%ADD12R,1.980000X3.960000*%
%ADD13O,1.980000X3.960000*%
%ADD14R,1.700000X1.700000*%
%ADD15O,1.700000X1.700000*%
%ADD16C,8.600000*%
%ADD17R,3.960000X1.980000*%
%ADD18O,3.960000X1.980000*%
%ADD19RoundRect,0.250000X-0.725000X0.600000X-0.725000X-0.600000X0.725000X-0.600000X0.725000X0.600000X0*%
%ADD20O,1.950000X1.700000*%
%ADD21RoundRect,0.250000X0.725000X-0.600000X0.725000X0.600000X-0.725000X0.600000X-0.725000X-0.600000X0*%
%ADD22R,1.600000X1.600000*%
%ADD23O,1.600000X1.600000*%
G04 APERTURE END LIST*
D10*
%TO.C,SW1*%
X145732856Y-57332856D03*
X145732856Y-41332856D03*
D11*
X145732856Y-53332856D03*
X145732856Y-49332856D03*
X145732856Y-45332856D03*
%TD*%
D12*
%TO.C,BUCKVOUT1*%
X129027856Y-124177856D03*
D13*
X124027856Y-124177856D03*
%TD*%
%TO.C,BUCKVIN1*%
X124494286Y-36277856D03*
D12*
X129494286Y-36277856D03*
%TD*%
D14*
%TO.C,J1*%
X85352856Y-45577856D03*
D15*
X85352856Y-48117856D03*
X85352856Y-50657856D03*
X85352856Y-53197856D03*
%TD*%
D16*
%TO.C,H2*%
X47627856Y-49127856D03*
%TD*%
%TO.C,H3*%
X53577856Y-175277856D03*
%TD*%
%TO.C,H1*%
X129827856Y-157327856D03*
%TD*%
D17*
%TO.C,J2*%
X106367856Y-163677856D03*
D18*
X106367856Y-168677856D03*
X106367856Y-173677856D03*
X106367856Y-178677856D03*
%TD*%
D19*
%TO.C,LIMIT2*%
X69027856Y-107727856D03*
D20*
X69027856Y-110227856D03*
X69027856Y-112727856D03*
%TD*%
D21*
%TO.C,J5*%
X122877856Y-146077856D03*
D20*
X122877856Y-143577856D03*
X122877856Y-141077856D03*
X122877856Y-138577856D03*
%TD*%
D17*
%TO.C,STEPSIGGND2*%
X69738672Y-141700000D03*
D18*
X69738672Y-146700000D03*
X69738672Y-151700000D03*
%TD*%
D17*
%TO.C,STEPSIG1*%
X69577856Y-59600000D03*
D18*
X69577856Y-64600000D03*
X69577856Y-69600000D03*
%TD*%
D17*
%TO.C,STEPGND1*%
X69728672Y-159480000D03*
D18*
X69728672Y-164480000D03*
%TD*%
D17*
%TO.C,STEPSIGGND1*%
X69738672Y-123950000D03*
D18*
X69738672Y-128950000D03*
X69738672Y-133950000D03*
%TD*%
D21*
%TO.C,LIMIT1*%
X69637856Y-100910712D03*
D20*
X69637856Y-98410712D03*
X69637856Y-95910712D03*
%TD*%
D18*
%TO.C,STEPPWR1*%
X69577856Y-39102856D03*
D17*
X69577856Y-34102856D03*
%TD*%
D22*
%TO.C,A1*%
X91617856Y-120325000D03*
D23*
X91617856Y-117785000D03*
X91617856Y-115245000D03*
X91617856Y-112705000D03*
X91617856Y-110165000D03*
X91617856Y-107625000D03*
X91617856Y-105085000D03*
X91617856Y-102545000D03*
X91617856Y-100005000D03*
X91617856Y-97465000D03*
X91617856Y-94925000D03*
X91617856Y-92385000D03*
X91617856Y-89845000D03*
X91617856Y-87305000D03*
X91617856Y-84765000D03*
X106857856Y-84765000D03*
X106857856Y-87305000D03*
X106857856Y-89845000D03*
X106857856Y-92385000D03*
X106857856Y-94925000D03*
X106857856Y-97465000D03*
X106857856Y-100005000D03*
X106857856Y-102545000D03*
X106857856Y-105085000D03*
X106857856Y-107625000D03*
X106857856Y-110165000D03*
X106857856Y-112705000D03*
X106857856Y-115245000D03*
X106857856Y-117785000D03*
X106857856Y-120325000D03*
%TD*%
D12*
%TO.C,JOYIN1*%
X106812856Y-68227856D03*
D13*
X111812856Y-68227856D03*
%TD*%
D17*
%TO.C,STEPSIG2*%
X69577856Y-77350000D03*
D18*
X69577856Y-82350000D03*
X69577856Y-87350000D03*
%TD*%
D17*
%TO.C,J3*%
X106377856Y-135067856D03*
D18*
X106377856Y-140067856D03*
X106377856Y-145067856D03*
X106377856Y-150067856D03*
%TD*%
D21*
%TO.C,J4*%
X122917856Y-174437856D03*
D20*
X122917856Y-171937856D03*
X122917856Y-169437856D03*
X122917856Y-166937856D03*
%TD*%
D12*
%TO.C,VIN1*%
X152592856Y-101502856D03*
D13*
X147592856Y-101502856D03*
%TD*%
M02*
