M48
; DRILL file {KiCad 7.0.8-7.0.8~ubuntu22.04.1} date Thu 09 Nov 2023 03:08:51 PM MST
; FORMAT={-:-/ absolute / metric / decimal}
; #@! TF.CreationDate,2023-11-09T15:08:51-07:00
; #@! TF.GenerationSoftware,Kicad,Pcbnew,7.0.8-7.0.8~ubuntu22.04.1
; #@! TF.FileFunction,MixedPlating,1,2
FMAT,2
METRIC
; #@! TA.AperFunction,Plated,PTH,ComponentDrill
T1C0.950
; #@! TA.AperFunction,Plated,PTH,ComponentDrill
T2C1.000
; #@! TA.AperFunction,Plated,PTH,ComponentDrill
T3C1.320
; #@! TA.AperFunction,Plated,PTH,ComponentDrill
T4C1.905
; #@! TA.AperFunction,Plated,PTH,ComponentDrill
T5C4.300
; #@! TA.AperFunction,NonPlated,NPTH,ComponentDrill
T6C1.905
%
G90
G05
T1
X69.028Y-107.728
X69.028Y-110.228
X69.028Y-112.728
X69.638Y-95.911
X69.638Y-98.411
X69.638Y-100.911
X122.878Y-138.578
X122.878Y-141.078
X122.878Y-143.578
X122.878Y-146.078
X122.918Y-166.938
X122.918Y-169.438
X122.918Y-171.938
X122.918Y-174.438
T2
X85.353Y-45.578
X85.353Y-48.118
X85.353Y-50.658
X85.353Y-53.198
X91.618Y-84.765
X91.618Y-87.305
X91.618Y-89.845
X91.618Y-92.385
X91.618Y-94.925
X91.618Y-97.465
X91.618Y-100.005
X91.618Y-102.545
X91.618Y-105.085
X91.618Y-107.625
X91.618Y-110.165
X91.618Y-112.705
X91.618Y-115.245
X91.618Y-117.785
X91.618Y-120.325
X106.858Y-84.765
X106.858Y-87.305
X106.858Y-89.845
X106.858Y-92.385
X106.858Y-94.925
X106.858Y-97.465
X106.858Y-100.005
X106.858Y-102.545
X106.858Y-105.085
X106.858Y-107.625
X106.858Y-110.165
X106.858Y-112.705
X106.858Y-115.245
X106.858Y-117.785
X106.858Y-120.325
T3
X69.578Y-34.103
X69.578Y-39.103
X69.578Y-59.6
X69.578Y-64.6
X69.578Y-69.6
X69.578Y-77.35
X69.578Y-82.35
X69.578Y-87.35
X69.729Y-159.48
X69.729Y-164.48
X69.739Y-123.95
X69.739Y-128.95
X69.739Y-133.95
X69.739Y-141.7
X69.739Y-146.7
X69.739Y-151.7
X106.368Y-163.678
X106.368Y-168.678
X106.368Y-173.678
X106.368Y-178.678
X106.378Y-135.068
X106.378Y-140.068
X106.378Y-145.068
X106.378Y-150.068
X106.813Y-68.228
X111.813Y-68.228
X124.028Y-124.178
X124.494Y-36.278
X129.028Y-124.178
X129.494Y-36.278
X147.593Y-101.503
X152.593Y-101.503
T4
X145.733Y-45.333
X145.733Y-49.333
X145.733Y-53.333
T5
X47.628Y-49.128
X53.578Y-175.278
X129.828Y-157.328
T6
X145.733Y-41.333
X145.733Y-57.333
T0
M30
