%TF.GenerationSoftware,KiCad,Pcbnew,7.0.8-7.0.8~ubuntu22.04.1*%
%TF.CreationDate,2023-11-09T15:08:59-07:00*%
%TF.ProjectId,stepper_microscope_stage,73746570-7065-4725-9f6d-6963726f7363,10*%
%TF.SameCoordinates,Original*%
%TF.FileFunction,Profile,NP*%
%FSLAX46Y46*%
G04 Gerber Fmt 4.6, Leading zero omitted, Abs format (unit mm)*
G04 Created by KiCad (PCBNEW 7.0.8-7.0.8~ubuntu22.04.1) date 2023-11-09 15:08:59*
%MOMM*%
%LPD*%
G01*
G04 APERTURE LIST*
%TA.AperFunction,Profile*%
%ADD10C,0.100000*%
%TD*%
G04 APERTURE END LIST*
D10*
X120214286Y-54427856D02*
G75*
G03*
X120214286Y-54427856I-1600000J0D01*
G01*
X136441426Y-54427856D02*
G75*
G03*
X136441426Y-54427856I-1600000J0D01*
G01*
X130827856Y-47777856D02*
G75*
G03*
X130827856Y-47777856I-1600000J0D01*
G01*
X125827856Y-47777856D02*
G75*
G03*
X125827856Y-47777856I-1600000J0D01*
G01*
X136341426Y-106127856D02*
G75*
G03*
X136341426Y-106127856I-1600000J0D01*
G01*
X120114286Y-106127856D02*
G75*
G03*
X120114286Y-106127856I-1600000J0D01*
G01*
X125727856Y-112777856D02*
G75*
G03*
X125727856Y-112777856I-1600000J0D01*
G01*
X130727856Y-112777856D02*
G75*
G03*
X130727856Y-112777856I-1600000J0D01*
G01*
X39477856Y-25377856D02*
X159377856Y-25377856D01*
X159377856Y-185377856D01*
X39477856Y-185377856D01*
X39477856Y-25377856D01*
X46327856Y-64827856D02*
G75*
G03*
X46327856Y-64827856I-1600000J0D01*
G01*
X46478672Y-129072856D02*
G75*
G03*
X46478672Y-129072856I-1600000J0D01*
G01*
X53477856Y-105077856D02*
X59877856Y-105077856D01*
X59877856Y-115077856D01*
X53477856Y-115077856D01*
X53477856Y-105077856D01*
X96187856Y-140677856D02*
G75*
G03*
X96187856Y-140677856I-1600000J0D01*
G01*
X46578672Y-159672856D02*
G75*
G03*
X46578672Y-159672856I-1600000J0D01*
G01*
X59688672Y-146817856D02*
G75*
G03*
X59688672Y-146817856I-1600000J0D01*
G01*
X43377856Y-93127856D02*
X49777856Y-93127856D01*
X49777856Y-103127856D01*
X43377856Y-103127856D01*
X43377856Y-93127856D01*
X46488672Y-146817856D02*
G75*
G03*
X46488672Y-146817856I-1600000J0D01*
G01*
X46327856Y-87522856D02*
G75*
G03*
X46327856Y-87522856I-1600000J0D01*
G01*
X59678672Y-134072856D02*
G75*
G03*
X59678672Y-134072856I-1600000J0D01*
G01*
X96077856Y-178927856D02*
G75*
G03*
X96077856Y-178927856I-1600000J0D01*
G01*
X46478672Y-124072856D02*
G75*
G03*
X46478672Y-124072856I-1600000J0D01*
G01*
X46488672Y-141817856D02*
G75*
G03*
X46488672Y-141817856I-1600000J0D01*
G01*
X46327856Y-69827856D02*
G75*
G03*
X46327856Y-69827856I-1600000J0D01*
G01*
X108377856Y-43605712D02*
G75*
G03*
X108377856Y-43605712I-1600000J0D01*
G01*
X59527856Y-87522856D02*
G75*
G03*
X59527856Y-87522856I-1600000J0D01*
G01*
X59778672Y-164672856D02*
G75*
G03*
X59778672Y-164672856I-1600000J0D01*
G01*
X55627856Y-43322856D02*
X62027856Y-43322856D01*
X62027856Y-55722856D01*
X55627856Y-55722856D01*
X55627856Y-43322856D01*
X68577856Y-43322856D02*
X74977856Y-43322856D01*
X74977856Y-55722856D01*
X68577856Y-55722856D01*
X68577856Y-43322856D01*
X59527856Y-69827856D02*
G75*
G03*
X59527856Y-69827856I-1600000J0D01*
G01*
X59778672Y-159672856D02*
G75*
G03*
X59778672Y-159672856I-1600000J0D01*
G01*
X59678672Y-129072856D02*
G75*
G03*
X59678672Y-129072856I-1600000J0D01*
G01*
X59688672Y-141817856D02*
G75*
G03*
X59688672Y-141817856I-1600000J0D01*
G01*
X96077856Y-168777856D02*
G75*
G03*
X96077856Y-168777856I-1600000J0D01*
G01*
X82877856Y-163777856D02*
G75*
G03*
X82877856Y-163777856I-1600000J0D01*
G01*
X82877856Y-168777856D02*
G75*
G03*
X82877856Y-168777856I-1600000J0D01*
G01*
X82877856Y-178927856D02*
G75*
G03*
X82877856Y-178927856I-1600000J0D01*
G01*
X146727856Y-136377856D02*
X153127856Y-136377856D01*
X153127856Y-148777856D01*
X146727856Y-148777856D01*
X146727856Y-136377856D01*
X46327856Y-59827856D02*
G75*
G03*
X46327856Y-59827856I-1600000J0D01*
G01*
X46327856Y-77522856D02*
G75*
G03*
X46327856Y-77522856I-1600000J0D01*
G01*
X46327856Y-82522856D02*
G75*
G03*
X46327856Y-82522856I-1600000J0D01*
G01*
X59527856Y-64827856D02*
G75*
G03*
X59527856Y-64827856I-1600000J0D01*
G01*
X154227856Y-126175000D02*
G75*
G03*
X154227856Y-126175000I-1600000J0D01*
G01*
X82987856Y-145677856D02*
G75*
G03*
X82987856Y-145677856I-1600000J0D01*
G01*
X96077856Y-163777856D02*
G75*
G03*
X96077856Y-163777856I-1600000J0D01*
G01*
X53477856Y-93127856D02*
X59877856Y-93127856D01*
X59877856Y-103127856D01*
X53477856Y-103127856D01*
X53477856Y-93127856D01*
X133777856Y-136377856D02*
X140177856Y-136377856D01*
X140177856Y-148777856D01*
X133777856Y-148777856D01*
X133777856Y-136377856D01*
X154227856Y-112975000D02*
G75*
G03*
X154227856Y-112975000I-1600000J0D01*
G01*
X59527856Y-82522856D02*
G75*
G03*
X59527856Y-82522856I-1600000J0D01*
G01*
X46488672Y-151817856D02*
G75*
G03*
X46488672Y-151817856I-1600000J0D01*
G01*
X149227856Y-112975000D02*
G75*
G03*
X149227856Y-112975000I-1600000J0D01*
G01*
X113377856Y-56805712D02*
G75*
G03*
X113377856Y-56805712I-1600000J0D01*
G01*
X108377856Y-56805712D02*
G75*
G03*
X108377856Y-56805712I-1600000J0D01*
G01*
X59527856Y-77522856D02*
G75*
G03*
X59527856Y-77522856I-1600000J0D01*
G01*
X82877856Y-173777856D02*
G75*
G03*
X82877856Y-173777856I-1600000J0D01*
G01*
X146667856Y-164387856D02*
X153067856Y-164387856D01*
X153067856Y-176787856D01*
X146667856Y-176787856D01*
X146667856Y-164387856D01*
X96187856Y-145677856D02*
G75*
G03*
X96187856Y-145677856I-1600000J0D01*
G01*
X46327856Y-34230712D02*
G75*
G03*
X46327856Y-34230712I-1600000J0D01*
G01*
X46478672Y-134072856D02*
G75*
G03*
X46478672Y-134072856I-1600000J0D01*
G01*
X96077856Y-173777856D02*
G75*
G03*
X96077856Y-173777856I-1600000J0D01*
G01*
X149227856Y-126175000D02*
G75*
G03*
X149227856Y-126175000I-1600000J0D01*
G01*
X59678672Y-124072856D02*
G75*
G03*
X59678672Y-124072856I-1600000J0D01*
G01*
X96187856Y-135677856D02*
G75*
G03*
X96187856Y-135677856I-1600000J0D01*
G01*
X43377856Y-105077856D02*
X49777856Y-105077856D01*
X49777856Y-115077856D01*
X43377856Y-115077856D01*
X43377856Y-105077856D01*
X46578672Y-164672856D02*
G75*
G03*
X46578672Y-164672856I-1600000J0D01*
G01*
X96187856Y-150827856D02*
G75*
G03*
X96187856Y-150827856I-1600000J0D01*
G01*
X59527856Y-59827856D02*
G75*
G03*
X59527856Y-59827856I-1600000J0D01*
G01*
X133717856Y-164387856D02*
X140117856Y-164387856D01*
X140117856Y-176787856D01*
X133717856Y-176787856D01*
X133717856Y-164387856D01*
X46327856Y-39230712D02*
G75*
G03*
X46327856Y-39230712I-1600000J0D01*
G01*
X59688672Y-151817856D02*
G75*
G03*
X59688672Y-151817856I-1600000J0D01*
G01*
X82987856Y-135677856D02*
G75*
G03*
X82987856Y-135677856I-1600000J0D01*
G01*
X113377856Y-43605712D02*
G75*
G03*
X113377856Y-43605712I-1600000J0D01*
G01*
X59527856Y-34230712D02*
G75*
G03*
X59527856Y-34230712I-1600000J0D01*
G01*
X82987856Y-140677856D02*
G75*
G03*
X82987856Y-140677856I-1600000J0D01*
G01*
X59527856Y-39230712D02*
G75*
G03*
X59527856Y-39230712I-1600000J0D01*
G01*
X82987856Y-150827856D02*
G75*
G03*
X82987856Y-150827856I-1600000J0D01*
G01*
M02*
