%TF.GenerationSoftware,KiCad,Pcbnew,7.0.8-7.0.8~ubuntu22.04.1*%
%TF.CreationDate,2023-11-09T15:08:59-07:00*%
%TF.ProjectId,stepper_microscope_stage,73746570-7065-4725-9f6d-6963726f7363,10*%
%TF.SameCoordinates,Original*%
%TF.FileFunction,Legend,Top*%
%TF.FilePolarity,Positive*%
%FSLAX46Y46*%
G04 Gerber Fmt 4.6, Leading zero omitted, Abs format (unit mm)*
G04 Created by KiCad (PCBNEW 7.0.8-7.0.8~ubuntu22.04.1) date 2023-11-09 15:08:59*
%MOMM*%
%LPD*%
G01*
G04 APERTURE LIST*
%ADD10C,0.150000*%
%ADD11C,0.100000*%
%ADD12C,0.120000*%
G04 APERTURE END LIST*
D10*
X149827556Y-50666188D02*
X149875175Y-50523331D01*
X149875175Y-50523331D02*
X149875175Y-50285236D01*
X149875175Y-50285236D02*
X149827556Y-50189998D01*
X149827556Y-50189998D02*
X149779936Y-50142379D01*
X149779936Y-50142379D02*
X149684698Y-50094760D01*
X149684698Y-50094760D02*
X149589460Y-50094760D01*
X149589460Y-50094760D02*
X149494222Y-50142379D01*
X149494222Y-50142379D02*
X149446603Y-50189998D01*
X149446603Y-50189998D02*
X149398984Y-50285236D01*
X149398984Y-50285236D02*
X149351365Y-50475712D01*
X149351365Y-50475712D02*
X149303746Y-50570950D01*
X149303746Y-50570950D02*
X149256127Y-50618569D01*
X149256127Y-50618569D02*
X149160889Y-50666188D01*
X149160889Y-50666188D02*
X149065651Y-50666188D01*
X149065651Y-50666188D02*
X148970413Y-50618569D01*
X148970413Y-50618569D02*
X148922794Y-50570950D01*
X148922794Y-50570950D02*
X148875175Y-50475712D01*
X148875175Y-50475712D02*
X148875175Y-50237617D01*
X148875175Y-50237617D02*
X148922794Y-50094760D01*
X148875175Y-49761426D02*
X149875175Y-49523331D01*
X149875175Y-49523331D02*
X149160889Y-49332855D01*
X149160889Y-49332855D02*
X149875175Y-49142379D01*
X149875175Y-49142379D02*
X148875175Y-48904284D01*
X149875175Y-47999522D02*
X149875175Y-48570950D01*
X149875175Y-48285236D02*
X148875175Y-48285236D01*
X148875175Y-48285236D02*
X149018032Y-48380474D01*
X149018032Y-48380474D02*
X149113270Y-48475712D01*
X149113270Y-48475712D02*
X149160889Y-48570950D01*
X85019522Y-42262675D02*
X85019522Y-42976960D01*
X85019522Y-42976960D02*
X84971903Y-43119817D01*
X84971903Y-43119817D02*
X84876665Y-43215056D01*
X84876665Y-43215056D02*
X84733808Y-43262675D01*
X84733808Y-43262675D02*
X84638570Y-43262675D01*
X86019522Y-43262675D02*
X85448094Y-43262675D01*
X85733808Y-43262675D02*
X85733808Y-42262675D01*
X85733808Y-42262675D02*
X85638570Y-42405532D01*
X85638570Y-42405532D02*
X85543332Y-42500770D01*
X85543332Y-42500770D02*
X85448094Y-42548389D01*
X46865951Y-44282675D02*
X46865951Y-43282675D01*
X46865951Y-43758865D02*
X47437379Y-43758865D01*
X47437379Y-44282675D02*
X47437379Y-43282675D01*
X47865951Y-43377913D02*
X47913570Y-43330294D01*
X47913570Y-43330294D02*
X48008808Y-43282675D01*
X48008808Y-43282675D02*
X48246903Y-43282675D01*
X48246903Y-43282675D02*
X48342141Y-43330294D01*
X48342141Y-43330294D02*
X48389760Y-43377913D01*
X48389760Y-43377913D02*
X48437379Y-43473151D01*
X48437379Y-43473151D02*
X48437379Y-43568389D01*
X48437379Y-43568389D02*
X48389760Y-43711246D01*
X48389760Y-43711246D02*
X47818332Y-44282675D01*
X47818332Y-44282675D02*
X48437379Y-44282675D01*
X52815951Y-181032675D02*
X52815951Y-180032675D01*
X52815951Y-180508865D02*
X53387379Y-180508865D01*
X53387379Y-181032675D02*
X53387379Y-180032675D01*
X53768332Y-180032675D02*
X54387379Y-180032675D01*
X54387379Y-180032675D02*
X54054046Y-180413627D01*
X54054046Y-180413627D02*
X54196903Y-180413627D01*
X54196903Y-180413627D02*
X54292141Y-180461246D01*
X54292141Y-180461246D02*
X54339760Y-180508865D01*
X54339760Y-180508865D02*
X54387379Y-180604103D01*
X54387379Y-180604103D02*
X54387379Y-180842198D01*
X54387379Y-180842198D02*
X54339760Y-180937436D01*
X54339760Y-180937436D02*
X54292141Y-180985056D01*
X54292141Y-180985056D02*
X54196903Y-181032675D01*
X54196903Y-181032675D02*
X53911189Y-181032675D01*
X53911189Y-181032675D02*
X53815951Y-180985056D01*
X53815951Y-180985056D02*
X53768332Y-180937436D01*
X128965951Y-162592675D02*
X128965951Y-161592675D01*
X128965951Y-162068865D02*
X129537379Y-162068865D01*
X129537379Y-162592675D02*
X129537379Y-161592675D01*
X130537379Y-162592675D02*
X129965951Y-162592675D01*
X130251665Y-162592675D02*
X130251665Y-161592675D01*
X130251665Y-161592675D02*
X130156427Y-161735532D01*
X130156427Y-161735532D02*
X130061189Y-161830770D01*
X130061189Y-161830770D02*
X129965951Y-161878389D01*
D11*
%TO.C,SW1*%
X145732856Y-59569056D02*
X148399856Y-59569056D01*
X143065856Y-55149456D02*
X148399856Y-55149456D01*
X148399856Y-51339456D02*
X143065856Y-51339456D01*
X145732856Y-39096656D02*
X143065856Y-39096656D01*
X148399856Y-59569056D02*
X143065856Y-59569056D01*
X143065856Y-59569056D02*
X143065856Y-39096656D01*
X143065856Y-39096656D02*
X148399856Y-39096656D01*
X148399856Y-39096656D02*
X148399856Y-59569056D01*
D12*
%TO.C,J1*%
X85352856Y-44247856D02*
X86682856Y-44247856D01*
X86682856Y-44247856D02*
X86682856Y-45577856D01*
X84022856Y-46847856D02*
X84022856Y-54527856D01*
X84022856Y-46847856D02*
X86682856Y-46847856D01*
X86682856Y-46847856D02*
X86682856Y-54527856D01*
X84022856Y-54527856D02*
X86682856Y-54527856D01*
%TD*%
M02*
