<?xml version="1.0" encoding="UTF-8"?>
<svg width="297.0022mm" height="210.0072mm" version="1.1" viewBox="0 0 297.0022 210.0072" xmlns="http://www.w3.org/2000/svg" xmlns:cc="http://creativecommons.org/ns#" xmlns:dc="http://purl.org/dc/elements/1.1/" xmlns:rdf="http://www.w3.org/1999/02/22-rdf-syntax-ns#">
 <title>SVG Image created as stepper_microscope_stage-B_Paste.svg date 2023/09/26 15:38:47</title>
 <desc>Image generated by PCBNEW</desc>
 <g transform="matrix(-1,0,0,1,312.9,0)" fill="#00c2c2" fill-opacity=".9" fill-rule="evenodd" stroke-width="0">
  <path d="m155.75 126.1721 0.019-0.0956 0.0542-0.0811 0.0811-0.0542 0.0957-0.0191h3l0.0957 0.0191 0.0811 0.0542 0.0542 0.0811 0.019 0.0956v1.1l-0.019 0.0957-0.0542 0.0811-0.0811 0.0542-0.0957 0.019h-3l-0.0957-0.019-0.0811-0.0542-0.0542-0.0811-0.019-0.0957z"/>
  <path d="m161.15 126.1721 0.019-0.0956 0.0542-0.0811 0.0811-0.0542 0.0957-0.0191h3l0.0957 0.0191 0.0811 0.0542 0.0542 0.0811 0.019 0.0956v1.1l-0.019 0.0957-0.0542 0.0811-0.0811 0.0542-0.0957 0.019h-3l-0.0957-0.019-0.0811-0.0542-0.0542-0.0811-0.019-0.0957z"/>
  <path d="m153.35 76.2721-0.0957-0.019-0.0811-0.0542-0.0542-0.0811-0.019-0.0957v-4.1l0.019-0.0956 0.0542-0.0811 0.0811-0.0542 0.0957-0.0191h0.6l0.0957 0.0191 0.0811 0.0542 0.0542 0.0811 0.019 0.0956v4.1l-0.019 0.0957-0.0542 0.0811-0.0811 0.0542-0.0957 0.019z"/>
  <path d="m151.65 76.2721-0.0957-0.019-0.0811-0.0542-0.0542-0.0811-0.019-0.0957v-4.1l0.019-0.0956 0.0542-0.0811 0.0811-0.0542 0.0957-0.0191h0.6l0.0957 0.0191 0.0811 0.0542 0.0542 0.0811 0.019 0.0956v4.1l-0.019 0.0957-0.0542 0.0811-0.0811 0.0542-0.0957 0.019z"/>
  <path d="m149.95 76.2721-0.0957-0.019-0.0811-0.0542-0.0542-0.0811-0.019-0.0957v-4.1l0.019-0.0956 0.0542-0.0811 0.0811-0.0542 0.0957-0.0191h0.6l0.0957 0.0191 0.0811 0.0542 0.0542 0.0811 0.019 0.0956v4.1l-0.019 0.0957-0.0542 0.0811-0.0811 0.0542-0.0957 0.019z"/>
  <path d="m145.1 69.5221-0.0957-0.019-0.0811-0.0542-0.0542-0.0811-0.019-0.0957v-4.05l0.019-0.0956 0.0542-0.0811 0.0811-0.0542 0.0957-0.0191h4.75l0.0957 0.0191 0.0811 0.0542 0.0542 0.0811 0.019 0.0956v4.05l-0.019 0.0957-0.0542 0.0811-0.0811 0.0542-0.0957 0.019z"/>
  <path d="m150.65 69.5221-0.0957-0.019-0.0811-0.0542-0.0542-0.0811-0.019-0.0957v-4.05l0.019-0.0956 0.0542-0.0811 0.0811-0.0542 0.0957-0.0191h4.75l0.0957 0.0191 0.0811 0.0542 0.0542 0.0811 0.019 0.0956v4.05l-0.019 0.0957-0.0542 0.0811-0.0811 0.0542-0.0957 0.019z"/>
  <path d="m145.1 64.6721-0.0957-0.019-0.0811-0.0542-0.0542-0.0811-0.019-0.0957v-4.05l0.019-0.0956 0.0542-0.0811 0.0811-0.0542 0.0957-0.0191h4.75l0.0957 0.0191 0.0811 0.0542 0.0542 0.0811 0.019 0.0956v4.05l-0.019 0.0957-0.0542 0.0811-0.0811 0.0542-0.0957 0.019z"/>
  <path d="m150.65 64.6721-0.0957-0.019-0.0811-0.0542-0.0542-0.0811-0.019-0.0957v-4.05l0.019-0.0956 0.0542-0.0811 0.0811-0.0542 0.0957-0.0191h4.75l0.0957 0.0191 0.0811 0.0542 0.0542 0.0811 0.019 0.0956v4.05l-0.019 0.0957-0.0542 0.0811-0.0811 0.0542-0.0957 0.019z"/>
  <path d="m148.25 76.2721-0.0957-0.019-0.0811-0.0542-0.0542-0.0811-0.019-0.0957v-4.1l0.019-0.0956 0.0542-0.0811 0.0811-0.0542 0.0957-0.0191h0.6l0.0957 0.0191 0.0811 0.0542 0.0542 0.0811 0.019 0.0956v4.1l-0.019 0.0957-0.0542 0.0811-0.0811 0.0542-0.0957 0.019z"/>
  <path d="m146.55 76.2721-0.0957-0.019-0.0811-0.0542-0.0542-0.0811-0.019-0.0957v-4.1l0.019-0.0956 0.0542-0.0811 0.0811-0.0542 0.0957-0.0191h0.6l0.0957 0.0191 0.0811 0.0542 0.0542 0.0811 0.019 0.0956v4.1l-0.019 0.0957-0.0542 0.0811-0.0811 0.0542-0.0957 0.019z"/>
  <path d="m147.05 87.6721h5.4v2.9h-5.4z"/>
  <path d="m147.05 97.5721h5.4v2.9h-5.4z"/>
  <path d="m147.25 108.5721h5v3.85h-5z"/>
  <path d="m147.25 118.7221h5v3.85h-5z"/>
  <path d="m167.8 58.6221 0.0957 0.0191 0.0811 0.0542 0.0542 0.0811 0.019 0.0956v3l-0.019 0.0957-0.0542 0.0811-0.0811 0.0542-0.0957 0.019h-1.1l-0.0957-0.019-0.0811-0.0542-0.0542-0.0811-0.019-0.0957v-3l0.019-0.0956 0.0542-0.0811 0.0811-0.0542 0.0957-0.0191z"/>
  <path d="m167.8 64.0221 0.0957 0.0191 0.0811 0.0542 0.0542 0.0811 0.019 0.0956v3l-0.019 0.0957-0.0542 0.0811-0.0811 0.0542-0.0957 0.019h-1.1l-0.0957-0.019-0.0811-0.0542-0.0542-0.0811-0.019-0.0957v-3l0.019-0.0956 0.0542-0.0811 0.0811-0.0542 0.0957-0.0191z"/>
  <path d="m155.75 103.8721 0.019-0.0956 0.0542-0.0811 0.0811-0.0542 0.0957-0.0191h3l0.0957 0.0191 0.0811 0.0542 0.0542 0.0811 0.019 0.0956v1.1l-0.019 0.0957-0.0542 0.0811-0.0811 0.0542-0.0957 0.019h-3l-0.0957-0.019-0.0811-0.0542-0.0542-0.0811-0.019-0.0957z"/>
  <path d="m161.15 103.8721 0.019-0.0956 0.0542-0.0811 0.0811-0.0542 0.0957-0.0191h3l0.0957 0.0191 0.0811 0.0542 0.0542 0.0811 0.019 0.0956v1.1l-0.019 0.0957-0.0542 0.0811-0.0811 0.0542-0.0957 0.019h-3l-0.0957-0.019-0.0811-0.0542-0.0542-0.0811-0.019-0.0957z"/>
 </g>
 <metadata>
  <rdf:RDF>
   <cc:Work rdf:about="">
    <dc:title>SVG Image created as stepper_microscope_stage-B_Paste.svg date 2023/09/26 15:38:47</dc:title>
   </cc:Work>
  </rdf:RDF>
 </metadata>
</svg>
