<?xml version="1.0" standalone="no"?>
 <!DOCTYPE svg PUBLIC "-//W3C//DTD SVG 1.1//EN" 
 "http://www.w3.org/Graphics/SVG/1.1/DTD/svg11.dtd"> 
<svg
  xmlns:svg="http://www.w3.org/2000/svg"
  xmlns="http://www.w3.org/2000/svg"
  xmlns:xlink="http://www.w3.org/1999/xlink"
  version="1.1"
  width="297.0022mm" height="210.0072mm" viewBox="0.0000 0.0000 297.0022 210.0072">
<title>SVG Image created as stepper_microscope_stage-F_Paste.svg date 2023/09/26 16:12:40 </title>
  <desc>Image generated by PCBNEW </desc>
<g style="fill:#000000; fill-opacity:1.0000;stroke:#000000; stroke-opacity:1.0000;
stroke-linecap:round; stroke-linejoin:round;"
 transform="translate(0 0) scale(1 1)">
</g>
<g style="fill:#000000; fill-opacity:0.0; 
stroke:#000000; stroke-width:0.0000; stroke-opacity:1; 
stroke-linecap:round; stroke-linejoin:round;">
<g >
</g>
<g >
</g>
<g >
</g>
<g >
</g>
<g >
</g>
<g >
</g>
<g >
</g>
<g >
</g>
<g >
</g>
<g >
</g>
<g >
</g>
<g >
</g>
<g >
</g>
<g >
</g>
<g >
</g>
<g >
</g>
<g >
</g>
<g >
</g>
<g >
</g>
<g >
</g>
<g >
</g>
<g >
</g>
<g >
</g>
<g >
</g>
<g >
</g>
<g >
</g>
<g >
</g>
<g >
</g>
<g >
</g>
<g >
</g>
</g>
<g style="fill:#000000; fill-opacity:0.0; 
stroke:#000000; stroke-width:0.0000; stroke-opacity:1; 
stroke-linecap:round; stroke-linejoin:round;">
</g>
<g style="fill:#D0D2CD; fill-opacity:0.0; 
stroke:#D0D2CD; stroke-width:0.0000; stroke-opacity:1; 
stroke-linecap:round; stroke-linejoin:round;">
</g>
<g style="fill:#D0D2CD; fill-opacity:0.0; 
stroke:#D0D2CD; stroke-width:0.1000; stroke-opacity:1; 
stroke-linecap:round; stroke-linejoin:round;">
<circle cx="44.9000" cy="53.5500" r="1.6000" /> 
<circle cx="45.0508" cy="117.7950" r="1.6000" /> 
<path style="fill:#D0D2CD; fill-opacity:0.0; 
stroke:#D0D2CD; stroke-width:0.1000; stroke-opacity:1; 
stroke-linecap:round; stroke-linejoin:round;fill:none"
d="M 53.6500,93.8000
60.0500,93.8000
60.0500,103.8000
53.6500,103.8000
Z" /> 
<circle cx="94.7100" cy="134.6400" r="1.6000" /> 
<circle cx="45.1508" cy="148.3950" r="1.6000" /> 
<circle cx="58.2608" cy="135.5400" r="1.6000" /> 
<path style="fill:#D0D2CD; fill-opacity:0.0; 
stroke:#D0D2CD; stroke-width:0.1000; stroke-opacity:1; 
stroke-linecap:round; stroke-linejoin:round;fill:none"
d="M 43.5500,81.8500
49.9500,81.8500
49.9500,91.8500
43.5500,91.8500
Z" /> 
<circle cx="45.0608" cy="135.5400" r="1.6000" /> 
<circle cx="44.9000" cy="76.2450" r="1.6000" /> 
<circle cx="58.2508" cy="122.7950" r="1.6000" /> 
<circle cx="94.7600" cy="167.0400" r="1.6000" /> 
<circle cx="45.0508" cy="112.7950" r="1.6000" /> 
<path d="M39.6500 27.2500
L202.0000 27.2500
" />
<circle cx="45.0608" cy="130.5400" r="1.6000" /> 
<circle cx="44.9000" cy="58.5500" r="1.6000" /> 
<circle cx="126.1850" cy="52.4500" r="1.6000" /> 
<circle cx="58.1000" cy="76.2450" r="1.6000" /> 
<circle cx="58.3508" cy="153.3950" r="1.6000" /> 
<circle cx="58.1000" cy="58.5500" r="1.6000" /> 
<circle cx="58.3508" cy="148.3950" r="1.6000" /> 
<circle cx="58.2508" cy="117.7950" r="1.6000" /> 
<circle cx="58.2608" cy="130.5400" r="1.6000" /> 
<circle cx="94.7600" cy="156.8900" r="1.6000" /> 
<circle cx="81.5600" cy="151.8900" r="1.6000" /> 
<path d="M39.6000 176.6500
L39.6500 27.2500
" />
<circle cx="81.5600" cy="156.8900" r="1.6000" /> 
<circle cx="81.5600" cy="167.0400" r="1.6000" /> 
<path style="fill:#D0D2CD; fill-opacity:0.0; 
stroke:#D0D2CD; stroke-width:0.1000; stroke-opacity:1; 
stroke-linecap:round; stroke-linejoin:round;fill:none"
d="M 144.9500,130.5500
151.3500,130.5500
151.3500,142.9500
144.9500,142.9500
Z" /> 
<circle cx="44.9000" cy="48.5500" r="1.6000" /> 
<circle cx="44.9000" cy="66.2450" r="1.6000" /> 
<path d="M39.6000 176.6500
L148.3500 176.7500
" />
<circle cx="44.9000" cy="71.2450" r="1.6000" /> 
<path d="M202.0000 94.5000
L148.3500 176.7500
" />
<circle cx="58.1000" cy="53.5500" r="1.6000" /> 
<circle cx="188.2150" cy="33.9000" r="1.6000" /> 
<circle cx="81.5100" cy="139.6400" r="1.6000" /> 
<circle cx="94.7600" cy="151.8900" r="1.6000" /> 
<path style="fill:#D0D2CD; fill-opacity:0.0; 
stroke:#D0D2CD; stroke-width:0.1000; stroke-opacity:1; 
stroke-linecap:round; stroke-linejoin:round;fill:none"
d="M 53.6500,81.8500
60.0500,81.8500
60.0500,91.8500
53.6500,91.8500
Z" /> 
<path style="fill:#D0D2CD; fill-opacity:0.0; 
stroke:#D0D2CD; stroke-width:0.1000; stroke-opacity:1; 
stroke-linecap:round; stroke-linejoin:round;fill:none"
d="M 121.3500,130.1500
125.5000,130.1500
125.5000,142.9500
121.3500,142.9500
Z" /> 
<path style="fill:#D0D2CD; fill-opacity:0.0; 
stroke:#D0D2CD; stroke-width:0.1000; stroke-opacity:1; 
stroke-linecap:round; stroke-linejoin:round;fill:none"
d="M 132.0000,130.5500
138.4000,130.5500
138.4000,142.9500
132.0000,142.9500
Z" /> 
<circle cx="188.2150" cy="47.1000" r="1.6000" /> 
<circle cx="58.1000" cy="71.2450" r="1.6000" /> 
<circle cx="45.0608" cy="140.5400" r="1.6000" /> 
<circle cx="193.2150" cy="47.1000" r="1.6000" /> 
<circle cx="131.1850" cy="65.6500" r="1.6000" /> 
<circle cx="126.1850" cy="65.6500" r="1.6000" /> 
<circle cx="58.1000" cy="66.2450" r="1.6000" /> 
<circle cx="81.5600" cy="161.8900" r="1.6000" /> 
<path style="fill:#D0D2CD; fill-opacity:0.0; 
stroke:#D0D2CD; stroke-width:0.1000; stroke-opacity:1; 
stroke-linecap:round; stroke-linejoin:round;fill:none"
d="M 144.9500,152.5000
151.3500,152.5000
151.3500,164.9000
144.9500,164.9000
Z" /> 
<circle cx="94.7100" cy="139.6400" r="1.6000" /> 
<circle cx="44.8900" cy="35.4800" r="1.6000" /> 
<circle cx="45.0508" cy="122.7950" r="1.6000" /> 
<circle cx="94.7600" cy="161.8900" r="1.6000" /> 
<circle cx="193.2150" cy="33.9000" r="1.6000" /> 
<circle cx="58.2508" cy="112.7950" r="1.6000" /> 
<circle cx="94.7100" cy="129.6400" r="1.6000" /> 
<path style="fill:#D0D2CD; fill-opacity:0.0; 
stroke:#D0D2CD; stroke-width:0.1000; stroke-opacity:1; 
stroke-linecap:round; stroke-linejoin:round;fill:none"
d="M 43.5500,93.8000
49.9500,93.8000
49.9500,103.8000
43.5500,103.8000
Z" /> 
<circle cx="45.1508" cy="153.3950" r="1.6000" /> 
<circle cx="94.7100" cy="144.7900" r="1.6000" /> 
<circle cx="58.1000" cy="48.5500" r="1.6000" /> 
<path style="fill:#D0D2CD; fill-opacity:0.0; 
stroke:#D0D2CD; stroke-width:0.1000; stroke-opacity:1; 
stroke-linecap:round; stroke-linejoin:round;fill:none"
d="M 132.0000,152.5000
138.4000,152.5000
138.4000,164.9000
132.0000,164.9000
Z" /> 
<circle cx="44.8900" cy="40.4800" r="1.6000" /> 
<circle cx="58.2608" cy="140.5400" r="1.6000" /> 
<circle cx="81.5100" cy="129.6400" r="1.6000" /> 
<circle cx="131.1850" cy="52.4500" r="1.6000" /> 
<circle cx="58.0900" cy="35.4800" r="1.6000" /> 
<circle cx="81.5100" cy="134.6400" r="1.6000" /> 
<circle cx="58.0900" cy="40.4800" r="1.6000" /> 
<circle cx="81.5100" cy="144.7900" r="1.6000" /> 
<path d="M202.0000 94.5000
L202.0000 27.2500
" />
<g >
</g>
<g >
</g>
<g >
</g>
<g >
</g>
<g >
</g>
<g >
</g>
<g >
</g>
<g >
</g>
<g >
</g>
<g >
</g>
<g >
</g>
<g >
</g>
<g >
</g>
<g >
</g>
<g >
</g>
<g >
</g>
<g >
</g>
<g >
</g>
<g >
</g>
<g >
</g>
<g >
</g>
<g >
</g>
<g >
</g>
<g >
</g>
<g >
</g>
<g >
</g>
<g >
</g>
<g >
</g>
<g >
</g>
<g >
</g>
</g> 
</svg>
