  0
SECTION
  2
HEADER
  9
$ACADVER
  1
AC1014
  9
$HANDSEED
  5
FFFF
  9
$MEASUREMENT
 70
     1
  0
ENDSEC
  0
SECTION
  2
TABLES
  0
TABLE
  2
VPORT
  5
8
330
0
100
AcDbSymbolTable
 70
     4
  0
VPORT
  5
2E
330
8
100
AcDbSymbolTableRecord
100
AcDbViewportTableRecord
  2
*ACTIVE
 70
     0
 10
0.0
 20
0.0
 11
1.0
 21
1.0
 12
210.0
 22
148.5
 13
0.0
 23
0.0
 14
10.0
 24
10.0
 15
10.0
 25
10.0
 16
0.0
 26
0.0
 36
1.0
 17
0.0
 27
0.0
 37
0.0
 40
341.0
 41
1.24
 42
50.0
 43
0.0
 44
0.0
 50
0.0
 51
0.0
 71
     0
 72
   100
 73
     1
 74
     3
 75
     0
 76
     0
 77
     0
 78
     0
  0
ENDTAB
  0
TABLE
  2
LTYPE
  5
5
330
0
100
AcDbSymbolTable
 70
     1
  0
LTYPE
  5
14
330
5
100
AcDbSymbolTableRecord
100
AcDbLinetypeTableRecord
  2
BYBLOCK
 70
     0
  3

 72
    65
 73
     0
 40
0.0
  0
LTYPE
  5
15
330
5
100
AcDbSymbolTableRecord
100
AcDbLinetypeTableRecord
  2
BYLAYER
 70
     0
  3

 72
    65
 73
     0
 40
0.0
  0
LTYPE
  5
16
330
5
100
AcDbSymbolTableRecord
100
AcDbLinetypeTableRecord
  2
CONTINUOUS
 70
     0
  3
Solid line
 72
    65
 73
     0
 40
0.0
  0
ENDTAB
  0
TABLE
  2
LAYER
  5
2
100
AcDbSymbolTable
 70
1
  0
LAYER
  5
50
100
AcDbSymbolTableRecord
100
AcDbLayerTableRecord
  2
0
 70
0
  6
CONTINUOUS
  0
ENDTAB
  0
TABLE
  2
STYLE
  5
3
330
0
100
AcDbSymbolTable
 70
     1
  0
STYLE
  5
11
330
3
100
AcDbSymbolTableRecord
100
AcDbTextStyleTableRecord
  2
STANDARD
 70
     0
 40
0.0
 41
1.0
 50
0.0
 71
     0
 42
2.5
  3
txt
  4

  0
ENDTAB
  0
TABLE
  2
VIEW
  5
6
330
0
100
AcDbSymbolTable
 70
     0
  0
ENDTAB
  0
TABLE
  2
UCS
  5
7
330
0
100
AcDbSymbolTable
 70
     0
  0
ENDTAB
  0
TABLE
  2
APPID
  5
9
330
0
100
AcDbSymbolTable
 70
     2
  0
APPID
  5
12
330
9
100
AcDbSymbolTableRecord
100
AcDbRegAppTableRecord
  2
ACAD
 70
     0
  0
ENDTAB
  0
TABLE
  2
DIMSTYLE
  5
A
330
0
100
AcDbSymbolTable
 70
     1
  0
DIMSTYLE
105
27
330
A
100
AcDbSymbolTableRecord
100
AcDbDimStyleTableRecord
  2
ISO-25
 70
     0
  3

  4

  5

  6

  7

 40
1.0
 41
2.5
 42
0.625
 43
3.75
 44
1.25
 45
0.0
 46
0.0
 47
0.0
 48
0.0
140
2.5
141
2.5
142
0.0
143
0.03937007874016
144
1.0
145
0.0
146
1.0
147
0.625
 71
     0
 72
     0
 73
     0
 74
     0
 75
     0
 76
     0
 77
     1
 78
     8
170
     0
171
     3
172
     1
173
     0
174
     0
175
     0
176
     0
177
     0
178
     0
270
     2
271
     2
272
     2
273
     2
274
     3
340
11
275
     0
280
     0
281
     0
282
     0
283
     0
284
     8
285
     0
286
     0
287
     3
288
     0
  0
ENDTAB
  0
TABLE
  2
BLOCK_RECORD
  5
1
330
0
100
AcDbSymbolTable
 70
     1
  0
BLOCK_RECORD
  5
1F
330
1
100
AcDbSymbolTableRecord
100
AcDbBlockTableRecord
  2
*MODEL_SPACE
  0
BLOCK_RECORD
  5
1B
330
1
100
AcDbSymbolTableRecord
100
AcDbBlockTableRecord
  2
*PAPER_SPACE
  0
ENDTAB
  0
ENDSEC
  0
SECTION
  2
BLOCKS
  0
BLOCK
  5
20
330
1F
100
AcDbEntity
  8
0
100
AcDbBlockBegin
  2
*MODEL_SPACE
 70
     0
 10
0.0
 20
0.0
 30
0.0
  3
*MODEL_SPACE
  1

  0
ENDBLK
  5
21
330
1F
100
AcDbEntity
  8
0
100
AcDbBlockEnd
  0
BLOCK
  5
1C
330
1B
100
AcDbEntity
 67
     1
  8
0
100
AcDbBlockBegin
  2
*PAPER_SPACE
  1

  0
ENDBLK
  5
1D
330
1B
100
AcDbEntity
 67
     1
  8
0
100
AcDbBlockEnd
  0
ENDSEC
  0
SECTION
  2
ENTITIES
  0
LWPOLYLINE
  5
100
100
AcDbEntity
  8
0
 62
4
100
AcDbPolyline
 90
20
 70
1
 10
155.750148
 20
83.835180
 30
0.0
 10
155.769148
 20
83.930780
 30
0.0
 10
155.823348
 20
84.011880
 30
0.0
 10
155.904448
 20
84.066080
 30
0.0
 10
156.000149
 20
84.085180
 30
0.0
 10
159.000151
 20
84.085180
 30
0.0
 10
159.095852
 20
84.066080
 30
0.0
 10
159.176952
 20
84.011880
 30
0.0
 10
159.231152
 20
83.930780
 30
0.0
 10
159.250152
 20
83.835180
 30
0.0
 10
159.250152
 20
82.735179
 30
0.0
 10
159.231152
 20
82.639479
 30
0.0
 10
159.176952
 20
82.558379
 30
0.0
 10
159.095852
 20
82.504179
 30
0.0
 10
159.000151
 20
82.485179
 30
0.0
 10
156.000149
 20
82.485179
 30
0.0
 10
155.904448
 20
82.504179
 30
0.0
 10
155.823348
 20
82.558379
 30
0.0
 10
155.769148
 20
82.639479
 30
0.0
 10
155.750148
 20
82.735179
 30
0.0
  0
LWPOLYLINE
  5
101
100
AcDbEntity
  8
0
 62
4
100
AcDbPolyline
 90
20
 70
1
 10
161.150153
 20
83.835180
 30
0.0
 10
161.169153
 20
83.930780
 30
0.0
 10
161.223354
 20
84.011880
 30
0.0
 10
161.304454
 20
84.066080
 30
0.0
 10
161.400154
 20
84.085180
 30
0.0
 10
164.400157
 20
84.085180
 30
0.0
 10
164.495857
 20
84.066080
 30
0.0
 10
164.576957
 20
84.011880
 30
0.0
 10
164.631157
 20
83.930780
 30
0.0
 10
164.650157
 20
83.835180
 30
0.0
 10
164.650157
 20
82.735179
 30
0.0
 10
164.631157
 20
82.639479
 30
0.0
 10
164.576957
 20
82.558379
 30
0.0
 10
164.495857
 20
82.504179
 30
0.0
 10
164.400157
 20
82.485179
 30
0.0
 10
161.400154
 20
82.485179
 30
0.0
 10
161.304454
 20
82.504179
 30
0.0
 10
161.223354
 20
82.558379
 30
0.0
 10
161.169153
 20
82.639479
 30
0.0
 10
161.150153
 20
82.735179
 30
0.0
  0
LWPOLYLINE
  5
102
100
AcDbEntity
  8
0
 62
4
100
AcDbPolyline
 90
20
 70
1
 10
153.350146
 20
133.735227
 30
0.0
 10
153.254446
 20
133.754227
 30
0.0
 10
153.173346
 20
133.808427
 30
0.0
 10
153.119146
 20
133.889528
 30
0.0
 10
153.100146
 20
133.985228
 30
0.0
 10
153.100146
 20
138.085232
 30
0.0
 10
153.119146
 20
138.180832
 30
0.0
 10
153.173346
 20
138.261932
 30
0.0
 10
153.254446
 20
138.316132
 30
0.0
 10
153.350146
 20
138.335232
 30
0.0
 10
153.950147
 20
138.335232
 30
0.0
 10
154.045847
 20
138.316132
 30
0.0
 10
154.126947
 20
138.261932
 30
0.0
 10
154.181147
 20
138.180832
 30
0.0
 10
154.200147
 20
138.085232
 30
0.0
 10
154.200147
 20
133.985228
 30
0.0
 10
154.181147
 20
133.889528
 30
0.0
 10
154.126947
 20
133.808427
 30
0.0
 10
154.045847
 20
133.754227
 30
0.0
 10
153.950147
 20
133.735227
 30
0.0
  0
LWPOLYLINE
  5
103
100
AcDbEntity
  8
0
 62
4
100
AcDbPolyline
 90
20
 70
1
 10
151.650144
 20
133.735227
 30
0.0
 10
151.554444
 20
133.754227
 30
0.0
 10
151.473344
 20
133.808427
 30
0.0
 10
151.419144
 20
133.889528
 30
0.0
 10
151.400144
 20
133.985228
 30
0.0
 10
151.400144
 20
138.085232
 30
0.0
 10
151.419144
 20
138.180832
 30
0.0
 10
151.473344
 20
138.261932
 30
0.0
 10
151.554444
 20
138.316132
 30
0.0
 10
151.650144
 20
138.335232
 30
0.0
 10
152.250145
 20
138.335232
 30
0.0
 10
152.345845
 20
138.316132
 30
0.0
 10
152.426945
 20
138.261932
 30
0.0
 10
152.481145
 20
138.180832
 30
0.0
 10
152.500145
 20
138.085232
 30
0.0
 10
152.500145
 20
133.985228
 30
0.0
 10
152.481145
 20
133.889528
 30
0.0
 10
152.426945
 20
133.808427
 30
0.0
 10
152.345845
 20
133.754227
 30
0.0
 10
152.250145
 20
133.735227
 30
0.0
  0
LWPOLYLINE
  5
104
100
AcDbEntity
  8
0
 62
4
100
AcDbPolyline
 90
20
 70
1
 10
149.950143
 20
133.735227
 30
0.0
 10
149.854443
 20
133.754227
 30
0.0
 10
149.773343
 20
133.808427
 30
0.0
 10
149.719143
 20
133.889528
 30
0.0
 10
149.700143
 20
133.985228
 30
0.0
 10
149.700143
 20
138.085232
 30
0.0
 10
149.719143
 20
138.180832
 30
0.0
 10
149.773343
 20
138.261932
 30
0.0
 10
149.854443
 20
138.316132
 30
0.0
 10
149.950143
 20
138.335232
 30
0.0
 10
150.550143
 20
138.335232
 30
0.0
 10
150.645843
 20
138.316132
 30
0.0
 10
150.726944
 20
138.261932
 30
0.0
 10
150.781144
 20
138.180832
 30
0.0
 10
150.800144
 20
138.085232
 30
0.0
 10
150.800144
 20
133.985228
 30
0.0
 10
150.781144
 20
133.889528
 30
0.0
 10
150.726944
 20
133.808427
 30
0.0
 10
150.645843
 20
133.754227
 30
0.0
 10
150.550143
 20
133.735227
 30
0.0
  0
LWPOLYLINE
  5
105
100
AcDbEntity
  8
0
 62
4
100
AcDbPolyline
 90
20
 70
1
 10
145.100138
 20
140.485234
 30
0.0
 10
145.004438
 20
140.504234
 30
0.0
 10
144.923338
 20
140.558434
 30
0.0
 10
144.869138
 20
140.639534
 30
0.0
 10
144.850138
 20
140.735234
 30
0.0
 10
144.850138
 20
144.785238
 30
0.0
 10
144.869138
 20
144.880838
 30
0.0
 10
144.923338
 20
144.961938
 30
0.0
 10
145.004438
 20
145.016138
 30
0.0
 10
145.100138
 20
145.035238
 30
0.0
 10
149.850143
 20
145.035238
 30
0.0
 10
149.945843
 20
145.016138
 30
0.0
 10
150.026943
 20
144.961938
 30
0.0
 10
150.081143
 20
144.880838
 30
0.0
 10
150.100143
 20
144.785238
 30
0.0
 10
150.100143
 20
140.735234
 30
0.0
 10
150.081143
 20
140.639534
 30
0.0
 10
150.026943
 20
140.558434
 30
0.0
 10
149.945843
 20
140.504234
 30
0.0
 10
149.850143
 20
140.485234
 30
0.0
  0
LWPOLYLINE
  5
106
100
AcDbEntity
  8
0
 62
4
100
AcDbPolyline
 90
20
 70
1
 10
150.650143
 20
140.485234
 30
0.0
 10
150.554443
 20
140.504234
 30
0.0
 10
150.473343
 20
140.558434
 30
0.0
 10
150.419143
 20
140.639534
 30
0.0
 10
150.400143
 20
140.735234
 30
0.0
 10
150.400143
 20
144.785238
 30
0.0
 10
150.419143
 20
144.880838
 30
0.0
 10
150.473343
 20
144.961938
 30
0.0
 10
150.554443
 20
145.016138
 30
0.0
 10
150.650143
 20
145.035238
 30
0.0
 10
155.400148
 20
145.035238
 30
0.0
 10
155.495848
 20
145.016138
 30
0.0
 10
155.576948
 20
144.961938
 30
0.0
 10
155.631148
 20
144.880838
 30
0.0
 10
155.650148
 20
144.785238
 30
0.0
 10
155.650148
 20
140.735234
 30
0.0
 10
155.631148
 20
140.639534
 30
0.0
 10
155.576948
 20
140.558434
 30
0.0
 10
155.495848
 20
140.504234
 30
0.0
 10
155.400148
 20
140.485234
 30
0.0
  0
LWPOLYLINE
  5
107
100
AcDbEntity
  8
0
 62
4
100
AcDbPolyline
 90
20
 70
1
 10
145.100138
 20
145.335238
 30
0.0
 10
145.004438
 20
145.354238
 30
0.0
 10
144.923338
 20
145.408438
 30
0.0
 10
144.869138
 20
145.489539
 30
0.0
 10
144.850138
 20
145.585239
 30
0.0
 10
144.850138
 20
149.635243
 30
0.0
 10
144.869138
 20
149.730843
 30
0.0
 10
144.923338
 20
149.811943
 30
0.0
 10
145.004438
 20
149.866143
 30
0.0
 10
145.100138
 20
149.885243
 30
0.0
 10
149.850143
 20
149.885243
 30
0.0
 10
149.945843
 20
149.866143
 30
0.0
 10
150.026943
 20
149.811943
 30
0.0
 10
150.081143
 20
149.730843
 30
0.0
 10
150.100143
 20
149.635243
 30
0.0
 10
150.100143
 20
145.585239
 30
0.0
 10
150.081143
 20
145.489539
 30
0.0
 10
150.026943
 20
145.408438
 30
0.0
 10
149.945843
 20
145.354238
 30
0.0
 10
149.850143
 20
145.335238
 30
0.0
  0
LWPOLYLINE
  5
108
100
AcDbEntity
  8
0
 62
4
100
AcDbPolyline
 90
20
 70
1
 10
150.650143
 20
145.335238
 30
0.0
 10
150.554443
 20
145.354238
 30
0.0
 10
150.473343
 20
145.408438
 30
0.0
 10
150.419143
 20
145.489539
 30
0.0
 10
150.400143
 20
145.585239
 30
0.0
 10
150.400143
 20
149.635243
 30
0.0
 10
150.419143
 20
149.730843
 30
0.0
 10
150.473343
 20
149.811943
 30
0.0
 10
150.554443
 20
149.866143
 30
0.0
 10
150.650143
 20
149.885243
 30
0.0
 10
155.400148
 20
149.885243
 30
0.0
 10
155.495848
 20
149.866143
 30
0.0
 10
155.576948
 20
149.811943
 30
0.0
 10
155.631148
 20
149.730843
 30
0.0
 10
155.650148
 20
149.635243
 30
0.0
 10
155.650148
 20
145.585239
 30
0.0
 10
155.631148
 20
145.489539
 30
0.0
 10
155.576948
 20
145.408438
 30
0.0
 10
155.495848
 20
145.354238
 30
0.0
 10
155.400148
 20
145.335238
 30
0.0
  0
LWPOLYLINE
  5
109
100
AcDbEntity
  8
0
 62
4
100
AcDbPolyline
 90
20
 70
1
 10
148.250141
 20
133.735227
 30
0.0
 10
148.154441
 20
133.754227
 30
0.0
 10
148.073341
 20
133.808427
 30
0.0
 10
148.019141
 20
133.889528
 30
0.0
 10
148.000141
 20
133.985228
 30
0.0
 10
148.000141
 20
138.085232
 30
0.0
 10
148.019141
 20
138.180832
 30
0.0
 10
148.073341
 20
138.261932
 30
0.0
 10
148.154441
 20
138.316132
 30
0.0
 10
148.250141
 20
138.335232
 30
0.0
 10
148.850142
 20
138.335232
 30
0.0
 10
148.945842
 20
138.316132
 30
0.0
 10
149.026942
 20
138.261932
 30
0.0
 10
149.081142
 20
138.180832
 30
0.0
 10
149.100142
 20
138.085232
 30
0.0
 10
149.100142
 20
133.985228
 30
0.0
 10
149.081142
 20
133.889528
 30
0.0
 10
149.026942
 20
133.808427
 30
0.0
 10
148.945842
 20
133.754227
 30
0.0
 10
148.850142
 20
133.735227
 30
0.0
  0
LWPOLYLINE
  5
10a
100
AcDbEntity
  8
0
 62
4
100
AcDbPolyline
 90
20
 70
1
 10
146.550140
 20
133.735227
 30
0.0
 10
146.454439
 20
133.754227
 30
0.0
 10
146.373339
 20
133.808427
 30
0.0
 10
146.319139
 20
133.889528
 30
0.0
 10
146.300139
 20
133.985228
 30
0.0
 10
146.300139
 20
138.085232
 30
0.0
 10
146.319139
 20
138.180832
 30
0.0
 10
146.373339
 20
138.261932
 30
0.0
 10
146.454439
 20
138.316132
 30
0.0
 10
146.550140
 20
138.335232
 30
0.0
 10
147.150140
 20
138.335232
 30
0.0
 10
147.245840
 20
138.316132
 30
0.0
 10
147.326940
 20
138.261932
 30
0.0
 10
147.381140
 20
138.180832
 30
0.0
 10
147.400140
 20
138.085232
 30
0.0
 10
147.400140
 20
133.985228
 30
0.0
 10
147.381140
 20
133.889528
 30
0.0
 10
147.326940
 20
133.808427
 30
0.0
 10
147.245840
 20
133.754227
 30
0.0
 10
147.150140
 20
133.735227
 30
0.0
  0
LWPOLYLINE
  5
10b
100
AcDbEntity
  8
0
 62
4
100
AcDbPolyline
 90
4
 70
1
 10
147.050140
 20
122.335217
 30
0.0
 10
152.450145
 20
122.335217
 30
0.0
 10
152.450145
 20
119.435214
 30
0.0
 10
147.050140
 20
119.435214
 30
0.0
  0
LWPOLYLINE
  5
10c
100
AcDbEntity
  8
0
 62
4
100
AcDbPolyline
 90
4
 70
1
 10
147.050140
 20
112.435207
 30
0.0
 10
152.450145
 20
112.435207
 30
0.0
 10
152.450145
 20
109.535204
 30
0.0
 10
147.050140
 20
109.535204
 30
0.0
  0
LWPOLYLINE
  5
10d
100
AcDbEntity
  8
0
 62
4
100
AcDbPolyline
 90
4
 70
1
 10
147.250140
 20
101.435197
 30
0.0
 10
152.250145
 20
101.435197
 30
0.0
 10
152.250145
 20
97.585193
 30
0.0
 10
147.250140
 20
97.585193
 30
0.0
  0
LWPOLYLINE
  5
10e
100
AcDbEntity
  8
0
 62
4
100
AcDbPolyline
 90
4
 70
1
 10
147.250140
 20
91.285187
 30
0.0
 10
152.250145
 20
91.285187
 30
0.0
 10
152.250145
 20
87.435183
 30
0.0
 10
147.250140
 20
87.435183
 30
0.0
  0
LWPOLYLINE
  5
10f
100
AcDbEntity
  8
0
 62
4
100
AcDbPolyline
 90
20
 70
1
 10
167.800160
 20
151.385244
 30
0.0
 10
167.895860
 20
151.366144
 30
0.0
 10
167.976960
 20
151.311944
 30
0.0
 10
168.031160
 20
151.230844
 30
0.0
 10
168.050160
 20
151.135244
 30
0.0
 10
168.050160
 20
148.135241
 30
0.0
 10
168.031160
 20
148.039541
 30
0.0
 10
167.976960
 20
147.958441
 30
0.0
 10
167.895860
 20
147.904241
 30
0.0
 10
167.800160
 20
147.885241
 30
0.0
 10
166.700159
 20
147.885241
 30
0.0
 10
166.604459
 20
147.904241
 30
0.0
 10
166.523359
 20
147.958441
 30
0.0
 10
166.469159
 20
148.039541
 30
0.0
 10
166.450159
 20
148.135241
 30
0.0
 10
166.450159
 20
151.135244
 30
0.0
 10
166.469159
 20
151.230844
 30
0.0
 10
166.523359
 20
151.311944
 30
0.0
 10
166.604459
 20
151.366144
 30
0.0
 10
166.700159
 20
151.385244
 30
0.0
  0
LWPOLYLINE
  5
110
100
AcDbEntity
  8
0
 62
4
100
AcDbPolyline
 90
20
 70
1
 10
167.800160
 20
145.985239
 30
0.0
 10
167.895860
 20
145.966139
 30
0.0
 10
167.976960
 20
145.911939
 30
0.0
 10
168.031160
 20
145.830839
 30
0.0
 10
168.050160
 20
145.735239
 30
0.0
 10
168.050160
 20
142.735236
 30
0.0
 10
168.031160
 20
142.639536
 30
0.0
 10
167.976960
 20
142.558436
 30
0.0
 10
167.895860
 20
142.504236
 30
0.0
 10
167.800160
 20
142.485236
 30
0.0
 10
166.700159
 20
142.485236
 30
0.0
 10
166.604459
 20
142.504236
 30
0.0
 10
166.523359
 20
142.558436
 30
0.0
 10
166.469159
 20
142.639536
 30
0.0
 10
166.450159
 20
142.735236
 30
0.0
 10
166.450159
 20
145.735239
 30
0.0
 10
166.469159
 20
145.830839
 30
0.0
 10
166.523359
 20
145.911939
 30
0.0
 10
166.604459
 20
145.966139
 30
0.0
 10
166.700159
 20
145.985239
 30
0.0
  0
LWPOLYLINE
  5
111
100
AcDbEntity
  8
0
 62
4
100
AcDbPolyline
 90
20
 70
1
 10
155.750148
 20
106.135201
 30
0.0
 10
155.769148
 20
106.230801
 30
0.0
 10
155.823348
 20
106.311901
 30
0.0
 10
155.904448
 20
106.366101
 30
0.0
 10
156.000149
 20
106.385201
 30
0.0
 10
159.000151
 20
106.385201
 30
0.0
 10
159.095852
 20
106.366101
 30
0.0
 10
159.176952
 20
106.311901
 30
0.0
 10
159.231152
 20
106.230801
 30
0.0
 10
159.250152
 20
106.135201
 30
0.0
 10
159.250152
 20
105.035200
 30
0.0
 10
159.231152
 20
104.939500
 30
0.0
 10
159.176952
 20
104.858400
 30
0.0
 10
159.095852
 20
104.804200
 30
0.0
 10
159.000151
 20
104.785200
 30
0.0
 10
156.000149
 20
104.785200
 30
0.0
 10
155.904448
 20
104.804200
 30
0.0
 10
155.823348
 20
104.858400
 30
0.0
 10
155.769148
 20
104.939500
 30
0.0
 10
155.750148
 20
105.035200
 30
0.0
  0
LWPOLYLINE
  5
112
100
AcDbEntity
  8
0
 62
4
100
AcDbPolyline
 90
20
 70
1
 10
161.150153
 20
106.135201
 30
0.0
 10
161.169153
 20
106.230801
 30
0.0
 10
161.223354
 20
106.311901
 30
0.0
 10
161.304454
 20
106.366101
 30
0.0
 10
161.400154
 20
106.385201
 30
0.0
 10
164.400157
 20
106.385201
 30
0.0
 10
164.495857
 20
106.366101
 30
0.0
 10
164.576957
 20
106.311901
 30
0.0
 10
164.631157
 20
106.230801
 30
0.0
 10
164.650157
 20
106.135201
 30
0.0
 10
164.650157
 20
105.035200
 30
0.0
 10
164.631157
 20
104.939500
 30
0.0
 10
164.576957
 20
104.858400
 30
0.0
 10
164.495857
 20
104.804200
 30
0.0
 10
164.400157
 20
104.785200
 30
0.0
 10
161.400154
 20
104.785200
 30
0.0
 10
161.304454
 20
104.804200
 30
0.0
 10
161.223354
 20
104.858400
 30
0.0
 10
161.169153
 20
104.939500
 30
0.0
 10
161.150153
 20
105.035200
 30
0.0
  0
ENDSEC
  0
SECTION
  2
OBJECTS
  0
DICTIONARY
  5
C
330
0
100
AcDbDictionary
  3
ACAD_GROUP
350
D
  3
ACAD_MLINESTYLE
350
17
  0
DICTIONARY
  5
D
330
C
100
AcDbDictionary
  0
DICTIONARY
  5
1A
330
C
100
AcDbDictionary
  0
DICTIONARY
  5
17
330
C
100
AcDbDictionary
  3
STANDARD
350
18
  0
DICTIONARY
  5
19
330
C
100
AcDbDictionary
  0
ENDSEC
  0
EOF
