M48
; DRILL file {KiCad 7.0.7-7.0.7~ubuntu22.04.1} date Fri 29 Sep 2023 11:53:12 AM MDT
; FORMAT={-:-/ absolute / metric / decimal}
; #@! TF.CreationDate,2023-09-29T11:53:12-06:00
; #@! TF.GenerationSoftware,Kicad,Pcbnew,7.0.7-7.0.7~ubuntu22.04.1
; #@! TF.FileFunction,MixedPlating,1,2
FMAT,2
METRIC
; #@! TA.AperFunction,Plated,PTH,ComponentDrill
T1C0.950
; #@! TA.AperFunction,Plated,PTH,ComponentDrill
T2C1.000
; #@! TA.AperFunction,Plated,PTH,ComponentDrill
T3C1.320
; #@! TA.AperFunction,Plated,PTH,ComponentDrill
T4C1.600
; #@! TA.AperFunction,Plated,PTH,ComponentDrill
T5C1.750
; #@! TA.AperFunction,Plated,PTH,ComponentDrill
T6C4.300
; #@! TA.AperFunction,NonPlated,NPTH,ComponentDrill
T7C1.750
%
G90
G05
T1
X69.2Y-96.45
X69.2Y-98.95
X69.2Y-101.45
X69.81Y-84.633
X69.81Y-87.133
X69.81Y-89.633
X123.05Y-127.3
X123.05Y-129.8
X123.05Y-132.3
X123.05Y-134.8
X123.09Y-155.66
X123.09Y-158.16
X123.09Y-160.66
X123.09Y-163.16
T2
X83.6Y-34.975
X83.6Y-37.515
X83.6Y-40.055
X83.6Y-42.595
X91.79Y-73.487
X91.79Y-76.027
X91.79Y-78.567
X91.79Y-81.107
X91.79Y-83.647
X91.79Y-86.187
X91.79Y-88.727
X91.79Y-91.267
X91.79Y-93.807
X91.79Y-96.347
X91.79Y-98.887
X91.79Y-101.427
X91.79Y-103.967
X91.79Y-106.507
X91.79Y-109.047
X107.03Y-73.487
X107.03Y-76.027
X107.03Y-78.567
X107.03Y-81.107
X107.03Y-83.647
X107.03Y-86.187
X107.03Y-88.727
X107.03Y-91.267
X107.03Y-93.807
X107.03Y-96.347
X107.03Y-98.887
X107.03Y-101.427
X107.03Y-103.967
X107.03Y-106.507
X107.03Y-109.047
T3
X69.75Y-22.825
X69.75Y-27.825
X69.75Y-48.322
X69.75Y-53.322
X69.75Y-58.322
X69.75Y-66.072
X69.75Y-71.072
X69.75Y-76.072
X69.901Y-148.202
X69.901Y-153.202
X69.911Y-112.672
X69.911Y-117.672
X69.911Y-122.672
X69.911Y-130.422
X69.911Y-135.422
X69.911Y-140.422
X106.54Y-152.4
X106.54Y-157.4
X106.54Y-162.4
X106.54Y-167.4
X106.55Y-123.79
X106.55Y-128.79
X106.55Y-133.79
X106.55Y-138.79
X106.985Y-56.95
X111.985Y-56.95
X147.765Y-90.225
X152.765Y-90.225
T4
X133.8Y-70.85
X146.5Y-70.85
T5
X145.905Y-34.055
X145.905Y-38.055
X145.905Y-42.055
T6
X53.75Y-164.0
X124.0Y-38.75
X130.0Y-146.05
T7
X145.905Y-30.055
X145.905Y-46.055
T0
M30
