<?xml version="1.0" standalone="no"?>
 <!DOCTYPE svg PUBLIC "-//W3C//DTD SVG 1.1//EN" 
 "http://www.w3.org/Graphics/SVG/1.1/DTD/svg11.dtd"> 
<svg
  xmlns:svg="http://www.w3.org/2000/svg"
  xmlns="http://www.w3.org/2000/svg"
  xmlns:xlink="http://www.w3.org/1999/xlink"
  version="1.1"
  width="297.0022mm" height="210.0072mm" viewBox="0.0000 0.0000 297.0022 210.0072">
<title>SVG Image created as stepper_microscope_stage-B_Paste.svg date 2023/09/26 15:38:47 </title>
  <desc>Image generated by PCBNEW </desc>
<g style="fill:#000000; fill-opacity:1.0000;stroke:#000000; stroke-opacity:1.0000;
stroke-linecap:round; stroke-linejoin:round;"
 transform="translate(0 0) scale(1 1)">
</g>
<g style="fill:#000000; fill-opacity:0.0; 
stroke:#000000; stroke-width:0.0000; stroke-opacity:1; 
stroke-linecap:round; stroke-linejoin:round;">
<g >
</g>
<g >
</g>
<g >
</g>
<g >
</g>
<g >
</g>
<g style="fill:#00C2C2; fill-opacity:0.0; 
stroke:#00C2C2; stroke-width:0.0000; stroke-opacity:1; 
stroke-linecap:round; stroke-linejoin:round;">
</g>
<g style="fill:#00C2C2; fill-opacity:0.0; 
stroke:#00C2C2; stroke-width:0.0000; stroke-opacity:1; 
stroke-linecap:round; stroke-linejoin:round;">
</g>
<g style="fill:#00C2C2; fill-opacity:0.9000; 
stroke:#00C2C2; stroke-width:0.0000; stroke-opacity:1; 
stroke-linecap:round; stroke-linejoin:round;">
<path style="fill:#00C2C2; fill-opacity:0.9000; 
stroke:#00C2C2; stroke-width:0.0000; stroke-opacity:1; 
stroke-linecap:round; stroke-linejoin:round;fill-rule:evenodd;"
d="M 155.7500,126.1721
155.7690,126.0765
155.8232,125.9954
155.9043,125.9412
156.0000,125.9221
159.0000,125.9221
159.0957,125.9412
159.1768,125.9954
159.2310,126.0765
159.2500,126.1721
159.2500,127.2721
159.2310,127.3678
159.1768,127.4489
159.0957,127.5031
159.0000,127.5221
156.0000,127.5221
155.9043,127.5031
155.8232,127.4489
155.7690,127.3678
155.7500,127.2721
Z" /> 
<path style="fill:#00C2C2; fill-opacity:0.9000; 
stroke:#00C2C2; stroke-width:0.0000; stroke-opacity:1; 
stroke-linecap:round; stroke-linejoin:round;fill-rule:evenodd;"
d="M 161.1500,126.1721
161.1690,126.0765
161.2232,125.9954
161.3043,125.9412
161.4000,125.9221
164.4000,125.9221
164.4957,125.9412
164.5768,125.9954
164.6310,126.0765
164.6500,126.1721
164.6500,127.2721
164.6310,127.3678
164.5768,127.4489
164.4957,127.5031
164.4000,127.5221
161.4000,127.5221
161.3043,127.5031
161.2232,127.4489
161.1690,127.3678
161.1500,127.2721
Z" /> 
</g>
<g >
</g>
<g >
</g>
<g >
</g>
<g >
</g>
<g >
</g>
<g >
</g>
<g >
</g>
<g style="fill:#00C2C2; fill-opacity:0.9000; 
stroke:#00C2C2; stroke-width:0.0000; stroke-opacity:1; 
stroke-linecap:round; stroke-linejoin:round;">
<path style="fill:#00C2C2; fill-opacity:0.9000; 
stroke:#00C2C2; stroke-width:0.0000; stroke-opacity:1; 
stroke-linecap:round; stroke-linejoin:round;fill-rule:evenodd;"
d="M 153.3500,76.2721
153.2543,76.2531
153.1732,76.1989
153.1190,76.1178
153.1000,76.0221
153.1000,71.9221
153.1190,71.8265
153.1732,71.7454
153.2543,71.6912
153.3500,71.6721
153.9500,71.6721
154.0457,71.6912
154.1268,71.7454
154.1810,71.8265
154.2000,71.9221
154.2000,76.0221
154.1810,76.1178
154.1268,76.1989
154.0457,76.2531
153.9500,76.2721
Z" /> 
<path style="fill:#00C2C2; fill-opacity:0.9000; 
stroke:#00C2C2; stroke-width:0.0000; stroke-opacity:1; 
stroke-linecap:round; stroke-linejoin:round;fill-rule:evenodd;"
d="M 151.6500,76.2721
151.5543,76.2531
151.4732,76.1989
151.4190,76.1178
151.4000,76.0221
151.4000,71.9221
151.4190,71.8265
151.4732,71.7454
151.5543,71.6912
151.6500,71.6721
152.2500,71.6721
152.3457,71.6912
152.4268,71.7454
152.4810,71.8265
152.5000,71.9221
152.5000,76.0221
152.4810,76.1178
152.4268,76.1989
152.3457,76.2531
152.2500,76.2721
Z" /> 
<path style="fill:#00C2C2; fill-opacity:0.9000; 
stroke:#00C2C2; stroke-width:0.0000; stroke-opacity:1; 
stroke-linecap:round; stroke-linejoin:round;fill-rule:evenodd;"
d="M 149.9500,76.2721
149.8543,76.2531
149.7732,76.1989
149.7190,76.1178
149.7000,76.0221
149.7000,71.9221
149.7190,71.8265
149.7732,71.7454
149.8543,71.6912
149.9500,71.6721
150.5500,71.6721
150.6457,71.6912
150.7268,71.7454
150.7810,71.8265
150.8000,71.9221
150.8000,76.0221
150.7810,76.1178
150.7268,76.1989
150.6457,76.2531
150.5500,76.2721
Z" /> 
<path style="fill:#00C2C2; fill-opacity:0.9000; 
stroke:#00C2C2; stroke-width:0.0000; stroke-opacity:1; 
stroke-linecap:round; stroke-linejoin:round;fill-rule:evenodd;"
d="M 145.1000,69.5221
145.0043,69.5031
144.9232,69.4489
144.8690,69.3678
144.8500,69.2721
144.8500,65.2221
144.8690,65.1265
144.9232,65.0454
145.0043,64.9912
145.1000,64.9721
149.8500,64.9721
149.9457,64.9912
150.0268,65.0454
150.0810,65.1265
150.1000,65.2221
150.1000,69.2721
150.0810,69.3678
150.0268,69.4489
149.9457,69.5031
149.8500,69.5221
Z" /> 
<path style="fill:#00C2C2; fill-opacity:0.9000; 
stroke:#00C2C2; stroke-width:0.0000; stroke-opacity:1; 
stroke-linecap:round; stroke-linejoin:round;fill-rule:evenodd;"
d="M 150.6500,69.5221
150.5543,69.5031
150.4732,69.4489
150.4190,69.3678
150.4000,69.2721
150.4000,65.2221
150.4190,65.1265
150.4732,65.0454
150.5543,64.9912
150.6500,64.9721
155.4000,64.9721
155.4957,64.9912
155.5768,65.0454
155.6310,65.1265
155.6500,65.2221
155.6500,69.2721
155.6310,69.3678
155.5768,69.4489
155.4957,69.5031
155.4000,69.5221
Z" /> 
<path style="fill:#00C2C2; fill-opacity:0.9000; 
stroke:#00C2C2; stroke-width:0.0000; stroke-opacity:1; 
stroke-linecap:round; stroke-linejoin:round;fill-rule:evenodd;"
d="M 145.1000,64.6721
145.0043,64.6531
144.9232,64.5989
144.8690,64.5178
144.8500,64.4221
144.8500,60.3721
144.8690,60.2765
144.9232,60.1954
145.0043,60.1412
145.1000,60.1221
149.8500,60.1221
149.9457,60.1412
150.0268,60.1954
150.0810,60.2765
150.1000,60.3721
150.1000,64.4221
150.0810,64.5178
150.0268,64.5989
149.9457,64.6531
149.8500,64.6721
Z" /> 
<path style="fill:#00C2C2; fill-opacity:0.9000; 
stroke:#00C2C2; stroke-width:0.0000; stroke-opacity:1; 
stroke-linecap:round; stroke-linejoin:round;fill-rule:evenodd;"
d="M 150.6500,64.6721
150.5543,64.6531
150.4732,64.5989
150.4190,64.5178
150.4000,64.4221
150.4000,60.3721
150.4190,60.2765
150.4732,60.1954
150.5543,60.1412
150.6500,60.1221
155.4000,60.1221
155.4957,60.1412
155.5768,60.1954
155.6310,60.2765
155.6500,60.3721
155.6500,64.4221
155.6310,64.5178
155.5768,64.5989
155.4957,64.6531
155.4000,64.6721
Z" /> 
<path style="fill:#00C2C2; fill-opacity:0.9000; 
stroke:#00C2C2; stroke-width:0.0000; stroke-opacity:1; 
stroke-linecap:round; stroke-linejoin:round;fill-rule:evenodd;"
d="M 148.2500,76.2721
148.1543,76.2531
148.0732,76.1989
148.0190,76.1178
148.0000,76.0221
148.0000,71.9221
148.0190,71.8265
148.0732,71.7454
148.1543,71.6912
148.2500,71.6721
148.8500,71.6721
148.9457,71.6912
149.0268,71.7454
149.0810,71.8265
149.1000,71.9221
149.1000,76.0221
149.0810,76.1178
149.0268,76.1989
148.9457,76.2531
148.8500,76.2721
Z" /> 
<path style="fill:#00C2C2; fill-opacity:0.9000; 
stroke:#00C2C2; stroke-width:0.0000; stroke-opacity:1; 
stroke-linecap:round; stroke-linejoin:round;fill-rule:evenodd;"
d="M 146.5500,76.2721
146.4543,76.2531
146.3732,76.1989
146.3190,76.1178
146.3000,76.0221
146.3000,71.9221
146.3190,71.8265
146.3732,71.7454
146.4543,71.6912
146.5500,71.6721
147.1500,71.6721
147.2457,71.6912
147.3268,71.7454
147.3810,71.8265
147.4000,71.9221
147.4000,76.0221
147.3810,76.1178
147.3268,76.1989
147.2457,76.2531
147.1500,76.2721
Z" /> 
</g>
<g >
</g>
<g >
</g>
<g >
</g>
<g >
</g>
<g style="fill:#00C2C2; fill-opacity:0.9000; 
stroke:#00C2C2; stroke-width:0.0000; stroke-opacity:1; 
stroke-linecap:round; stroke-linejoin:round;">
<path style="fill:#00C2C2; fill-opacity:0.9000; 
stroke:#00C2C2; stroke-width:0.0000; stroke-opacity:1; 
stroke-linecap:round; stroke-linejoin:round;fill-rule:evenodd;"
d="M 147.0500,87.6721
152.4500,87.6721
152.4500,90.5721
147.0500,90.5721
Z" /> 
<path style="fill:#00C2C2; fill-opacity:0.9000; 
stroke:#00C2C2; stroke-width:0.0000; stroke-opacity:1; 
stroke-linecap:round; stroke-linejoin:round;fill-rule:evenodd;"
d="M 147.0500,97.5721
152.4500,97.5721
152.4500,100.4721
147.0500,100.4721
Z" /> 
</g>
<g >
</g>
<g >
</g>
<g >
</g>
<g >
</g>
<g >
</g>
<g style="fill:#00C2C2; fill-opacity:0.9000; 
stroke:#00C2C2; stroke-width:0.0000; stroke-opacity:1; 
stroke-linecap:round; stroke-linejoin:round;">
<path style="fill:#00C2C2; fill-opacity:0.9000; 
stroke:#00C2C2; stroke-width:0.0000; stroke-opacity:1; 
stroke-linecap:round; stroke-linejoin:round;fill-rule:evenodd;"
d="M 147.2500,108.5721
152.2500,108.5721
152.2500,112.4221
147.2500,112.4221
Z" /> 
<path style="fill:#00C2C2; fill-opacity:0.9000; 
stroke:#00C2C2; stroke-width:0.0000; stroke-opacity:1; 
stroke-linecap:round; stroke-linejoin:round;fill-rule:evenodd;"
d="M 147.2500,118.7221
152.2500,118.7221
152.2500,122.5721
147.2500,122.5721
Z" /> 
</g>
<g >
</g>
<g style="fill:#00C2C2; fill-opacity:0.9000; 
stroke:#00C2C2; stroke-width:0.0000; stroke-opacity:1; 
stroke-linecap:round; stroke-linejoin:round;">
<path style="fill:#00C2C2; fill-opacity:0.9000; 
stroke:#00C2C2; stroke-width:0.0000; stroke-opacity:1; 
stroke-linecap:round; stroke-linejoin:round;fill-rule:evenodd;"
d="M 167.8000,58.6221
167.8957,58.6412
167.9768,58.6954
168.0310,58.7765
168.0500,58.8721
168.0500,61.8721
168.0310,61.9678
167.9768,62.0489
167.8957,62.1031
167.8000,62.1221
166.7000,62.1221
166.6043,62.1031
166.5232,62.0489
166.4690,61.9678
166.4500,61.8721
166.4500,58.8721
166.4690,58.7765
166.5232,58.6954
166.6043,58.6412
166.7000,58.6221
Z" /> 
<path style="fill:#00C2C2; fill-opacity:0.9000; 
stroke:#00C2C2; stroke-width:0.0000; stroke-opacity:1; 
stroke-linecap:round; stroke-linejoin:round;fill-rule:evenodd;"
d="M 167.8000,64.0221
167.8957,64.0412
167.9768,64.0954
168.0310,64.1765
168.0500,64.2721
168.0500,67.2721
168.0310,67.3678
167.9768,67.4489
167.8957,67.5031
167.8000,67.5221
166.7000,67.5221
166.6043,67.5031
166.5232,67.4489
166.4690,67.3678
166.4500,67.2721
166.4500,64.2721
166.4690,64.1765
166.5232,64.0954
166.6043,64.0412
166.7000,64.0221
Z" /> 
</g>
<g >
</g>
<g >
</g>
<g >
</g>
<g style="fill:#00C2C2; fill-opacity:0.9000; 
stroke:#00C2C2; stroke-width:0.0000; stroke-opacity:1; 
stroke-linecap:round; stroke-linejoin:round;">
<path style="fill:#00C2C2; fill-opacity:0.9000; 
stroke:#00C2C2; stroke-width:0.0000; stroke-opacity:1; 
stroke-linecap:round; stroke-linejoin:round;fill-rule:evenodd;"
d="M 155.7500,103.8721
155.7690,103.7765
155.8232,103.6954
155.9043,103.6412
156.0000,103.6221
159.0000,103.6221
159.0957,103.6412
159.1768,103.6954
159.2310,103.7765
159.2500,103.8721
159.2500,104.9721
159.2310,105.0678
159.1768,105.1489
159.0957,105.2031
159.0000,105.2221
156.0000,105.2221
155.9043,105.2031
155.8232,105.1489
155.7690,105.0678
155.7500,104.9721
Z" /> 
<path style="fill:#00C2C2; fill-opacity:0.9000; 
stroke:#00C2C2; stroke-width:0.0000; stroke-opacity:1; 
stroke-linecap:round; stroke-linejoin:round;fill-rule:evenodd;"
d="M 161.1500,103.8721
161.1690,103.7765
161.2232,103.6954
161.3043,103.6412
161.4000,103.6221
164.4000,103.6221
164.4957,103.6412
164.5768,103.6954
164.6310,103.7765
164.6500,103.8721
164.6500,104.9721
164.6310,105.0678
164.5768,105.1489
164.4957,105.2031
164.4000,105.2221
161.4000,105.2221
161.3043,105.2031
161.2232,105.1489
161.1690,105.0678
161.1500,104.9721
Z" /> 
</g>
<g >
</g>
<g >
</g>
<g >
</g>
<g >
</g>
<g >
</g>
</g>
<g style="fill:#000000; fill-opacity:1.0000; 
stroke:#000000; stroke-width:0.0000; stroke-opacity:1; 
stroke-linecap:round; stroke-linejoin:round;">
</g>
<g style="fill:#D0D2CD; fill-opacity:1.0000; 
stroke:#D0D2CD; stroke-width:0.0000; stroke-opacity:1; 
stroke-linecap:round; stroke-linejoin:round;">
</g>
<g style="fill:#D0D2CD; fill-opacity:0.0; 
stroke:#D0D2CD; stroke-width:0.1000; stroke-opacity:1; 
stroke-linecap:round; stroke-linejoin:round;">
<circle cx="44.9000" cy="53.5500" r="1.6000" /> 
<circle cx="45.0508" cy="117.7950" r="1.6000" /> 
<path style="fill:#D0D2CD; fill-opacity:0.0; 
stroke:#D0D2CD; stroke-width:0.1000; stroke-opacity:1; 
stroke-linecap:round; stroke-linejoin:round;fill:none"
d="M 53.6500,93.8000
60.0500,93.8000
60.0500,103.8000
53.6500,103.8000
Z" /> 
<circle cx="94.7100" cy="134.6400" r="1.6000" /> 
<circle cx="45.1508" cy="148.3950" r="1.6000" /> 
<circle cx="58.2608" cy="135.5400" r="1.6000" /> 
<path style="fill:#D0D2CD; fill-opacity:0.0; 
stroke:#D0D2CD; stroke-width:0.1000; stroke-opacity:1; 
stroke-linecap:round; stroke-linejoin:round;fill:none"
d="M 43.5500,81.8500
49.9500,81.8500
49.9500,91.8500
43.5500,91.8500
Z" /> 
<circle cx="45.0608" cy="135.5400" r="1.6000" /> 
<circle cx="44.9000" cy="76.2450" r="1.6000" /> 
<circle cx="58.2508" cy="122.7950" r="1.6000" /> 
<circle cx="94.7600" cy="167.0400" r="1.6000" /> 
<circle cx="45.0508" cy="112.7950" r="1.6000" /> 
<path d="M39.6500 27.2500
L202.0000 27.2500
" />
<circle cx="45.0608" cy="130.5400" r="1.6000" /> 
<circle cx="44.9000" cy="58.5500" r="1.6000" /> 
<circle cx="126.1850" cy="52.4500" r="1.6000" /> 
<circle cx="58.1000" cy="76.2450" r="1.6000" /> 
<circle cx="58.3508" cy="153.3950" r="1.6000" /> 
<circle cx="58.1000" cy="58.5500" r="1.6000" /> 
<circle cx="58.3508" cy="148.3950" r="1.6000" /> 
<circle cx="58.2508" cy="117.7950" r="1.6000" /> 
<circle cx="58.2608" cy="130.5400" r="1.6000" /> 
<circle cx="94.7600" cy="156.8900" r="1.6000" /> 
<circle cx="81.5600" cy="151.8900" r="1.6000" /> 
<path d="M39.6000 176.6500
L39.6500 27.2500
" />
<circle cx="81.5600" cy="156.8900" r="1.6000" /> 
<circle cx="81.5600" cy="167.0400" r="1.6000" /> 
<path style="fill:#D0D2CD; fill-opacity:0.0; 
stroke:#D0D2CD; stroke-width:0.1000; stroke-opacity:1; 
stroke-linecap:round; stroke-linejoin:round;fill:none"
d="M 144.9500,130.5500
151.3500,130.5500
151.3500,142.9500
144.9500,142.9500
Z" /> 
<circle cx="44.9000" cy="48.5500" r="1.6000" /> 
<circle cx="44.9000" cy="66.2450" r="1.6000" /> 
<path d="M39.6000 176.6500
L148.3500 176.7500
" />
<circle cx="44.9000" cy="71.2450" r="1.6000" /> 
<path d="M202.0000 94.5000
L148.3500 176.7500
" />
<circle cx="58.1000" cy="53.5500" r="1.6000" /> 
<circle cx="188.2150" cy="33.9000" r="1.6000" /> 
<circle cx="81.5100" cy="139.6400" r="1.6000" /> 
<circle cx="94.7600" cy="151.8900" r="1.6000" /> 
<path style="fill:#D0D2CD; fill-opacity:0.0; 
stroke:#D0D2CD; stroke-width:0.1000; stroke-opacity:1; 
stroke-linecap:round; stroke-linejoin:round;fill:none"
d="M 53.6500,81.8500
60.0500,81.8500
60.0500,91.8500
53.6500,91.8500
Z" /> 
<path style="fill:#D0D2CD; fill-opacity:0.0; 
stroke:#D0D2CD; stroke-width:0.1000; stroke-opacity:1; 
stroke-linecap:round; stroke-linejoin:round;fill:none"
d="M 121.3500,130.1500
125.5000,130.1500
125.5000,142.9500
121.3500,142.9500
Z" /> 
<path style="fill:#D0D2CD; fill-opacity:0.0; 
stroke:#D0D2CD; stroke-width:0.1000; stroke-opacity:1; 
stroke-linecap:round; stroke-linejoin:round;fill:none"
d="M 132.0000,130.5500
138.4000,130.5500
138.4000,142.9500
132.0000,142.9500
Z" /> 
<circle cx="188.2150" cy="47.1000" r="1.6000" /> 
<circle cx="58.1000" cy="71.2450" r="1.6000" /> 
<circle cx="45.0608" cy="140.5400" r="1.6000" /> 
<circle cx="193.2150" cy="47.1000" r="1.6000" /> 
<circle cx="131.1850" cy="65.6500" r="1.6000" /> 
<circle cx="126.1850" cy="65.6500" r="1.6000" /> 
<circle cx="58.1000" cy="66.2450" r="1.6000" /> 
<circle cx="81.5600" cy="161.8900" r="1.6000" /> 
<path style="fill:#D0D2CD; fill-opacity:0.0; 
stroke:#D0D2CD; stroke-width:0.1000; stroke-opacity:1; 
stroke-linecap:round; stroke-linejoin:round;fill:none"
d="M 144.9500,152.5000
151.3500,152.5000
151.3500,164.9000
144.9500,164.9000
Z" /> 
<circle cx="94.7100" cy="139.6400" r="1.6000" /> 
<circle cx="44.8900" cy="35.4800" r="1.6000" /> 
<circle cx="45.0508" cy="122.7950" r="1.6000" /> 
<circle cx="94.7600" cy="161.8900" r="1.6000" /> 
<circle cx="193.2150" cy="33.9000" r="1.6000" /> 
<circle cx="58.2508" cy="112.7950" r="1.6000" /> 
<circle cx="94.7100" cy="129.6400" r="1.6000" /> 
<path style="fill:#D0D2CD; fill-opacity:0.0; 
stroke:#D0D2CD; stroke-width:0.1000; stroke-opacity:1; 
stroke-linecap:round; stroke-linejoin:round;fill:none"
d="M 43.5500,93.8000
49.9500,93.8000
49.9500,103.8000
43.5500,103.8000
Z" /> 
<circle cx="45.1508" cy="153.3950" r="1.6000" /> 
<circle cx="94.7100" cy="144.7900" r="1.6000" /> 
<circle cx="58.1000" cy="48.5500" r="1.6000" /> 
<path style="fill:#D0D2CD; fill-opacity:0.0; 
stroke:#D0D2CD; stroke-width:0.1000; stroke-opacity:1; 
stroke-linecap:round; stroke-linejoin:round;fill:none"
d="M 132.0000,152.5000
138.4000,152.5000
138.4000,164.9000
132.0000,164.9000
Z" /> 
<circle cx="44.8900" cy="40.4800" r="1.6000" /> 
<circle cx="58.2608" cy="140.5400" r="1.6000" /> 
<circle cx="81.5100" cy="129.6400" r="1.6000" /> 
<circle cx="131.1850" cy="52.4500" r="1.6000" /> 
<circle cx="58.0900" cy="35.4800" r="1.6000" /> 
<circle cx="81.5100" cy="134.6400" r="1.6000" /> 
<circle cx="58.0900" cy="40.4800" r="1.6000" /> 
<circle cx="81.5100" cy="144.7900" r="1.6000" /> 
<path d="M202.0000 94.5000
L202.0000 27.2500
" />
<g >
</g>
<g >
</g>
<g >
</g>
<g >
</g>
<g >
</g>
<g >
</g>
<g >
</g>
<g >
</g>
<g >
</g>
<g >
</g>
<g >
</g>
<g >
</g>
<g >
</g>
<g >
</g>
<g >
</g>
<g >
</g>
<g >
</g>
<g >
</g>
<g >
</g>
<g >
</g>
<g >
</g>
<g >
</g>
<g >
</g>
<g >
</g>
<g >
</g>
<g >
</g>
<g >
</g>
<g >
</g>
<g >
</g>
<g >
</g>
</g> 
</svg>
