%TF.GenerationSoftware,KiCad,Pcbnew,7.0.6-7.0.6~ubuntu22.04.1*%
%TF.CreationDate,2023-07-24T17:29:41-06:00*%
%TF.ProjectId,stepper_microscope_stage,73746570-7065-4725-9f6d-6963726f7363,rev?*%
%TF.SameCoordinates,Original*%
%TF.FileFunction,Soldermask,Bot*%
%TF.FilePolarity,Negative*%
%FSLAX46Y46*%
G04 Gerber Fmt 4.6, Leading zero omitted, Abs format (unit mm)*
G04 Created by KiCad (PCBNEW 7.0.6-7.0.6~ubuntu22.04.1) date 2023-07-24 17:29:41*
%MOMM*%
%LPD*%
G01*
G04 APERTURE LIST*
%ADD10C,2.200000*%
%ADD11O,1.980000X3.960000*%
%ADD12R,1.980000X3.960000*%
%ADD13R,2.000000X1.905000*%
%ADD14O,2.000000X1.905000*%
%ADD15R,3.960000X1.980000*%
%ADD16O,3.960000X1.980000*%
%ADD17O,1.600000X1.600000*%
%ADD18R,1.600000X1.600000*%
G04 APERTURE END LIST*
D10*
%TO.C,H3*%
X184250000Y-96250000D03*
%TD*%
%TO.C,H2*%
X137500000Y-94500000D03*
%TD*%
%TO.C,H1*%
X135750000Y-120500000D03*
%TD*%
D11*
%TO.C,STEPSIG2*%
X146000000Y-140270000D03*
X151000000Y-140270000D03*
D12*
X156000000Y-140270000D03*
%TD*%
%TO.C,STEPSIGGND1*%
X211090000Y-140240000D03*
D11*
X206090000Y-140240000D03*
X201090000Y-140240000D03*
%TD*%
%TO.C,VIN1*%
X124485000Y-97000000D03*
D12*
X119485000Y-97000000D03*
%TD*%
D13*
%TO.C,U1*%
X121250000Y-120580000D03*
D14*
X121250000Y-118040000D03*
X121250000Y-115500000D03*
%TD*%
D12*
%TO.C,STEPVIN2*%
X131985000Y-140280000D03*
D11*
X136985000Y-140280000D03*
%TD*%
D12*
%TO.C,STEPVIN1*%
X119485000Y-140280000D03*
D11*
X124485000Y-140280000D03*
%TD*%
%TO.C,STEPSIGGND2*%
X163250000Y-140260000D03*
X168250000Y-140260000D03*
D12*
X173250000Y-140260000D03*
%TD*%
%TO.C,STEPSIG1*%
X191795000Y-140250000D03*
D11*
X186795000Y-140250000D03*
X181795000Y-140250000D03*
%TD*%
D15*
%TO.C,JOYIN1*%
X207500000Y-116735000D03*
D16*
X207500000Y-121735000D03*
%TD*%
D17*
%TO.C,A1*%
X149950000Y-108870000D03*
X152490000Y-108870000D03*
X155030000Y-108870000D03*
X157570000Y-108870000D03*
X160110000Y-108870000D03*
X162650000Y-108870000D03*
X165190000Y-108870000D03*
X167730000Y-108870000D03*
X170270000Y-108870000D03*
X172810000Y-108870000D03*
X175350000Y-108870000D03*
X177890000Y-108870000D03*
X180430000Y-108870000D03*
X182970000Y-108870000D03*
X185510000Y-108870000D03*
X185510000Y-124110000D03*
X182970000Y-124110000D03*
X180430000Y-124110000D03*
X177890000Y-124110000D03*
X175350000Y-124110000D03*
X172810000Y-124110000D03*
X170270000Y-124110000D03*
X167730000Y-124110000D03*
X165190000Y-124110000D03*
X162650000Y-124110000D03*
X160110000Y-124110000D03*
X157570000Y-124110000D03*
X155030000Y-124110000D03*
X152490000Y-124110000D03*
D18*
X149950000Y-124110000D03*
%TD*%
M02*
