%TF.GenerationSoftware,KiCad,Pcbnew,7.0.7-7.0.7~ubuntu22.04.1*%
%TF.CreationDate,2023-09-22T11:09:07-06:00*%
%TF.ProjectId,stepper_microscope_stage,73746570-7065-4725-9f6d-6963726f7363,1.1*%
%TF.SameCoordinates,Original*%
%TF.FileFunction,Soldermask,Bot*%
%TF.FilePolarity,Negative*%
%FSLAX46Y46*%
G04 Gerber Fmt 4.6, Leading zero omitted, Abs format (unit mm)*
G04 Created by KiCad (PCBNEW 7.0.7-7.0.7~ubuntu22.04.1) date 2023-09-22 11:09:07*
%MOMM*%
%LPD*%
G01*
G04 APERTURE LIST*
G04 Aperture macros list*
%AMRoundRect*
0 Rectangle with rounded corners*
0 $1 Rounding radius*
0 $2 $3 $4 $5 $6 $7 $8 $9 X,Y pos of 4 corners*
0 Add a 4 corners polygon primitive as box body*
4,1,4,$2,$3,$4,$5,$6,$7,$8,$9,$2,$3,0*
0 Add four circle primitives for the rounded corners*
1,1,$1+$1,$2,$3*
1,1,$1+$1,$4,$5*
1,1,$1+$1,$6,$7*
1,1,$1+$1,$8,$9*
0 Add four rect primitives between the rounded corners*
20,1,$1+$1,$2,$3,$4,$5,0*
20,1,$1+$1,$4,$5,$6,$7,0*
20,1,$1+$1,$6,$7,$8,$9,0*
20,1,$1+$1,$8,$9,$2,$3,0*%
G04 Aperture macros list end*
%ADD10RoundRect,0.250000X-0.725000X0.600000X-0.725000X-0.600000X0.725000X-0.600000X0.725000X0.600000X0*%
%ADD11O,1.950000X1.700000*%
%ADD12RoundRect,0.250000X0.725000X-0.600000X0.725000X0.600000X-0.725000X0.600000X-0.725000X-0.600000X0*%
%ADD13C,8.600000*%
%ADD14C,3.500000*%
%ADD15O,4.375000X2.625000*%
%ADD16RoundRect,0.250000X-1.500000X-0.550000X1.500000X-0.550000X1.500000X0.550000X-1.500000X0.550000X0*%
%ADD17R,3.960000X1.980000*%
%ADD18O,3.960000X1.980000*%
%ADD19R,1.700000X1.700000*%
%ADD20O,1.700000X1.700000*%
%ADD21RoundRect,0.250000X0.300000X-2.050000X0.300000X2.050000X-0.300000X2.050000X-0.300000X-2.050000X0*%
%ADD22RoundRect,0.250002X5.149998X-4.449998X5.149998X4.449998X-5.149998X4.449998X-5.149998X-4.449998X0*%
%ADD23R,5.400000X2.900000*%
%ADD24R,3.200000X3.200000*%
%ADD25O,3.200000X3.200000*%
%ADD26R,1.600000X1.600000*%
%ADD27O,1.600000X1.600000*%
%ADD28R,1.980000X3.960000*%
%ADD29O,1.980000X3.960000*%
%ADD30R,5.000000X3.850000*%
%ADD31RoundRect,0.250000X-0.550000X1.500000X-0.550000X-1.500000X0.550000X-1.500000X0.550000X1.500000X0*%
G04 APERTURE END LIST*
D10*
%TO.C,LIMIT2*%
X69350816Y-96717144D03*
D11*
X69350816Y-99217144D03*
X69350816Y-101717144D03*
%TD*%
D10*
%TO.C,LIMIT1*%
X69190000Y-84617144D03*
D11*
X69190000Y-87117144D03*
X69190000Y-89617144D03*
%TD*%
D12*
%TO.C,J5*%
X123700000Y-140300000D03*
D11*
X123700000Y-137800000D03*
X123700000Y-135300000D03*
X123700000Y-132800000D03*
%TD*%
D12*
%TO.C,J4*%
X123200000Y-162550000D03*
D11*
X123200000Y-160050000D03*
X123200000Y-157550000D03*
X123200000Y-155050000D03*
%TD*%
D13*
%TO.C,H3*%
X53750000Y-166200000D03*
%TD*%
%TO.C,H1*%
X180050000Y-97450000D03*
%TD*%
%TO.C,H1*%
X94500000Y-52250000D03*
%TD*%
D14*
%TO.C,SW1*%
X172500000Y-49500000D03*
X172500000Y-33500000D03*
D15*
X172500000Y-45500000D03*
X172500000Y-41500000D03*
X172500000Y-37500000D03*
%TD*%
D16*
%TO.C,C3*%
X157500000Y-126722144D03*
X162900000Y-126722144D03*
%TD*%
D17*
%TO.C,J2*%
X106650000Y-151790000D03*
D18*
X106650000Y-156790000D03*
X106650000Y-161790000D03*
X106650000Y-166790000D03*
%TD*%
D19*
%TO.C,J1*%
X130500000Y-118822144D03*
D20*
X130500000Y-116282144D03*
X130500000Y-113742144D03*
X130500000Y-111202144D03*
%TD*%
D17*
%TO.C,STEPSIGGND2*%
X69910816Y-130422144D03*
D18*
X69910816Y-135422144D03*
X69910816Y-140422144D03*
%TD*%
D17*
%TO.C,STEPSIG1*%
X69750000Y-48322144D03*
D18*
X69750000Y-53322144D03*
X69750000Y-58322144D03*
%TD*%
D21*
%TO.C,TL2575*%
X153650000Y-73972144D03*
X151950000Y-73972144D03*
X150250000Y-73972144D03*
D22*
X150250000Y-64822144D03*
D21*
X148550000Y-73972144D03*
X146850000Y-73972144D03*
%TD*%
D17*
%TO.C,STEPGND1*%
X69900816Y-148202144D03*
D18*
X69900816Y-153202144D03*
%TD*%
D17*
%TO.C,STEPSIGGND1*%
X69910816Y-112672144D03*
D18*
X69910816Y-117672144D03*
X69910816Y-122672144D03*
%TD*%
D23*
%TO.C,L1*%
X149750000Y-89122144D03*
X149750000Y-99022144D03*
%TD*%
D17*
%TO.C,STEPPWR1*%
X69740000Y-35352144D03*
D18*
X69740000Y-40352144D03*
%TD*%
D24*
%TO.C,D1*%
X160150000Y-82322144D03*
D25*
X172850000Y-82322144D03*
%TD*%
D26*
%TO.C,A1*%
X99640000Y-114872144D03*
D27*
X99640000Y-112332144D03*
X99640000Y-109792144D03*
X99640000Y-107252144D03*
X99640000Y-104712144D03*
X99640000Y-102172144D03*
X99640000Y-99632144D03*
X99640000Y-97092144D03*
X99640000Y-94552144D03*
X99640000Y-92012144D03*
X99640000Y-89472144D03*
X99640000Y-86932144D03*
X99640000Y-84392144D03*
X99640000Y-81852144D03*
X99640000Y-79312144D03*
X114880000Y-79312144D03*
X114880000Y-81852144D03*
X114880000Y-84392144D03*
X114880000Y-86932144D03*
X114880000Y-89472144D03*
X114880000Y-92012144D03*
X114880000Y-94552144D03*
X114880000Y-97092144D03*
X114880000Y-99632144D03*
X114880000Y-102172144D03*
X114880000Y-104712144D03*
X114880000Y-107252144D03*
X114880000Y-109792144D03*
X114880000Y-112332144D03*
X114880000Y-114872144D03*
%TD*%
D28*
%TO.C,JOYIN1*%
X126220000Y-77072144D03*
D29*
X131220000Y-77072144D03*
%TD*%
D30*
%TO.C,L2*%
X149750000Y-110497144D03*
X149750000Y-120647144D03*
%TD*%
D31*
%TO.C,C1*%
X167250000Y-60372144D03*
X167250000Y-65772144D03*
%TD*%
D17*
%TO.C,STEPSIG2*%
X69750000Y-66072144D03*
D18*
X69750000Y-71072144D03*
X69750000Y-76072144D03*
%TD*%
D17*
%TO.C,J3*%
X106650000Y-129540000D03*
D18*
X106650000Y-134540000D03*
X106650000Y-139540000D03*
X106650000Y-144540000D03*
%TD*%
D16*
%TO.C,C2*%
X157500000Y-104422144D03*
X162900000Y-104422144D03*
%TD*%
D28*
%TO.C,VIN1*%
X188250000Y-58572144D03*
D29*
X193250000Y-58572144D03*
%TD*%
M02*
