%TF.GenerationSoftware,KiCad,Pcbnew,7.0.7-7.0.7~ubuntu22.04.1*%
%TF.CreationDate,2023-09-22T11:09:07-06:00*%
%TF.ProjectId,stepper_microscope_stage,73746570-7065-4725-9f6d-6963726f7363,1.1*%
%TF.SameCoordinates,Original*%
%TF.FileFunction,Legend,Bot*%
%TF.FilePolarity,Positive*%
%FSLAX46Y46*%
G04 Gerber Fmt 4.6, Leading zero omitted, Abs format (unit mm)*
G04 Created by KiCad (PCBNEW 7.0.7-7.0.7~ubuntu22.04.1) date 2023-09-22 11:09:07*
%MOMM*%
%LPD*%
G01*
G04 APERTURE LIST*
%ADD10C,0.150000*%
%ADD11C,0.120000*%
G04 APERTURE END LIST*
D10*
X67005635Y-97621906D02*
X67005635Y-97145716D01*
X67005635Y-97145716D02*
X66005635Y-97145716D01*
X67005635Y-97955240D02*
X66005635Y-97955240D01*
X67005635Y-98431430D02*
X66005635Y-98431430D01*
X66005635Y-98431430D02*
X66719920Y-98764763D01*
X66719920Y-98764763D02*
X66005635Y-99098096D01*
X66005635Y-99098096D02*
X67005635Y-99098096D01*
X67005635Y-99574287D02*
X66005635Y-99574287D01*
X66005635Y-99907620D02*
X66005635Y-100479048D01*
X67005635Y-100193334D02*
X66005635Y-100193334D01*
X66100873Y-100764763D02*
X66053254Y-100812382D01*
X66053254Y-100812382D02*
X66005635Y-100907620D01*
X66005635Y-100907620D02*
X66005635Y-101145715D01*
X66005635Y-101145715D02*
X66053254Y-101240953D01*
X66053254Y-101240953D02*
X66100873Y-101288572D01*
X66100873Y-101288572D02*
X66196111Y-101336191D01*
X66196111Y-101336191D02*
X66291349Y-101336191D01*
X66291349Y-101336191D02*
X66434206Y-101288572D01*
X66434206Y-101288572D02*
X67005635Y-100717144D01*
X67005635Y-100717144D02*
X67005635Y-101336191D01*
X66844819Y-85521906D02*
X66844819Y-85045716D01*
X66844819Y-85045716D02*
X65844819Y-85045716D01*
X66844819Y-85855240D02*
X65844819Y-85855240D01*
X66844819Y-86331430D02*
X65844819Y-86331430D01*
X65844819Y-86331430D02*
X66559104Y-86664763D01*
X66559104Y-86664763D02*
X65844819Y-86998096D01*
X65844819Y-86998096D02*
X66844819Y-86998096D01*
X66844819Y-87474287D02*
X65844819Y-87474287D01*
X65844819Y-87807620D02*
X65844819Y-88379048D01*
X66844819Y-88093334D02*
X65844819Y-88093334D01*
X66844819Y-89236191D02*
X66844819Y-88664763D01*
X66844819Y-88950477D02*
X65844819Y-88950477D01*
X65844819Y-88950477D02*
X65987676Y-88855239D01*
X65987676Y-88855239D02*
X66082914Y-88760001D01*
X66082914Y-88760001D02*
X66130533Y-88664763D01*
X125954819Y-136216666D02*
X126669104Y-136216666D01*
X126669104Y-136216666D02*
X126811961Y-136169047D01*
X126811961Y-136169047D02*
X126907200Y-136073809D01*
X126907200Y-136073809D02*
X126954819Y-135930952D01*
X126954819Y-135930952D02*
X126954819Y-135835714D01*
X125954819Y-137169047D02*
X125954819Y-136692857D01*
X125954819Y-136692857D02*
X126431009Y-136645238D01*
X126431009Y-136645238D02*
X126383390Y-136692857D01*
X126383390Y-136692857D02*
X126335771Y-136788095D01*
X126335771Y-136788095D02*
X126335771Y-137026190D01*
X126335771Y-137026190D02*
X126383390Y-137121428D01*
X126383390Y-137121428D02*
X126431009Y-137169047D01*
X126431009Y-137169047D02*
X126526247Y-137216666D01*
X126526247Y-137216666D02*
X126764342Y-137216666D01*
X126764342Y-137216666D02*
X126859580Y-137169047D01*
X126859580Y-137169047D02*
X126907200Y-137121428D01*
X126907200Y-137121428D02*
X126954819Y-137026190D01*
X126954819Y-137026190D02*
X126954819Y-136788095D01*
X126954819Y-136788095D02*
X126907200Y-136692857D01*
X126907200Y-136692857D02*
X126859580Y-136645238D01*
X125454819Y-158466666D02*
X126169104Y-158466666D01*
X126169104Y-158466666D02*
X126311961Y-158419047D01*
X126311961Y-158419047D02*
X126407200Y-158323809D01*
X126407200Y-158323809D02*
X126454819Y-158180952D01*
X126454819Y-158180952D02*
X126454819Y-158085714D01*
X125788152Y-159371428D02*
X126454819Y-159371428D01*
X125407200Y-159133333D02*
X126121485Y-158895238D01*
X126121485Y-158895238D02*
X126121485Y-159514285D01*
X160366666Y-131431724D02*
X160414285Y-131479344D01*
X160414285Y-131479344D02*
X160557142Y-131526963D01*
X160557142Y-131526963D02*
X160652380Y-131526963D01*
X160652380Y-131526963D02*
X160795237Y-131479344D01*
X160795237Y-131479344D02*
X160890475Y-131384105D01*
X160890475Y-131384105D02*
X160938094Y-131288867D01*
X160938094Y-131288867D02*
X160985713Y-131098391D01*
X160985713Y-131098391D02*
X160985713Y-130955534D01*
X160985713Y-130955534D02*
X160938094Y-130765058D01*
X160938094Y-130765058D02*
X160890475Y-130669820D01*
X160890475Y-130669820D02*
X160795237Y-130574582D01*
X160795237Y-130574582D02*
X160652380Y-130526963D01*
X160652380Y-130526963D02*
X160557142Y-130526963D01*
X160557142Y-130526963D02*
X160414285Y-130574582D01*
X160414285Y-130574582D02*
X160366666Y-130622201D01*
X160033332Y-130526963D02*
X159414285Y-130526963D01*
X159414285Y-130526963D02*
X159747618Y-130907915D01*
X159747618Y-130907915D02*
X159604761Y-130907915D01*
X159604761Y-130907915D02*
X159509523Y-130955534D01*
X159509523Y-130955534D02*
X159461904Y-131003153D01*
X159461904Y-131003153D02*
X159414285Y-131098391D01*
X159414285Y-131098391D02*
X159414285Y-131336486D01*
X159414285Y-131336486D02*
X159461904Y-131431724D01*
X159461904Y-131431724D02*
X159509523Y-131479344D01*
X159509523Y-131479344D02*
X159604761Y-131526963D01*
X159604761Y-131526963D02*
X159890475Y-131526963D01*
X159890475Y-131526963D02*
X159985713Y-131479344D01*
X159985713Y-131479344D02*
X160033332Y-131431724D01*
X98954819Y-158956666D02*
X99669104Y-158956666D01*
X99669104Y-158956666D02*
X99811961Y-158909047D01*
X99811961Y-158909047D02*
X99907200Y-158813809D01*
X99907200Y-158813809D02*
X99954819Y-158670952D01*
X99954819Y-158670952D02*
X99954819Y-158575714D01*
X99050057Y-159385238D02*
X99002438Y-159432857D01*
X99002438Y-159432857D02*
X98954819Y-159528095D01*
X98954819Y-159528095D02*
X98954819Y-159766190D01*
X98954819Y-159766190D02*
X99002438Y-159861428D01*
X99002438Y-159861428D02*
X99050057Y-159909047D01*
X99050057Y-159909047D02*
X99145295Y-159956666D01*
X99145295Y-159956666D02*
X99240533Y-159956666D01*
X99240533Y-159956666D02*
X99383390Y-159909047D01*
X99383390Y-159909047D02*
X99954819Y-159337619D01*
X99954819Y-159337619D02*
X99954819Y-159956666D01*
X130833333Y-121046963D02*
X130833333Y-121761248D01*
X130833333Y-121761248D02*
X130880952Y-121904105D01*
X130880952Y-121904105D02*
X130976190Y-121999344D01*
X130976190Y-121999344D02*
X131119047Y-122046963D01*
X131119047Y-122046963D02*
X131214285Y-122046963D01*
X129833333Y-122046963D02*
X130404761Y-122046963D01*
X130119047Y-122046963D02*
X130119047Y-121046963D01*
X130119047Y-121046963D02*
X130214285Y-121189820D01*
X130214285Y-121189820D02*
X130309523Y-121285058D01*
X130309523Y-121285058D02*
X130404761Y-121332677D01*
X63218016Y-130588811D02*
X63265635Y-130731668D01*
X63265635Y-130731668D02*
X63265635Y-130969763D01*
X63265635Y-130969763D02*
X63218016Y-131065001D01*
X63218016Y-131065001D02*
X63170396Y-131112620D01*
X63170396Y-131112620D02*
X63075158Y-131160239D01*
X63075158Y-131160239D02*
X62979920Y-131160239D01*
X62979920Y-131160239D02*
X62884682Y-131112620D01*
X62884682Y-131112620D02*
X62837063Y-131065001D01*
X62837063Y-131065001D02*
X62789444Y-130969763D01*
X62789444Y-130969763D02*
X62741825Y-130779287D01*
X62741825Y-130779287D02*
X62694206Y-130684049D01*
X62694206Y-130684049D02*
X62646587Y-130636430D01*
X62646587Y-130636430D02*
X62551349Y-130588811D01*
X62551349Y-130588811D02*
X62456111Y-130588811D01*
X62456111Y-130588811D02*
X62360873Y-130636430D01*
X62360873Y-130636430D02*
X62313254Y-130684049D01*
X62313254Y-130684049D02*
X62265635Y-130779287D01*
X62265635Y-130779287D02*
X62265635Y-131017382D01*
X62265635Y-131017382D02*
X62313254Y-131160239D01*
X62265635Y-131445954D02*
X62265635Y-132017382D01*
X63265635Y-131731668D02*
X62265635Y-131731668D01*
X62741825Y-132350716D02*
X62741825Y-132684049D01*
X63265635Y-132826906D02*
X63265635Y-132350716D01*
X63265635Y-132350716D02*
X62265635Y-132350716D01*
X62265635Y-132350716D02*
X62265635Y-132826906D01*
X63265635Y-133255478D02*
X62265635Y-133255478D01*
X62265635Y-133255478D02*
X62265635Y-133636430D01*
X62265635Y-133636430D02*
X62313254Y-133731668D01*
X62313254Y-133731668D02*
X62360873Y-133779287D01*
X62360873Y-133779287D02*
X62456111Y-133826906D01*
X62456111Y-133826906D02*
X62598968Y-133826906D01*
X62598968Y-133826906D02*
X62694206Y-133779287D01*
X62694206Y-133779287D02*
X62741825Y-133731668D01*
X62741825Y-133731668D02*
X62789444Y-133636430D01*
X62789444Y-133636430D02*
X62789444Y-133255478D01*
X63218016Y-134207859D02*
X63265635Y-134350716D01*
X63265635Y-134350716D02*
X63265635Y-134588811D01*
X63265635Y-134588811D02*
X63218016Y-134684049D01*
X63218016Y-134684049D02*
X63170396Y-134731668D01*
X63170396Y-134731668D02*
X63075158Y-134779287D01*
X63075158Y-134779287D02*
X62979920Y-134779287D01*
X62979920Y-134779287D02*
X62884682Y-134731668D01*
X62884682Y-134731668D02*
X62837063Y-134684049D01*
X62837063Y-134684049D02*
X62789444Y-134588811D01*
X62789444Y-134588811D02*
X62741825Y-134398335D01*
X62741825Y-134398335D02*
X62694206Y-134303097D01*
X62694206Y-134303097D02*
X62646587Y-134255478D01*
X62646587Y-134255478D02*
X62551349Y-134207859D01*
X62551349Y-134207859D02*
X62456111Y-134207859D01*
X62456111Y-134207859D02*
X62360873Y-134255478D01*
X62360873Y-134255478D02*
X62313254Y-134303097D01*
X62313254Y-134303097D02*
X62265635Y-134398335D01*
X62265635Y-134398335D02*
X62265635Y-134636430D01*
X62265635Y-134636430D02*
X62313254Y-134779287D01*
X63265635Y-135207859D02*
X62265635Y-135207859D01*
X62313254Y-136207858D02*
X62265635Y-136112620D01*
X62265635Y-136112620D02*
X62265635Y-135969763D01*
X62265635Y-135969763D02*
X62313254Y-135826906D01*
X62313254Y-135826906D02*
X62408492Y-135731668D01*
X62408492Y-135731668D02*
X62503730Y-135684049D01*
X62503730Y-135684049D02*
X62694206Y-135636430D01*
X62694206Y-135636430D02*
X62837063Y-135636430D01*
X62837063Y-135636430D02*
X63027539Y-135684049D01*
X63027539Y-135684049D02*
X63122777Y-135731668D01*
X63122777Y-135731668D02*
X63218016Y-135826906D01*
X63218016Y-135826906D02*
X63265635Y-135969763D01*
X63265635Y-135969763D02*
X63265635Y-136065001D01*
X63265635Y-136065001D02*
X63218016Y-136207858D01*
X63218016Y-136207858D02*
X63170396Y-136255477D01*
X63170396Y-136255477D02*
X62837063Y-136255477D01*
X62837063Y-136255477D02*
X62837063Y-136065001D01*
X62313254Y-137207858D02*
X62265635Y-137112620D01*
X62265635Y-137112620D02*
X62265635Y-136969763D01*
X62265635Y-136969763D02*
X62313254Y-136826906D01*
X62313254Y-136826906D02*
X62408492Y-136731668D01*
X62408492Y-136731668D02*
X62503730Y-136684049D01*
X62503730Y-136684049D02*
X62694206Y-136636430D01*
X62694206Y-136636430D02*
X62837063Y-136636430D01*
X62837063Y-136636430D02*
X63027539Y-136684049D01*
X63027539Y-136684049D02*
X63122777Y-136731668D01*
X63122777Y-136731668D02*
X63218016Y-136826906D01*
X63218016Y-136826906D02*
X63265635Y-136969763D01*
X63265635Y-136969763D02*
X63265635Y-137065001D01*
X63265635Y-137065001D02*
X63218016Y-137207858D01*
X63218016Y-137207858D02*
X63170396Y-137255477D01*
X63170396Y-137255477D02*
X62837063Y-137255477D01*
X62837063Y-137255477D02*
X62837063Y-137065001D01*
X63265635Y-137684049D02*
X62265635Y-137684049D01*
X62265635Y-137684049D02*
X63265635Y-138255477D01*
X63265635Y-138255477D02*
X62265635Y-138255477D01*
X63265635Y-138731668D02*
X62265635Y-138731668D01*
X62265635Y-138731668D02*
X62265635Y-138969763D01*
X62265635Y-138969763D02*
X62313254Y-139112620D01*
X62313254Y-139112620D02*
X62408492Y-139207858D01*
X62408492Y-139207858D02*
X62503730Y-139255477D01*
X62503730Y-139255477D02*
X62694206Y-139303096D01*
X62694206Y-139303096D02*
X62837063Y-139303096D01*
X62837063Y-139303096D02*
X63027539Y-139255477D01*
X63027539Y-139255477D02*
X63122777Y-139207858D01*
X63122777Y-139207858D02*
X63218016Y-139112620D01*
X63218016Y-139112620D02*
X63265635Y-138969763D01*
X63265635Y-138969763D02*
X63265635Y-138731668D01*
X62360873Y-139684049D02*
X62313254Y-139731668D01*
X62313254Y-139731668D02*
X62265635Y-139826906D01*
X62265635Y-139826906D02*
X62265635Y-140065001D01*
X62265635Y-140065001D02*
X62313254Y-140160239D01*
X62313254Y-140160239D02*
X62360873Y-140207858D01*
X62360873Y-140207858D02*
X62456111Y-140255477D01*
X62456111Y-140255477D02*
X62551349Y-140255477D01*
X62551349Y-140255477D02*
X62694206Y-140207858D01*
X62694206Y-140207858D02*
X63265635Y-139636430D01*
X63265635Y-139636430D02*
X63265635Y-140255477D01*
X63057200Y-50012620D02*
X63104819Y-50155477D01*
X63104819Y-50155477D02*
X63104819Y-50393572D01*
X63104819Y-50393572D02*
X63057200Y-50488810D01*
X63057200Y-50488810D02*
X63009580Y-50536429D01*
X63009580Y-50536429D02*
X62914342Y-50584048D01*
X62914342Y-50584048D02*
X62819104Y-50584048D01*
X62819104Y-50584048D02*
X62723866Y-50536429D01*
X62723866Y-50536429D02*
X62676247Y-50488810D01*
X62676247Y-50488810D02*
X62628628Y-50393572D01*
X62628628Y-50393572D02*
X62581009Y-50203096D01*
X62581009Y-50203096D02*
X62533390Y-50107858D01*
X62533390Y-50107858D02*
X62485771Y-50060239D01*
X62485771Y-50060239D02*
X62390533Y-50012620D01*
X62390533Y-50012620D02*
X62295295Y-50012620D01*
X62295295Y-50012620D02*
X62200057Y-50060239D01*
X62200057Y-50060239D02*
X62152438Y-50107858D01*
X62152438Y-50107858D02*
X62104819Y-50203096D01*
X62104819Y-50203096D02*
X62104819Y-50441191D01*
X62104819Y-50441191D02*
X62152438Y-50584048D01*
X62104819Y-50869763D02*
X62104819Y-51441191D01*
X63104819Y-51155477D02*
X62104819Y-51155477D01*
X62581009Y-51774525D02*
X62581009Y-52107858D01*
X63104819Y-52250715D02*
X63104819Y-51774525D01*
X63104819Y-51774525D02*
X62104819Y-51774525D01*
X62104819Y-51774525D02*
X62104819Y-52250715D01*
X63104819Y-52679287D02*
X62104819Y-52679287D01*
X62104819Y-52679287D02*
X62104819Y-53060239D01*
X62104819Y-53060239D02*
X62152438Y-53155477D01*
X62152438Y-53155477D02*
X62200057Y-53203096D01*
X62200057Y-53203096D02*
X62295295Y-53250715D01*
X62295295Y-53250715D02*
X62438152Y-53250715D01*
X62438152Y-53250715D02*
X62533390Y-53203096D01*
X62533390Y-53203096D02*
X62581009Y-53155477D01*
X62581009Y-53155477D02*
X62628628Y-53060239D01*
X62628628Y-53060239D02*
X62628628Y-52679287D01*
X63057200Y-53631668D02*
X63104819Y-53774525D01*
X63104819Y-53774525D02*
X63104819Y-54012620D01*
X63104819Y-54012620D02*
X63057200Y-54107858D01*
X63057200Y-54107858D02*
X63009580Y-54155477D01*
X63009580Y-54155477D02*
X62914342Y-54203096D01*
X62914342Y-54203096D02*
X62819104Y-54203096D01*
X62819104Y-54203096D02*
X62723866Y-54155477D01*
X62723866Y-54155477D02*
X62676247Y-54107858D01*
X62676247Y-54107858D02*
X62628628Y-54012620D01*
X62628628Y-54012620D02*
X62581009Y-53822144D01*
X62581009Y-53822144D02*
X62533390Y-53726906D01*
X62533390Y-53726906D02*
X62485771Y-53679287D01*
X62485771Y-53679287D02*
X62390533Y-53631668D01*
X62390533Y-53631668D02*
X62295295Y-53631668D01*
X62295295Y-53631668D02*
X62200057Y-53679287D01*
X62200057Y-53679287D02*
X62152438Y-53726906D01*
X62152438Y-53726906D02*
X62104819Y-53822144D01*
X62104819Y-53822144D02*
X62104819Y-54060239D01*
X62104819Y-54060239D02*
X62152438Y-54203096D01*
X63104819Y-54631668D02*
X62104819Y-54631668D01*
X62152438Y-55631667D02*
X62104819Y-55536429D01*
X62104819Y-55536429D02*
X62104819Y-55393572D01*
X62104819Y-55393572D02*
X62152438Y-55250715D01*
X62152438Y-55250715D02*
X62247676Y-55155477D01*
X62247676Y-55155477D02*
X62342914Y-55107858D01*
X62342914Y-55107858D02*
X62533390Y-55060239D01*
X62533390Y-55060239D02*
X62676247Y-55060239D01*
X62676247Y-55060239D02*
X62866723Y-55107858D01*
X62866723Y-55107858D02*
X62961961Y-55155477D01*
X62961961Y-55155477D02*
X63057200Y-55250715D01*
X63057200Y-55250715D02*
X63104819Y-55393572D01*
X63104819Y-55393572D02*
X63104819Y-55488810D01*
X63104819Y-55488810D02*
X63057200Y-55631667D01*
X63057200Y-55631667D02*
X63009580Y-55679286D01*
X63009580Y-55679286D02*
X62676247Y-55679286D01*
X62676247Y-55679286D02*
X62676247Y-55488810D01*
X63104819Y-56631667D02*
X63104819Y-56060239D01*
X63104819Y-56345953D02*
X62104819Y-56345953D01*
X62104819Y-56345953D02*
X62247676Y-56250715D01*
X62247676Y-56250715D02*
X62342914Y-56155477D01*
X62342914Y-56155477D02*
X62390533Y-56060239D01*
X156354819Y-63726906D02*
X156354819Y-64298334D01*
X157354819Y-64012620D02*
X156354819Y-64012620D01*
X157354819Y-65107858D02*
X157354819Y-64631668D01*
X157354819Y-64631668D02*
X156354819Y-64631668D01*
X156450057Y-65393573D02*
X156402438Y-65441192D01*
X156402438Y-65441192D02*
X156354819Y-65536430D01*
X156354819Y-65536430D02*
X156354819Y-65774525D01*
X156354819Y-65774525D02*
X156402438Y-65869763D01*
X156402438Y-65869763D02*
X156450057Y-65917382D01*
X156450057Y-65917382D02*
X156545295Y-65965001D01*
X156545295Y-65965001D02*
X156640533Y-65965001D01*
X156640533Y-65965001D02*
X156783390Y-65917382D01*
X156783390Y-65917382D02*
X157354819Y-65345954D01*
X157354819Y-65345954D02*
X157354819Y-65965001D01*
X156354819Y-66869763D02*
X156354819Y-66393573D01*
X156354819Y-66393573D02*
X156831009Y-66345954D01*
X156831009Y-66345954D02*
X156783390Y-66393573D01*
X156783390Y-66393573D02*
X156735771Y-66488811D01*
X156735771Y-66488811D02*
X156735771Y-66726906D01*
X156735771Y-66726906D02*
X156783390Y-66822144D01*
X156783390Y-66822144D02*
X156831009Y-66869763D01*
X156831009Y-66869763D02*
X156926247Y-66917382D01*
X156926247Y-66917382D02*
X157164342Y-66917382D01*
X157164342Y-66917382D02*
X157259580Y-66869763D01*
X157259580Y-66869763D02*
X157307200Y-66822144D01*
X157307200Y-66822144D02*
X157354819Y-66726906D01*
X157354819Y-66726906D02*
X157354819Y-66488811D01*
X157354819Y-66488811D02*
X157307200Y-66393573D01*
X157307200Y-66393573D02*
X157259580Y-66345954D01*
X156354819Y-67250716D02*
X156354819Y-67917382D01*
X156354819Y-67917382D02*
X157354819Y-67488811D01*
X156354819Y-68774525D02*
X156354819Y-68298335D01*
X156354819Y-68298335D02*
X156831009Y-68250716D01*
X156831009Y-68250716D02*
X156783390Y-68298335D01*
X156783390Y-68298335D02*
X156735771Y-68393573D01*
X156735771Y-68393573D02*
X156735771Y-68631668D01*
X156735771Y-68631668D02*
X156783390Y-68726906D01*
X156783390Y-68726906D02*
X156831009Y-68774525D01*
X156831009Y-68774525D02*
X156926247Y-68822144D01*
X156926247Y-68822144D02*
X157164342Y-68822144D01*
X157164342Y-68822144D02*
X157259580Y-68774525D01*
X157259580Y-68774525D02*
X157307200Y-68726906D01*
X157307200Y-68726906D02*
X157354819Y-68631668D01*
X157354819Y-68631668D02*
X157354819Y-68393573D01*
X157354819Y-68393573D02*
X157307200Y-68298335D01*
X157307200Y-68298335D02*
X157259580Y-68250716D01*
X63318016Y-142663096D02*
X63365635Y-142805953D01*
X63365635Y-142805953D02*
X63365635Y-143044048D01*
X63365635Y-143044048D02*
X63318016Y-143139286D01*
X63318016Y-143139286D02*
X63270396Y-143186905D01*
X63270396Y-143186905D02*
X63175158Y-143234524D01*
X63175158Y-143234524D02*
X63079920Y-143234524D01*
X63079920Y-143234524D02*
X62984682Y-143186905D01*
X62984682Y-143186905D02*
X62937063Y-143139286D01*
X62937063Y-143139286D02*
X62889444Y-143044048D01*
X62889444Y-143044048D02*
X62841825Y-142853572D01*
X62841825Y-142853572D02*
X62794206Y-142758334D01*
X62794206Y-142758334D02*
X62746587Y-142710715D01*
X62746587Y-142710715D02*
X62651349Y-142663096D01*
X62651349Y-142663096D02*
X62556111Y-142663096D01*
X62556111Y-142663096D02*
X62460873Y-142710715D01*
X62460873Y-142710715D02*
X62413254Y-142758334D01*
X62413254Y-142758334D02*
X62365635Y-142853572D01*
X62365635Y-142853572D02*
X62365635Y-143091667D01*
X62365635Y-143091667D02*
X62413254Y-143234524D01*
X62365635Y-143520239D02*
X62365635Y-144091667D01*
X63365635Y-143805953D02*
X62365635Y-143805953D01*
X62841825Y-144425001D02*
X62841825Y-144758334D01*
X63365635Y-144901191D02*
X63365635Y-144425001D01*
X63365635Y-144425001D02*
X62365635Y-144425001D01*
X62365635Y-144425001D02*
X62365635Y-144901191D01*
X63365635Y-145329763D02*
X62365635Y-145329763D01*
X62365635Y-145329763D02*
X62365635Y-145710715D01*
X62365635Y-145710715D02*
X62413254Y-145805953D01*
X62413254Y-145805953D02*
X62460873Y-145853572D01*
X62460873Y-145853572D02*
X62556111Y-145901191D01*
X62556111Y-145901191D02*
X62698968Y-145901191D01*
X62698968Y-145901191D02*
X62794206Y-145853572D01*
X62794206Y-145853572D02*
X62841825Y-145805953D01*
X62841825Y-145805953D02*
X62889444Y-145710715D01*
X62889444Y-145710715D02*
X62889444Y-145329763D01*
X62413254Y-146853572D02*
X62365635Y-146758334D01*
X62365635Y-146758334D02*
X62365635Y-146615477D01*
X62365635Y-146615477D02*
X62413254Y-146472620D01*
X62413254Y-146472620D02*
X62508492Y-146377382D01*
X62508492Y-146377382D02*
X62603730Y-146329763D01*
X62603730Y-146329763D02*
X62794206Y-146282144D01*
X62794206Y-146282144D02*
X62937063Y-146282144D01*
X62937063Y-146282144D02*
X63127539Y-146329763D01*
X63127539Y-146329763D02*
X63222777Y-146377382D01*
X63222777Y-146377382D02*
X63318016Y-146472620D01*
X63318016Y-146472620D02*
X63365635Y-146615477D01*
X63365635Y-146615477D02*
X63365635Y-146710715D01*
X63365635Y-146710715D02*
X63318016Y-146853572D01*
X63318016Y-146853572D02*
X63270396Y-146901191D01*
X63270396Y-146901191D02*
X62937063Y-146901191D01*
X62937063Y-146901191D02*
X62937063Y-146710715D01*
X63365635Y-147329763D02*
X62365635Y-147329763D01*
X62365635Y-147329763D02*
X63365635Y-147901191D01*
X63365635Y-147901191D02*
X62365635Y-147901191D01*
X63365635Y-148377382D02*
X62365635Y-148377382D01*
X62365635Y-148377382D02*
X62365635Y-148615477D01*
X62365635Y-148615477D02*
X62413254Y-148758334D01*
X62413254Y-148758334D02*
X62508492Y-148853572D01*
X62508492Y-148853572D02*
X62603730Y-148901191D01*
X62603730Y-148901191D02*
X62794206Y-148948810D01*
X62794206Y-148948810D02*
X62937063Y-148948810D01*
X62937063Y-148948810D02*
X63127539Y-148901191D01*
X63127539Y-148901191D02*
X63222777Y-148853572D01*
X63222777Y-148853572D02*
X63318016Y-148758334D01*
X63318016Y-148758334D02*
X63365635Y-148615477D01*
X63365635Y-148615477D02*
X63365635Y-148377382D01*
X63365635Y-149901191D02*
X63365635Y-149329763D01*
X63365635Y-149615477D02*
X62365635Y-149615477D01*
X62365635Y-149615477D02*
X62508492Y-149520239D01*
X62508492Y-149520239D02*
X62603730Y-149425001D01*
X62603730Y-149425001D02*
X62651349Y-149329763D01*
X63218016Y-112838811D02*
X63265635Y-112981668D01*
X63265635Y-112981668D02*
X63265635Y-113219763D01*
X63265635Y-113219763D02*
X63218016Y-113315001D01*
X63218016Y-113315001D02*
X63170396Y-113362620D01*
X63170396Y-113362620D02*
X63075158Y-113410239D01*
X63075158Y-113410239D02*
X62979920Y-113410239D01*
X62979920Y-113410239D02*
X62884682Y-113362620D01*
X62884682Y-113362620D02*
X62837063Y-113315001D01*
X62837063Y-113315001D02*
X62789444Y-113219763D01*
X62789444Y-113219763D02*
X62741825Y-113029287D01*
X62741825Y-113029287D02*
X62694206Y-112934049D01*
X62694206Y-112934049D02*
X62646587Y-112886430D01*
X62646587Y-112886430D02*
X62551349Y-112838811D01*
X62551349Y-112838811D02*
X62456111Y-112838811D01*
X62456111Y-112838811D02*
X62360873Y-112886430D01*
X62360873Y-112886430D02*
X62313254Y-112934049D01*
X62313254Y-112934049D02*
X62265635Y-113029287D01*
X62265635Y-113029287D02*
X62265635Y-113267382D01*
X62265635Y-113267382D02*
X62313254Y-113410239D01*
X62265635Y-113695954D02*
X62265635Y-114267382D01*
X63265635Y-113981668D02*
X62265635Y-113981668D01*
X62741825Y-114600716D02*
X62741825Y-114934049D01*
X63265635Y-115076906D02*
X63265635Y-114600716D01*
X63265635Y-114600716D02*
X62265635Y-114600716D01*
X62265635Y-114600716D02*
X62265635Y-115076906D01*
X63265635Y-115505478D02*
X62265635Y-115505478D01*
X62265635Y-115505478D02*
X62265635Y-115886430D01*
X62265635Y-115886430D02*
X62313254Y-115981668D01*
X62313254Y-115981668D02*
X62360873Y-116029287D01*
X62360873Y-116029287D02*
X62456111Y-116076906D01*
X62456111Y-116076906D02*
X62598968Y-116076906D01*
X62598968Y-116076906D02*
X62694206Y-116029287D01*
X62694206Y-116029287D02*
X62741825Y-115981668D01*
X62741825Y-115981668D02*
X62789444Y-115886430D01*
X62789444Y-115886430D02*
X62789444Y-115505478D01*
X63218016Y-116457859D02*
X63265635Y-116600716D01*
X63265635Y-116600716D02*
X63265635Y-116838811D01*
X63265635Y-116838811D02*
X63218016Y-116934049D01*
X63218016Y-116934049D02*
X63170396Y-116981668D01*
X63170396Y-116981668D02*
X63075158Y-117029287D01*
X63075158Y-117029287D02*
X62979920Y-117029287D01*
X62979920Y-117029287D02*
X62884682Y-116981668D01*
X62884682Y-116981668D02*
X62837063Y-116934049D01*
X62837063Y-116934049D02*
X62789444Y-116838811D01*
X62789444Y-116838811D02*
X62741825Y-116648335D01*
X62741825Y-116648335D02*
X62694206Y-116553097D01*
X62694206Y-116553097D02*
X62646587Y-116505478D01*
X62646587Y-116505478D02*
X62551349Y-116457859D01*
X62551349Y-116457859D02*
X62456111Y-116457859D01*
X62456111Y-116457859D02*
X62360873Y-116505478D01*
X62360873Y-116505478D02*
X62313254Y-116553097D01*
X62313254Y-116553097D02*
X62265635Y-116648335D01*
X62265635Y-116648335D02*
X62265635Y-116886430D01*
X62265635Y-116886430D02*
X62313254Y-117029287D01*
X63265635Y-117457859D02*
X62265635Y-117457859D01*
X62313254Y-118457858D02*
X62265635Y-118362620D01*
X62265635Y-118362620D02*
X62265635Y-118219763D01*
X62265635Y-118219763D02*
X62313254Y-118076906D01*
X62313254Y-118076906D02*
X62408492Y-117981668D01*
X62408492Y-117981668D02*
X62503730Y-117934049D01*
X62503730Y-117934049D02*
X62694206Y-117886430D01*
X62694206Y-117886430D02*
X62837063Y-117886430D01*
X62837063Y-117886430D02*
X63027539Y-117934049D01*
X63027539Y-117934049D02*
X63122777Y-117981668D01*
X63122777Y-117981668D02*
X63218016Y-118076906D01*
X63218016Y-118076906D02*
X63265635Y-118219763D01*
X63265635Y-118219763D02*
X63265635Y-118315001D01*
X63265635Y-118315001D02*
X63218016Y-118457858D01*
X63218016Y-118457858D02*
X63170396Y-118505477D01*
X63170396Y-118505477D02*
X62837063Y-118505477D01*
X62837063Y-118505477D02*
X62837063Y-118315001D01*
X62313254Y-119457858D02*
X62265635Y-119362620D01*
X62265635Y-119362620D02*
X62265635Y-119219763D01*
X62265635Y-119219763D02*
X62313254Y-119076906D01*
X62313254Y-119076906D02*
X62408492Y-118981668D01*
X62408492Y-118981668D02*
X62503730Y-118934049D01*
X62503730Y-118934049D02*
X62694206Y-118886430D01*
X62694206Y-118886430D02*
X62837063Y-118886430D01*
X62837063Y-118886430D02*
X63027539Y-118934049D01*
X63027539Y-118934049D02*
X63122777Y-118981668D01*
X63122777Y-118981668D02*
X63218016Y-119076906D01*
X63218016Y-119076906D02*
X63265635Y-119219763D01*
X63265635Y-119219763D02*
X63265635Y-119315001D01*
X63265635Y-119315001D02*
X63218016Y-119457858D01*
X63218016Y-119457858D02*
X63170396Y-119505477D01*
X63170396Y-119505477D02*
X62837063Y-119505477D01*
X62837063Y-119505477D02*
X62837063Y-119315001D01*
X63265635Y-119934049D02*
X62265635Y-119934049D01*
X62265635Y-119934049D02*
X63265635Y-120505477D01*
X63265635Y-120505477D02*
X62265635Y-120505477D01*
X63265635Y-120981668D02*
X62265635Y-120981668D01*
X62265635Y-120981668D02*
X62265635Y-121219763D01*
X62265635Y-121219763D02*
X62313254Y-121362620D01*
X62313254Y-121362620D02*
X62408492Y-121457858D01*
X62408492Y-121457858D02*
X62503730Y-121505477D01*
X62503730Y-121505477D02*
X62694206Y-121553096D01*
X62694206Y-121553096D02*
X62837063Y-121553096D01*
X62837063Y-121553096D02*
X63027539Y-121505477D01*
X63027539Y-121505477D02*
X63122777Y-121457858D01*
X63122777Y-121457858D02*
X63218016Y-121362620D01*
X63218016Y-121362620D02*
X63265635Y-121219763D01*
X63265635Y-121219763D02*
X63265635Y-120981668D01*
X63265635Y-122505477D02*
X63265635Y-121934049D01*
X63265635Y-122219763D02*
X62265635Y-122219763D01*
X62265635Y-122219763D02*
X62408492Y-122124525D01*
X62408492Y-122124525D02*
X62503730Y-122029287D01*
X62503730Y-122029287D02*
X62551349Y-121934049D01*
X143104819Y-93905477D02*
X143104819Y-93429287D01*
X143104819Y-93429287D02*
X142104819Y-93429287D01*
X143104819Y-94762620D02*
X143104819Y-94191192D01*
X143104819Y-94476906D02*
X142104819Y-94476906D01*
X142104819Y-94476906D02*
X142247676Y-94381668D01*
X142247676Y-94381668D02*
X142342914Y-94286430D01*
X142342914Y-94286430D02*
X142390533Y-94191192D01*
X63157200Y-29765477D02*
X63204819Y-29908334D01*
X63204819Y-29908334D02*
X63204819Y-30146429D01*
X63204819Y-30146429D02*
X63157200Y-30241667D01*
X63157200Y-30241667D02*
X63109580Y-30289286D01*
X63109580Y-30289286D02*
X63014342Y-30336905D01*
X63014342Y-30336905D02*
X62919104Y-30336905D01*
X62919104Y-30336905D02*
X62823866Y-30289286D01*
X62823866Y-30289286D02*
X62776247Y-30241667D01*
X62776247Y-30241667D02*
X62728628Y-30146429D01*
X62728628Y-30146429D02*
X62681009Y-29955953D01*
X62681009Y-29955953D02*
X62633390Y-29860715D01*
X62633390Y-29860715D02*
X62585771Y-29813096D01*
X62585771Y-29813096D02*
X62490533Y-29765477D01*
X62490533Y-29765477D02*
X62395295Y-29765477D01*
X62395295Y-29765477D02*
X62300057Y-29813096D01*
X62300057Y-29813096D02*
X62252438Y-29860715D01*
X62252438Y-29860715D02*
X62204819Y-29955953D01*
X62204819Y-29955953D02*
X62204819Y-30194048D01*
X62204819Y-30194048D02*
X62252438Y-30336905D01*
X62204819Y-30622620D02*
X62204819Y-31194048D01*
X63204819Y-30908334D02*
X62204819Y-30908334D01*
X62681009Y-31527382D02*
X62681009Y-31860715D01*
X63204819Y-32003572D02*
X63204819Y-31527382D01*
X63204819Y-31527382D02*
X62204819Y-31527382D01*
X62204819Y-31527382D02*
X62204819Y-32003572D01*
X63204819Y-32432144D02*
X62204819Y-32432144D01*
X62204819Y-32432144D02*
X62204819Y-32813096D01*
X62204819Y-32813096D02*
X62252438Y-32908334D01*
X62252438Y-32908334D02*
X62300057Y-32955953D01*
X62300057Y-32955953D02*
X62395295Y-33003572D01*
X62395295Y-33003572D02*
X62538152Y-33003572D01*
X62538152Y-33003572D02*
X62633390Y-32955953D01*
X62633390Y-32955953D02*
X62681009Y-32908334D01*
X62681009Y-32908334D02*
X62728628Y-32813096D01*
X62728628Y-32813096D02*
X62728628Y-32432144D01*
X63204819Y-33432144D02*
X62204819Y-33432144D01*
X62204819Y-33432144D02*
X62204819Y-33813096D01*
X62204819Y-33813096D02*
X62252438Y-33908334D01*
X62252438Y-33908334D02*
X62300057Y-33955953D01*
X62300057Y-33955953D02*
X62395295Y-34003572D01*
X62395295Y-34003572D02*
X62538152Y-34003572D01*
X62538152Y-34003572D02*
X62633390Y-33955953D01*
X62633390Y-33955953D02*
X62681009Y-33908334D01*
X62681009Y-33908334D02*
X62728628Y-33813096D01*
X62728628Y-33813096D02*
X62728628Y-33432144D01*
X62204819Y-34336906D02*
X63204819Y-34575001D01*
X63204819Y-34575001D02*
X62490533Y-34765477D01*
X62490533Y-34765477D02*
X63204819Y-34955953D01*
X63204819Y-34955953D02*
X62204819Y-35194049D01*
X63204819Y-36146429D02*
X62728628Y-35813096D01*
X63204819Y-35575001D02*
X62204819Y-35575001D01*
X62204819Y-35575001D02*
X62204819Y-35955953D01*
X62204819Y-35955953D02*
X62252438Y-36051191D01*
X62252438Y-36051191D02*
X62300057Y-36098810D01*
X62300057Y-36098810D02*
X62395295Y-36146429D01*
X62395295Y-36146429D02*
X62538152Y-36146429D01*
X62538152Y-36146429D02*
X62633390Y-36098810D01*
X62633390Y-36098810D02*
X62681009Y-36051191D01*
X62681009Y-36051191D02*
X62728628Y-35955953D01*
X62728628Y-35955953D02*
X62728628Y-35575001D01*
X63204819Y-37098810D02*
X63204819Y-36527382D01*
X63204819Y-36813096D02*
X62204819Y-36813096D01*
X62204819Y-36813096D02*
X62347676Y-36717858D01*
X62347676Y-36717858D02*
X62442914Y-36622620D01*
X62442914Y-36622620D02*
X62490533Y-36527382D01*
X167238094Y-86496963D02*
X167238094Y-85496963D01*
X167238094Y-85496963D02*
X166999999Y-85496963D01*
X166999999Y-85496963D02*
X166857142Y-85544582D01*
X166857142Y-85544582D02*
X166761904Y-85639820D01*
X166761904Y-85639820D02*
X166714285Y-85735058D01*
X166714285Y-85735058D02*
X166666666Y-85925534D01*
X166666666Y-85925534D02*
X166666666Y-86068391D01*
X166666666Y-86068391D02*
X166714285Y-86258867D01*
X166714285Y-86258867D02*
X166761904Y-86354105D01*
X166761904Y-86354105D02*
X166857142Y-86449344D01*
X166857142Y-86449344D02*
X166999999Y-86496963D01*
X166999999Y-86496963D02*
X167238094Y-86496963D01*
X165714285Y-86496963D02*
X166285713Y-86496963D01*
X165999999Y-86496963D02*
X165999999Y-85496963D01*
X165999999Y-85496963D02*
X166095237Y-85639820D01*
X166095237Y-85639820D02*
X166190475Y-85735058D01*
X166190475Y-85735058D02*
X166285713Y-85782677D01*
X160411904Y-85376963D02*
X160411904Y-84376963D01*
X159840476Y-85376963D02*
X160269047Y-84805534D01*
X159840476Y-84376963D02*
X160411904Y-84948391D01*
X107974285Y-120121248D02*
X107498095Y-120121248D01*
X108069523Y-120406963D02*
X107736190Y-119406963D01*
X107736190Y-119406963D02*
X107402857Y-120406963D01*
X106545714Y-120406963D02*
X107117142Y-120406963D01*
X106831428Y-120406963D02*
X106831428Y-119406963D01*
X106831428Y-119406963D02*
X106926666Y-119549820D01*
X106926666Y-119549820D02*
X107021904Y-119645058D01*
X107021904Y-119645058D02*
X107117142Y-119692677D01*
X105998095Y-79857324D02*
X105998095Y-79047801D01*
X105998095Y-79047801D02*
X106045714Y-78952563D01*
X106045714Y-78952563D02*
X106093333Y-78904944D01*
X106093333Y-78904944D02*
X106188571Y-78857324D01*
X106188571Y-78857324D02*
X106379047Y-78857324D01*
X106379047Y-78857324D02*
X106474285Y-78904944D01*
X106474285Y-78904944D02*
X106521904Y-78952563D01*
X106521904Y-78952563D02*
X106569523Y-79047801D01*
X106569523Y-79047801D02*
X106569523Y-79857324D01*
X106998095Y-78904944D02*
X107140952Y-78857324D01*
X107140952Y-78857324D02*
X107379047Y-78857324D01*
X107379047Y-78857324D02*
X107474285Y-78904944D01*
X107474285Y-78904944D02*
X107521904Y-78952563D01*
X107521904Y-78952563D02*
X107569523Y-79047801D01*
X107569523Y-79047801D02*
X107569523Y-79143039D01*
X107569523Y-79143039D02*
X107521904Y-79238277D01*
X107521904Y-79238277D02*
X107474285Y-79285896D01*
X107474285Y-79285896D02*
X107379047Y-79333515D01*
X107379047Y-79333515D02*
X107188571Y-79381134D01*
X107188571Y-79381134D02*
X107093333Y-79428753D01*
X107093333Y-79428753D02*
X107045714Y-79476372D01*
X107045714Y-79476372D02*
X106998095Y-79571610D01*
X106998095Y-79571610D02*
X106998095Y-79666848D01*
X106998095Y-79666848D02*
X107045714Y-79762086D01*
X107045714Y-79762086D02*
X107093333Y-79809705D01*
X107093333Y-79809705D02*
X107188571Y-79857324D01*
X107188571Y-79857324D02*
X107426666Y-79857324D01*
X107426666Y-79857324D02*
X107569523Y-79809705D01*
X108331428Y-79381134D02*
X108474285Y-79333515D01*
X108474285Y-79333515D02*
X108521904Y-79285896D01*
X108521904Y-79285896D02*
X108569523Y-79190658D01*
X108569523Y-79190658D02*
X108569523Y-79047801D01*
X108569523Y-79047801D02*
X108521904Y-78952563D01*
X108521904Y-78952563D02*
X108474285Y-78904944D01*
X108474285Y-78904944D02*
X108379047Y-78857324D01*
X108379047Y-78857324D02*
X107998095Y-78857324D01*
X107998095Y-78857324D02*
X107998095Y-79857324D01*
X107998095Y-79857324D02*
X108331428Y-79857324D01*
X108331428Y-79857324D02*
X108426666Y-79809705D01*
X108426666Y-79809705D02*
X108474285Y-79762086D01*
X108474285Y-79762086D02*
X108521904Y-79666848D01*
X108521904Y-79666848D02*
X108521904Y-79571610D01*
X108521904Y-79571610D02*
X108474285Y-79476372D01*
X108474285Y-79476372D02*
X108426666Y-79428753D01*
X108426666Y-79428753D02*
X108331428Y-79381134D01*
X108331428Y-79381134D02*
X107998095Y-79381134D01*
X126347618Y-83516963D02*
X126347618Y-84231248D01*
X126347618Y-84231248D02*
X126395237Y-84374105D01*
X126395237Y-84374105D02*
X126490475Y-84469344D01*
X126490475Y-84469344D02*
X126633332Y-84516963D01*
X126633332Y-84516963D02*
X126728570Y-84516963D01*
X125680951Y-83516963D02*
X125490475Y-83516963D01*
X125490475Y-83516963D02*
X125395237Y-83564582D01*
X125395237Y-83564582D02*
X125299999Y-83659820D01*
X125299999Y-83659820D02*
X125252380Y-83850296D01*
X125252380Y-83850296D02*
X125252380Y-84183629D01*
X125252380Y-84183629D02*
X125299999Y-84374105D01*
X125299999Y-84374105D02*
X125395237Y-84469344D01*
X125395237Y-84469344D02*
X125490475Y-84516963D01*
X125490475Y-84516963D02*
X125680951Y-84516963D01*
X125680951Y-84516963D02*
X125776189Y-84469344D01*
X125776189Y-84469344D02*
X125871427Y-84374105D01*
X125871427Y-84374105D02*
X125919046Y-84183629D01*
X125919046Y-84183629D02*
X125919046Y-83850296D01*
X125919046Y-83850296D02*
X125871427Y-83659820D01*
X125871427Y-83659820D02*
X125776189Y-83564582D01*
X125776189Y-83564582D02*
X125680951Y-83516963D01*
X124633332Y-84040772D02*
X124633332Y-84516963D01*
X124966665Y-83516963D02*
X124633332Y-84040772D01*
X124633332Y-84040772D02*
X124299999Y-83516963D01*
X123966665Y-84516963D02*
X123966665Y-83516963D01*
X123490475Y-84516963D02*
X123490475Y-83516963D01*
X123490475Y-83516963D02*
X122919047Y-84516963D01*
X122919047Y-84516963D02*
X122919047Y-83516963D01*
X121919047Y-84516963D02*
X122490475Y-84516963D01*
X122204761Y-84516963D02*
X122204761Y-83516963D01*
X122204761Y-83516963D02*
X122299999Y-83659820D01*
X122299999Y-83659820D02*
X122395237Y-83755058D01*
X122395237Y-83755058D02*
X122490475Y-83802677D01*
X142804819Y-115405477D02*
X142804819Y-114929287D01*
X142804819Y-114929287D02*
X141804819Y-114929287D01*
X141900057Y-115691192D02*
X141852438Y-115738811D01*
X141852438Y-115738811D02*
X141804819Y-115834049D01*
X141804819Y-115834049D02*
X141804819Y-116072144D01*
X141804819Y-116072144D02*
X141852438Y-116167382D01*
X141852438Y-116167382D02*
X141900057Y-116215001D01*
X141900057Y-116215001D02*
X141995295Y-116262620D01*
X141995295Y-116262620D02*
X142090533Y-116262620D01*
X142090533Y-116262620D02*
X142233390Y-116215001D01*
X142233390Y-116215001D02*
X142804819Y-115643573D01*
X142804819Y-115643573D02*
X142804819Y-116262620D01*
X163259580Y-62905477D02*
X163307200Y-62857858D01*
X163307200Y-62857858D02*
X163354819Y-62715001D01*
X163354819Y-62715001D02*
X163354819Y-62619763D01*
X163354819Y-62619763D02*
X163307200Y-62476906D01*
X163307200Y-62476906D02*
X163211961Y-62381668D01*
X163211961Y-62381668D02*
X163116723Y-62334049D01*
X163116723Y-62334049D02*
X162926247Y-62286430D01*
X162926247Y-62286430D02*
X162783390Y-62286430D01*
X162783390Y-62286430D02*
X162592914Y-62334049D01*
X162592914Y-62334049D02*
X162497676Y-62381668D01*
X162497676Y-62381668D02*
X162402438Y-62476906D01*
X162402438Y-62476906D02*
X162354819Y-62619763D01*
X162354819Y-62619763D02*
X162354819Y-62715001D01*
X162354819Y-62715001D02*
X162402438Y-62857858D01*
X162402438Y-62857858D02*
X162450057Y-62905477D01*
X163354819Y-63857858D02*
X163354819Y-63286430D01*
X163354819Y-63572144D02*
X162354819Y-63572144D01*
X162354819Y-63572144D02*
X162497676Y-63476906D01*
X162497676Y-63476906D02*
X162592914Y-63381668D01*
X162592914Y-63381668D02*
X162640533Y-63286430D01*
X63057200Y-67762620D02*
X63104819Y-67905477D01*
X63104819Y-67905477D02*
X63104819Y-68143572D01*
X63104819Y-68143572D02*
X63057200Y-68238810D01*
X63057200Y-68238810D02*
X63009580Y-68286429D01*
X63009580Y-68286429D02*
X62914342Y-68334048D01*
X62914342Y-68334048D02*
X62819104Y-68334048D01*
X62819104Y-68334048D02*
X62723866Y-68286429D01*
X62723866Y-68286429D02*
X62676247Y-68238810D01*
X62676247Y-68238810D02*
X62628628Y-68143572D01*
X62628628Y-68143572D02*
X62581009Y-67953096D01*
X62581009Y-67953096D02*
X62533390Y-67857858D01*
X62533390Y-67857858D02*
X62485771Y-67810239D01*
X62485771Y-67810239D02*
X62390533Y-67762620D01*
X62390533Y-67762620D02*
X62295295Y-67762620D01*
X62295295Y-67762620D02*
X62200057Y-67810239D01*
X62200057Y-67810239D02*
X62152438Y-67857858D01*
X62152438Y-67857858D02*
X62104819Y-67953096D01*
X62104819Y-67953096D02*
X62104819Y-68191191D01*
X62104819Y-68191191D02*
X62152438Y-68334048D01*
X62104819Y-68619763D02*
X62104819Y-69191191D01*
X63104819Y-68905477D02*
X62104819Y-68905477D01*
X62581009Y-69524525D02*
X62581009Y-69857858D01*
X63104819Y-70000715D02*
X63104819Y-69524525D01*
X63104819Y-69524525D02*
X62104819Y-69524525D01*
X62104819Y-69524525D02*
X62104819Y-70000715D01*
X63104819Y-70429287D02*
X62104819Y-70429287D01*
X62104819Y-70429287D02*
X62104819Y-70810239D01*
X62104819Y-70810239D02*
X62152438Y-70905477D01*
X62152438Y-70905477D02*
X62200057Y-70953096D01*
X62200057Y-70953096D02*
X62295295Y-71000715D01*
X62295295Y-71000715D02*
X62438152Y-71000715D01*
X62438152Y-71000715D02*
X62533390Y-70953096D01*
X62533390Y-70953096D02*
X62581009Y-70905477D01*
X62581009Y-70905477D02*
X62628628Y-70810239D01*
X62628628Y-70810239D02*
X62628628Y-70429287D01*
X63057200Y-71381668D02*
X63104819Y-71524525D01*
X63104819Y-71524525D02*
X63104819Y-71762620D01*
X63104819Y-71762620D02*
X63057200Y-71857858D01*
X63057200Y-71857858D02*
X63009580Y-71905477D01*
X63009580Y-71905477D02*
X62914342Y-71953096D01*
X62914342Y-71953096D02*
X62819104Y-71953096D01*
X62819104Y-71953096D02*
X62723866Y-71905477D01*
X62723866Y-71905477D02*
X62676247Y-71857858D01*
X62676247Y-71857858D02*
X62628628Y-71762620D01*
X62628628Y-71762620D02*
X62581009Y-71572144D01*
X62581009Y-71572144D02*
X62533390Y-71476906D01*
X62533390Y-71476906D02*
X62485771Y-71429287D01*
X62485771Y-71429287D02*
X62390533Y-71381668D01*
X62390533Y-71381668D02*
X62295295Y-71381668D01*
X62295295Y-71381668D02*
X62200057Y-71429287D01*
X62200057Y-71429287D02*
X62152438Y-71476906D01*
X62152438Y-71476906D02*
X62104819Y-71572144D01*
X62104819Y-71572144D02*
X62104819Y-71810239D01*
X62104819Y-71810239D02*
X62152438Y-71953096D01*
X63104819Y-72381668D02*
X62104819Y-72381668D01*
X62152438Y-73381667D02*
X62104819Y-73286429D01*
X62104819Y-73286429D02*
X62104819Y-73143572D01*
X62104819Y-73143572D02*
X62152438Y-73000715D01*
X62152438Y-73000715D02*
X62247676Y-72905477D01*
X62247676Y-72905477D02*
X62342914Y-72857858D01*
X62342914Y-72857858D02*
X62533390Y-72810239D01*
X62533390Y-72810239D02*
X62676247Y-72810239D01*
X62676247Y-72810239D02*
X62866723Y-72857858D01*
X62866723Y-72857858D02*
X62961961Y-72905477D01*
X62961961Y-72905477D02*
X63057200Y-73000715D01*
X63057200Y-73000715D02*
X63104819Y-73143572D01*
X63104819Y-73143572D02*
X63104819Y-73238810D01*
X63104819Y-73238810D02*
X63057200Y-73381667D01*
X63057200Y-73381667D02*
X63009580Y-73429286D01*
X63009580Y-73429286D02*
X62676247Y-73429286D01*
X62676247Y-73429286D02*
X62676247Y-73238810D01*
X62200057Y-73810239D02*
X62152438Y-73857858D01*
X62152438Y-73857858D02*
X62104819Y-73953096D01*
X62104819Y-73953096D02*
X62104819Y-74191191D01*
X62104819Y-74191191D02*
X62152438Y-74286429D01*
X62152438Y-74286429D02*
X62200057Y-74334048D01*
X62200057Y-74334048D02*
X62295295Y-74381667D01*
X62295295Y-74381667D02*
X62390533Y-74381667D01*
X62390533Y-74381667D02*
X62533390Y-74334048D01*
X62533390Y-74334048D02*
X63104819Y-73762620D01*
X63104819Y-73762620D02*
X63104819Y-74381667D01*
X98954819Y-136706666D02*
X99669104Y-136706666D01*
X99669104Y-136706666D02*
X99811961Y-136659047D01*
X99811961Y-136659047D02*
X99907200Y-136563809D01*
X99907200Y-136563809D02*
X99954819Y-136420952D01*
X99954819Y-136420952D02*
X99954819Y-136325714D01*
X98954819Y-137087619D02*
X98954819Y-137706666D01*
X98954819Y-137706666D02*
X99335771Y-137373333D01*
X99335771Y-137373333D02*
X99335771Y-137516190D01*
X99335771Y-137516190D02*
X99383390Y-137611428D01*
X99383390Y-137611428D02*
X99431009Y-137659047D01*
X99431009Y-137659047D02*
X99526247Y-137706666D01*
X99526247Y-137706666D02*
X99764342Y-137706666D01*
X99764342Y-137706666D02*
X99859580Y-137659047D01*
X99859580Y-137659047D02*
X99907200Y-137611428D01*
X99907200Y-137611428D02*
X99954819Y-137516190D01*
X99954819Y-137516190D02*
X99954819Y-137230476D01*
X99954819Y-137230476D02*
X99907200Y-137135238D01*
X99907200Y-137135238D02*
X99859580Y-137087619D01*
X160366666Y-109131724D02*
X160414285Y-109179344D01*
X160414285Y-109179344D02*
X160557142Y-109226963D01*
X160557142Y-109226963D02*
X160652380Y-109226963D01*
X160652380Y-109226963D02*
X160795237Y-109179344D01*
X160795237Y-109179344D02*
X160890475Y-109084105D01*
X160890475Y-109084105D02*
X160938094Y-108988867D01*
X160938094Y-108988867D02*
X160985713Y-108798391D01*
X160985713Y-108798391D02*
X160985713Y-108655534D01*
X160985713Y-108655534D02*
X160938094Y-108465058D01*
X160938094Y-108465058D02*
X160890475Y-108369820D01*
X160890475Y-108369820D02*
X160795237Y-108274582D01*
X160795237Y-108274582D02*
X160652380Y-108226963D01*
X160652380Y-108226963D02*
X160557142Y-108226963D01*
X160557142Y-108226963D02*
X160414285Y-108274582D01*
X160414285Y-108274582D02*
X160366666Y-108322201D01*
X159985713Y-108322201D02*
X159938094Y-108274582D01*
X159938094Y-108274582D02*
X159842856Y-108226963D01*
X159842856Y-108226963D02*
X159604761Y-108226963D01*
X159604761Y-108226963D02*
X159509523Y-108274582D01*
X159509523Y-108274582D02*
X159461904Y-108322201D01*
X159461904Y-108322201D02*
X159414285Y-108417439D01*
X159414285Y-108417439D02*
X159414285Y-108512677D01*
X159414285Y-108512677D02*
X159461904Y-108655534D01*
X159461904Y-108655534D02*
X160033332Y-109226963D01*
X160033332Y-109226963D02*
X159414285Y-109226963D01*
X187901427Y-65016963D02*
X187568094Y-66016963D01*
X187568094Y-66016963D02*
X187234761Y-65016963D01*
X186901427Y-66016963D02*
X186901427Y-65016963D01*
X186425237Y-66016963D02*
X186425237Y-65016963D01*
X186425237Y-65016963D02*
X185853809Y-66016963D01*
X185853809Y-66016963D02*
X185853809Y-65016963D01*
X184853809Y-66016963D02*
X185425237Y-66016963D01*
X185139523Y-66016963D02*
X185139523Y-65016963D01*
X185139523Y-65016963D02*
X185234761Y-65159820D01*
X185234761Y-65159820D02*
X185329999Y-65255058D01*
X185329999Y-65255058D02*
X185425237Y-65302677D01*
D11*
%TO.C,LIMIT2*%
X71660816Y-94107144D02*
X71660816Y-104327144D01*
X69350816Y-103827144D02*
X69350816Y-104327144D01*
X70160816Y-103327144D02*
X71660816Y-103327144D01*
X68140816Y-103827144D02*
X69350816Y-103827144D01*
X69460816Y-93807144D02*
X71960816Y-93807144D01*
X70160816Y-104327144D02*
X70160816Y-103327144D01*
X69350816Y-94607144D02*
X68140816Y-94607144D01*
X71960816Y-93807144D02*
X71960816Y-96307144D01*
X67640816Y-104327144D02*
X67640816Y-94107144D01*
X70160816Y-94107144D02*
X70160816Y-95107144D01*
X70160816Y-95107144D02*
X71660816Y-95107144D01*
X67640816Y-94107144D02*
X71660816Y-94107144D01*
X69350816Y-94107144D02*
X69350816Y-94607144D01*
X71660816Y-104327144D02*
X67640816Y-104327144D01*
X68140816Y-94607144D02*
X68140816Y-103827144D01*
%TO.C,LIMIT1*%
X71500000Y-82007144D02*
X71500000Y-92227144D01*
X69190000Y-91727144D02*
X69190000Y-92227144D01*
X70000000Y-91227144D02*
X71500000Y-91227144D01*
X67980000Y-91727144D02*
X69190000Y-91727144D01*
X69300000Y-81707144D02*
X71800000Y-81707144D01*
X70000000Y-92227144D02*
X70000000Y-91227144D01*
X69190000Y-82507144D02*
X67980000Y-82507144D01*
X71800000Y-81707144D02*
X71800000Y-84207144D01*
X67480000Y-92227144D02*
X67480000Y-82007144D01*
X70000000Y-82007144D02*
X70000000Y-83007144D01*
X70000000Y-83007144D02*
X71500000Y-83007144D01*
X67480000Y-82007144D02*
X71500000Y-82007144D01*
X69190000Y-82007144D02*
X69190000Y-82507144D01*
X71500000Y-92227144D02*
X67480000Y-92227144D01*
X67980000Y-82507144D02*
X67980000Y-91727144D01*
%TO.C,J5*%
X125410000Y-142910000D02*
X121390000Y-142910000D01*
X125410000Y-130190000D02*
X125410000Y-142910000D01*
X122890000Y-130190000D02*
X122890000Y-131190000D01*
X124910000Y-130690000D02*
X123700000Y-130690000D01*
X122890000Y-142910000D02*
X122890000Y-141910000D01*
X123700000Y-142410000D02*
X124910000Y-142410000D01*
X122890000Y-131190000D02*
X121390000Y-131190000D01*
X123700000Y-130690000D02*
X123700000Y-130190000D01*
X124910000Y-142410000D02*
X124910000Y-130690000D01*
X122890000Y-141910000D02*
X121390000Y-141910000D01*
X121390000Y-130190000D02*
X125410000Y-130190000D01*
X123700000Y-142910000D02*
X123700000Y-142410000D01*
X123590000Y-143210000D02*
X121090000Y-143210000D01*
X121390000Y-142910000D02*
X121390000Y-130190000D01*
X121090000Y-143210000D02*
X121090000Y-140710000D01*
%TO.C,J4*%
X124910000Y-165160000D02*
X120890000Y-165160000D01*
X124910000Y-152440000D02*
X124910000Y-165160000D01*
X122390000Y-152440000D02*
X122390000Y-153440000D01*
X124410000Y-152940000D02*
X123200000Y-152940000D01*
X122390000Y-165160000D02*
X122390000Y-164160000D01*
X123200000Y-164660000D02*
X124410000Y-164660000D01*
X122390000Y-153440000D02*
X120890000Y-153440000D01*
X123200000Y-152940000D02*
X123200000Y-152440000D01*
X124410000Y-164660000D02*
X124410000Y-152940000D01*
X122390000Y-164160000D02*
X120890000Y-164160000D01*
X120890000Y-152440000D02*
X124910000Y-152440000D01*
X123200000Y-165160000D02*
X123200000Y-164660000D01*
X123090000Y-165460000D02*
X120590000Y-165460000D01*
X120890000Y-165160000D02*
X120890000Y-152440000D01*
X120590000Y-165460000D02*
X120590000Y-162960000D01*
%TO.C,C3*%
X155762500Y-128569644D02*
X156550000Y-128569644D01*
X156156250Y-128963394D02*
X156156250Y-128175894D01*
X156790000Y-124376581D02*
X156790000Y-125662144D01*
X156790000Y-124376581D02*
X157854437Y-123312144D01*
X156790000Y-129067707D02*
X156790000Y-127782144D01*
X156790000Y-129067707D02*
X157854437Y-130132144D01*
X157854437Y-123312144D02*
X163610000Y-123312144D01*
X157854437Y-130132144D02*
X163610000Y-130132144D01*
X163610000Y-123312144D02*
X163610000Y-125662144D01*
X163610000Y-130132144D02*
X163610000Y-127782144D01*
%TO.C,J2*%
X112950000Y-149140000D02*
X100350000Y-149140000D01*
X100350000Y-149140000D02*
X100350000Y-169940000D01*
X112950000Y-169440000D02*
X112950000Y-149140000D01*
X112000000Y-169440000D02*
X112950000Y-169440000D01*
X110550000Y-169440000D02*
X110250000Y-169990000D01*
X105150000Y-169440000D02*
X110550000Y-169440000D01*
X105400000Y-169940000D02*
X105150000Y-169440000D01*
X100350000Y-169940000D02*
X105400000Y-169940000D01*
X112300000Y-169990000D02*
X112000000Y-169440000D01*
X110250000Y-169990000D02*
X112300000Y-169990000D01*
%TO.C,J1*%
X129170000Y-109872144D02*
X131830000Y-109872144D01*
X129170000Y-117552144D02*
X129170000Y-109872144D01*
X129170000Y-117552144D02*
X131830000Y-117552144D01*
X130500000Y-120152144D02*
X131830000Y-120152144D01*
X131830000Y-117552144D02*
X131830000Y-109872144D01*
X131830000Y-120152144D02*
X131830000Y-118822144D01*
%TO.C,STEPSIGGND2*%
X76210816Y-127772144D02*
X76210816Y-143172144D01*
X63610816Y-127772144D02*
X76210816Y-127772144D01*
X76210816Y-143172144D02*
X75260816Y-143172144D01*
X75260816Y-143172144D02*
X75560816Y-143672144D01*
X73810816Y-143172144D02*
X68410816Y-143172144D01*
X68410816Y-143172144D02*
X68660816Y-143672144D01*
X75560816Y-143672144D02*
X73560816Y-143672144D01*
X73560816Y-143672144D02*
X73810816Y-143172144D01*
X68660816Y-143672144D02*
X63610816Y-143672144D01*
X63610816Y-143672144D02*
X63610816Y-127772144D01*
%TO.C,STEPSIG1*%
X76050000Y-45672144D02*
X76050000Y-61072144D01*
X63450000Y-45672144D02*
X76050000Y-45672144D01*
X76050000Y-61072144D02*
X75100000Y-61072144D01*
X75100000Y-61072144D02*
X75400000Y-61572144D01*
X73650000Y-61072144D02*
X68250000Y-61072144D01*
X68250000Y-61072144D02*
X68500000Y-61572144D01*
X75400000Y-61572144D02*
X73400000Y-61572144D01*
X73400000Y-61572144D02*
X73650000Y-61072144D01*
X68500000Y-61572144D02*
X63450000Y-61572144D01*
X63450000Y-61572144D02*
X63450000Y-45672144D01*
%TO.C,TL2575*%
X145050000Y-71147144D02*
X146000000Y-71147144D01*
X146000000Y-71147144D02*
X146000000Y-72247144D01*
X154500000Y-71147144D02*
X154500000Y-76272144D01*
X155450000Y-71147144D02*
X154500000Y-71147144D01*
X145050000Y-69647144D02*
X145050000Y-71147144D01*
X155450000Y-69647144D02*
X155450000Y-71147144D01*
%TO.C,STEPGND1*%
X76200816Y-145552144D02*
X76200816Y-155902144D01*
X63600816Y-145552144D02*
X76200816Y-145552144D01*
X76200816Y-155902144D02*
X75250816Y-155902144D01*
X75250816Y-155902144D02*
X75500816Y-156402144D01*
X73800816Y-155902144D02*
X68400816Y-155902144D01*
X68400816Y-155902144D02*
X68700816Y-156402144D01*
X75500816Y-156402144D02*
X73600816Y-156402144D01*
X73600816Y-156402144D02*
X73550816Y-156402144D01*
X73550816Y-156402144D02*
X73800816Y-155902144D01*
X68700816Y-156402144D02*
X63600816Y-156402144D01*
X63600816Y-156402144D02*
X63600816Y-145552144D01*
%TO.C,STEPSIGGND1*%
X76210816Y-110022144D02*
X76210816Y-125422144D01*
X63610816Y-110022144D02*
X76210816Y-110022144D01*
X76210816Y-125422144D02*
X75260816Y-125422144D01*
X75260816Y-125422144D02*
X75560816Y-125922144D01*
X73810816Y-125422144D02*
X68410816Y-125422144D01*
X68410816Y-125422144D02*
X68660816Y-125922144D01*
X75560816Y-125922144D02*
X73560816Y-125922144D01*
X73560816Y-125922144D02*
X73810816Y-125422144D01*
X68660816Y-125922144D02*
X63610816Y-125922144D01*
X63610816Y-125922144D02*
X63610816Y-110022144D01*
%TO.C,L1*%
X156050000Y-87772144D02*
X153050000Y-87772144D01*
X146450000Y-87772144D02*
X143450000Y-87772144D01*
X143450000Y-87772144D02*
X143450000Y-100372144D01*
X156050000Y-100372144D02*
X156050000Y-87772144D01*
X153050000Y-100372144D02*
X156050000Y-100372144D01*
X143450000Y-100372144D02*
X146450000Y-100372144D01*
%TO.C,STEPPWR1*%
X76040000Y-32702144D02*
X76040000Y-43052144D01*
X63440000Y-32702144D02*
X76040000Y-32702144D01*
X76040000Y-43052144D02*
X75090000Y-43052144D01*
X75090000Y-43052144D02*
X75340000Y-43552144D01*
X73640000Y-43052144D02*
X68240000Y-43052144D01*
X68240000Y-43052144D02*
X68540000Y-43552144D01*
X75340000Y-43552144D02*
X73440000Y-43552144D01*
X73440000Y-43552144D02*
X73390000Y-43552144D01*
X73390000Y-43552144D02*
X73640000Y-43052144D01*
X68540000Y-43552144D02*
X63440000Y-43552144D01*
X63440000Y-43552144D02*
X63440000Y-32702144D01*
%TO.C,D1*%
X161630000Y-79602144D02*
X171370000Y-79602144D01*
X161630000Y-80482144D02*
X161630000Y-79602144D01*
X161630000Y-84162144D02*
X161630000Y-85042144D01*
X161630000Y-85042144D02*
X171370000Y-85042144D01*
X163055000Y-85042144D02*
X163055000Y-79602144D01*
X163175000Y-85042144D02*
X163175000Y-79602144D01*
X163295000Y-85042144D02*
X163295000Y-79602144D01*
X171370000Y-79602144D02*
X171370000Y-80482144D01*
X171370000Y-85042144D02*
X171370000Y-84162144D01*
%TO.C,A1*%
X98240000Y-75372144D02*
X103320000Y-75372144D01*
X98240000Y-113602144D02*
X98240000Y-75372144D01*
X98240000Y-118812144D02*
X98240000Y-116142144D01*
X100910000Y-78042144D02*
X98240000Y-78042144D01*
X100910000Y-113602144D02*
X98240000Y-113602144D01*
X100910000Y-113602144D02*
X100910000Y-78042144D01*
X100910000Y-113602144D02*
X100910000Y-116142144D01*
X100910000Y-116142144D02*
X98240000Y-116142144D01*
X103320000Y-72832144D02*
X103320000Y-83252144D01*
X103320000Y-83252144D02*
X111200000Y-83252144D01*
X111200000Y-72832144D02*
X103320000Y-72832144D01*
X111200000Y-83252144D02*
X111200000Y-72832144D01*
X113610000Y-78042144D02*
X116280000Y-78042144D01*
X113610000Y-116142144D02*
X113610000Y-78042144D01*
X113610000Y-116142144D02*
X116280000Y-116142144D01*
X116280000Y-75372144D02*
X111200000Y-75372144D01*
X116280000Y-75372144D02*
X116280000Y-118812144D01*
X116280000Y-118812144D02*
X98240000Y-118812144D01*
%TO.C,JOYIN1*%
X123570000Y-70772144D02*
X133920000Y-70772144D01*
X123570000Y-83372144D02*
X123570000Y-70772144D01*
X133920000Y-70772144D02*
X133920000Y-71722144D01*
X133920000Y-71722144D02*
X134420000Y-71472144D01*
X133920000Y-73172144D02*
X133920000Y-78572144D01*
X133920000Y-78572144D02*
X134420000Y-78272144D01*
X134420000Y-71472144D02*
X134420000Y-73372144D01*
X134420000Y-73372144D02*
X134420000Y-73422144D01*
X134420000Y-73422144D02*
X133920000Y-73172144D01*
X134420000Y-78272144D02*
X134420000Y-83372144D01*
X134420000Y-83372144D02*
X123570000Y-83372144D01*
%TO.C,L2*%
X156250000Y-109072144D02*
X156250000Y-122072144D01*
X152650000Y-109072144D02*
X156250000Y-109072144D01*
X146850000Y-109072144D02*
X143250000Y-109072144D01*
X143250000Y-109072144D02*
X143250000Y-122072144D01*
X156250000Y-122072144D02*
X152650000Y-122072144D01*
X143250000Y-122072144D02*
X146850000Y-122072144D01*
%TO.C,C1*%
X165402500Y-58634644D02*
X165402500Y-59422144D01*
X165008750Y-59028394D02*
X165796250Y-59028394D01*
X169595563Y-59662144D02*
X168310000Y-59662144D01*
X169595563Y-59662144D02*
X170660000Y-60726581D01*
X164904437Y-59662144D02*
X166190000Y-59662144D01*
X164904437Y-59662144D02*
X163840000Y-60726581D01*
X170660000Y-60726581D02*
X170660000Y-66482144D01*
X163840000Y-60726581D02*
X163840000Y-66482144D01*
X170660000Y-66482144D02*
X168310000Y-66482144D01*
X163840000Y-66482144D02*
X166190000Y-66482144D01*
%TO.C,STEPSIG2*%
X76050000Y-63422144D02*
X76050000Y-78822144D01*
X63450000Y-63422144D02*
X76050000Y-63422144D01*
X76050000Y-78822144D02*
X75100000Y-78822144D01*
X75100000Y-78822144D02*
X75400000Y-79322144D01*
X73650000Y-78822144D02*
X68250000Y-78822144D01*
X68250000Y-78822144D02*
X68500000Y-79322144D01*
X75400000Y-79322144D02*
X73400000Y-79322144D01*
X73400000Y-79322144D02*
X73650000Y-78822144D01*
X68500000Y-79322144D02*
X63450000Y-79322144D01*
X63450000Y-79322144D02*
X63450000Y-63422144D01*
%TO.C,J3*%
X112950000Y-126890000D02*
X100350000Y-126890000D01*
X100350000Y-126890000D02*
X100350000Y-147690000D01*
X112950000Y-147190000D02*
X112950000Y-126890000D01*
X112000000Y-147190000D02*
X112950000Y-147190000D01*
X110550000Y-147190000D02*
X110250000Y-147740000D01*
X105150000Y-147190000D02*
X110550000Y-147190000D01*
X105400000Y-147690000D02*
X105150000Y-147190000D01*
X100350000Y-147690000D02*
X105400000Y-147690000D01*
X112300000Y-147740000D02*
X112000000Y-147190000D01*
X110250000Y-147740000D02*
X112300000Y-147740000D01*
%TO.C,C2*%
X155762500Y-106269644D02*
X156550000Y-106269644D01*
X156156250Y-106663394D02*
X156156250Y-105875894D01*
X156790000Y-102076581D02*
X156790000Y-103362144D01*
X156790000Y-102076581D02*
X157854437Y-101012144D01*
X156790000Y-106767707D02*
X156790000Y-105482144D01*
X156790000Y-106767707D02*
X157854437Y-107832144D01*
X157854437Y-101012144D02*
X163610000Y-101012144D01*
X157854437Y-107832144D02*
X163610000Y-107832144D01*
X163610000Y-101012144D02*
X163610000Y-103362144D01*
X163610000Y-107832144D02*
X163610000Y-105482144D01*
%TO.C,VIN1*%
X185600000Y-52272144D02*
X195950000Y-52272144D01*
X185600000Y-64872144D02*
X185600000Y-52272144D01*
X195950000Y-52272144D02*
X195950000Y-53222144D01*
X195950000Y-53222144D02*
X196450000Y-52972144D01*
X195950000Y-54672144D02*
X195950000Y-60072144D01*
X195950000Y-60072144D02*
X196450000Y-59772144D01*
X196450000Y-52972144D02*
X196450000Y-54872144D01*
X196450000Y-54872144D02*
X196450000Y-54922144D01*
X196450000Y-54922144D02*
X195950000Y-54672144D01*
X196450000Y-59772144D02*
X196450000Y-64872144D01*
X196450000Y-64872144D02*
X185600000Y-64872144D01*
%TD*%
M02*
