%TF.GenerationSoftware,KiCad,Pcbnew,7.0.7-7.0.7~ubuntu22.04.1*%
%TF.CreationDate,2023-09-22T11:09:07-06:00*%
%TF.ProjectId,stepper_microscope_stage,73746570-7065-4725-9f6d-6963726f7363,1.1*%
%TF.SameCoordinates,Original*%
%TF.FileFunction,Legend,Top*%
%TF.FilePolarity,Positive*%
%FSLAX46Y46*%
G04 Gerber Fmt 4.6, Leading zero omitted, Abs format (unit mm)*
G04 Created by KiCad (PCBNEW 7.0.7-7.0.7~ubuntu22.04.1) date 2023-09-22 11:09:07*
%MOMM*%
%LPD*%
G01*
G04 APERTURE LIST*
%ADD10C,0.150000*%
%ADD11C,0.100000*%
G04 APERTURE END LIST*
D10*
X52988095Y-161354819D02*
X52988095Y-160354819D01*
X52988095Y-160831009D02*
X53559523Y-160831009D01*
X53559523Y-161354819D02*
X53559523Y-160354819D01*
X53940476Y-160354819D02*
X54559523Y-160354819D01*
X54559523Y-160354819D02*
X54226190Y-160735771D01*
X54226190Y-160735771D02*
X54369047Y-160735771D01*
X54369047Y-160735771D02*
X54464285Y-160783390D01*
X54464285Y-160783390D02*
X54511904Y-160831009D01*
X54511904Y-160831009D02*
X54559523Y-160926247D01*
X54559523Y-160926247D02*
X54559523Y-161164342D01*
X54559523Y-161164342D02*
X54511904Y-161259580D01*
X54511904Y-161259580D02*
X54464285Y-161307200D01*
X54464285Y-161307200D02*
X54369047Y-161354819D01*
X54369047Y-161354819D02*
X54083333Y-161354819D01*
X54083333Y-161354819D02*
X53988095Y-161307200D01*
X53988095Y-161307200D02*
X53940476Y-161259580D01*
X175204819Y-98211904D02*
X174204819Y-98211904D01*
X174681009Y-98211904D02*
X174681009Y-97640476D01*
X175204819Y-97640476D02*
X174204819Y-97640476D01*
X175204819Y-96640476D02*
X175204819Y-97211904D01*
X175204819Y-96926190D02*
X174204819Y-96926190D01*
X174204819Y-96926190D02*
X174347676Y-97021428D01*
X174347676Y-97021428D02*
X174442914Y-97116666D01*
X174442914Y-97116666D02*
X174490533Y-97211904D01*
X89654819Y-53011904D02*
X88654819Y-53011904D01*
X89131009Y-53011904D02*
X89131009Y-52440476D01*
X89654819Y-52440476D02*
X88654819Y-52440476D01*
X89654819Y-51440476D02*
X89654819Y-52011904D01*
X89654819Y-51726190D02*
X88654819Y-51726190D01*
X88654819Y-51726190D02*
X88797676Y-51821428D01*
X88797676Y-51821428D02*
X88892914Y-51916666D01*
X88892914Y-51916666D02*
X88940533Y-52011904D01*
X176594700Y-42833332D02*
X176642319Y-42690475D01*
X176642319Y-42690475D02*
X176642319Y-42452380D01*
X176642319Y-42452380D02*
X176594700Y-42357142D01*
X176594700Y-42357142D02*
X176547080Y-42309523D01*
X176547080Y-42309523D02*
X176451842Y-42261904D01*
X176451842Y-42261904D02*
X176356604Y-42261904D01*
X176356604Y-42261904D02*
X176261366Y-42309523D01*
X176261366Y-42309523D02*
X176213747Y-42357142D01*
X176213747Y-42357142D02*
X176166128Y-42452380D01*
X176166128Y-42452380D02*
X176118509Y-42642856D01*
X176118509Y-42642856D02*
X176070890Y-42738094D01*
X176070890Y-42738094D02*
X176023271Y-42785713D01*
X176023271Y-42785713D02*
X175928033Y-42833332D01*
X175928033Y-42833332D02*
X175832795Y-42833332D01*
X175832795Y-42833332D02*
X175737557Y-42785713D01*
X175737557Y-42785713D02*
X175689938Y-42738094D01*
X175689938Y-42738094D02*
X175642319Y-42642856D01*
X175642319Y-42642856D02*
X175642319Y-42404761D01*
X175642319Y-42404761D02*
X175689938Y-42261904D01*
X175642319Y-41928570D02*
X176642319Y-41690475D01*
X176642319Y-41690475D02*
X175928033Y-41499999D01*
X175928033Y-41499999D02*
X176642319Y-41309523D01*
X176642319Y-41309523D02*
X175642319Y-41071428D01*
X176642319Y-40166666D02*
X176642319Y-40738094D01*
X176642319Y-40452380D02*
X175642319Y-40452380D01*
X175642319Y-40452380D02*
X175785176Y-40547618D01*
X175785176Y-40547618D02*
X175880414Y-40642856D01*
X175880414Y-40642856D02*
X175928033Y-40738094D01*
D11*
%TO.C,SW1*%
X172500000Y-51736200D02*
X175167000Y-51736200D01*
X169833000Y-47316600D02*
X175167000Y-47316600D01*
X175167000Y-43506600D02*
X169833000Y-43506600D01*
X172500000Y-31263800D02*
X169833000Y-31263800D01*
X175167000Y-51736200D02*
X169833000Y-51736200D01*
X169833000Y-51736200D02*
X169833000Y-31263800D01*
X169833000Y-31263800D02*
X175167000Y-31263800D01*
X175167000Y-31263800D02*
X175167000Y-51736200D01*
%TD*%
M02*
