M48
; DRILL file {KiCad 7.0.7-7.0.7~ubuntu22.04.1} date Fri 29 Sep 2023 08:43:59 AM MDT
; FORMAT={-:-/ absolute / inch / decimal}
; #@! TF.CreationDate,2023-09-29T08:43:59-06:00
; #@! TF.GenerationSoftware,Kicad,Pcbnew,7.0.7-7.0.7~ubuntu22.04.1
; #@! TF.FileFunction,Plated,1,2,PTH
FMAT,2
INCH
; #@! TA.AperFunction,Plated,PTH,ComponentDrill
T1C0.0374
; #@! TA.AperFunction,Plated,PTH,ComponentDrill
T2C0.0394
; #@! TA.AperFunction,Plated,PTH,ComponentDrill
T3C0.0520
; #@! TA.AperFunction,Plated,PTH,ComponentDrill
T4C0.0630
; #@! TA.AperFunction,Plated,PTH,ComponentDrill
T5C0.0689
; #@! TA.AperFunction,Plated,PTH,ComponentDrill
T6C0.1693
%
G90
G05
T1
X2.7244Y-3.7972
X2.7244Y-3.8957
X2.7244Y-3.9941
X2.7484Y-3.332
X2.7484Y-3.4304
X2.7484Y-3.5289
X4.8445Y-5.0118
X4.8445Y-5.1102
X4.8445Y-5.2087
X4.8445Y-5.3071
X4.8461Y-6.1283
X4.8461Y-6.2268
X4.8461Y-6.3252
X4.8461Y-6.4236
T2
X3.2913Y-1.377
X3.2913Y-1.477
X3.2913Y-1.577
X3.2913Y-1.677
X3.6138Y-2.8932
X3.6138Y-2.9932
X3.6138Y-3.0932
X3.6138Y-3.1932
X3.6138Y-3.2932
X3.6138Y-3.3932
X3.6138Y-3.4932
X3.6138Y-3.5932
X3.6138Y-3.6932
X3.6138Y-3.7932
X3.6138Y-3.8932
X3.6138Y-3.9932
X3.6138Y-4.0932
X3.6138Y-4.1932
X3.6138Y-4.2932
X4.2138Y-2.8932
X4.2138Y-2.9932
X4.2138Y-3.0932
X4.2138Y-3.1932
X4.2138Y-3.2932
X4.2138Y-3.3932
X4.2138Y-3.4932
X4.2138Y-3.5932
X4.2138Y-3.6932
X4.2138Y-3.7932
X4.2138Y-3.8932
X4.2138Y-3.9932
X4.2138Y-4.0932
X4.2138Y-4.1932
X4.2138Y-4.2932
T3
X2.7461Y-0.8986
X2.7461Y-1.0955
X2.7461Y-1.9024
X2.7461Y-2.0993
X2.7461Y-2.2961
X2.7461Y-2.6013
X2.7461Y-2.7981
X2.7461Y-2.995
X2.752Y-5.8347
X2.752Y-6.0316
X2.7524Y-4.4359
X2.7524Y-4.6328
X2.7524Y-4.8296
X2.7524Y-5.1347
X2.7524Y-5.3316
X2.7524Y-5.5284
X4.1945Y-6.0
X4.1945Y-6.1969
X4.1945Y-6.3937
X4.1945Y-6.5906
X4.1949Y-4.8736
X4.1949Y-5.0705
X4.1949Y-5.2673
X4.1949Y-5.4642
X4.212Y-2.2421
X4.4089Y-2.2421
X5.8175Y-3.5522
X6.0144Y-3.5522
T4
X5.2677Y-2.7894
X5.7677Y-2.7894
T5
X5.7443Y-1.3407
X5.7443Y-1.4982
X5.7443Y-1.6557
T6
X2.1161Y-6.4567
X4.8819Y-1.5256
X5.1181Y-5.75
T0
M30
