%TF.GenerationSoftware,KiCad,Pcbnew,7.0.7-7.0.7~ubuntu22.04.1*%
%TF.CreationDate,2023-09-29T08:45:34-06:00*%
%TF.ProjectId,stepper_microscope_stage,73746570-7065-4725-9f6d-6963726f7363,9*%
%TF.SameCoordinates,Original*%
%TF.FileFunction,Legend,Top*%
%TF.FilePolarity,Positive*%
%FSLAX46Y46*%
G04 Gerber Fmt 4.6, Leading zero omitted, Abs format (unit mm)*
G04 Created by KiCad (PCBNEW 7.0.7-7.0.7~ubuntu22.04.1) date 2023-09-29 08:45:34*
%MOMM*%
%LPD*%
G01*
G04 APERTURE LIST*
%ADD10C,0.150000*%
%ADD11C,0.100000*%
G04 APERTURE END LIST*
D10*
X52988095Y-169754819D02*
X52988095Y-168754819D01*
X52988095Y-169231009D02*
X53559523Y-169231009D01*
X53559523Y-169754819D02*
X53559523Y-168754819D01*
X53940476Y-168754819D02*
X54559523Y-168754819D01*
X54559523Y-168754819D02*
X54226190Y-169135771D01*
X54226190Y-169135771D02*
X54369047Y-169135771D01*
X54369047Y-169135771D02*
X54464285Y-169183390D01*
X54464285Y-169183390D02*
X54511904Y-169231009D01*
X54511904Y-169231009D02*
X54559523Y-169326247D01*
X54559523Y-169326247D02*
X54559523Y-169564342D01*
X54559523Y-169564342D02*
X54511904Y-169659580D01*
X54511904Y-169659580D02*
X54464285Y-169707200D01*
X54464285Y-169707200D02*
X54369047Y-169754819D01*
X54369047Y-169754819D02*
X54083333Y-169754819D01*
X54083333Y-169754819D02*
X53988095Y-169707200D01*
X53988095Y-169707200D02*
X53940476Y-169659580D01*
X123238095Y-44504819D02*
X123238095Y-43504819D01*
X123238095Y-43981009D02*
X123809523Y-43981009D01*
X123809523Y-44504819D02*
X123809523Y-43504819D01*
X124809523Y-44504819D02*
X124238095Y-44504819D01*
X124523809Y-44504819D02*
X124523809Y-43504819D01*
X124523809Y-43504819D02*
X124428571Y-43647676D01*
X124428571Y-43647676D02*
X124333333Y-43742914D01*
X124333333Y-43742914D02*
X124238095Y-43790533D01*
X129138095Y-151314819D02*
X129138095Y-150314819D01*
X129138095Y-150791009D02*
X129709523Y-150791009D01*
X129709523Y-151314819D02*
X129709523Y-150314819D01*
X130709523Y-151314819D02*
X130138095Y-151314819D01*
X130423809Y-151314819D02*
X130423809Y-150314819D01*
X130423809Y-150314819D02*
X130328571Y-150457676D01*
X130328571Y-150457676D02*
X130233333Y-150552914D01*
X130233333Y-150552914D02*
X130138095Y-150600533D01*
X149999700Y-39388332D02*
X150047319Y-39245475D01*
X150047319Y-39245475D02*
X150047319Y-39007380D01*
X150047319Y-39007380D02*
X149999700Y-38912142D01*
X149999700Y-38912142D02*
X149952080Y-38864523D01*
X149952080Y-38864523D02*
X149856842Y-38816904D01*
X149856842Y-38816904D02*
X149761604Y-38816904D01*
X149761604Y-38816904D02*
X149666366Y-38864523D01*
X149666366Y-38864523D02*
X149618747Y-38912142D01*
X149618747Y-38912142D02*
X149571128Y-39007380D01*
X149571128Y-39007380D02*
X149523509Y-39197856D01*
X149523509Y-39197856D02*
X149475890Y-39293094D01*
X149475890Y-39293094D02*
X149428271Y-39340713D01*
X149428271Y-39340713D02*
X149333033Y-39388332D01*
X149333033Y-39388332D02*
X149237795Y-39388332D01*
X149237795Y-39388332D02*
X149142557Y-39340713D01*
X149142557Y-39340713D02*
X149094938Y-39293094D01*
X149094938Y-39293094D02*
X149047319Y-39197856D01*
X149047319Y-39197856D02*
X149047319Y-38959761D01*
X149047319Y-38959761D02*
X149094938Y-38816904D01*
X149047319Y-38483570D02*
X150047319Y-38245475D01*
X150047319Y-38245475D02*
X149333033Y-38054999D01*
X149333033Y-38054999D02*
X150047319Y-37864523D01*
X150047319Y-37864523D02*
X149047319Y-37626428D01*
X150047319Y-36721666D02*
X150047319Y-37293094D01*
X150047319Y-37007380D02*
X149047319Y-37007380D01*
X149047319Y-37007380D02*
X149190176Y-37102618D01*
X149190176Y-37102618D02*
X149285414Y-37197856D01*
X149285414Y-37197856D02*
X149333033Y-37293094D01*
D11*
%TO.C,SW1*%
X145905000Y-48291200D02*
X148572000Y-48291200D01*
X143238000Y-43871600D02*
X148572000Y-43871600D01*
X148572000Y-40061600D02*
X143238000Y-40061600D01*
X145905000Y-27818800D02*
X143238000Y-27818800D01*
X148572000Y-48291200D02*
X143238000Y-48291200D01*
X143238000Y-48291200D02*
X143238000Y-27818800D01*
X143238000Y-27818800D02*
X148572000Y-27818800D01*
X148572000Y-27818800D02*
X148572000Y-48291200D01*
%TD*%
M02*
