%TF.GenerationSoftware,KiCad,Pcbnew,7.0.7-7.0.7~ubuntu22.04.1*%
%TF.CreationDate,2023-09-29T08:45:34-06:00*%
%TF.ProjectId,stepper_microscope_stage,73746570-7065-4725-9f6d-6963726f7363,9*%
%TF.SameCoordinates,Original*%
%TF.FileFunction,Copper,L1,Top*%
%TF.FilePolarity,Positive*%
%FSLAX46Y46*%
G04 Gerber Fmt 4.6, Leading zero omitted, Abs format (unit mm)*
G04 Created by KiCad (PCBNEW 7.0.7-7.0.7~ubuntu22.04.1) date 2023-09-29 08:45:34*
%MOMM*%
%LPD*%
G01*
G04 APERTURE LIST*
G04 Aperture macros list*
%AMRoundRect*
0 Rectangle with rounded corners*
0 $1 Rounding radius*
0 $2 $3 $4 $5 $6 $7 $8 $9 X,Y pos of 4 corners*
0 Add a 4 corners polygon primitive as box body*
4,1,4,$2,$3,$4,$5,$6,$7,$8,$9,$2,$3,0*
0 Add four circle primitives for the rounded corners*
1,1,$1+$1,$2,$3*
1,1,$1+$1,$4,$5*
1,1,$1+$1,$6,$7*
1,1,$1+$1,$8,$9*
0 Add four rect primitives between the rounded corners*
20,1,$1+$1,$2,$3,$4,$5,0*
20,1,$1+$1,$4,$5,$6,$7,0*
20,1,$1+$1,$6,$7,$8,$9,0*
20,1,$1+$1,$8,$9,$2,$3,0*%
G04 Aperture macros list end*
%TA.AperFunction,ComponentPad*%
%ADD10O,1.950000X1.700000*%
%TD*%
%TA.AperFunction,ComponentPad*%
%ADD11RoundRect,0.250000X0.725000X-0.600000X0.725000X0.600000X-0.725000X0.600000X-0.725000X-0.600000X0*%
%TD*%
%TA.AperFunction,ComponentPad*%
%ADD12R,3.960000X1.980000*%
%TD*%
%TA.AperFunction,ComponentPad*%
%ADD13O,3.960000X1.980000*%
%TD*%
%TA.AperFunction,ComponentPad*%
%ADD14C,8.600000*%
%TD*%
%TA.AperFunction,WasherPad*%
%ADD15C,3.500000*%
%TD*%
%TA.AperFunction,ComponentPad*%
%ADD16O,4.375000X2.625000*%
%TD*%
%TA.AperFunction,ComponentPad*%
%ADD17RoundRect,0.250000X-0.725000X0.600000X-0.725000X-0.600000X0.725000X-0.600000X0.725000X0.600000X0*%
%TD*%
%TA.AperFunction,ComponentPad*%
%ADD18O,1.700000X1.700000*%
%TD*%
%TA.AperFunction,ComponentPad*%
%ADD19R,1.700000X1.700000*%
%TD*%
%TA.AperFunction,ComponentPad*%
%ADD20R,3.200000X3.200000*%
%TD*%
%TA.AperFunction,ComponentPad*%
%ADD21O,3.200000X3.200000*%
%TD*%
%TA.AperFunction,ComponentPad*%
%ADD22R,1.600000X1.600000*%
%TD*%
%TA.AperFunction,ComponentPad*%
%ADD23O,1.600000X1.600000*%
%TD*%
%TA.AperFunction,ComponentPad*%
%ADD24R,1.980000X3.960000*%
%TD*%
%TA.AperFunction,ComponentPad*%
%ADD25O,1.980000X3.960000*%
%TD*%
G04 APERTURE END LIST*
D10*
%TO.P,J5,4,Pin_4*%
%TO.N,Net-(J3-Pin_1)*%
X123050000Y-127300000D03*
%TO.P,J5,3,Pin_3*%
%TO.N,Net-(J3-Pin_2)*%
X123050000Y-129800000D03*
%TO.P,J5,2,Pin_2*%
%TO.N,Net-(J3-Pin_3)*%
X123050000Y-132300000D03*
D11*
%TO.P,J5,1,Pin_1*%
%TO.N,Net-(J3-Pin_4)*%
X123050000Y-134800000D03*
%TD*%
D12*
%TO.P,J3,1,Pin_1*%
%TO.N,Net-(J3-Pin_1)*%
X106550000Y-123790000D03*
D13*
%TO.P,J3,2,Pin_2*%
%TO.N,Net-(J3-Pin_2)*%
X106550000Y-128790000D03*
%TO.P,J3,3,Pin_3*%
%TO.N,Net-(J3-Pin_3)*%
X106550000Y-133790000D03*
%TO.P,J3,4,Pin_4*%
%TO.N,Net-(J3-Pin_4)*%
X106550000Y-138790000D03*
%TD*%
D14*
%TO.P,H3,1*%
%TO.N,N/C*%
X53750000Y-164000000D03*
%TD*%
%TO.P,H1,1*%
%TO.N,N/C*%
X124000000Y-38750000D03*
%TD*%
%TO.P,H1,1*%
%TO.N,N/C*%
X130000000Y-146050000D03*
%TD*%
D15*
%TO.P,SW1,*%
%TO.N,*%
X145905000Y-46055000D03*
X145905000Y-30055000D03*
D16*
%TO.P,SW1,1,A*%
%TO.N,+24V*%
X145905000Y-42055000D03*
%TO.P,SW1,2,B*%
X145905000Y-38055000D03*
%TO.P,SW1,3,C*%
%TO.N,unconnected-(SW1-C-Pad3)*%
X145905000Y-34055000D03*
%TD*%
D12*
%TO.P,J2,1,Pin_1*%
%TO.N,Net-(J2-Pin_1)*%
X106540000Y-152400000D03*
D13*
%TO.P,J2,2,Pin_2*%
%TO.N,Net-(J2-Pin_2)*%
X106540000Y-157400000D03*
%TO.P,J2,3,Pin_3*%
%TO.N,Net-(J2-Pin_3)*%
X106540000Y-162400000D03*
%TO.P,J2,4,Pin_4*%
%TO.N,Net-(J2-Pin_4)*%
X106540000Y-167400000D03*
%TD*%
D17*
%TO.P,LIMIT2,1,Pin_1*%
%TO.N,+5V*%
X69200000Y-96450000D03*
D10*
%TO.P,LIMIT2,2,Pin_2*%
%TO.N,Net-(A1-D3)*%
X69200000Y-98950000D03*
%TO.P,LIMIT2,3,Pin_3*%
%TO.N,GND*%
X69200000Y-101450000D03*
%TD*%
D12*
%TO.P,STEPSIGGND2,1,Pin_1*%
%TO.N,GND*%
X69910816Y-130422144D03*
D13*
%TO.P,STEPSIGGND2,2,Pin_2*%
X69910816Y-135422144D03*
%TO.P,STEPSIGGND2,3,Pin_3*%
X69910816Y-140422144D03*
%TD*%
D12*
%TO.P,STEPSIG1,1,Pin_1*%
%TO.N,Net-(A1-D12)*%
X69750000Y-48322144D03*
D13*
%TO.P,STEPSIG1,2,Pin_2*%
%TO.N,Net-(A1-D11)*%
X69750000Y-53322144D03*
%TO.P,STEPSIG1,3,Pin_3*%
%TO.N,Net-(A1-D10)*%
X69750000Y-58322144D03*
%TD*%
D18*
%TO.P,J2,4,Pin_4*%
%TO.N,Net-(A1-A5)*%
X83600000Y-42595000D03*
%TO.P,J2,3,Pin_3*%
%TO.N,Net-(A1-A4)*%
X83600000Y-40055000D03*
%TO.P,J2,2,Pin_2*%
%TO.N,+5V*%
X83600000Y-37515000D03*
D19*
%TO.P,J2,1,Pin_1*%
%TO.N,GND*%
X83600000Y-34975000D03*
%TD*%
D12*
%TO.P,STEPGND1,1,Pin_1*%
%TO.N,GND*%
X69900816Y-148202144D03*
D13*
%TO.P,STEPGND1,2,Pin_2*%
X69900816Y-153202144D03*
%TD*%
D12*
%TO.P,STEPSIGGND1,1,Pin_1*%
%TO.N,GND*%
X69910816Y-112672144D03*
D13*
%TO.P,STEPSIGGND1,2,Pin_2*%
X69910816Y-117672144D03*
%TO.P,STEPSIGGND1,3,Pin_3*%
X69910816Y-122672144D03*
%TD*%
D11*
%TO.P,LIMIT1,1,Pin_1*%
%TO.N,+5V*%
X69810000Y-89632856D03*
D10*
%TO.P,LIMIT1,2,Pin_2*%
%TO.N,Net-(A1-D4)*%
X69810000Y-87132856D03*
%TO.P,LIMIT1,3,Pin_3*%
%TO.N,GND*%
X69810000Y-84632856D03*
%TD*%
D12*
%TO.P,STEPPWR1,1,Pin_1*%
%TO.N,+24V*%
X69750000Y-22825000D03*
D13*
%TO.P,STEPPWR1,2,Pin_2*%
X69750000Y-27825000D03*
%TD*%
D20*
%TO.P,D1,1,K*%
%TO.N,Net-(D1-K)*%
X133800000Y-70850000D03*
D21*
%TO.P,D1,2,A*%
%TO.N,GND*%
X146500000Y-70850000D03*
%TD*%
D22*
%TO.P,A1,1,D1/TX*%
%TO.N,unconnected-(A1-D1{slash}TX-Pad1)*%
X91790000Y-109047144D03*
D23*
%TO.P,A1,2,D0/RX*%
%TO.N,unconnected-(A1-D0{slash}RX-Pad2)*%
X91790000Y-106507144D03*
%TO.P,A1,3,~{RESET}*%
%TO.N,unconnected-(A1-~{RESET}-Pad3)*%
X91790000Y-103967144D03*
%TO.P,A1,4,GND*%
%TO.N,GND*%
X91790000Y-101427144D03*
%TO.P,A1,5,D2*%
%TO.N,unconnected-(A1-D2-Pad5)*%
X91790000Y-98887144D03*
%TO.P,A1,6,D3*%
%TO.N,Net-(A1-D3)*%
X91790000Y-96347144D03*
%TO.P,A1,7,D4*%
%TO.N,Net-(A1-D4)*%
X91790000Y-93807144D03*
%TO.P,A1,8,D5*%
%TO.N,unconnected-(A1-D5-Pad8)*%
X91790000Y-91267144D03*
%TO.P,A1,9,D6*%
%TO.N,unconnected-(A1-D6-Pad9)*%
X91790000Y-88727144D03*
%TO.P,A1,10,D7*%
%TO.N,Net-(A1-D7)*%
X91790000Y-86187144D03*
%TO.P,A1,11,D8*%
%TO.N,Net-(A1-D8)*%
X91790000Y-83647144D03*
%TO.P,A1,12,D9*%
%TO.N,Net-(A1-D9)*%
X91790000Y-81107144D03*
%TO.P,A1,13,D10*%
%TO.N,Net-(A1-D10)*%
X91790000Y-78567144D03*
%TO.P,A1,14,D11*%
%TO.N,Net-(A1-D11)*%
X91790000Y-76027144D03*
%TO.P,A1,15,D12*%
%TO.N,Net-(A1-D12)*%
X91790000Y-73487144D03*
%TO.P,A1,16,D13*%
%TO.N,unconnected-(A1-D13-Pad16)*%
X107030000Y-73487144D03*
%TO.P,A1,17,3V3*%
%TO.N,unconnected-(A1-3V3-Pad17)*%
X107030000Y-76027144D03*
%TO.P,A1,18,AREF*%
%TO.N,unconnected-(A1-AREF-Pad18)*%
X107030000Y-78567144D03*
%TO.P,A1,19,A0*%
%TO.N,Net-(A1-A0)*%
X107030000Y-81107144D03*
%TO.P,A1,20,A1*%
%TO.N,Net-(A1-A1)*%
X107030000Y-83647144D03*
%TO.P,A1,21,A2*%
%TO.N,unconnected-(A1-A2-Pad21)*%
X107030000Y-86187144D03*
%TO.P,A1,22,A3*%
%TO.N,unconnected-(A1-A3-Pad22)*%
X107030000Y-88727144D03*
%TO.P,A1,23,A4*%
%TO.N,Net-(A1-A4)*%
X107030000Y-91267144D03*
%TO.P,A1,24,A5*%
%TO.N,Net-(A1-A5)*%
X107030000Y-93807144D03*
%TO.P,A1,25,A6*%
%TO.N,unconnected-(A1-A6-Pad25)*%
X107030000Y-96347144D03*
%TO.P,A1,26,A7*%
%TO.N,unconnected-(A1-A7-Pad26)*%
X107030000Y-98887144D03*
%TO.P,A1,27,+5V*%
%TO.N,unconnected-(A1-+5V-Pad27)*%
X107030000Y-101427144D03*
%TO.P,A1,28,~{RESET}*%
%TO.N,unconnected-(A1-~{RESET}-Pad28)*%
X107030000Y-103967144D03*
%TO.P,A1,29,GND*%
%TO.N,unconnected-(A1-GND-Pad29)*%
X107030000Y-106507144D03*
%TO.P,A1,30,VIN*%
%TO.N,+5V*%
X107030000Y-109047144D03*
%TD*%
D24*
%TO.P,JOYIN1,1,Pin_1*%
%TO.N,Net-(A1-A0)*%
X106985000Y-56950000D03*
D25*
%TO.P,JOYIN1,2,Pin_2*%
%TO.N,Net-(A1-A1)*%
X111985000Y-56950000D03*
%TD*%
D13*
%TO.P,STEPSIG2,3,Pin_3*%
%TO.N,Net-(A1-D7)*%
X69750000Y-76072144D03*
%TO.P,STEPSIG2,2,Pin_2*%
%TO.N,Net-(A1-D8)*%
X69750000Y-71072144D03*
D12*
%TO.P,STEPSIG2,1,Pin_1*%
%TO.N,Net-(A1-D9)*%
X69750000Y-66072144D03*
%TD*%
D11*
%TO.P,J4,1,Pin_1*%
%TO.N,Net-(J2-Pin_4)*%
X123090000Y-163160000D03*
D10*
%TO.P,J4,2,Pin_2*%
%TO.N,Net-(J2-Pin_3)*%
X123090000Y-160660000D03*
%TO.P,J4,3,Pin_3*%
%TO.N,Net-(J2-Pin_2)*%
X123090000Y-158160000D03*
%TO.P,J4,4,Pin_4*%
%TO.N,Net-(J2-Pin_1)*%
X123090000Y-155660000D03*
%TD*%
D25*
%TO.P,VIN1,2,Pin_2*%
%TO.N,GND*%
X147765000Y-90225000D03*
D24*
%TO.P,VIN1,1,Pin_1*%
%TO.N,+24V*%
X152765000Y-90225000D03*
%TD*%
M02*
