%TF.GenerationSoftware,KiCad,Pcbnew,7.0.7-7.0.7~ubuntu22.04.1*%
%TF.CreationDate,2023-09-29T08:45:34-06:00*%
%TF.ProjectId,stepper_microscope_stage,73746570-7065-4725-9f6d-6963726f7363,9*%
%TF.SameCoordinates,Original*%
%TF.FileFunction,Profile,NP*%
%FSLAX46Y46*%
G04 Gerber Fmt 4.6, Leading zero omitted, Abs format (unit mm)*
G04 Created by KiCad (PCBNEW 7.0.7-7.0.7~ubuntu22.04.1) date 2023-09-29 08:45:34*
%MOMM*%
%LPD*%
G01*
G04 APERTURE LIST*
%TA.AperFunction,Profile*%
%ADD10C,0.100000*%
%TD*%
G04 APERTURE END LIST*
D10*
X39650000Y-15150000D02*
X159550000Y-15150000D01*
X159550000Y-174750000D01*
X39650000Y-174750000D01*
X39650000Y-15150000D01*
X75150000Y-44445000D02*
X68750000Y-44445000D01*
X68750000Y-32045000D01*
X75150000Y-32045000D01*
X75150000Y-44445000D01*
X62200000Y-44445000D02*
X55800000Y-44445000D01*
X55800000Y-32045000D01*
X62200000Y-32045000D01*
X62200000Y-44445000D01*
X46500000Y-53550000D02*
G75*
G03*
X46500000Y-53550000I-1600000J0D01*
G01*
X46650816Y-117795000D02*
G75*
G03*
X46650816Y-117795000I-1600000J0D01*
G01*
X53650000Y-93800000D02*
X60050000Y-93800000D01*
X60050000Y-103800000D01*
X53650000Y-103800000D01*
X53650000Y-93800000D01*
X96360000Y-129400000D02*
G75*
G03*
X96360000Y-129400000I-1600000J0D01*
G01*
X46750816Y-148395000D02*
G75*
G03*
X46750816Y-148395000I-1600000J0D01*
G01*
X59860816Y-135540000D02*
G75*
G03*
X59860816Y-135540000I-1600000J0D01*
G01*
X43550000Y-81850000D02*
X49950000Y-81850000D01*
X49950000Y-91850000D01*
X43550000Y-91850000D01*
X43550000Y-81850000D01*
X46660816Y-135540000D02*
G75*
G03*
X46660816Y-135540000I-1600000J0D01*
G01*
X46500000Y-76245000D02*
G75*
G03*
X46500000Y-76245000I-1600000J0D01*
G01*
X59850816Y-122795000D02*
G75*
G03*
X59850816Y-122795000I-1600000J0D01*
G01*
X96250000Y-167650000D02*
G75*
G03*
X96250000Y-167650000I-1600000J0D01*
G01*
X46650816Y-112795000D02*
G75*
G03*
X46650816Y-112795000I-1600000J0D01*
G01*
X46660816Y-130540000D02*
G75*
G03*
X46660816Y-130540000I-1600000J0D01*
G01*
X46500000Y-58550000D02*
G75*
G03*
X46500000Y-58550000I-1600000J0D01*
G01*
X108550000Y-32327856D02*
G75*
G03*
X108550000Y-32327856I-1600000J0D01*
G01*
X59700000Y-76245000D02*
G75*
G03*
X59700000Y-76245000I-1600000J0D01*
G01*
X59950816Y-153395000D02*
G75*
G03*
X59950816Y-153395000I-1600000J0D01*
G01*
X59700000Y-58550000D02*
G75*
G03*
X59700000Y-58550000I-1600000J0D01*
G01*
X59950816Y-148395000D02*
G75*
G03*
X59950816Y-148395000I-1600000J0D01*
G01*
X59850816Y-117795000D02*
G75*
G03*
X59850816Y-117795000I-1600000J0D01*
G01*
X59860816Y-130540000D02*
G75*
G03*
X59860816Y-130540000I-1600000J0D01*
G01*
X96250000Y-157500000D02*
G75*
G03*
X96250000Y-157500000I-1600000J0D01*
G01*
X83050000Y-152500000D02*
G75*
G03*
X83050000Y-152500000I-1600000J0D01*
G01*
X83050000Y-157500000D02*
G75*
G03*
X83050000Y-157500000I-1600000J0D01*
G01*
X83050000Y-167650000D02*
G75*
G03*
X83050000Y-167650000I-1600000J0D01*
G01*
X146900000Y-125100000D02*
X153300000Y-125100000D01*
X153300000Y-137500000D01*
X146900000Y-137500000D01*
X146900000Y-125100000D01*
X46500000Y-48550000D02*
G75*
G03*
X46500000Y-48550000I-1600000J0D01*
G01*
X46500000Y-66245000D02*
G75*
G03*
X46500000Y-66245000I-1600000J0D01*
G01*
X46500000Y-71245000D02*
G75*
G03*
X46500000Y-71245000I-1600000J0D01*
G01*
X59700000Y-53550000D02*
G75*
G03*
X59700000Y-53550000I-1600000J0D01*
G01*
X154400000Y-114897144D02*
G75*
G03*
X154400000Y-114897144I-1600000J0D01*
G01*
X83160000Y-134400000D02*
G75*
G03*
X83160000Y-134400000I-1600000J0D01*
G01*
X96250000Y-152500000D02*
G75*
G03*
X96250000Y-152500000I-1600000J0D01*
G01*
X53650000Y-81850000D02*
X60050000Y-81850000D01*
X60050000Y-91850000D01*
X53650000Y-91850000D01*
X53650000Y-81850000D01*
X133950000Y-125100000D02*
X140350000Y-125100000D01*
X140350000Y-137500000D01*
X133950000Y-137500000D01*
X133950000Y-125100000D01*
X154400000Y-101697144D02*
G75*
G03*
X154400000Y-101697144I-1600000J0D01*
G01*
X59700000Y-71245000D02*
G75*
G03*
X59700000Y-71245000I-1600000J0D01*
G01*
X46660816Y-140540000D02*
G75*
G03*
X46660816Y-140540000I-1600000J0D01*
G01*
X149400000Y-101697144D02*
G75*
G03*
X149400000Y-101697144I-1600000J0D01*
G01*
X113550000Y-45527856D02*
G75*
G03*
X113550000Y-45527856I-1600000J0D01*
G01*
X108550000Y-45527856D02*
G75*
G03*
X108550000Y-45527856I-1600000J0D01*
G01*
X59700000Y-66245000D02*
G75*
G03*
X59700000Y-66245000I-1600000J0D01*
G01*
X83050000Y-162500000D02*
G75*
G03*
X83050000Y-162500000I-1600000J0D01*
G01*
X146840000Y-153110000D02*
X153240000Y-153110000D01*
X153240000Y-165510000D01*
X146840000Y-165510000D01*
X146840000Y-153110000D01*
X96360000Y-134400000D02*
G75*
G03*
X96360000Y-134400000I-1600000J0D01*
G01*
X46500000Y-22952856D02*
G75*
G03*
X46500000Y-22952856I-1600000J0D01*
G01*
X46650816Y-122795000D02*
G75*
G03*
X46650816Y-122795000I-1600000J0D01*
G01*
X96250000Y-162500000D02*
G75*
G03*
X96250000Y-162500000I-1600000J0D01*
G01*
X149400000Y-114897144D02*
G75*
G03*
X149400000Y-114897144I-1600000J0D01*
G01*
X59850816Y-112795000D02*
G75*
G03*
X59850816Y-112795000I-1600000J0D01*
G01*
X96360000Y-124400000D02*
G75*
G03*
X96360000Y-124400000I-1600000J0D01*
G01*
X43550000Y-93800000D02*
X49950000Y-93800000D01*
X49950000Y-103800000D01*
X43550000Y-103800000D01*
X43550000Y-93800000D01*
X46750816Y-153395000D02*
G75*
G03*
X46750816Y-153395000I-1600000J0D01*
G01*
X96360000Y-139550000D02*
G75*
G03*
X96360000Y-139550000I-1600000J0D01*
G01*
X59700000Y-48550000D02*
G75*
G03*
X59700000Y-48550000I-1600000J0D01*
G01*
X133890000Y-153110000D02*
X140290000Y-153110000D01*
X140290000Y-165510000D01*
X133890000Y-165510000D01*
X133890000Y-153110000D01*
X46500000Y-27952856D02*
G75*
G03*
X46500000Y-27952856I-1600000J0D01*
G01*
X59860816Y-140540000D02*
G75*
G03*
X59860816Y-140540000I-1600000J0D01*
G01*
X83160000Y-124400000D02*
G75*
G03*
X83160000Y-124400000I-1600000J0D01*
G01*
X113550000Y-32327856D02*
G75*
G03*
X113550000Y-32327856I-1600000J0D01*
G01*
X59700000Y-22952856D02*
G75*
G03*
X59700000Y-22952856I-1600000J0D01*
G01*
X83160000Y-129400000D02*
G75*
G03*
X83160000Y-129400000I-1600000J0D01*
G01*
X59700000Y-27952856D02*
G75*
G03*
X59700000Y-27952856I-1600000J0D01*
G01*
X83160000Y-139550000D02*
G75*
G03*
X83160000Y-139550000I-1600000J0D01*
G01*
M02*
