%TF.GenerationSoftware,KiCad,Pcbnew,7.0.7-7.0.7~ubuntu22.04.1*%
%TF.CreationDate,2023-09-29T08:45:34-06:00*%
%TF.ProjectId,stepper_microscope_stage,73746570-7065-4725-9f6d-6963726f7363,9*%
%TF.SameCoordinates,Original*%
%TF.FileFunction,Legend,Bot*%
%TF.FilePolarity,Positive*%
%FSLAX46Y46*%
G04 Gerber Fmt 4.6, Leading zero omitted, Abs format (unit mm)*
G04 Created by KiCad (PCBNEW 7.0.7-7.0.7~ubuntu22.04.1) date 2023-09-29 08:45:34*
%MOMM*%
%LPD*%
G01*
G04 APERTURE LIST*
%ADD10C,0.150000*%
%ADD11C,0.120000*%
G04 APERTURE END LIST*
D10*
X125304819Y-130716666D02*
X126019104Y-130716666D01*
X126019104Y-130716666D02*
X126161961Y-130669047D01*
X126161961Y-130669047D02*
X126257200Y-130573809D01*
X126257200Y-130573809D02*
X126304819Y-130430952D01*
X126304819Y-130430952D02*
X126304819Y-130335714D01*
X125304819Y-131669047D02*
X125304819Y-131192857D01*
X125304819Y-131192857D02*
X125781009Y-131145238D01*
X125781009Y-131145238D02*
X125733390Y-131192857D01*
X125733390Y-131192857D02*
X125685771Y-131288095D01*
X125685771Y-131288095D02*
X125685771Y-131526190D01*
X125685771Y-131526190D02*
X125733390Y-131621428D01*
X125733390Y-131621428D02*
X125781009Y-131669047D01*
X125781009Y-131669047D02*
X125876247Y-131716666D01*
X125876247Y-131716666D02*
X126114342Y-131716666D01*
X126114342Y-131716666D02*
X126209580Y-131669047D01*
X126209580Y-131669047D02*
X126257200Y-131621428D01*
X126257200Y-131621428D02*
X126304819Y-131526190D01*
X126304819Y-131526190D02*
X126304819Y-131288095D01*
X126304819Y-131288095D02*
X126257200Y-131192857D01*
X126257200Y-131192857D02*
X126209580Y-131145238D01*
X98854819Y-130956666D02*
X99569104Y-130956666D01*
X99569104Y-130956666D02*
X99711961Y-130909047D01*
X99711961Y-130909047D02*
X99807200Y-130813809D01*
X99807200Y-130813809D02*
X99854819Y-130670952D01*
X99854819Y-130670952D02*
X99854819Y-130575714D01*
X98854819Y-131337619D02*
X98854819Y-131956666D01*
X98854819Y-131956666D02*
X99235771Y-131623333D01*
X99235771Y-131623333D02*
X99235771Y-131766190D01*
X99235771Y-131766190D02*
X99283390Y-131861428D01*
X99283390Y-131861428D02*
X99331009Y-131909047D01*
X99331009Y-131909047D02*
X99426247Y-131956666D01*
X99426247Y-131956666D02*
X99664342Y-131956666D01*
X99664342Y-131956666D02*
X99759580Y-131909047D01*
X99759580Y-131909047D02*
X99807200Y-131861428D01*
X99807200Y-131861428D02*
X99854819Y-131766190D01*
X99854819Y-131766190D02*
X99854819Y-131480476D01*
X99854819Y-131480476D02*
X99807200Y-131385238D01*
X99807200Y-131385238D02*
X99759580Y-131337619D01*
X134016666Y-119959580D02*
X134064285Y-120007200D01*
X134064285Y-120007200D02*
X134207142Y-120054819D01*
X134207142Y-120054819D02*
X134302380Y-120054819D01*
X134302380Y-120054819D02*
X134445237Y-120007200D01*
X134445237Y-120007200D02*
X134540475Y-119911961D01*
X134540475Y-119911961D02*
X134588094Y-119816723D01*
X134588094Y-119816723D02*
X134635713Y-119626247D01*
X134635713Y-119626247D02*
X134635713Y-119483390D01*
X134635713Y-119483390D02*
X134588094Y-119292914D01*
X134588094Y-119292914D02*
X134540475Y-119197676D01*
X134540475Y-119197676D02*
X134445237Y-119102438D01*
X134445237Y-119102438D02*
X134302380Y-119054819D01*
X134302380Y-119054819D02*
X134207142Y-119054819D01*
X134207142Y-119054819D02*
X134064285Y-119102438D01*
X134064285Y-119102438D02*
X134016666Y-119150057D01*
X133683332Y-119054819D02*
X133064285Y-119054819D01*
X133064285Y-119054819D02*
X133397618Y-119435771D01*
X133397618Y-119435771D02*
X133254761Y-119435771D01*
X133254761Y-119435771D02*
X133159523Y-119483390D01*
X133159523Y-119483390D02*
X133111904Y-119531009D01*
X133111904Y-119531009D02*
X133064285Y-119626247D01*
X133064285Y-119626247D02*
X133064285Y-119864342D01*
X133064285Y-119864342D02*
X133111904Y-119959580D01*
X133111904Y-119959580D02*
X133159523Y-120007200D01*
X133159523Y-120007200D02*
X133254761Y-120054819D01*
X133254761Y-120054819D02*
X133540475Y-120054819D01*
X133540475Y-120054819D02*
X133635713Y-120007200D01*
X133635713Y-120007200D02*
X133683332Y-119959580D01*
X98844819Y-159566666D02*
X99559104Y-159566666D01*
X99559104Y-159566666D02*
X99701961Y-159519047D01*
X99701961Y-159519047D02*
X99797200Y-159423809D01*
X99797200Y-159423809D02*
X99844819Y-159280952D01*
X99844819Y-159280952D02*
X99844819Y-159185714D01*
X98940057Y-159995238D02*
X98892438Y-160042857D01*
X98892438Y-160042857D02*
X98844819Y-160138095D01*
X98844819Y-160138095D02*
X98844819Y-160376190D01*
X98844819Y-160376190D02*
X98892438Y-160471428D01*
X98892438Y-160471428D02*
X98940057Y-160519047D01*
X98940057Y-160519047D02*
X99035295Y-160566666D01*
X99035295Y-160566666D02*
X99130533Y-160566666D01*
X99130533Y-160566666D02*
X99273390Y-160519047D01*
X99273390Y-160519047D02*
X99844819Y-159947619D01*
X99844819Y-159947619D02*
X99844819Y-160566666D01*
X66854819Y-97354762D02*
X66854819Y-96878572D01*
X66854819Y-96878572D02*
X65854819Y-96878572D01*
X66854819Y-97688096D02*
X65854819Y-97688096D01*
X66854819Y-98164286D02*
X65854819Y-98164286D01*
X65854819Y-98164286D02*
X66569104Y-98497619D01*
X66569104Y-98497619D02*
X65854819Y-98830952D01*
X65854819Y-98830952D02*
X66854819Y-98830952D01*
X66854819Y-99307143D02*
X65854819Y-99307143D01*
X65854819Y-99640476D02*
X65854819Y-100211904D01*
X66854819Y-99926190D02*
X65854819Y-99926190D01*
X65950057Y-100497619D02*
X65902438Y-100545238D01*
X65902438Y-100545238D02*
X65854819Y-100640476D01*
X65854819Y-100640476D02*
X65854819Y-100878571D01*
X65854819Y-100878571D02*
X65902438Y-100973809D01*
X65902438Y-100973809D02*
X65950057Y-101021428D01*
X65950057Y-101021428D02*
X66045295Y-101069047D01*
X66045295Y-101069047D02*
X66140533Y-101069047D01*
X66140533Y-101069047D02*
X66283390Y-101021428D01*
X66283390Y-101021428D02*
X66854819Y-100450000D01*
X66854819Y-100450000D02*
X66854819Y-101069047D01*
X63218016Y-130588811D02*
X63265635Y-130731668D01*
X63265635Y-130731668D02*
X63265635Y-130969763D01*
X63265635Y-130969763D02*
X63218016Y-131065001D01*
X63218016Y-131065001D02*
X63170396Y-131112620D01*
X63170396Y-131112620D02*
X63075158Y-131160239D01*
X63075158Y-131160239D02*
X62979920Y-131160239D01*
X62979920Y-131160239D02*
X62884682Y-131112620D01*
X62884682Y-131112620D02*
X62837063Y-131065001D01*
X62837063Y-131065001D02*
X62789444Y-130969763D01*
X62789444Y-130969763D02*
X62741825Y-130779287D01*
X62741825Y-130779287D02*
X62694206Y-130684049D01*
X62694206Y-130684049D02*
X62646587Y-130636430D01*
X62646587Y-130636430D02*
X62551349Y-130588811D01*
X62551349Y-130588811D02*
X62456111Y-130588811D01*
X62456111Y-130588811D02*
X62360873Y-130636430D01*
X62360873Y-130636430D02*
X62313254Y-130684049D01*
X62313254Y-130684049D02*
X62265635Y-130779287D01*
X62265635Y-130779287D02*
X62265635Y-131017382D01*
X62265635Y-131017382D02*
X62313254Y-131160239D01*
X62265635Y-131445954D02*
X62265635Y-132017382D01*
X63265635Y-131731668D02*
X62265635Y-131731668D01*
X62741825Y-132350716D02*
X62741825Y-132684049D01*
X63265635Y-132826906D02*
X63265635Y-132350716D01*
X63265635Y-132350716D02*
X62265635Y-132350716D01*
X62265635Y-132350716D02*
X62265635Y-132826906D01*
X63265635Y-133255478D02*
X62265635Y-133255478D01*
X62265635Y-133255478D02*
X62265635Y-133636430D01*
X62265635Y-133636430D02*
X62313254Y-133731668D01*
X62313254Y-133731668D02*
X62360873Y-133779287D01*
X62360873Y-133779287D02*
X62456111Y-133826906D01*
X62456111Y-133826906D02*
X62598968Y-133826906D01*
X62598968Y-133826906D02*
X62694206Y-133779287D01*
X62694206Y-133779287D02*
X62741825Y-133731668D01*
X62741825Y-133731668D02*
X62789444Y-133636430D01*
X62789444Y-133636430D02*
X62789444Y-133255478D01*
X63218016Y-134207859D02*
X63265635Y-134350716D01*
X63265635Y-134350716D02*
X63265635Y-134588811D01*
X63265635Y-134588811D02*
X63218016Y-134684049D01*
X63218016Y-134684049D02*
X63170396Y-134731668D01*
X63170396Y-134731668D02*
X63075158Y-134779287D01*
X63075158Y-134779287D02*
X62979920Y-134779287D01*
X62979920Y-134779287D02*
X62884682Y-134731668D01*
X62884682Y-134731668D02*
X62837063Y-134684049D01*
X62837063Y-134684049D02*
X62789444Y-134588811D01*
X62789444Y-134588811D02*
X62741825Y-134398335D01*
X62741825Y-134398335D02*
X62694206Y-134303097D01*
X62694206Y-134303097D02*
X62646587Y-134255478D01*
X62646587Y-134255478D02*
X62551349Y-134207859D01*
X62551349Y-134207859D02*
X62456111Y-134207859D01*
X62456111Y-134207859D02*
X62360873Y-134255478D01*
X62360873Y-134255478D02*
X62313254Y-134303097D01*
X62313254Y-134303097D02*
X62265635Y-134398335D01*
X62265635Y-134398335D02*
X62265635Y-134636430D01*
X62265635Y-134636430D02*
X62313254Y-134779287D01*
X63265635Y-135207859D02*
X62265635Y-135207859D01*
X62313254Y-136207858D02*
X62265635Y-136112620D01*
X62265635Y-136112620D02*
X62265635Y-135969763D01*
X62265635Y-135969763D02*
X62313254Y-135826906D01*
X62313254Y-135826906D02*
X62408492Y-135731668D01*
X62408492Y-135731668D02*
X62503730Y-135684049D01*
X62503730Y-135684049D02*
X62694206Y-135636430D01*
X62694206Y-135636430D02*
X62837063Y-135636430D01*
X62837063Y-135636430D02*
X63027539Y-135684049D01*
X63027539Y-135684049D02*
X63122777Y-135731668D01*
X63122777Y-135731668D02*
X63218016Y-135826906D01*
X63218016Y-135826906D02*
X63265635Y-135969763D01*
X63265635Y-135969763D02*
X63265635Y-136065001D01*
X63265635Y-136065001D02*
X63218016Y-136207858D01*
X63218016Y-136207858D02*
X63170396Y-136255477D01*
X63170396Y-136255477D02*
X62837063Y-136255477D01*
X62837063Y-136255477D02*
X62837063Y-136065001D01*
X62313254Y-137207858D02*
X62265635Y-137112620D01*
X62265635Y-137112620D02*
X62265635Y-136969763D01*
X62265635Y-136969763D02*
X62313254Y-136826906D01*
X62313254Y-136826906D02*
X62408492Y-136731668D01*
X62408492Y-136731668D02*
X62503730Y-136684049D01*
X62503730Y-136684049D02*
X62694206Y-136636430D01*
X62694206Y-136636430D02*
X62837063Y-136636430D01*
X62837063Y-136636430D02*
X63027539Y-136684049D01*
X63027539Y-136684049D02*
X63122777Y-136731668D01*
X63122777Y-136731668D02*
X63218016Y-136826906D01*
X63218016Y-136826906D02*
X63265635Y-136969763D01*
X63265635Y-136969763D02*
X63265635Y-137065001D01*
X63265635Y-137065001D02*
X63218016Y-137207858D01*
X63218016Y-137207858D02*
X63170396Y-137255477D01*
X63170396Y-137255477D02*
X62837063Y-137255477D01*
X62837063Y-137255477D02*
X62837063Y-137065001D01*
X63265635Y-137684049D02*
X62265635Y-137684049D01*
X62265635Y-137684049D02*
X63265635Y-138255477D01*
X63265635Y-138255477D02*
X62265635Y-138255477D01*
X63265635Y-138731668D02*
X62265635Y-138731668D01*
X62265635Y-138731668D02*
X62265635Y-138969763D01*
X62265635Y-138969763D02*
X62313254Y-139112620D01*
X62313254Y-139112620D02*
X62408492Y-139207858D01*
X62408492Y-139207858D02*
X62503730Y-139255477D01*
X62503730Y-139255477D02*
X62694206Y-139303096D01*
X62694206Y-139303096D02*
X62837063Y-139303096D01*
X62837063Y-139303096D02*
X63027539Y-139255477D01*
X63027539Y-139255477D02*
X63122777Y-139207858D01*
X63122777Y-139207858D02*
X63218016Y-139112620D01*
X63218016Y-139112620D02*
X63265635Y-138969763D01*
X63265635Y-138969763D02*
X63265635Y-138731668D01*
X62360873Y-139684049D02*
X62313254Y-139731668D01*
X62313254Y-139731668D02*
X62265635Y-139826906D01*
X62265635Y-139826906D02*
X62265635Y-140065001D01*
X62265635Y-140065001D02*
X62313254Y-140160239D01*
X62313254Y-140160239D02*
X62360873Y-140207858D01*
X62360873Y-140207858D02*
X62456111Y-140255477D01*
X62456111Y-140255477D02*
X62551349Y-140255477D01*
X62551349Y-140255477D02*
X62694206Y-140207858D01*
X62694206Y-140207858D02*
X63265635Y-139636430D01*
X63265635Y-139636430D02*
X63265635Y-140255477D01*
X63057200Y-50012620D02*
X63104819Y-50155477D01*
X63104819Y-50155477D02*
X63104819Y-50393572D01*
X63104819Y-50393572D02*
X63057200Y-50488810D01*
X63057200Y-50488810D02*
X63009580Y-50536429D01*
X63009580Y-50536429D02*
X62914342Y-50584048D01*
X62914342Y-50584048D02*
X62819104Y-50584048D01*
X62819104Y-50584048D02*
X62723866Y-50536429D01*
X62723866Y-50536429D02*
X62676247Y-50488810D01*
X62676247Y-50488810D02*
X62628628Y-50393572D01*
X62628628Y-50393572D02*
X62581009Y-50203096D01*
X62581009Y-50203096D02*
X62533390Y-50107858D01*
X62533390Y-50107858D02*
X62485771Y-50060239D01*
X62485771Y-50060239D02*
X62390533Y-50012620D01*
X62390533Y-50012620D02*
X62295295Y-50012620D01*
X62295295Y-50012620D02*
X62200057Y-50060239D01*
X62200057Y-50060239D02*
X62152438Y-50107858D01*
X62152438Y-50107858D02*
X62104819Y-50203096D01*
X62104819Y-50203096D02*
X62104819Y-50441191D01*
X62104819Y-50441191D02*
X62152438Y-50584048D01*
X62104819Y-50869763D02*
X62104819Y-51441191D01*
X63104819Y-51155477D02*
X62104819Y-51155477D01*
X62581009Y-51774525D02*
X62581009Y-52107858D01*
X63104819Y-52250715D02*
X63104819Y-51774525D01*
X63104819Y-51774525D02*
X62104819Y-51774525D01*
X62104819Y-51774525D02*
X62104819Y-52250715D01*
X63104819Y-52679287D02*
X62104819Y-52679287D01*
X62104819Y-52679287D02*
X62104819Y-53060239D01*
X62104819Y-53060239D02*
X62152438Y-53155477D01*
X62152438Y-53155477D02*
X62200057Y-53203096D01*
X62200057Y-53203096D02*
X62295295Y-53250715D01*
X62295295Y-53250715D02*
X62438152Y-53250715D01*
X62438152Y-53250715D02*
X62533390Y-53203096D01*
X62533390Y-53203096D02*
X62581009Y-53155477D01*
X62581009Y-53155477D02*
X62628628Y-53060239D01*
X62628628Y-53060239D02*
X62628628Y-52679287D01*
X63057200Y-53631668D02*
X63104819Y-53774525D01*
X63104819Y-53774525D02*
X63104819Y-54012620D01*
X63104819Y-54012620D02*
X63057200Y-54107858D01*
X63057200Y-54107858D02*
X63009580Y-54155477D01*
X63009580Y-54155477D02*
X62914342Y-54203096D01*
X62914342Y-54203096D02*
X62819104Y-54203096D01*
X62819104Y-54203096D02*
X62723866Y-54155477D01*
X62723866Y-54155477D02*
X62676247Y-54107858D01*
X62676247Y-54107858D02*
X62628628Y-54012620D01*
X62628628Y-54012620D02*
X62581009Y-53822144D01*
X62581009Y-53822144D02*
X62533390Y-53726906D01*
X62533390Y-53726906D02*
X62485771Y-53679287D01*
X62485771Y-53679287D02*
X62390533Y-53631668D01*
X62390533Y-53631668D02*
X62295295Y-53631668D01*
X62295295Y-53631668D02*
X62200057Y-53679287D01*
X62200057Y-53679287D02*
X62152438Y-53726906D01*
X62152438Y-53726906D02*
X62104819Y-53822144D01*
X62104819Y-53822144D02*
X62104819Y-54060239D01*
X62104819Y-54060239D02*
X62152438Y-54203096D01*
X63104819Y-54631668D02*
X62104819Y-54631668D01*
X62152438Y-55631667D02*
X62104819Y-55536429D01*
X62104819Y-55536429D02*
X62104819Y-55393572D01*
X62104819Y-55393572D02*
X62152438Y-55250715D01*
X62152438Y-55250715D02*
X62247676Y-55155477D01*
X62247676Y-55155477D02*
X62342914Y-55107858D01*
X62342914Y-55107858D02*
X62533390Y-55060239D01*
X62533390Y-55060239D02*
X62676247Y-55060239D01*
X62676247Y-55060239D02*
X62866723Y-55107858D01*
X62866723Y-55107858D02*
X62961961Y-55155477D01*
X62961961Y-55155477D02*
X63057200Y-55250715D01*
X63057200Y-55250715D02*
X63104819Y-55393572D01*
X63104819Y-55393572D02*
X63104819Y-55488810D01*
X63104819Y-55488810D02*
X63057200Y-55631667D01*
X63057200Y-55631667D02*
X63009580Y-55679286D01*
X63009580Y-55679286D02*
X62676247Y-55679286D01*
X62676247Y-55679286D02*
X62676247Y-55488810D01*
X63104819Y-56631667D02*
X63104819Y-56060239D01*
X63104819Y-56345953D02*
X62104819Y-56345953D01*
X62104819Y-56345953D02*
X62247676Y-56250715D01*
X62247676Y-56250715D02*
X62342914Y-56155477D01*
X62342914Y-56155477D02*
X62390533Y-56060239D01*
X130004819Y-52254762D02*
X130004819Y-52826190D01*
X131004819Y-52540476D02*
X130004819Y-52540476D01*
X131004819Y-53635714D02*
X131004819Y-53159524D01*
X131004819Y-53159524D02*
X130004819Y-53159524D01*
X130100057Y-53921429D02*
X130052438Y-53969048D01*
X130052438Y-53969048D02*
X130004819Y-54064286D01*
X130004819Y-54064286D02*
X130004819Y-54302381D01*
X130004819Y-54302381D02*
X130052438Y-54397619D01*
X130052438Y-54397619D02*
X130100057Y-54445238D01*
X130100057Y-54445238D02*
X130195295Y-54492857D01*
X130195295Y-54492857D02*
X130290533Y-54492857D01*
X130290533Y-54492857D02*
X130433390Y-54445238D01*
X130433390Y-54445238D02*
X131004819Y-53873810D01*
X131004819Y-53873810D02*
X131004819Y-54492857D01*
X130004819Y-55397619D02*
X130004819Y-54921429D01*
X130004819Y-54921429D02*
X130481009Y-54873810D01*
X130481009Y-54873810D02*
X130433390Y-54921429D01*
X130433390Y-54921429D02*
X130385771Y-55016667D01*
X130385771Y-55016667D02*
X130385771Y-55254762D01*
X130385771Y-55254762D02*
X130433390Y-55350000D01*
X130433390Y-55350000D02*
X130481009Y-55397619D01*
X130481009Y-55397619D02*
X130576247Y-55445238D01*
X130576247Y-55445238D02*
X130814342Y-55445238D01*
X130814342Y-55445238D02*
X130909580Y-55397619D01*
X130909580Y-55397619D02*
X130957200Y-55350000D01*
X130957200Y-55350000D02*
X131004819Y-55254762D01*
X131004819Y-55254762D02*
X131004819Y-55016667D01*
X131004819Y-55016667D02*
X130957200Y-54921429D01*
X130957200Y-54921429D02*
X130909580Y-54873810D01*
X130004819Y-55778572D02*
X130004819Y-56445238D01*
X130004819Y-56445238D02*
X131004819Y-56016667D01*
X130004819Y-57302381D02*
X130004819Y-56826191D01*
X130004819Y-56826191D02*
X130481009Y-56778572D01*
X130481009Y-56778572D02*
X130433390Y-56826191D01*
X130433390Y-56826191D02*
X130385771Y-56921429D01*
X130385771Y-56921429D02*
X130385771Y-57159524D01*
X130385771Y-57159524D02*
X130433390Y-57254762D01*
X130433390Y-57254762D02*
X130481009Y-57302381D01*
X130481009Y-57302381D02*
X130576247Y-57350000D01*
X130576247Y-57350000D02*
X130814342Y-57350000D01*
X130814342Y-57350000D02*
X130909580Y-57302381D01*
X130909580Y-57302381D02*
X130957200Y-57254762D01*
X130957200Y-57254762D02*
X131004819Y-57159524D01*
X131004819Y-57159524D02*
X131004819Y-56921429D01*
X131004819Y-56921429D02*
X130957200Y-56826191D01*
X130957200Y-56826191D02*
X130909580Y-56778572D01*
X83933333Y-31659819D02*
X83933333Y-32374104D01*
X83933333Y-32374104D02*
X83980952Y-32516961D01*
X83980952Y-32516961D02*
X84076190Y-32612200D01*
X84076190Y-32612200D02*
X84219047Y-32659819D01*
X84219047Y-32659819D02*
X84314285Y-32659819D01*
X83504761Y-31755057D02*
X83457142Y-31707438D01*
X83457142Y-31707438D02*
X83361904Y-31659819D01*
X83361904Y-31659819D02*
X83123809Y-31659819D01*
X83123809Y-31659819D02*
X83028571Y-31707438D01*
X83028571Y-31707438D02*
X82980952Y-31755057D01*
X82980952Y-31755057D02*
X82933333Y-31850295D01*
X82933333Y-31850295D02*
X82933333Y-31945533D01*
X82933333Y-31945533D02*
X82980952Y-32088390D01*
X82980952Y-32088390D02*
X83552380Y-32659819D01*
X83552380Y-32659819D02*
X82933333Y-32659819D01*
X63318016Y-142663096D02*
X63365635Y-142805953D01*
X63365635Y-142805953D02*
X63365635Y-143044048D01*
X63365635Y-143044048D02*
X63318016Y-143139286D01*
X63318016Y-143139286D02*
X63270396Y-143186905D01*
X63270396Y-143186905D02*
X63175158Y-143234524D01*
X63175158Y-143234524D02*
X63079920Y-143234524D01*
X63079920Y-143234524D02*
X62984682Y-143186905D01*
X62984682Y-143186905D02*
X62937063Y-143139286D01*
X62937063Y-143139286D02*
X62889444Y-143044048D01*
X62889444Y-143044048D02*
X62841825Y-142853572D01*
X62841825Y-142853572D02*
X62794206Y-142758334D01*
X62794206Y-142758334D02*
X62746587Y-142710715D01*
X62746587Y-142710715D02*
X62651349Y-142663096D01*
X62651349Y-142663096D02*
X62556111Y-142663096D01*
X62556111Y-142663096D02*
X62460873Y-142710715D01*
X62460873Y-142710715D02*
X62413254Y-142758334D01*
X62413254Y-142758334D02*
X62365635Y-142853572D01*
X62365635Y-142853572D02*
X62365635Y-143091667D01*
X62365635Y-143091667D02*
X62413254Y-143234524D01*
X62365635Y-143520239D02*
X62365635Y-144091667D01*
X63365635Y-143805953D02*
X62365635Y-143805953D01*
X62841825Y-144425001D02*
X62841825Y-144758334D01*
X63365635Y-144901191D02*
X63365635Y-144425001D01*
X63365635Y-144425001D02*
X62365635Y-144425001D01*
X62365635Y-144425001D02*
X62365635Y-144901191D01*
X63365635Y-145329763D02*
X62365635Y-145329763D01*
X62365635Y-145329763D02*
X62365635Y-145710715D01*
X62365635Y-145710715D02*
X62413254Y-145805953D01*
X62413254Y-145805953D02*
X62460873Y-145853572D01*
X62460873Y-145853572D02*
X62556111Y-145901191D01*
X62556111Y-145901191D02*
X62698968Y-145901191D01*
X62698968Y-145901191D02*
X62794206Y-145853572D01*
X62794206Y-145853572D02*
X62841825Y-145805953D01*
X62841825Y-145805953D02*
X62889444Y-145710715D01*
X62889444Y-145710715D02*
X62889444Y-145329763D01*
X62413254Y-146853572D02*
X62365635Y-146758334D01*
X62365635Y-146758334D02*
X62365635Y-146615477D01*
X62365635Y-146615477D02*
X62413254Y-146472620D01*
X62413254Y-146472620D02*
X62508492Y-146377382D01*
X62508492Y-146377382D02*
X62603730Y-146329763D01*
X62603730Y-146329763D02*
X62794206Y-146282144D01*
X62794206Y-146282144D02*
X62937063Y-146282144D01*
X62937063Y-146282144D02*
X63127539Y-146329763D01*
X63127539Y-146329763D02*
X63222777Y-146377382D01*
X63222777Y-146377382D02*
X63318016Y-146472620D01*
X63318016Y-146472620D02*
X63365635Y-146615477D01*
X63365635Y-146615477D02*
X63365635Y-146710715D01*
X63365635Y-146710715D02*
X63318016Y-146853572D01*
X63318016Y-146853572D02*
X63270396Y-146901191D01*
X63270396Y-146901191D02*
X62937063Y-146901191D01*
X62937063Y-146901191D02*
X62937063Y-146710715D01*
X63365635Y-147329763D02*
X62365635Y-147329763D01*
X62365635Y-147329763D02*
X63365635Y-147901191D01*
X63365635Y-147901191D02*
X62365635Y-147901191D01*
X63365635Y-148377382D02*
X62365635Y-148377382D01*
X62365635Y-148377382D02*
X62365635Y-148615477D01*
X62365635Y-148615477D02*
X62413254Y-148758334D01*
X62413254Y-148758334D02*
X62508492Y-148853572D01*
X62508492Y-148853572D02*
X62603730Y-148901191D01*
X62603730Y-148901191D02*
X62794206Y-148948810D01*
X62794206Y-148948810D02*
X62937063Y-148948810D01*
X62937063Y-148948810D02*
X63127539Y-148901191D01*
X63127539Y-148901191D02*
X63222777Y-148853572D01*
X63222777Y-148853572D02*
X63318016Y-148758334D01*
X63318016Y-148758334D02*
X63365635Y-148615477D01*
X63365635Y-148615477D02*
X63365635Y-148377382D01*
X63365635Y-149901191D02*
X63365635Y-149329763D01*
X63365635Y-149615477D02*
X62365635Y-149615477D01*
X62365635Y-149615477D02*
X62508492Y-149520239D01*
X62508492Y-149520239D02*
X62603730Y-149425001D01*
X62603730Y-149425001D02*
X62651349Y-149329763D01*
X63218016Y-112838811D02*
X63265635Y-112981668D01*
X63265635Y-112981668D02*
X63265635Y-113219763D01*
X63265635Y-113219763D02*
X63218016Y-113315001D01*
X63218016Y-113315001D02*
X63170396Y-113362620D01*
X63170396Y-113362620D02*
X63075158Y-113410239D01*
X63075158Y-113410239D02*
X62979920Y-113410239D01*
X62979920Y-113410239D02*
X62884682Y-113362620D01*
X62884682Y-113362620D02*
X62837063Y-113315001D01*
X62837063Y-113315001D02*
X62789444Y-113219763D01*
X62789444Y-113219763D02*
X62741825Y-113029287D01*
X62741825Y-113029287D02*
X62694206Y-112934049D01*
X62694206Y-112934049D02*
X62646587Y-112886430D01*
X62646587Y-112886430D02*
X62551349Y-112838811D01*
X62551349Y-112838811D02*
X62456111Y-112838811D01*
X62456111Y-112838811D02*
X62360873Y-112886430D01*
X62360873Y-112886430D02*
X62313254Y-112934049D01*
X62313254Y-112934049D02*
X62265635Y-113029287D01*
X62265635Y-113029287D02*
X62265635Y-113267382D01*
X62265635Y-113267382D02*
X62313254Y-113410239D01*
X62265635Y-113695954D02*
X62265635Y-114267382D01*
X63265635Y-113981668D02*
X62265635Y-113981668D01*
X62741825Y-114600716D02*
X62741825Y-114934049D01*
X63265635Y-115076906D02*
X63265635Y-114600716D01*
X63265635Y-114600716D02*
X62265635Y-114600716D01*
X62265635Y-114600716D02*
X62265635Y-115076906D01*
X63265635Y-115505478D02*
X62265635Y-115505478D01*
X62265635Y-115505478D02*
X62265635Y-115886430D01*
X62265635Y-115886430D02*
X62313254Y-115981668D01*
X62313254Y-115981668D02*
X62360873Y-116029287D01*
X62360873Y-116029287D02*
X62456111Y-116076906D01*
X62456111Y-116076906D02*
X62598968Y-116076906D01*
X62598968Y-116076906D02*
X62694206Y-116029287D01*
X62694206Y-116029287D02*
X62741825Y-115981668D01*
X62741825Y-115981668D02*
X62789444Y-115886430D01*
X62789444Y-115886430D02*
X62789444Y-115505478D01*
X63218016Y-116457859D02*
X63265635Y-116600716D01*
X63265635Y-116600716D02*
X63265635Y-116838811D01*
X63265635Y-116838811D02*
X63218016Y-116934049D01*
X63218016Y-116934049D02*
X63170396Y-116981668D01*
X63170396Y-116981668D02*
X63075158Y-117029287D01*
X63075158Y-117029287D02*
X62979920Y-117029287D01*
X62979920Y-117029287D02*
X62884682Y-116981668D01*
X62884682Y-116981668D02*
X62837063Y-116934049D01*
X62837063Y-116934049D02*
X62789444Y-116838811D01*
X62789444Y-116838811D02*
X62741825Y-116648335D01*
X62741825Y-116648335D02*
X62694206Y-116553097D01*
X62694206Y-116553097D02*
X62646587Y-116505478D01*
X62646587Y-116505478D02*
X62551349Y-116457859D01*
X62551349Y-116457859D02*
X62456111Y-116457859D01*
X62456111Y-116457859D02*
X62360873Y-116505478D01*
X62360873Y-116505478D02*
X62313254Y-116553097D01*
X62313254Y-116553097D02*
X62265635Y-116648335D01*
X62265635Y-116648335D02*
X62265635Y-116886430D01*
X62265635Y-116886430D02*
X62313254Y-117029287D01*
X63265635Y-117457859D02*
X62265635Y-117457859D01*
X62313254Y-118457858D02*
X62265635Y-118362620D01*
X62265635Y-118362620D02*
X62265635Y-118219763D01*
X62265635Y-118219763D02*
X62313254Y-118076906D01*
X62313254Y-118076906D02*
X62408492Y-117981668D01*
X62408492Y-117981668D02*
X62503730Y-117934049D01*
X62503730Y-117934049D02*
X62694206Y-117886430D01*
X62694206Y-117886430D02*
X62837063Y-117886430D01*
X62837063Y-117886430D02*
X63027539Y-117934049D01*
X63027539Y-117934049D02*
X63122777Y-117981668D01*
X63122777Y-117981668D02*
X63218016Y-118076906D01*
X63218016Y-118076906D02*
X63265635Y-118219763D01*
X63265635Y-118219763D02*
X63265635Y-118315001D01*
X63265635Y-118315001D02*
X63218016Y-118457858D01*
X63218016Y-118457858D02*
X63170396Y-118505477D01*
X63170396Y-118505477D02*
X62837063Y-118505477D01*
X62837063Y-118505477D02*
X62837063Y-118315001D01*
X62313254Y-119457858D02*
X62265635Y-119362620D01*
X62265635Y-119362620D02*
X62265635Y-119219763D01*
X62265635Y-119219763D02*
X62313254Y-119076906D01*
X62313254Y-119076906D02*
X62408492Y-118981668D01*
X62408492Y-118981668D02*
X62503730Y-118934049D01*
X62503730Y-118934049D02*
X62694206Y-118886430D01*
X62694206Y-118886430D02*
X62837063Y-118886430D01*
X62837063Y-118886430D02*
X63027539Y-118934049D01*
X63027539Y-118934049D02*
X63122777Y-118981668D01*
X63122777Y-118981668D02*
X63218016Y-119076906D01*
X63218016Y-119076906D02*
X63265635Y-119219763D01*
X63265635Y-119219763D02*
X63265635Y-119315001D01*
X63265635Y-119315001D02*
X63218016Y-119457858D01*
X63218016Y-119457858D02*
X63170396Y-119505477D01*
X63170396Y-119505477D02*
X62837063Y-119505477D01*
X62837063Y-119505477D02*
X62837063Y-119315001D01*
X63265635Y-119934049D02*
X62265635Y-119934049D01*
X62265635Y-119934049D02*
X63265635Y-120505477D01*
X63265635Y-120505477D02*
X62265635Y-120505477D01*
X63265635Y-120981668D02*
X62265635Y-120981668D01*
X62265635Y-120981668D02*
X62265635Y-121219763D01*
X62265635Y-121219763D02*
X62313254Y-121362620D01*
X62313254Y-121362620D02*
X62408492Y-121457858D01*
X62408492Y-121457858D02*
X62503730Y-121505477D01*
X62503730Y-121505477D02*
X62694206Y-121553096D01*
X62694206Y-121553096D02*
X62837063Y-121553096D01*
X62837063Y-121553096D02*
X63027539Y-121505477D01*
X63027539Y-121505477D02*
X63122777Y-121457858D01*
X63122777Y-121457858D02*
X63218016Y-121362620D01*
X63218016Y-121362620D02*
X63265635Y-121219763D01*
X63265635Y-121219763D02*
X63265635Y-120981668D01*
X63265635Y-122505477D02*
X63265635Y-121934049D01*
X63265635Y-122219763D02*
X62265635Y-122219763D01*
X62265635Y-122219763D02*
X62408492Y-122124525D01*
X62408492Y-122124525D02*
X62503730Y-122029287D01*
X62503730Y-122029287D02*
X62551349Y-121934049D01*
X73064819Y-85537618D02*
X73064819Y-85061428D01*
X73064819Y-85061428D02*
X72064819Y-85061428D01*
X73064819Y-85870952D02*
X72064819Y-85870952D01*
X73064819Y-86347142D02*
X72064819Y-86347142D01*
X72064819Y-86347142D02*
X72779104Y-86680475D01*
X72779104Y-86680475D02*
X72064819Y-87013808D01*
X72064819Y-87013808D02*
X73064819Y-87013808D01*
X73064819Y-87489999D02*
X72064819Y-87489999D01*
X72064819Y-87823332D02*
X72064819Y-88394760D01*
X73064819Y-88109046D02*
X72064819Y-88109046D01*
X73064819Y-89251903D02*
X73064819Y-88680475D01*
X73064819Y-88966189D02*
X72064819Y-88966189D01*
X72064819Y-88966189D02*
X72207676Y-88870951D01*
X72207676Y-88870951D02*
X72302914Y-88775713D01*
X72302914Y-88775713D02*
X72350533Y-88680475D01*
X116754819Y-82433333D02*
X116754819Y-81957143D01*
X116754819Y-81957143D02*
X115754819Y-81957143D01*
X116754819Y-83290476D02*
X116754819Y-82719048D01*
X116754819Y-83004762D02*
X115754819Y-83004762D01*
X115754819Y-83004762D02*
X115897676Y-82909524D01*
X115897676Y-82909524D02*
X115992914Y-82814286D01*
X115992914Y-82814286D02*
X116040533Y-82719048D01*
X63167200Y-17238333D02*
X63214819Y-17381190D01*
X63214819Y-17381190D02*
X63214819Y-17619285D01*
X63214819Y-17619285D02*
X63167200Y-17714523D01*
X63167200Y-17714523D02*
X63119580Y-17762142D01*
X63119580Y-17762142D02*
X63024342Y-17809761D01*
X63024342Y-17809761D02*
X62929104Y-17809761D01*
X62929104Y-17809761D02*
X62833866Y-17762142D01*
X62833866Y-17762142D02*
X62786247Y-17714523D01*
X62786247Y-17714523D02*
X62738628Y-17619285D01*
X62738628Y-17619285D02*
X62691009Y-17428809D01*
X62691009Y-17428809D02*
X62643390Y-17333571D01*
X62643390Y-17333571D02*
X62595771Y-17285952D01*
X62595771Y-17285952D02*
X62500533Y-17238333D01*
X62500533Y-17238333D02*
X62405295Y-17238333D01*
X62405295Y-17238333D02*
X62310057Y-17285952D01*
X62310057Y-17285952D02*
X62262438Y-17333571D01*
X62262438Y-17333571D02*
X62214819Y-17428809D01*
X62214819Y-17428809D02*
X62214819Y-17666904D01*
X62214819Y-17666904D02*
X62262438Y-17809761D01*
X62214819Y-18095476D02*
X62214819Y-18666904D01*
X63214819Y-18381190D02*
X62214819Y-18381190D01*
X62691009Y-19000238D02*
X62691009Y-19333571D01*
X63214819Y-19476428D02*
X63214819Y-19000238D01*
X63214819Y-19000238D02*
X62214819Y-19000238D01*
X62214819Y-19000238D02*
X62214819Y-19476428D01*
X63214819Y-19905000D02*
X62214819Y-19905000D01*
X62214819Y-19905000D02*
X62214819Y-20285952D01*
X62214819Y-20285952D02*
X62262438Y-20381190D01*
X62262438Y-20381190D02*
X62310057Y-20428809D01*
X62310057Y-20428809D02*
X62405295Y-20476428D01*
X62405295Y-20476428D02*
X62548152Y-20476428D01*
X62548152Y-20476428D02*
X62643390Y-20428809D01*
X62643390Y-20428809D02*
X62691009Y-20381190D01*
X62691009Y-20381190D02*
X62738628Y-20285952D01*
X62738628Y-20285952D02*
X62738628Y-19905000D01*
X63214819Y-20905000D02*
X62214819Y-20905000D01*
X62214819Y-20905000D02*
X62214819Y-21285952D01*
X62214819Y-21285952D02*
X62262438Y-21381190D01*
X62262438Y-21381190D02*
X62310057Y-21428809D01*
X62310057Y-21428809D02*
X62405295Y-21476428D01*
X62405295Y-21476428D02*
X62548152Y-21476428D01*
X62548152Y-21476428D02*
X62643390Y-21428809D01*
X62643390Y-21428809D02*
X62691009Y-21381190D01*
X62691009Y-21381190D02*
X62738628Y-21285952D01*
X62738628Y-21285952D02*
X62738628Y-20905000D01*
X62214819Y-21809762D02*
X63214819Y-22047857D01*
X63214819Y-22047857D02*
X62500533Y-22238333D01*
X62500533Y-22238333D02*
X63214819Y-22428809D01*
X63214819Y-22428809D02*
X62214819Y-22666905D01*
X63214819Y-23619285D02*
X62738628Y-23285952D01*
X63214819Y-23047857D02*
X62214819Y-23047857D01*
X62214819Y-23047857D02*
X62214819Y-23428809D01*
X62214819Y-23428809D02*
X62262438Y-23524047D01*
X62262438Y-23524047D02*
X62310057Y-23571666D01*
X62310057Y-23571666D02*
X62405295Y-23619285D01*
X62405295Y-23619285D02*
X62548152Y-23619285D01*
X62548152Y-23619285D02*
X62643390Y-23571666D01*
X62643390Y-23571666D02*
X62691009Y-23524047D01*
X62691009Y-23524047D02*
X62738628Y-23428809D01*
X62738628Y-23428809D02*
X62738628Y-23047857D01*
X63214819Y-24571666D02*
X63214819Y-24000238D01*
X63214819Y-24285952D02*
X62214819Y-24285952D01*
X62214819Y-24285952D02*
X62357676Y-24190714D01*
X62357676Y-24190714D02*
X62452914Y-24095476D01*
X62452914Y-24095476D02*
X62500533Y-24000238D01*
X140888094Y-75024819D02*
X140888094Y-74024819D01*
X140888094Y-74024819D02*
X140649999Y-74024819D01*
X140649999Y-74024819D02*
X140507142Y-74072438D01*
X140507142Y-74072438D02*
X140411904Y-74167676D01*
X140411904Y-74167676D02*
X140364285Y-74262914D01*
X140364285Y-74262914D02*
X140316666Y-74453390D01*
X140316666Y-74453390D02*
X140316666Y-74596247D01*
X140316666Y-74596247D02*
X140364285Y-74786723D01*
X140364285Y-74786723D02*
X140411904Y-74881961D01*
X140411904Y-74881961D02*
X140507142Y-74977200D01*
X140507142Y-74977200D02*
X140649999Y-75024819D01*
X140649999Y-75024819D02*
X140888094Y-75024819D01*
X139364285Y-75024819D02*
X139935713Y-75024819D01*
X139649999Y-75024819D02*
X139649999Y-74024819D01*
X139649999Y-74024819D02*
X139745237Y-74167676D01*
X139745237Y-74167676D02*
X139840475Y-74262914D01*
X139840475Y-74262914D02*
X139935713Y-74310533D01*
X134061904Y-73904819D02*
X134061904Y-72904819D01*
X133490476Y-73904819D02*
X133919047Y-73333390D01*
X133490476Y-72904819D02*
X134061904Y-73476247D01*
X100124285Y-114296248D02*
X99648095Y-114296248D01*
X100219523Y-114581963D02*
X99886190Y-113581963D01*
X99886190Y-113581963D02*
X99552857Y-114581963D01*
X98695714Y-114581963D02*
X99267142Y-114581963D01*
X98981428Y-114581963D02*
X98981428Y-113581963D01*
X98981428Y-113581963D02*
X99076666Y-113724820D01*
X99076666Y-113724820D02*
X99171904Y-113820058D01*
X99171904Y-113820058D02*
X99267142Y-113867677D01*
X98148095Y-74032324D02*
X98148095Y-73222801D01*
X98148095Y-73222801D02*
X98195714Y-73127563D01*
X98195714Y-73127563D02*
X98243333Y-73079944D01*
X98243333Y-73079944D02*
X98338571Y-73032324D01*
X98338571Y-73032324D02*
X98529047Y-73032324D01*
X98529047Y-73032324D02*
X98624285Y-73079944D01*
X98624285Y-73079944D02*
X98671904Y-73127563D01*
X98671904Y-73127563D02*
X98719523Y-73222801D01*
X98719523Y-73222801D02*
X98719523Y-74032324D01*
X99148095Y-73079944D02*
X99290952Y-73032324D01*
X99290952Y-73032324D02*
X99529047Y-73032324D01*
X99529047Y-73032324D02*
X99624285Y-73079944D01*
X99624285Y-73079944D02*
X99671904Y-73127563D01*
X99671904Y-73127563D02*
X99719523Y-73222801D01*
X99719523Y-73222801D02*
X99719523Y-73318039D01*
X99719523Y-73318039D02*
X99671904Y-73413277D01*
X99671904Y-73413277D02*
X99624285Y-73460896D01*
X99624285Y-73460896D02*
X99529047Y-73508515D01*
X99529047Y-73508515D02*
X99338571Y-73556134D01*
X99338571Y-73556134D02*
X99243333Y-73603753D01*
X99243333Y-73603753D02*
X99195714Y-73651372D01*
X99195714Y-73651372D02*
X99148095Y-73746610D01*
X99148095Y-73746610D02*
X99148095Y-73841848D01*
X99148095Y-73841848D02*
X99195714Y-73937086D01*
X99195714Y-73937086D02*
X99243333Y-73984705D01*
X99243333Y-73984705D02*
X99338571Y-74032324D01*
X99338571Y-74032324D02*
X99576666Y-74032324D01*
X99576666Y-74032324D02*
X99719523Y-73984705D01*
X100481428Y-73556134D02*
X100624285Y-73508515D01*
X100624285Y-73508515D02*
X100671904Y-73460896D01*
X100671904Y-73460896D02*
X100719523Y-73365658D01*
X100719523Y-73365658D02*
X100719523Y-73222801D01*
X100719523Y-73222801D02*
X100671904Y-73127563D01*
X100671904Y-73127563D02*
X100624285Y-73079944D01*
X100624285Y-73079944D02*
X100529047Y-73032324D01*
X100529047Y-73032324D02*
X100148095Y-73032324D01*
X100148095Y-73032324D02*
X100148095Y-74032324D01*
X100148095Y-74032324D02*
X100481428Y-74032324D01*
X100481428Y-74032324D02*
X100576666Y-73984705D01*
X100576666Y-73984705D02*
X100624285Y-73937086D01*
X100624285Y-73937086D02*
X100671904Y-73841848D01*
X100671904Y-73841848D02*
X100671904Y-73746610D01*
X100671904Y-73746610D02*
X100624285Y-73651372D01*
X100624285Y-73651372D02*
X100576666Y-73603753D01*
X100576666Y-73603753D02*
X100481428Y-73556134D01*
X100481428Y-73556134D02*
X100148095Y-73556134D01*
X107112618Y-63394819D02*
X107112618Y-64109104D01*
X107112618Y-64109104D02*
X107160237Y-64251961D01*
X107160237Y-64251961D02*
X107255475Y-64347200D01*
X107255475Y-64347200D02*
X107398332Y-64394819D01*
X107398332Y-64394819D02*
X107493570Y-64394819D01*
X106445951Y-63394819D02*
X106255475Y-63394819D01*
X106255475Y-63394819D02*
X106160237Y-63442438D01*
X106160237Y-63442438D02*
X106064999Y-63537676D01*
X106064999Y-63537676D02*
X106017380Y-63728152D01*
X106017380Y-63728152D02*
X106017380Y-64061485D01*
X106017380Y-64061485D02*
X106064999Y-64251961D01*
X106064999Y-64251961D02*
X106160237Y-64347200D01*
X106160237Y-64347200D02*
X106255475Y-64394819D01*
X106255475Y-64394819D02*
X106445951Y-64394819D01*
X106445951Y-64394819D02*
X106541189Y-64347200D01*
X106541189Y-64347200D02*
X106636427Y-64251961D01*
X106636427Y-64251961D02*
X106684046Y-64061485D01*
X106684046Y-64061485D02*
X106684046Y-63728152D01*
X106684046Y-63728152D02*
X106636427Y-63537676D01*
X106636427Y-63537676D02*
X106541189Y-63442438D01*
X106541189Y-63442438D02*
X106445951Y-63394819D01*
X105398332Y-63918628D02*
X105398332Y-64394819D01*
X105731665Y-63394819D02*
X105398332Y-63918628D01*
X105398332Y-63918628D02*
X105064999Y-63394819D01*
X104731665Y-64394819D02*
X104731665Y-63394819D01*
X104255475Y-64394819D02*
X104255475Y-63394819D01*
X104255475Y-63394819D02*
X103684047Y-64394819D01*
X103684047Y-64394819D02*
X103684047Y-63394819D01*
X102684047Y-64394819D02*
X103255475Y-64394819D01*
X102969761Y-64394819D02*
X102969761Y-63394819D01*
X102969761Y-63394819D02*
X103064999Y-63537676D01*
X103064999Y-63537676D02*
X103160237Y-63632914D01*
X103160237Y-63632914D02*
X103255475Y-63680533D01*
X116454819Y-103933333D02*
X116454819Y-103457143D01*
X116454819Y-103457143D02*
X115454819Y-103457143D01*
X115550057Y-104219048D02*
X115502438Y-104266667D01*
X115502438Y-104266667D02*
X115454819Y-104361905D01*
X115454819Y-104361905D02*
X115454819Y-104600000D01*
X115454819Y-104600000D02*
X115502438Y-104695238D01*
X115502438Y-104695238D02*
X115550057Y-104742857D01*
X115550057Y-104742857D02*
X115645295Y-104790476D01*
X115645295Y-104790476D02*
X115740533Y-104790476D01*
X115740533Y-104790476D02*
X115883390Y-104742857D01*
X115883390Y-104742857D02*
X116454819Y-104171429D01*
X116454819Y-104171429D02*
X116454819Y-104790476D01*
X134009580Y-52383333D02*
X134057200Y-52335714D01*
X134057200Y-52335714D02*
X134104819Y-52192857D01*
X134104819Y-52192857D02*
X134104819Y-52097619D01*
X134104819Y-52097619D02*
X134057200Y-51954762D01*
X134057200Y-51954762D02*
X133961961Y-51859524D01*
X133961961Y-51859524D02*
X133866723Y-51811905D01*
X133866723Y-51811905D02*
X133676247Y-51764286D01*
X133676247Y-51764286D02*
X133533390Y-51764286D01*
X133533390Y-51764286D02*
X133342914Y-51811905D01*
X133342914Y-51811905D02*
X133247676Y-51859524D01*
X133247676Y-51859524D02*
X133152438Y-51954762D01*
X133152438Y-51954762D02*
X133104819Y-52097619D01*
X133104819Y-52097619D02*
X133104819Y-52192857D01*
X133104819Y-52192857D02*
X133152438Y-52335714D01*
X133152438Y-52335714D02*
X133200057Y-52383333D01*
X134104819Y-53335714D02*
X134104819Y-52764286D01*
X134104819Y-53050000D02*
X133104819Y-53050000D01*
X133104819Y-53050000D02*
X133247676Y-52954762D01*
X133247676Y-52954762D02*
X133342914Y-52859524D01*
X133342914Y-52859524D02*
X133390533Y-52764286D01*
X63057200Y-67762620D02*
X63104819Y-67905477D01*
X63104819Y-67905477D02*
X63104819Y-68143572D01*
X63104819Y-68143572D02*
X63057200Y-68238810D01*
X63057200Y-68238810D02*
X63009580Y-68286429D01*
X63009580Y-68286429D02*
X62914342Y-68334048D01*
X62914342Y-68334048D02*
X62819104Y-68334048D01*
X62819104Y-68334048D02*
X62723866Y-68286429D01*
X62723866Y-68286429D02*
X62676247Y-68238810D01*
X62676247Y-68238810D02*
X62628628Y-68143572D01*
X62628628Y-68143572D02*
X62581009Y-67953096D01*
X62581009Y-67953096D02*
X62533390Y-67857858D01*
X62533390Y-67857858D02*
X62485771Y-67810239D01*
X62485771Y-67810239D02*
X62390533Y-67762620D01*
X62390533Y-67762620D02*
X62295295Y-67762620D01*
X62295295Y-67762620D02*
X62200057Y-67810239D01*
X62200057Y-67810239D02*
X62152438Y-67857858D01*
X62152438Y-67857858D02*
X62104819Y-67953096D01*
X62104819Y-67953096D02*
X62104819Y-68191191D01*
X62104819Y-68191191D02*
X62152438Y-68334048D01*
X62104819Y-68619763D02*
X62104819Y-69191191D01*
X63104819Y-68905477D02*
X62104819Y-68905477D01*
X62581009Y-69524525D02*
X62581009Y-69857858D01*
X63104819Y-70000715D02*
X63104819Y-69524525D01*
X63104819Y-69524525D02*
X62104819Y-69524525D01*
X62104819Y-69524525D02*
X62104819Y-70000715D01*
X63104819Y-70429287D02*
X62104819Y-70429287D01*
X62104819Y-70429287D02*
X62104819Y-70810239D01*
X62104819Y-70810239D02*
X62152438Y-70905477D01*
X62152438Y-70905477D02*
X62200057Y-70953096D01*
X62200057Y-70953096D02*
X62295295Y-71000715D01*
X62295295Y-71000715D02*
X62438152Y-71000715D01*
X62438152Y-71000715D02*
X62533390Y-70953096D01*
X62533390Y-70953096D02*
X62581009Y-70905477D01*
X62581009Y-70905477D02*
X62628628Y-70810239D01*
X62628628Y-70810239D02*
X62628628Y-70429287D01*
X63057200Y-71381668D02*
X63104819Y-71524525D01*
X63104819Y-71524525D02*
X63104819Y-71762620D01*
X63104819Y-71762620D02*
X63057200Y-71857858D01*
X63057200Y-71857858D02*
X63009580Y-71905477D01*
X63009580Y-71905477D02*
X62914342Y-71953096D01*
X62914342Y-71953096D02*
X62819104Y-71953096D01*
X62819104Y-71953096D02*
X62723866Y-71905477D01*
X62723866Y-71905477D02*
X62676247Y-71857858D01*
X62676247Y-71857858D02*
X62628628Y-71762620D01*
X62628628Y-71762620D02*
X62581009Y-71572144D01*
X62581009Y-71572144D02*
X62533390Y-71476906D01*
X62533390Y-71476906D02*
X62485771Y-71429287D01*
X62485771Y-71429287D02*
X62390533Y-71381668D01*
X62390533Y-71381668D02*
X62295295Y-71381668D01*
X62295295Y-71381668D02*
X62200057Y-71429287D01*
X62200057Y-71429287D02*
X62152438Y-71476906D01*
X62152438Y-71476906D02*
X62104819Y-71572144D01*
X62104819Y-71572144D02*
X62104819Y-71810239D01*
X62104819Y-71810239D02*
X62152438Y-71953096D01*
X63104819Y-72381668D02*
X62104819Y-72381668D01*
X62152438Y-73381667D02*
X62104819Y-73286429D01*
X62104819Y-73286429D02*
X62104819Y-73143572D01*
X62104819Y-73143572D02*
X62152438Y-73000715D01*
X62152438Y-73000715D02*
X62247676Y-72905477D01*
X62247676Y-72905477D02*
X62342914Y-72857858D01*
X62342914Y-72857858D02*
X62533390Y-72810239D01*
X62533390Y-72810239D02*
X62676247Y-72810239D01*
X62676247Y-72810239D02*
X62866723Y-72857858D01*
X62866723Y-72857858D02*
X62961961Y-72905477D01*
X62961961Y-72905477D02*
X63057200Y-73000715D01*
X63057200Y-73000715D02*
X63104819Y-73143572D01*
X63104819Y-73143572D02*
X63104819Y-73238810D01*
X63104819Y-73238810D02*
X63057200Y-73381667D01*
X63057200Y-73381667D02*
X63009580Y-73429286D01*
X63009580Y-73429286D02*
X62676247Y-73429286D01*
X62676247Y-73429286D02*
X62676247Y-73238810D01*
X62200057Y-73810239D02*
X62152438Y-73857858D01*
X62152438Y-73857858D02*
X62104819Y-73953096D01*
X62104819Y-73953096D02*
X62104819Y-74191191D01*
X62104819Y-74191191D02*
X62152438Y-74286429D01*
X62152438Y-74286429D02*
X62200057Y-74334048D01*
X62200057Y-74334048D02*
X62295295Y-74381667D01*
X62295295Y-74381667D02*
X62390533Y-74381667D01*
X62390533Y-74381667D02*
X62533390Y-74334048D01*
X62533390Y-74334048D02*
X63104819Y-73762620D01*
X63104819Y-73762620D02*
X63104819Y-74381667D01*
X134016666Y-97659580D02*
X134064285Y-97707200D01*
X134064285Y-97707200D02*
X134207142Y-97754819D01*
X134207142Y-97754819D02*
X134302380Y-97754819D01*
X134302380Y-97754819D02*
X134445237Y-97707200D01*
X134445237Y-97707200D02*
X134540475Y-97611961D01*
X134540475Y-97611961D02*
X134588094Y-97516723D01*
X134588094Y-97516723D02*
X134635713Y-97326247D01*
X134635713Y-97326247D02*
X134635713Y-97183390D01*
X134635713Y-97183390D02*
X134588094Y-96992914D01*
X134588094Y-96992914D02*
X134540475Y-96897676D01*
X134540475Y-96897676D02*
X134445237Y-96802438D01*
X134445237Y-96802438D02*
X134302380Y-96754819D01*
X134302380Y-96754819D02*
X134207142Y-96754819D01*
X134207142Y-96754819D02*
X134064285Y-96802438D01*
X134064285Y-96802438D02*
X134016666Y-96850057D01*
X133635713Y-96850057D02*
X133588094Y-96802438D01*
X133588094Y-96802438D02*
X133492856Y-96754819D01*
X133492856Y-96754819D02*
X133254761Y-96754819D01*
X133254761Y-96754819D02*
X133159523Y-96802438D01*
X133159523Y-96802438D02*
X133111904Y-96850057D01*
X133111904Y-96850057D02*
X133064285Y-96945295D01*
X133064285Y-96945295D02*
X133064285Y-97040533D01*
X133064285Y-97040533D02*
X133111904Y-97183390D01*
X133111904Y-97183390D02*
X133683332Y-97754819D01*
X133683332Y-97754819D02*
X133064285Y-97754819D01*
X125344819Y-159076666D02*
X126059104Y-159076666D01*
X126059104Y-159076666D02*
X126201961Y-159029047D01*
X126201961Y-159029047D02*
X126297200Y-158933809D01*
X126297200Y-158933809D02*
X126344819Y-158790952D01*
X126344819Y-158790952D02*
X126344819Y-158695714D01*
X125678152Y-159981428D02*
X126344819Y-159981428D01*
X125297200Y-159743333D02*
X126011485Y-159505238D01*
X126011485Y-159505238D02*
X126011485Y-160124285D01*
X156256427Y-82689819D02*
X155923094Y-83689819D01*
X155923094Y-83689819D02*
X155589761Y-82689819D01*
X155256427Y-83689819D02*
X155256427Y-82689819D01*
X154780237Y-83689819D02*
X154780237Y-82689819D01*
X154780237Y-82689819D02*
X154208809Y-83689819D01*
X154208809Y-83689819D02*
X154208809Y-82689819D01*
X153208809Y-83689819D02*
X153780237Y-83689819D01*
X153494523Y-83689819D02*
X153494523Y-82689819D01*
X153494523Y-82689819D02*
X153589761Y-82832676D01*
X153589761Y-82832676D02*
X153684999Y-82927914D01*
X153684999Y-82927914D02*
X153780237Y-82975533D01*
D11*
%TO.C,J5*%
X124760000Y-124690000D02*
X124760000Y-137410000D01*
X122240000Y-124690000D02*
X122240000Y-125690000D01*
X120740000Y-124690000D02*
X124760000Y-124690000D01*
X124260000Y-125190000D02*
X123050000Y-125190000D01*
X123050000Y-125190000D02*
X123050000Y-124690000D01*
X122240000Y-125690000D02*
X120740000Y-125690000D01*
X122240000Y-136410000D02*
X120740000Y-136410000D01*
X124260000Y-136910000D02*
X124260000Y-125190000D01*
X123050000Y-136910000D02*
X124260000Y-136910000D01*
X124760000Y-137410000D02*
X120740000Y-137410000D01*
X123050000Y-137410000D02*
X123050000Y-136910000D01*
X122240000Y-137410000D02*
X122240000Y-136410000D01*
X120740000Y-137410000D02*
X120740000Y-124690000D01*
X122940000Y-137710000D02*
X120440000Y-137710000D01*
X120440000Y-137710000D02*
X120440000Y-135210000D01*
%TO.C,J3*%
X112850000Y-121140000D02*
X100250000Y-121140000D01*
X100250000Y-121140000D02*
X100250000Y-141940000D01*
X112850000Y-141440000D02*
X112850000Y-121140000D01*
X111900000Y-141440000D02*
X112850000Y-141440000D01*
X110450000Y-141440000D02*
X110150000Y-141990000D01*
X105050000Y-141440000D02*
X110450000Y-141440000D01*
X105300000Y-141940000D02*
X105050000Y-141440000D01*
X100250000Y-141940000D02*
X105300000Y-141940000D01*
X112200000Y-141990000D02*
X111900000Y-141440000D01*
X110150000Y-141990000D02*
X112200000Y-141990000D01*
%TO.C,C3*%
X129412500Y-117097500D02*
X130200000Y-117097500D01*
X129806250Y-117491250D02*
X129806250Y-116703750D01*
X130440000Y-112904437D02*
X130440000Y-114190000D01*
X130440000Y-112904437D02*
X131504437Y-111840000D01*
X130440000Y-117595563D02*
X130440000Y-116310000D01*
X130440000Y-117595563D02*
X131504437Y-118660000D01*
X131504437Y-111840000D02*
X137260000Y-111840000D01*
X131504437Y-118660000D02*
X137260000Y-118660000D01*
X137260000Y-111840000D02*
X137260000Y-114190000D01*
X137260000Y-118660000D02*
X137260000Y-116310000D01*
%TO.C,J2*%
X112840000Y-149750000D02*
X100240000Y-149750000D01*
X100240000Y-149750000D02*
X100240000Y-170550000D01*
X112840000Y-170050000D02*
X112840000Y-149750000D01*
X111890000Y-170050000D02*
X112840000Y-170050000D01*
X110440000Y-170050000D02*
X110140000Y-170600000D01*
X105040000Y-170050000D02*
X110440000Y-170050000D01*
X105290000Y-170550000D02*
X105040000Y-170050000D01*
X100240000Y-170550000D02*
X105290000Y-170550000D01*
X112190000Y-170600000D02*
X111890000Y-170050000D01*
X110140000Y-170600000D02*
X112190000Y-170600000D01*
%TO.C,LIMIT2*%
X71810000Y-93540000D02*
X71810000Y-96040000D01*
X69310000Y-93540000D02*
X71810000Y-93540000D01*
X71510000Y-93840000D02*
X71510000Y-104060000D01*
X70010000Y-93840000D02*
X70010000Y-94840000D01*
X69200000Y-93840000D02*
X69200000Y-94340000D01*
X67490000Y-93840000D02*
X71510000Y-93840000D01*
X69200000Y-94340000D02*
X67990000Y-94340000D01*
X67990000Y-94340000D02*
X67990000Y-103560000D01*
X70010000Y-94840000D02*
X71510000Y-94840000D01*
X70010000Y-103060000D02*
X71510000Y-103060000D01*
X69200000Y-103560000D02*
X69200000Y-104060000D01*
X67990000Y-103560000D02*
X69200000Y-103560000D01*
X71510000Y-104060000D02*
X67490000Y-104060000D01*
X70010000Y-104060000D02*
X70010000Y-103060000D01*
X67490000Y-104060000D02*
X67490000Y-93840000D01*
%TO.C,STEPSIGGND2*%
X76210816Y-127772144D02*
X76210816Y-143172144D01*
X63610816Y-127772144D02*
X76210816Y-127772144D01*
X76210816Y-143172144D02*
X75260816Y-143172144D01*
X75260816Y-143172144D02*
X75560816Y-143672144D01*
X73810816Y-143172144D02*
X68410816Y-143172144D01*
X68410816Y-143172144D02*
X68660816Y-143672144D01*
X75560816Y-143672144D02*
X73560816Y-143672144D01*
X73560816Y-143672144D02*
X73810816Y-143172144D01*
X68660816Y-143672144D02*
X63610816Y-143672144D01*
X63610816Y-143672144D02*
X63610816Y-127772144D01*
%TO.C,STEPSIG1*%
X76050000Y-45672144D02*
X76050000Y-61072144D01*
X63450000Y-45672144D02*
X76050000Y-45672144D01*
X76050000Y-61072144D02*
X75100000Y-61072144D01*
X75100000Y-61072144D02*
X75400000Y-61572144D01*
X73650000Y-61072144D02*
X68250000Y-61072144D01*
X68250000Y-61072144D02*
X68500000Y-61572144D01*
X75400000Y-61572144D02*
X73400000Y-61572144D01*
X73400000Y-61572144D02*
X73650000Y-61072144D01*
X68500000Y-61572144D02*
X63450000Y-61572144D01*
X63450000Y-61572144D02*
X63450000Y-45672144D01*
%TO.C,TL2575*%
X118700000Y-59675000D02*
X119650000Y-59675000D01*
X119650000Y-59675000D02*
X119650000Y-60775000D01*
X128150000Y-59675000D02*
X128150000Y-64800000D01*
X129100000Y-59675000D02*
X128150000Y-59675000D01*
X118700000Y-58175000D02*
X118700000Y-59675000D01*
X129100000Y-58175000D02*
X129100000Y-59675000D01*
%TO.C,J2*%
X82270000Y-33645000D02*
X82270000Y-34975000D01*
X82270000Y-36245000D02*
X82270000Y-43925000D01*
X83600000Y-33645000D02*
X82270000Y-33645000D01*
X84930000Y-36245000D02*
X82270000Y-36245000D01*
X84930000Y-36245000D02*
X84930000Y-43925000D01*
X84930000Y-43925000D02*
X82270000Y-43925000D01*
%TO.C,STEPGND1*%
X76200816Y-145552144D02*
X76200816Y-155902144D01*
X63600816Y-145552144D02*
X76200816Y-145552144D01*
X76200816Y-155902144D02*
X75250816Y-155902144D01*
X75250816Y-155902144D02*
X75500816Y-156402144D01*
X73800816Y-155902144D02*
X68400816Y-155902144D01*
X68400816Y-155902144D02*
X68700816Y-156402144D01*
X75500816Y-156402144D02*
X73600816Y-156402144D01*
X73600816Y-156402144D02*
X73550816Y-156402144D01*
X73550816Y-156402144D02*
X73800816Y-155902144D01*
X68700816Y-156402144D02*
X63600816Y-156402144D01*
X63600816Y-156402144D02*
X63600816Y-145552144D01*
%TO.C,STEPSIGGND1*%
X76210816Y-110022144D02*
X76210816Y-125422144D01*
X63610816Y-110022144D02*
X76210816Y-110022144D01*
X76210816Y-125422144D02*
X75260816Y-125422144D01*
X75260816Y-125422144D02*
X75560816Y-125922144D01*
X73810816Y-125422144D02*
X68410816Y-125422144D01*
X68410816Y-125422144D02*
X68660816Y-125922144D01*
X75560816Y-125922144D02*
X73560816Y-125922144D01*
X73560816Y-125922144D02*
X73810816Y-125422144D01*
X68660816Y-125922144D02*
X63610816Y-125922144D01*
X63610816Y-125922144D02*
X63610816Y-110022144D01*
%TO.C,LIMIT1*%
X67200000Y-92542856D02*
X67200000Y-90042856D01*
X69700000Y-92542856D02*
X67200000Y-92542856D01*
X67500000Y-92242856D02*
X67500000Y-82022856D01*
X69000000Y-92242856D02*
X69000000Y-91242856D01*
X69810000Y-92242856D02*
X69810000Y-91742856D01*
X71520000Y-92242856D02*
X67500000Y-92242856D01*
X69810000Y-91742856D02*
X71020000Y-91742856D01*
X71020000Y-91742856D02*
X71020000Y-82522856D01*
X69000000Y-91242856D02*
X67500000Y-91242856D01*
X69000000Y-83022856D02*
X67500000Y-83022856D01*
X69810000Y-82522856D02*
X69810000Y-82022856D01*
X71020000Y-82522856D02*
X69810000Y-82522856D01*
X67500000Y-82022856D02*
X71520000Y-82022856D01*
X69000000Y-82022856D02*
X69000000Y-83022856D01*
X71520000Y-82022856D02*
X71520000Y-92242856D01*
%TO.C,L1*%
X129700000Y-76300000D02*
X126700000Y-76300000D01*
X120100000Y-76300000D02*
X117100000Y-76300000D01*
X117100000Y-76300000D02*
X117100000Y-88900000D01*
X129700000Y-88900000D02*
X129700000Y-76300000D01*
X126700000Y-88900000D02*
X129700000Y-88900000D01*
X117100000Y-88900000D02*
X120100000Y-88900000D01*
%TO.C,STEPPWR1*%
X76050000Y-20175000D02*
X76050000Y-30525000D01*
X63450000Y-20175000D02*
X76050000Y-20175000D01*
X76050000Y-30525000D02*
X75100000Y-30525000D01*
X75100000Y-30525000D02*
X75350000Y-31025000D01*
X73650000Y-30525000D02*
X68250000Y-30525000D01*
X68250000Y-30525000D02*
X68550000Y-31025000D01*
X75350000Y-31025000D02*
X73450000Y-31025000D01*
X73450000Y-31025000D02*
X73400000Y-31025000D01*
X73400000Y-31025000D02*
X73650000Y-30525000D01*
X68550000Y-31025000D02*
X63450000Y-31025000D01*
X63450000Y-31025000D02*
X63450000Y-20175000D01*
%TO.C,D1*%
X135280000Y-68130000D02*
X145020000Y-68130000D01*
X135280000Y-69010000D02*
X135280000Y-68130000D01*
X135280000Y-72690000D02*
X135280000Y-73570000D01*
X135280000Y-73570000D02*
X145020000Y-73570000D01*
X136705000Y-73570000D02*
X136705000Y-68130000D01*
X136825000Y-73570000D02*
X136825000Y-68130000D01*
X136945000Y-73570000D02*
X136945000Y-68130000D01*
X145020000Y-68130000D02*
X145020000Y-69010000D01*
X145020000Y-73570000D02*
X145020000Y-72690000D01*
%TO.C,A1*%
X90390000Y-69547144D02*
X95470000Y-69547144D01*
X90390000Y-107777144D02*
X90390000Y-69547144D01*
X90390000Y-112987144D02*
X90390000Y-110317144D01*
X93060000Y-72217144D02*
X90390000Y-72217144D01*
X93060000Y-107777144D02*
X90390000Y-107777144D01*
X93060000Y-107777144D02*
X93060000Y-72217144D01*
X93060000Y-107777144D02*
X93060000Y-110317144D01*
X93060000Y-110317144D02*
X90390000Y-110317144D01*
X95470000Y-67007144D02*
X95470000Y-77427144D01*
X95470000Y-77427144D02*
X103350000Y-77427144D01*
X103350000Y-67007144D02*
X95470000Y-67007144D01*
X103350000Y-77427144D02*
X103350000Y-67007144D01*
X105760000Y-72217144D02*
X108430000Y-72217144D01*
X105760000Y-110317144D02*
X105760000Y-72217144D01*
X105760000Y-110317144D02*
X108430000Y-110317144D01*
X108430000Y-69547144D02*
X103350000Y-69547144D01*
X108430000Y-69547144D02*
X108430000Y-112987144D01*
X108430000Y-112987144D02*
X90390000Y-112987144D01*
%TO.C,JOYIN1*%
X104335000Y-50650000D02*
X114685000Y-50650000D01*
X104335000Y-63250000D02*
X104335000Y-50650000D01*
X114685000Y-50650000D02*
X114685000Y-51600000D01*
X114685000Y-51600000D02*
X115185000Y-51350000D01*
X114685000Y-53050000D02*
X114685000Y-58450000D01*
X114685000Y-58450000D02*
X115185000Y-58150000D01*
X115185000Y-51350000D02*
X115185000Y-53250000D01*
X115185000Y-53250000D02*
X115185000Y-53300000D01*
X115185000Y-53300000D02*
X114685000Y-53050000D01*
X115185000Y-58150000D02*
X115185000Y-63250000D01*
X115185000Y-63250000D02*
X104335000Y-63250000D01*
%TO.C,L2*%
X129900000Y-97600000D02*
X129900000Y-110600000D01*
X126300000Y-97600000D02*
X129900000Y-97600000D01*
X120500000Y-97600000D02*
X116900000Y-97600000D01*
X116900000Y-97600000D02*
X116900000Y-110600000D01*
X129900000Y-110600000D02*
X126300000Y-110600000D01*
X116900000Y-110600000D02*
X120500000Y-110600000D01*
%TO.C,C1*%
X136152500Y-48112500D02*
X136152500Y-48900000D01*
X135758750Y-48506250D02*
X136546250Y-48506250D01*
X140345563Y-49140000D02*
X139060000Y-49140000D01*
X140345563Y-49140000D02*
X141410000Y-50204437D01*
X135654437Y-49140000D02*
X136940000Y-49140000D01*
X135654437Y-49140000D02*
X134590000Y-50204437D01*
X141410000Y-50204437D02*
X141410000Y-55960000D01*
X134590000Y-50204437D02*
X134590000Y-55960000D01*
X141410000Y-55960000D02*
X139060000Y-55960000D01*
X134590000Y-55960000D02*
X136940000Y-55960000D01*
%TO.C,STEPSIG2*%
X63450000Y-79322144D02*
X63450000Y-63422144D01*
X68500000Y-79322144D02*
X63450000Y-79322144D01*
X73400000Y-79322144D02*
X73650000Y-78822144D01*
X75400000Y-79322144D02*
X73400000Y-79322144D01*
X68250000Y-78822144D02*
X68500000Y-79322144D01*
X73650000Y-78822144D02*
X68250000Y-78822144D01*
X75100000Y-78822144D02*
X75400000Y-79322144D01*
X76050000Y-78822144D02*
X75100000Y-78822144D01*
X63450000Y-63422144D02*
X76050000Y-63422144D01*
X76050000Y-63422144D02*
X76050000Y-78822144D01*
%TO.C,C2*%
X129412500Y-94797500D02*
X130200000Y-94797500D01*
X129806250Y-95191250D02*
X129806250Y-94403750D01*
X130440000Y-90604437D02*
X130440000Y-91890000D01*
X130440000Y-90604437D02*
X131504437Y-89540000D01*
X130440000Y-95295563D02*
X130440000Y-94010000D01*
X130440000Y-95295563D02*
X131504437Y-96360000D01*
X131504437Y-89540000D02*
X137260000Y-89540000D01*
X131504437Y-96360000D02*
X137260000Y-96360000D01*
X137260000Y-89540000D02*
X137260000Y-91890000D01*
X137260000Y-96360000D02*
X137260000Y-94010000D01*
%TO.C,J4*%
X120480000Y-166070000D02*
X120480000Y-163570000D01*
X122980000Y-166070000D02*
X120480000Y-166070000D01*
X120780000Y-165770000D02*
X120780000Y-153050000D01*
X122280000Y-165770000D02*
X122280000Y-164770000D01*
X123090000Y-165770000D02*
X123090000Y-165270000D01*
X124800000Y-165770000D02*
X120780000Y-165770000D01*
X123090000Y-165270000D02*
X124300000Y-165270000D01*
X124300000Y-165270000D02*
X124300000Y-153550000D01*
X122280000Y-164770000D02*
X120780000Y-164770000D01*
X122280000Y-154050000D02*
X120780000Y-154050000D01*
X123090000Y-153550000D02*
X123090000Y-153050000D01*
X124300000Y-153550000D02*
X123090000Y-153550000D01*
X120780000Y-153050000D02*
X124800000Y-153050000D01*
X122280000Y-153050000D02*
X122280000Y-154050000D01*
X124800000Y-153050000D02*
X124800000Y-165770000D01*
%TO.C,VIN1*%
X144565000Y-83925000D02*
X155415000Y-83925000D01*
X144565000Y-89025000D02*
X144565000Y-83925000D01*
X144565000Y-93875000D02*
X145065000Y-94125000D01*
X144565000Y-93925000D02*
X144565000Y-93875000D01*
X144565000Y-95825000D02*
X144565000Y-93925000D01*
X145065000Y-88725000D02*
X144565000Y-89025000D01*
X145065000Y-94125000D02*
X145065000Y-88725000D01*
X145065000Y-95575000D02*
X144565000Y-95825000D01*
X145065000Y-96525000D02*
X145065000Y-95575000D01*
X155415000Y-83925000D02*
X155415000Y-96525000D01*
X155415000Y-96525000D02*
X145065000Y-96525000D01*
%TD*%
M02*
