%TF.GenerationSoftware,KiCad,Pcbnew,7.0.7-7.0.7~ubuntu22.04.1*%
%TF.CreationDate,2023-09-15T11:32:12-06:00*%
%TF.ProjectId,stepper_microscope_stage,73746570-7065-4725-9f6d-6963726f7363,1.1*%
%TF.SameCoordinates,Original*%
%TF.FileFunction,Copper,L1,Top*%
%TF.FilePolarity,Positive*%
%FSLAX46Y46*%
G04 Gerber Fmt 4.6, Leading zero omitted, Abs format (unit mm)*
G04 Created by KiCad (PCBNEW 7.0.7-7.0.7~ubuntu22.04.1) date 2023-09-15 11:32:12*
%MOMM*%
%LPD*%
G01*
G04 APERTURE LIST*
G04 Aperture macros list*
%AMRoundRect*
0 Rectangle with rounded corners*
0 $1 Rounding radius*
0 $2 $3 $4 $5 $6 $7 $8 $9 X,Y pos of 4 corners*
0 Add a 4 corners polygon primitive as box body*
4,1,4,$2,$3,$4,$5,$6,$7,$8,$9,$2,$3,0*
0 Add four circle primitives for the rounded corners*
1,1,$1+$1,$2,$3*
1,1,$1+$1,$4,$5*
1,1,$1+$1,$6,$7*
1,1,$1+$1,$8,$9*
0 Add four rect primitives between the rounded corners*
20,1,$1+$1,$2,$3,$4,$5,0*
20,1,$1+$1,$4,$5,$6,$7,0*
20,1,$1+$1,$6,$7,$8,$9,0*
20,1,$1+$1,$8,$9,$2,$3,0*%
G04 Aperture macros list end*
%TA.AperFunction,ComponentPad*%
%ADD10C,8.600000*%
%TD*%
%TA.AperFunction,WasherPad*%
%ADD11C,3.500000*%
%TD*%
%TA.AperFunction,ComponentPad*%
%ADD12O,4.375000X2.625000*%
%TD*%
%TA.AperFunction,ComponentPad*%
%ADD13R,1.980000X3.960000*%
%TD*%
%TA.AperFunction,ComponentPad*%
%ADD14O,1.980000X3.960000*%
%TD*%
%TA.AperFunction,ComponentPad*%
%ADD15RoundRect,0.250000X-0.625000X0.350000X-0.625000X-0.350000X0.625000X-0.350000X0.625000X0.350000X0*%
%TD*%
%TA.AperFunction,ComponentPad*%
%ADD16O,1.750000X1.200000*%
%TD*%
%TA.AperFunction,ComponentPad*%
%ADD17R,1.350000X1.350000*%
%TD*%
%TA.AperFunction,ComponentPad*%
%ADD18O,1.350000X1.350000*%
%TD*%
%TA.AperFunction,ComponentPad*%
%ADD19RoundRect,0.250000X0.350000X0.625000X-0.350000X0.625000X-0.350000X-0.625000X0.350000X-0.625000X0*%
%TD*%
%TA.AperFunction,ComponentPad*%
%ADD20O,1.200000X1.750000*%
%TD*%
%TA.AperFunction,ComponentPad*%
%ADD21R,3.960000X1.980000*%
%TD*%
%TA.AperFunction,ComponentPad*%
%ADD22O,3.960000X1.980000*%
%TD*%
%TA.AperFunction,ComponentPad*%
%ADD23R,3.200000X3.200000*%
%TD*%
%TA.AperFunction,ComponentPad*%
%ADD24O,3.200000X3.200000*%
%TD*%
%TA.AperFunction,ComponentPad*%
%ADD25R,1.600000X1.600000*%
%TD*%
%TA.AperFunction,ComponentPad*%
%ADD26O,1.600000X1.600000*%
%TD*%
G04 APERTURE END LIST*
D10*
%TO.P,H4,1*%
%TO.N,N/C*%
X60750000Y-166250000D03*
%TD*%
%TO.P,H3,1*%
%TO.N,N/C*%
X143500000Y-141250000D03*
%TD*%
%TO.P,H2,1*%
%TO.N,N/C*%
X94500000Y-52250000D03*
%TD*%
%TO.P,H1,1*%
%TO.N,N/C*%
X185750000Y-91250000D03*
%TD*%
D11*
%TO.P,SW1,*%
%TO.N,*%
X172500000Y-49500000D03*
X172500000Y-33500000D03*
D12*
%TO.P,SW1,1,A*%
%TO.N,+24V*%
X172500000Y-45500000D03*
%TO.P,SW1,2,B*%
X172500000Y-41500000D03*
%TO.P,SW1,3,C*%
%TO.N,unconnected-(SW1-C-Pad3)*%
X172500000Y-37500000D03*
%TD*%
D13*
%TO.P,J2,1,Pin_1*%
%TO.N,Net-(J2-Pin_1)*%
X110750000Y-147860000D03*
D14*
%TO.P,J2,2,Pin_2*%
%TO.N,Net-(J2-Pin_2)*%
X115750000Y-147860000D03*
%TO.P,J2,3,Pin_3*%
%TO.N,Net-(J2-Pin_3)*%
X120750000Y-147860000D03*
%TO.P,J2,4,Pin_4*%
%TO.N,Net-(J2-Pin_4)*%
X125750000Y-147860000D03*
%TD*%
D15*
%TO.P,LIMIT2,1,Pin_1*%
%TO.N,+5V*%
X69350816Y-96717144D03*
D16*
%TO.P,LIMIT2,2,Pin_2*%
%TO.N,Net-(A1-D3)*%
X69350816Y-98717144D03*
%TO.P,LIMIT2,3,Pin_3*%
%TO.N,GND*%
X69350816Y-100717144D03*
%TD*%
D17*
%TO.P,J1,1,Pin_1*%
%TO.N,GND*%
X130500000Y-118822144D03*
D18*
%TO.P,J1,2,Pin_2*%
%TO.N,+5V*%
X130500000Y-116822144D03*
%TO.P,J1,3,Pin_3*%
%TO.N,Net-(A1-A4)*%
X130500000Y-114822144D03*
%TO.P,J1,4,Pin_4*%
%TO.N,Net-(A1-A5)*%
X130500000Y-112822144D03*
%TD*%
D19*
%TO.P,J5,1,Pin_1*%
%TO.N,Net-(J3-Pin_4)*%
X99260000Y-130810000D03*
D20*
%TO.P,J5,2,Pin_2*%
%TO.N,Net-(J3-Pin_3)*%
X97260000Y-130810000D03*
%TO.P,J5,3,Pin_3*%
%TO.N,Net-(J3-Pin_2)*%
X95260000Y-130810000D03*
%TO.P,J5,4,Pin_4*%
%TO.N,Net-(J3-Pin_1)*%
X93260000Y-130810000D03*
%TD*%
D21*
%TO.P,STEPSIGGND2,1,Pin_1*%
%TO.N,GND*%
X69910816Y-130422144D03*
D22*
%TO.P,STEPSIGGND2,2,Pin_2*%
X69910816Y-135422144D03*
%TO.P,STEPSIGGND2,3,Pin_3*%
X69910816Y-140422144D03*
%TD*%
D21*
%TO.P,STEPSIG1,1,Pin_1*%
%TO.N,Net-(A1-D12)*%
X69750000Y-48322144D03*
D22*
%TO.P,STEPSIG1,2,Pin_2*%
%TO.N,Net-(A1-D11)*%
X69750000Y-53322144D03*
%TO.P,STEPSIG1,3,Pin_3*%
%TO.N,Net-(A1-D10)*%
X69750000Y-58322144D03*
%TD*%
D21*
%TO.P,STEPGND1,1,Pin_1*%
%TO.N,GND*%
X69900816Y-148202144D03*
D22*
%TO.P,STEPGND1,2,Pin_2*%
X69900816Y-153202144D03*
%TD*%
D21*
%TO.P,STEPSIGGND1,1,Pin_1*%
%TO.N,GND*%
X69910816Y-112672144D03*
D22*
%TO.P,STEPSIGGND1,2,Pin_2*%
X69910816Y-117672144D03*
%TO.P,STEPSIGGND1,3,Pin_3*%
X69910816Y-122672144D03*
%TD*%
D15*
%TO.P,LIMIT1,1,Pin_1*%
%TO.N,+5V*%
X69190000Y-84617144D03*
D16*
%TO.P,LIMIT1,2,Pin_2*%
%TO.N,Net-(A1-D4)*%
X69190000Y-86617144D03*
%TO.P,LIMIT1,3,Pin_3*%
%TO.N,GND*%
X69190000Y-88617144D03*
%TD*%
D21*
%TO.P,STEPPWR1,1,Pin_1*%
%TO.N,+24V*%
X69740000Y-35352144D03*
D22*
%TO.P,STEPPWR1,2,Pin_2*%
X69740000Y-40352144D03*
%TD*%
D23*
%TO.P,D1,1,K*%
%TO.N,Net-(D1-K)*%
X160150000Y-82322144D03*
D24*
%TO.P,D1,2,A*%
%TO.N,GND*%
X172850000Y-82322144D03*
%TD*%
D25*
%TO.P,A1,1,D1/TX*%
%TO.N,unconnected-(A1-D1{slash}TX-Pad1)*%
X99640000Y-114872144D03*
D26*
%TO.P,A1,2,D0/RX*%
%TO.N,unconnected-(A1-D0{slash}RX-Pad2)*%
X99640000Y-112332144D03*
%TO.P,A1,3,~{RESET}*%
%TO.N,unconnected-(A1-~{RESET}-Pad3)*%
X99640000Y-109792144D03*
%TO.P,A1,4,GND*%
%TO.N,GND*%
X99640000Y-107252144D03*
%TO.P,A1,5,D2*%
%TO.N,unconnected-(A1-D2-Pad5)*%
X99640000Y-104712144D03*
%TO.P,A1,6,D3*%
%TO.N,Net-(A1-D3)*%
X99640000Y-102172144D03*
%TO.P,A1,7,D4*%
%TO.N,Net-(A1-D4)*%
X99640000Y-99632144D03*
%TO.P,A1,8,D5*%
%TO.N,unconnected-(A1-D5-Pad8)*%
X99640000Y-97092144D03*
%TO.P,A1,9,D6*%
%TO.N,unconnected-(A1-D6-Pad9)*%
X99640000Y-94552144D03*
%TO.P,A1,10,D7*%
%TO.N,Net-(A1-D7)*%
X99640000Y-92012144D03*
%TO.P,A1,11,D8*%
%TO.N,Net-(A1-D8)*%
X99640000Y-89472144D03*
%TO.P,A1,12,D9*%
%TO.N,Net-(A1-D9)*%
X99640000Y-86932144D03*
%TO.P,A1,13,D10*%
%TO.N,Net-(A1-D10)*%
X99640000Y-84392144D03*
%TO.P,A1,14,D11*%
%TO.N,Net-(A1-D11)*%
X99640000Y-81852144D03*
%TO.P,A1,15,D12*%
%TO.N,Net-(A1-D12)*%
X99640000Y-79312144D03*
%TO.P,A1,16,D13*%
%TO.N,unconnected-(A1-D13-Pad16)*%
X114880000Y-79312144D03*
%TO.P,A1,17,3V3*%
%TO.N,unconnected-(A1-3V3-Pad17)*%
X114880000Y-81852144D03*
%TO.P,A1,18,AREF*%
%TO.N,unconnected-(A1-AREF-Pad18)*%
X114880000Y-84392144D03*
%TO.P,A1,19,A0*%
%TO.N,Net-(A1-A0)*%
X114880000Y-86932144D03*
%TO.P,A1,20,A1*%
%TO.N,Net-(A1-A1)*%
X114880000Y-89472144D03*
%TO.P,A1,21,A2*%
%TO.N,unconnected-(A1-A2-Pad21)*%
X114880000Y-92012144D03*
%TO.P,A1,22,A3*%
%TO.N,unconnected-(A1-A3-Pad22)*%
X114880000Y-94552144D03*
%TO.P,A1,23,A4*%
%TO.N,Net-(A1-A4)*%
X114880000Y-97092144D03*
%TO.P,A1,24,A5*%
%TO.N,Net-(A1-A5)*%
X114880000Y-99632144D03*
%TO.P,A1,25,A6*%
%TO.N,unconnected-(A1-A6-Pad25)*%
X114880000Y-102172144D03*
%TO.P,A1,26,A7*%
%TO.N,unconnected-(A1-A7-Pad26)*%
X114880000Y-104712144D03*
%TO.P,A1,27,+5V*%
%TO.N,unconnected-(A1-+5V-Pad27)*%
X114880000Y-107252144D03*
%TO.P,A1,28,~{RESET}*%
%TO.N,unconnected-(A1-~{RESET}-Pad28)*%
X114880000Y-109792144D03*
%TO.P,A1,29,GND*%
%TO.N,unconnected-(A1-GND-Pad29)*%
X114880000Y-112332144D03*
%TO.P,A1,30,VIN*%
%TO.N,+5V*%
X114880000Y-114872144D03*
%TD*%
D13*
%TO.P,JOYIN1,1,Pin_1*%
%TO.N,Net-(A1-A0)*%
X126220000Y-77072144D03*
D14*
%TO.P,JOYIN1,2,Pin_2*%
%TO.N,Net-(A1-A1)*%
X131220000Y-77072144D03*
%TD*%
D21*
%TO.P,STEPSIG2,1,Pin_1*%
%TO.N,Net-(A1-D9)*%
X69750000Y-66072144D03*
D22*
%TO.P,STEPSIG2,2,Pin_2*%
%TO.N,Net-(A1-D8)*%
X69750000Y-71072144D03*
%TO.P,STEPSIG2,3,Pin_3*%
%TO.N,Net-(A1-D7)*%
X69750000Y-76072144D03*
%TD*%
D13*
%TO.P,J3,1,Pin_1*%
%TO.N,Net-(J3-Pin_1)*%
X88500000Y-147860000D03*
D14*
%TO.P,J3,2,Pin_2*%
%TO.N,Net-(J3-Pin_2)*%
X93500000Y-147860000D03*
%TO.P,J3,3,Pin_3*%
%TO.N,Net-(J3-Pin_3)*%
X98500000Y-147860000D03*
%TO.P,J3,4,Pin_4*%
%TO.N,Net-(J3-Pin_4)*%
X103500000Y-147860000D03*
%TD*%
D19*
%TO.P,J4,1,Pin_1*%
%TO.N,Net-(J2-Pin_4)*%
X121510000Y-131310000D03*
D20*
%TO.P,J4,2,Pin_2*%
%TO.N,Net-(J2-Pin_3)*%
X119510000Y-131310000D03*
%TO.P,J4,3,Pin_3*%
%TO.N,Net-(J2-Pin_2)*%
X117510000Y-131310000D03*
%TO.P,J4,4,Pin_4*%
%TO.N,Net-(J2-Pin_1)*%
X115510000Y-131310000D03*
%TD*%
D13*
%TO.P,VIN1,1,Pin_1*%
%TO.N,+24V*%
X188250000Y-58572144D03*
D14*
%TO.P,VIN1,2,Pin_2*%
%TO.N,GND*%
X193250000Y-58572144D03*
%TD*%
M02*
