M48
; DRILL file {KiCad 7.0.7-7.0.7~ubuntu22.04.1} date Fri 15 Sep 2023 11:31:54 AM MDT
; FORMAT={-:-/ absolute / inch / decimal}
; #@! TF.CreationDate,2023-09-15T11:31:54-06:00
; #@! TF.GenerationSoftware,Kicad,Pcbnew,7.0.7-7.0.7~ubuntu22.04.1
; #@! TF.FileFunction,Plated,1,2,PTH
FMAT,2
INCH
; #@! TA.AperFunction,Plated,PTH,ComponentDrill
T1C0.0295
; #@! TA.AperFunction,Plated,PTH,ComponentDrill
T2C0.0315
; #@! TA.AperFunction,Plated,PTH,ComponentDrill
T3C0.0394
; #@! TA.AperFunction,Plated,PTH,ComponentDrill
T4C0.0520
; #@! TA.AperFunction,Plated,PTH,ComponentDrill
T5C0.0630
; #@! TA.AperFunction,Plated,PTH,ComponentDrill
T6C0.0689
; #@! TA.AperFunction,Plated,PTH,ComponentDrill
T7C0.1693
%
G90
G05
T1
X2.724Y-3.3314
X2.724Y-3.4101
X2.724Y-3.4889
X2.7303Y-3.8078
X2.7303Y-3.8865
X2.7303Y-3.9652
X3.6717Y-5.15
X3.7504Y-5.15
X3.8291Y-5.15
X3.9079Y-5.15
X4.5476Y-5.1697
X4.6264Y-5.1697
X4.7051Y-5.1697
X4.7839Y-5.1697
T2
X5.1378Y-4.4418
X5.1378Y-4.5206
X5.1378Y-4.5993
X5.1378Y-4.678
T3
X3.9228Y-3.1225
X3.9228Y-3.2225
X3.9228Y-3.3225
X3.9228Y-3.4225
X3.9228Y-3.5225
X3.9228Y-3.6225
X3.9228Y-3.7225
X3.9228Y-3.8225
X3.9228Y-3.9225
X3.9228Y-4.0225
X3.9228Y-4.1225
X3.9228Y-4.2225
X3.9228Y-4.3225
X3.9228Y-4.4225
X3.9228Y-4.5225
X4.5228Y-3.1225
X4.5228Y-3.2225
X4.5228Y-3.3225
X4.5228Y-3.4225
X4.5228Y-3.5225
X4.5228Y-3.6225
X4.5228Y-3.7225
X4.5228Y-3.8225
X4.5228Y-3.9225
X4.5228Y-4.0225
X4.5228Y-4.1225
X4.5228Y-4.2225
X4.5228Y-4.3225
X4.5228Y-4.4225
X4.5228Y-4.5225
T4
X2.7457Y-1.3918
X2.7457Y-1.5887
X2.7461Y-1.9024
X2.7461Y-2.0993
X2.7461Y-2.2961
X2.7461Y-2.6013
X2.7461Y-2.7981
X2.7461Y-2.995
X2.752Y-5.8347
X2.752Y-6.0316
X2.7524Y-4.4359
X2.7524Y-4.6328
X2.7524Y-4.8296
X2.7524Y-5.1347
X2.7524Y-5.3316
X2.7524Y-5.5284
X3.4843Y-5.8213
X3.6811Y-5.8213
X3.878Y-5.8213
X4.0748Y-5.8213
X4.3602Y-5.8213
X4.5571Y-5.8213
X4.7539Y-5.8213
X4.9508Y-5.8213
X4.9693Y-3.0343
X5.1661Y-3.0343
X7.4114Y-2.306
X7.6083Y-2.306
T5
X6.3051Y-3.241
X6.8051Y-3.241
T6
X6.7913Y-1.4764
X6.7913Y-1.6339
X6.7913Y-1.7913
T7
X2.3917Y-6.5453
X3.7205Y-2.0571
X5.6496Y-5.561
X7.313Y-3.5925
T0
M30
