%TF.GenerationSoftware,KiCad,Pcbnew,7.0.7-7.0.7~ubuntu22.04.1*%
%TF.CreationDate,2023-09-15T11:32:12-06:00*%
%TF.ProjectId,stepper_microscope_stage,73746570-7065-4725-9f6d-6963726f7363,1.1*%
%TF.SameCoordinates,Original*%
%TF.FileFunction,Soldermask,Bot*%
%TF.FilePolarity,Negative*%
%FSLAX46Y46*%
G04 Gerber Fmt 4.6, Leading zero omitted, Abs format (unit mm)*
G04 Created by KiCad (PCBNEW 7.0.7-7.0.7~ubuntu22.04.1) date 2023-09-15 11:32:12*
%MOMM*%
%LPD*%
G01*
G04 APERTURE LIST*
G04 Aperture macros list*
%AMRoundRect*
0 Rectangle with rounded corners*
0 $1 Rounding radius*
0 $2 $3 $4 $5 $6 $7 $8 $9 X,Y pos of 4 corners*
0 Add a 4 corners polygon primitive as box body*
4,1,4,$2,$3,$4,$5,$6,$7,$8,$9,$2,$3,0*
0 Add four circle primitives for the rounded corners*
1,1,$1+$1,$2,$3*
1,1,$1+$1,$4,$5*
1,1,$1+$1,$6,$7*
1,1,$1+$1,$8,$9*
0 Add four rect primitives between the rounded corners*
20,1,$1+$1,$2,$3,$4,$5,0*
20,1,$1+$1,$4,$5,$6,$7,0*
20,1,$1+$1,$6,$7,$8,$9,0*
20,1,$1+$1,$8,$9,$2,$3,0*%
G04 Aperture macros list end*
%ADD10C,8.600000*%
%ADD11C,3.500000*%
%ADD12O,4.375000X2.625000*%
%ADD13RoundRect,0.250000X-1.500000X-0.550000X1.500000X-0.550000X1.500000X0.550000X-1.500000X0.550000X0*%
%ADD14R,1.980000X3.960000*%
%ADD15O,1.980000X3.960000*%
%ADD16RoundRect,0.250000X-0.625000X0.350000X-0.625000X-0.350000X0.625000X-0.350000X0.625000X0.350000X0*%
%ADD17O,1.750000X1.200000*%
%ADD18R,1.350000X1.350000*%
%ADD19O,1.350000X1.350000*%
%ADD20RoundRect,0.250000X0.350000X0.625000X-0.350000X0.625000X-0.350000X-0.625000X0.350000X-0.625000X0*%
%ADD21O,1.200000X1.750000*%
%ADD22R,3.960000X1.980000*%
%ADD23O,3.960000X1.980000*%
%ADD24RoundRect,0.250000X0.300000X-2.050000X0.300000X2.050000X-0.300000X2.050000X-0.300000X-2.050000X0*%
%ADD25RoundRect,0.250002X5.149998X-4.449998X5.149998X4.449998X-5.149998X4.449998X-5.149998X-4.449998X0*%
%ADD26R,5.400000X2.900000*%
%ADD27R,3.200000X3.200000*%
%ADD28O,3.200000X3.200000*%
%ADD29R,1.600000X1.600000*%
%ADD30O,1.600000X1.600000*%
%ADD31R,5.000000X3.850000*%
%ADD32RoundRect,0.250000X-0.550000X1.500000X-0.550000X-1.500000X0.550000X-1.500000X0.550000X1.500000X0*%
G04 APERTURE END LIST*
D10*
%TO.C,H4*%
X60750000Y-166250000D03*
%TD*%
%TO.C,H3*%
X143500000Y-141250000D03*
%TD*%
%TO.C,H2*%
X94500000Y-52250000D03*
%TD*%
%TO.C,H1*%
X185750000Y-91250000D03*
%TD*%
D11*
%TO.C,SW1*%
X172500000Y-49500000D03*
X172500000Y-33500000D03*
D12*
X172500000Y-45500000D03*
X172500000Y-41500000D03*
X172500000Y-37500000D03*
%TD*%
D13*
%TO.C,C3*%
X157500000Y-126722144D03*
X162900000Y-126722144D03*
%TD*%
D14*
%TO.C,J2*%
X110750000Y-147860000D03*
D15*
X115750000Y-147860000D03*
X120750000Y-147860000D03*
X125750000Y-147860000D03*
%TD*%
D16*
%TO.C,LIMIT2*%
X69350816Y-96717144D03*
D17*
X69350816Y-98717144D03*
X69350816Y-100717144D03*
%TD*%
D18*
%TO.C,J1*%
X130500000Y-118822144D03*
D19*
X130500000Y-116822144D03*
X130500000Y-114822144D03*
X130500000Y-112822144D03*
%TD*%
D20*
%TO.C,J5*%
X99260000Y-130810000D03*
D21*
X97260000Y-130810000D03*
X95260000Y-130810000D03*
X93260000Y-130810000D03*
%TD*%
D22*
%TO.C,STEPSIGGND2*%
X69910816Y-130422144D03*
D23*
X69910816Y-135422144D03*
X69910816Y-140422144D03*
%TD*%
D22*
%TO.C,STEPSIG1*%
X69750000Y-48322144D03*
D23*
X69750000Y-53322144D03*
X69750000Y-58322144D03*
%TD*%
D24*
%TO.C,TL2575*%
X153650000Y-73972144D03*
X151950000Y-73972144D03*
X150250000Y-73972144D03*
D25*
X150250000Y-64822144D03*
D24*
X148550000Y-73972144D03*
X146850000Y-73972144D03*
%TD*%
D22*
%TO.C,STEPGND1*%
X69900816Y-148202144D03*
D23*
X69900816Y-153202144D03*
%TD*%
D22*
%TO.C,STEPSIGGND1*%
X69910816Y-112672144D03*
D23*
X69910816Y-117672144D03*
X69910816Y-122672144D03*
%TD*%
D16*
%TO.C,LIMIT1*%
X69190000Y-84617144D03*
D17*
X69190000Y-86617144D03*
X69190000Y-88617144D03*
%TD*%
D26*
%TO.C,L1*%
X149750000Y-89122144D03*
X149750000Y-99022144D03*
%TD*%
D22*
%TO.C,STEPPWR1*%
X69740000Y-35352144D03*
D23*
X69740000Y-40352144D03*
%TD*%
D27*
%TO.C,D1*%
X160150000Y-82322144D03*
D28*
X172850000Y-82322144D03*
%TD*%
D29*
%TO.C,A1*%
X99640000Y-114872144D03*
D30*
X99640000Y-112332144D03*
X99640000Y-109792144D03*
X99640000Y-107252144D03*
X99640000Y-104712144D03*
X99640000Y-102172144D03*
X99640000Y-99632144D03*
X99640000Y-97092144D03*
X99640000Y-94552144D03*
X99640000Y-92012144D03*
X99640000Y-89472144D03*
X99640000Y-86932144D03*
X99640000Y-84392144D03*
X99640000Y-81852144D03*
X99640000Y-79312144D03*
X114880000Y-79312144D03*
X114880000Y-81852144D03*
X114880000Y-84392144D03*
X114880000Y-86932144D03*
X114880000Y-89472144D03*
X114880000Y-92012144D03*
X114880000Y-94552144D03*
X114880000Y-97092144D03*
X114880000Y-99632144D03*
X114880000Y-102172144D03*
X114880000Y-104712144D03*
X114880000Y-107252144D03*
X114880000Y-109792144D03*
X114880000Y-112332144D03*
X114880000Y-114872144D03*
%TD*%
D14*
%TO.C,JOYIN1*%
X126220000Y-77072144D03*
D15*
X131220000Y-77072144D03*
%TD*%
D31*
%TO.C,L2*%
X149750000Y-110497144D03*
X149750000Y-120647144D03*
%TD*%
D32*
%TO.C,C1*%
X167250000Y-60372144D03*
X167250000Y-65772144D03*
%TD*%
D22*
%TO.C,STEPSIG2*%
X69750000Y-66072144D03*
D23*
X69750000Y-71072144D03*
X69750000Y-76072144D03*
%TD*%
D14*
%TO.C,J3*%
X88500000Y-147860000D03*
D15*
X93500000Y-147860000D03*
X98500000Y-147860000D03*
X103500000Y-147860000D03*
%TD*%
D13*
%TO.C,C2*%
X157500000Y-104422144D03*
X162900000Y-104422144D03*
%TD*%
D20*
%TO.C,J4*%
X121510000Y-131310000D03*
D21*
X119510000Y-131310000D03*
X117510000Y-131310000D03*
X115510000Y-131310000D03*
%TD*%
D14*
%TO.C,VIN1*%
X188250000Y-58572144D03*
D15*
X193250000Y-58572144D03*
%TD*%
M02*
